<?xml version="1.0" encoding="UTF-8"?>
<svg xmlns="http://www.w3.org/2000/svg" xmlns:xlink="http://www.w3.org/1999/xlink" version="1.1" id="Layer_1" x="0px" y="0px" viewBox="0 0 24 24" style="enable-background:new 0 0 24 24;" xml:space="preserve">
<g>
	<path style="fill:#F44336;" d="M22.517,16.886c-0.813-1.725-2.018-4.264-3.243-6.846c-1.364-2.877-2.754-5.808-3.66-7.73   C14.954,0.907,13.535,0,12,0S9.046,0.907,8.385,2.31c-0.92,1.954-2.342,4.952-3.729,7.875c-1.201,2.532-2.376,5.008-3.175,6.702   C1.162,17.566,1,18.277,1,19c0,2.757,2.243,5,5,5c1.873,0,4.114-1.343,6-3.234C13.886,22.657,16.127,24,18,24c2.757,0,5-2.243,5-5   C23,18.276,22.837,17.565,22.517,16.886z M9,13c0-1.654,1.346-3,3-3s3,1.346,3,3c0,2.002-1.293,4.356-3,6.277   C10.293,17.356,9,15.002,9,13z M18,23c-1.507,0-3.543-1.235-5.299-2.981C14.606,17.864,16,15.201,16,13c0-2.206-1.794-4-4-4   s-4,1.794-4,4c0,2.201,1.394,4.864,3.299,7.019C9.543,21.765,7.507,23,6,23c-2.206,0-4-1.794-4-4c0-0.575,0.13-1.143,0.387-1.688   c0.798-1.692,1.973-4.168,3.173-6.7C6.947,7.689,8.369,4.69,9.29,2.735C9.786,1.681,10.85,1,12,1s2.214,0.681,2.71,1.735   c0.905,1.923,2.296,4.855,3.661,7.732c1.225,2.582,2.428,5.12,3.242,6.845C21.87,17.857,22,18.425,22,19C22,21.206,20.206,23,18,23   z"/>
	<linearGradient id="SVGID_1_" gradientUnits="userSpaceOnUse" x1="4.6748" y1="10.0385" x2="23.5838" y2="18.8558">
		<stop offset="0" style="stop-color:#FFFFFF;stop-opacity:0.2"/>
		<stop offset="1" style="stop-color:#FFFFFF;stop-opacity:0"/>
	</linearGradient>
	<path style="fill:url(#SVGID_1_);" d="M22.517,16.886c-0.813-1.725-2.018-4.264-3.243-6.846c-1.364-2.877-2.754-5.808-3.66-7.73   C14.954,0.907,13.535,0,12,0S9.046,0.907,8.385,2.31c-0.92,1.954-2.342,4.952-3.729,7.875c-1.201,2.532-2.376,5.008-3.175,6.702   C1.162,17.566,1,18.277,1,19c0,2.757,2.243,5,5,5c1.873,0,4.114-1.343,6-3.234C13.886,22.657,16.127,24,18,24c2.757,0,5-2.243,5-5   C23,18.276,22.837,17.565,22.517,16.886z M9,13c0-1.654,1.346-3,3-3s3,1.346,3,3c0,2.002-1.293,4.356-3,6.277   C10.293,17.356,9,15.002,9,13z M18,23c-1.507,0-3.543-1.235-5.299-2.981C14.606,17.864,16,15.201,16,13c0-2.206-1.794-4-4-4   s-4,1.794-4,4c0,2.201,1.394,4.864,3.299,7.019C9.543,21.765,7.507,23,6,23c-2.206,0-4-1.794-4-4c0-0.575,0.13-1.143,0.387-1.688   c0.798-1.692,1.973-4.168,3.173-6.7C6.947,7.689,8.369,4.69,9.29,2.735C9.786,1.681,10.85,1,12,1s2.214,0.681,2.71,1.735   c0.905,1.923,2.296,4.855,3.661,7.732c1.225,2.582,2.428,5.12,3.242,6.845C21.87,17.857,22,18.425,22,19C22,21.206,20.206,23,18,23   z"/>
</g>
<g>
</g>
<g>
</g>
<g>
</g>
<g>
</g>
<g>
</g>
<g>
</g>
<g>
</g>
<g>
</g>
<g>
</g>
<g>
</g>
<g>
</g>
<g>
</g>
<g>
</g>
<g>
</g>
<g>
</g>

	<metadata>
		<rdf:RDF xmlns:rdf="http://www.w3.org/1999/02/22-rdf-syntax-ns#" xmlns:rdfs="http://www.w3.org/2000/01/rdf-schema#" xmlns:dc="http://purl.org/dc/elements/1.1/">
			<rdf:Description about="https://iconscout.com/legal#licenses" dc:title="social; media; social media; logo; airbnb" dc:description="social; media; social media; logo; airbnb" dc:publisher="Iconscout" dc:date="2017-03-22" dc:format="image/svg+xml" dc:language="en">
				<dc:creator>
					<rdf:Bag>
						<rdf:li>Alpár - Etele Méder</rdf:li>
					</rdf:Bag>
				</dc:creator>
			</rdf:Description>
		</rdf:RDF>
    </metadata></svg>
