<?xml version="1.0" encoding="UTF-8"?>
<svg xmlns="http://www.w3.org/2000/svg" xmlns:xlink="http://www.w3.org/1999/xlink" version="1.1" id="Layer_1" x="0px" y="0px" viewBox="0 0 24 24" style="enable-background:new 0 0 24 24;" xml:space="preserve">
<g>
	<path style="fill:#303C42;" d="M18.933,13.249C18.923,13.233,18,11.629,18,10.5V6.438C18,3.033,16.131,1,13,1   C9.523,1,7.62,2.398,7.01,5.4C6.983,5.533,7.011,5.671,7.088,5.783s0.196,0.188,0.33,0.21l3,0.5   c0.267,0.047,0.511-0.125,0.569-0.382C11.168,5.322,11.606,5,12.5,5c0.671,0,1.355,0.195,1.48,1.537   c-1.016,0.087-3.348,0.351-4.7,1.014C7.409,8.469,6.5,9.924,6.5,12c0,2.393,1.607,4,4,4c2.248,0,3.424-0.651,4.028-1.246   c0.777,0.727,1.711,1.175,1.757,1.197C16.354,15.984,16.427,16,16.5,16c0.13,0,0.258-0.051,0.354-0.146l2-2   C19.014,13.693,19.046,13.445,18.933,13.249z M12,12.5c-0.663,0-1-0.336-1-1c0-1.548,1.801-1.912,2.977-1.984   C13.775,11.695,12.328,12.496,12,12.5z"/>
	<path style="fill:#5C6671;" d="M17,10.5V6.438C17,4.781,16.48,2,13,2c-2.791,0-4.282,0.932-4.889,3.095l2.042,0.34   C10.446,4.704,11.093,4,12.5,4C13.641,4,15,4.521,15,7c0,0.265-0.207,0.484-0.472,0.499c-0.032,0.002-3.263,0.192-4.809,0.95   C8.205,9.192,7.5,10.32,7.5,12c0,1.45,0.788,3,3,3c2.514,0,3.338-0.885,3.576-1.265c0.085-0.136,0.23-0.223,0.391-0.234   c0.163-0.007,0.316,0.057,0.418,0.18c0.457,0.552,1.134,0.983,1.523,1.204l1.475-1.476C17.577,12.813,17,11.551,17,10.5z M12,12.5   c-0.663,0-1-0.336-1-1c0-1.548,1.801-1.912,2.977-1.984C13.775,11.695,12.328,12.496,12,12.5z"/>
	<path style="fill:#303C42;" d="M14.5,8.5c-2.817,0-4.5,1.122-4.5,3c0,1.476,1.077,2,2,2c0.854,0,3-1.338,3-4.5   C15,8.724,14.776,8.5,14.5,8.5z M12,12.5c-0.663,0-1-0.336-1-1c0-1.548,1.801-1.912,2.977-1.984   C13.775,11.695,12.328,12.496,12,12.5z"/>
	<path style="fill:#303C42;" d="M21.902,18.704c-0.125-0.169-0.341-0.244-0.544-0.183C21.308,18.535,16.311,20,12,20   c-4.594,0-9.854-1.561-11.146-2.854c-0.191-0.19-0.498-0.196-0.694-0.012c-0.197,0.184-0.213,0.49-0.037,0.694   C0.306,18.039,4.7,23,12,23c7.339,0,9.813-3.57,9.915-3.722C22.032,19.103,22.027,18.874,21.902,18.704z"/>
	<path style="fill:#FFA726;" d="M12,22c-3.208,0-5.847-1.054-7.748-2.178C6.606,20.524,9.503,21,12,21   c2.806,0,5.814-0.577,7.713-1.021C18.377,20.904,15.958,22,12,22z"/>
	<path style="fill:#303C42;" d="M22,16.5c-1.286,0-2.624,0.512-2.681,0.534c-0.258,0.1-0.386,0.389-0.285,0.647   c0.099,0.258,0.391,0.384,0.646,0.286C19.692,17.961,20.898,17.5,22,17.5c1,0,1,0.254,1,0.5c0,0.708-0.852,2.023-1.389,2.685   c-0.174,0.214-0.141,0.529,0.073,0.703C21.777,21.463,21.889,21.5,22,21.5c0.146,0,0.289-0.063,0.388-0.185   C22.553,21.112,24,19.293,24,18C24,16.5,22.495,16.5,22,16.5z"/>
	<linearGradient id="SVGID_1_" gradientUnits="userSpaceOnUse" x1="4.0999" y1="8.5967" x2="24.2662" y2="18.0004">
		<stop offset="0" style="stop-color:#FFFFFF;stop-opacity:0.2"/>
		<stop offset="1" style="stop-color:#FFFFFF;stop-opacity:0"/>
	</linearGradient>
	<path style="fill:url(#SVGID_1_);" d="M6.5,12c0,2.393,1.607,4,4,4c2.248,0,3.424-0.651,4.028-1.246   c0.777,0.727,1.711,1.175,1.757,1.197C16.354,15.984,16.427,16,16.5,16c0.13,0,0.258-0.051,0.354-0.146l2-2   c0.16-0.16,0.192-0.409,0.079-0.604C18.923,13.233,18,11.629,18,10.5V6.438C18,3.033,16.131,1,13,1C9.523,1,7.62,2.398,7.01,5.4   C6.983,5.533,7.011,5.671,7.088,5.783s0.196,0.188,0.33,0.21l3,0.5c0.267,0.047,0.511-0.125,0.569-0.382   C11.168,5.322,11.606,5,12.5,5c0.671,0,1.355,0.195,1.48,1.537c-1.016,0.087-3.348,0.351-4.7,1.014C7.409,8.469,6.5,9.924,6.5,12z    M13.977,9.516c-0.201,2.179-1.648,2.98-1.977,2.984c-0.663,0-1-0.336-1-1C11,9.952,12.801,9.588,13.977,9.516z M21.902,18.704   c-0.125-0.169-0.341-0.244-0.544-0.183C21.308,18.535,16.311,20,12,20c-4.594,0-9.854-1.561-11.146-2.854   c-0.191-0.19-0.498-0.196-0.694-0.012c-0.197,0.184-0.213,0.49-0.037,0.694C0.306,18.039,4.7,23,12,23   c7.339,0,9.813-3.57,9.915-3.722C22.032,19.103,22.027,18.874,21.902,18.704z M22,16.5c-1.286,0-2.624,0.512-2.681,0.534   c-0.258,0.1-0.386,0.389-0.285,0.647c0.099,0.258,0.391,0.384,0.646,0.286C19.692,17.961,20.898,17.5,22,17.5c1,0,1,0.254,1,0.5   c0,0.708-0.852,2.023-1.389,2.685c-0.174,0.214-0.141,0.529,0.073,0.703C21.777,21.463,21.889,21.5,22,21.5   c0.146,0,0.289-0.063,0.388-0.185C22.553,21.112,24,19.293,24,18C24,16.5,22.495,16.5,22,16.5z"/>
</g>
<g>
</g>
<g>
</g>
<g>
</g>
<g>
</g>
<g>
</g>
<g>
</g>
<g>
</g>
<g>
</g>
<g>
</g>
<g>
</g>
<g>
</g>
<g>
</g>
<g>
</g>
<g>
</g>
<g>
</g>

	<metadata>
		<rdf:RDF xmlns:rdf="http://www.w3.org/1999/02/22-rdf-syntax-ns#" xmlns:rdfs="http://www.w3.org/2000/01/rdf-schema#" xmlns:dc="http://purl.org/dc/elements/1.1/">
			<rdf:Description about="https://iconscout.com/legal#licenses" dc:title="social; media; social media; logo; amazon" dc:description="social; media; social media; logo; amazon" dc:publisher="Iconscout" dc:date="2017-03-22" dc:format="image/svg+xml" dc:language="en">
				<dc:creator>
					<rdf:Bag>
						<rdf:li>Alpár - Etele Méder</rdf:li>
					</rdf:Bag>
				</dc:creator>
			</rdf:Description>
		</rdf:RDF>
    </metadata></svg>
