<?xml version="1.0" encoding="UTF-8"?>
<svg xmlns="http://www.w3.org/2000/svg" xmlns:xlink="http://www.w3.org/1999/xlink" version="1.1" id="Layer_1" x="0px" y="0px" viewBox="0 0 24 24" style="enable-background:new 0 0 24 24;" xml:space="preserve">
<g>
	<path style="fill:#303C42;" d="M23.823,11.818c-1.035-2.599-6.652-4.649-12.946-4.785c2.579-2.923,5.223-4.546,6.73-4.326   c1.446,0.213,1.405,2.128,1.253,3.251c-0.037,0.273,0.154,0.525,0.428,0.563c0.266,0.036,0.525-0.155,0.562-0.428   c0.345-2.533-0.42-4.128-2.098-4.375c-2.122-0.31-5.328,1.864-8.181,5.311C8.399,7.056,7.298,7.15,6.288,7.306   c-0.383-2.218-0.23-3.961,0.423-4.781c0.913-1.143,2.563-0.144,3.466,0.552c0.218,0.169,0.534,0.129,0.701-0.091   c0.169-0.219,0.129-0.533-0.09-0.701c-2.033-1.567-3.803-1.708-4.86-0.383c-0.877,1.102-1.051,3.135-0.627,5.58   C2.94,7.974,1.199,8.839,0.43,9.971c-0.469,0.69-0.557,1.457-0.254,2.217c0.307,0.769,0.994,1.493,2.044,2.152   c0.235,0.146,0.543,0.077,0.689-0.158c0.146-0.234,0.076-0.542-0.158-0.689c-0.853-0.535-1.423-1.114-1.645-1.674   c-0.18-0.451-0.13-0.871,0.151-1.286C1.795,9.74,3.242,8.946,5.5,8.469c0.23,1.01,0.552,2.072,0.962,3.158   c-2.145,3.899-2.93,7.436-2.02,9.322c0.365,0.756,0.989,1.219,1.806,1.339c0.143,0.021,0.29,0.032,0.441,0.032   c0.893,0,1.932-0.365,3.097-1.088c0.234-0.145,0.307-0.454,0.161-0.688c-0.145-0.235-0.455-0.304-0.688-0.161   c-1.141,0.708-2.127,1.025-2.867,0.917c-0.486-0.072-0.83-0.329-1.051-0.785c-0.589-1.22-0.268-4.009,1.606-7.678   c0.459,1.066,0.997,2.141,1.61,3.198c2.396,4.131,5.251,6.797,7.451,6.959c0.07,0.005,0.14,0.008,0.208,0.008   c0.748,0,1.386-0.307,1.854-0.895c1.525-1.917,0.945-6.769-1.41-11.801c-0.118-0.25-0.417-0.358-0.665-0.241   c-0.25,0.117-0.358,0.414-0.241,0.664c2.132,4.552,2.791,9.175,1.533,10.754c-0.304,0.382-0.703,0.547-1.206,0.514   c-1.513-0.111-4.158-2.153-6.659-6.464c-0.753-1.298-1.367-2.59-1.861-3.837C7.59,11.645,7.611,11.6,7.64,11.55   c0.753-1.299,1.571-2.475,2.408-3.524c0.058,0,0.109-0.005,0.168-0.005c6.591,0,11.877,2.155,12.678,4.168   c0.44,1.107-0.62,1.929-1.587,2.423c-0.246,0.126-0.344,0.427-0.218,0.673c0.089,0.173,0.264,0.272,0.445,0.272   c0.077,0,0.154-0.018,0.228-0.055C23.624,14.549,24.375,13.207,23.823,11.818z M7.115,10.488c-0.259-0.76-0.467-1.494-0.628-2.192   C7.18,8.188,7.933,8.11,8.75,8.067C8.178,8.827,7.632,9.64,7.115,10.488z"/>
	<path style="fill:#303C42;" d="M10,12c0,1.103,0.897,2,2,2s2-0.897,2-2s-0.897-2-2-2S10,10.897,10,12z"/>
	<linearGradient id="SVGID_1_" gradientUnits="userSpaceOnUse" x1="1.6872" y1="7.1925" x2="22.3125" y2="16.8103">
		<stop offset="0" style="stop-color:#FFFFFF;stop-opacity:0.2"/>
		<stop offset="1" style="stop-color:#FFFFFF;stop-opacity:0"/>
	</linearGradient>
	<path style="fill:url(#SVGID_1_);" d="M23.823,11.818c-1.035-2.599-6.652-4.649-12.946-4.785c2.579-2.923,5.223-4.546,6.73-4.326   c1.446,0.213,1.405,2.128,1.253,3.251c-0.037,0.273,0.154,0.525,0.428,0.563c0.266,0.036,0.525-0.155,0.562-0.428   c0.345-2.533-0.42-4.128-2.098-4.375c-2.122-0.31-5.328,1.864-8.181,5.311C8.399,7.055,7.298,7.15,6.288,7.306   c-0.383-2.218-0.23-3.961,0.423-4.781c0.913-1.143,2.563-0.145,3.466,0.552c0.218,0.169,0.534,0.129,0.701-0.091   c0.169-0.219,0.129-0.533-0.09-0.701c-2.033-1.567-3.803-1.708-4.86-0.383c-0.877,1.102-1.051,3.135-0.627,5.58   C2.94,7.974,1.199,8.839,0.43,9.971c-0.469,0.69-0.557,1.457-0.254,2.217c0.307,0.769,0.994,1.493,2.044,2.152   c0.235,0.146,0.543,0.077,0.689-0.158c0.146-0.234,0.076-0.542-0.158-0.689c-0.853-0.535-1.423-1.114-1.645-1.674   c-0.18-0.451-0.13-0.871,0.151-1.286C1.795,9.74,3.242,8.946,5.5,8.469c0.23,1.01,0.552,2.072,0.962,3.158   c-2.145,3.899-2.93,7.436-2.02,9.322c0.365,0.756,0.989,1.219,1.806,1.339c0.143,0.021,0.29,0.032,0.441,0.032   c0.893,0,1.932-0.365,3.097-1.088c0.234-0.145,0.307-0.454,0.161-0.688c-0.146-0.235-0.455-0.304-0.688-0.161   c-1.141,0.708-2.127,1.025-2.867,0.917c-0.486-0.072-0.83-0.328-1.051-0.785c-0.589-1.22-0.268-4.009,1.606-7.678   c0.459,1.066,0.997,2.141,1.61,3.198c2.396,4.131,5.252,6.797,7.451,6.959c0.07,0.005,0.14,0.008,0.208,0.008   c0.748,0,1.386-0.307,1.854-0.895c1.525-1.917,0.945-6.769-1.41-11.8c-0.118-0.25-0.417-0.358-0.665-0.241   c-0.25,0.117-0.358,0.414-0.241,0.664c2.132,4.552,2.791,9.175,1.533,10.754c-0.304,0.382-0.703,0.547-1.206,0.513   c-1.513-0.111-4.158-2.153-6.659-6.464c-0.753-1.298-1.367-2.59-1.861-3.837C7.59,11.645,7.611,11.6,7.64,11.55   c0.753-1.299,1.571-2.475,2.408-3.524c0.058,0,0.109-0.005,0.168-0.005c6.591,0,11.877,2.155,12.678,4.168   c0.44,1.107-0.62,1.929-1.587,2.423c-0.246,0.126-0.344,0.427-0.218,0.673c0.089,0.173,0.264,0.272,0.445,0.272   c0.077,0,0.154-0.018,0.228-0.055C23.624,14.549,24.375,13.207,23.823,11.818z M7.115,10.488c-0.258-0.76-0.467-1.494-0.628-2.192   C7.18,8.188,7.933,8.11,8.75,8.067C8.178,8.826,7.632,9.64,7.115,10.488z M10,12c0,1.103,0.897,2,2,2s2-0.897,2-2s-0.897-2-2-2   S10,10.897,10,12z"/>
</g>
<g>
</g>
<g>
</g>
<g>
</g>
<g>
</g>
<g>
</g>
<g>
</g>
<g>
</g>
<g>
</g>
<g>
</g>
<g>
</g>
<g>
</g>
<g>
</g>
<g>
</g>
<g>
</g>
<g>
</g>

	<metadata>
		<rdf:RDF xmlns:rdf="http://www.w3.org/1999/02/22-rdf-syntax-ns#" xmlns:rdfs="http://www.w3.org/2000/01/rdf-schema#" xmlns:dc="http://purl.org/dc/elements/1.1/">
			<rdf:Description about="https://iconscout.com/legal#licenses" dc:title="social; media; social media; logo; atom" dc:description="social; media; social media; logo; atom" dc:publisher="Iconscout" dc:date="2017-03-22" dc:format="image/svg+xml" dc:language="en">
				<dc:creator>
					<rdf:Bag>
						<rdf:li>Alpár - Etele Méder</rdf:li>
					</rdf:Bag>
				</dc:creator>
			</rdf:Description>
		</rdf:RDF>
    </metadata></svg>
