<?xml version="1.0" encoding="UTF-8"?>
<svg xmlns="http://www.w3.org/2000/svg" xmlns:xlink="http://www.w3.org/1999/xlink" version="1.1" id="Layer_1" x="0px" y="0px" viewBox="0 0 24 24" style="enable-background:new 0 0 24 24;" xml:space="preserve">
<g>
	<path style="fill:#303C42;" d="M21,1H3C1.897,1,1,1.897,1,3v18c0,1.103,0.897,2,2,2h18c1.103,0,2-0.897,2-2V3   C23,1.897,22.103,1,21,1z"/>
	<path style="fill:#FFA000;" d="M22,21c0,0.552-0.448,1-1,1H3c-0.552,0-1-0.448-1-1V3c0-0.552,0.448-1,1-1h18c0.552,0,1,0.448,1,1   V21z"/>
	<path style="fill:#FFFFFF;" d="M12.501,7C10.641,7,8.996,7.931,8,9.348V5.5C8,5.224,7.776,5,7.5,5S7,5.224,7,5.5v7.001   c0,3.032,2.468,5.5,5.501,5.5c3.032,0,5.5-2.468,5.5-5.5C18.001,9.468,15.533,7,12.501,7z M12.501,17.001   c-2.481,0-4.501-2.019-4.501-4.5S10.02,8,12.501,8s4.5,2.02,4.5,4.501S14.982,17.001,12.501,17.001z"/>
	<path style="fill:#FFFFFF;" d="M10,12c-0.552,0-1,0.448-1,1s0.448,1,1,1s1-0.448,1-1S10.552,12,10,12z"/>
	<path style="opacity:0.1;enable-background:new    ;" d="M21.958,2.792C21.889,2.777,21.824,2.75,21.75,2.75H21.5V20.5   c0,0.552-0.448,1-1,1H2.75v0.25c0,0.074,0.027,0.139,0.042,0.208C2.802,21.975,2.904,22.02,3,22h18c0.552,0,1-0.448,1-1V3   C22.01,2.767,21.973,2.796,21.958,2.792z"/>
	<path style="opacity:0.2;fill:#FFFFFF;enable-background:new    ;" d="M2.75,21.75v-18c0-0.552,0.448-1,1-1h18   c0.074,0,0.139,0.027,0.208,0.042C21.859,2.343,21.478,2,21,2H3C2.448,2,2,2.448,2,3v18c0,0.478,0.343,0.859,0.792,0.958   C2.777,21.889,2.75,21.824,2.75,21.75z"/>
	
		<linearGradient id="SVGID_1_" gradientUnits="userSpaceOnUse" x1="-0.6523" y1="17.8999" x2="24.6523" y2="6.1001" gradientTransform="matrix(1 0 0 -1 0 24)">
		<stop offset="0" style="stop-color:#FFFFFF;stop-opacity:0.2"/>
		<stop offset="1" style="stop-color:#FFFFFF;stop-opacity:0"/>
	</linearGradient>
	<path style="fill:url(#SVGID_1_);" d="M21,1H3C1.897,1,1,1.897,1,3v18c0,1.103,0.897,2,2,2h18c1.103,0,2-0.897,2-2V3   C23,1.897,22.103,1,21,1z"/>
</g>

	<metadata>
		<rdf:RDF xmlns:rdf="http://www.w3.org/1999/02/22-rdf-syntax-ns#" xmlns:rdfs="http://www.w3.org/2000/01/rdf-schema#" xmlns:dc="http://purl.org/dc/elements/1.1/">
			<rdf:Description about="https://iconscout.com/legal#licenses" dc:title="social; media; social media; logo; badoo" dc:description="social; media; social media; logo; badoo" dc:publisher="Iconscout" dc:date="2017-03-22" dc:format="image/svg+xml" dc:language="en">
				<dc:creator>
					<rdf:Bag>
						<rdf:li>Alpár - Etele Méder</rdf:li>
					</rdf:Bag>
				</dc:creator>
			</rdf:Description>
		</rdf:RDF>
    </metadata></svg>
