<?xml version="1.0" encoding="UTF-8"?>
<svg xmlns="http://www.w3.org/2000/svg" xmlns:xlink="http://www.w3.org/1999/xlink" version="1.1" id="Layer_1" x="0px" y="0px" viewBox="0 0 24 24" style="enable-background:new 0 0 24 24;" xml:space="preserve">
<g>
	<path style="fill:#303C42;" d="M11.882,12.519c-0.27-0.451-0.627-0.826-1.068-1.122c0.19-0.156,0.352-0.321,0.484-0.493   c0.5-0.644,0.754-1.49,0.754-2.516c0-0.989-0.245-1.854-0.729-2.574C10.517,4.643,9.159,4.033,7.276,4H0.5C0.224,4,0,4.224,0,4.5   v15C0,19.776,0.224,20,0.5,20h6.319c0.742,0,1.445-0.072,2.089-0.214c0.684-0.151,1.287-0.439,1.788-0.851   c0.441-0.353,0.816-0.797,1.11-1.313c0.46-0.777,0.693-1.668,0.693-2.648C12.5,14.023,12.292,13.198,11.882,12.519z M7.413,15.82   C7.167,15.939,6.791,16,6.293,16H4v-2.5h2.333c0.619,0.006,0.949,0.1,1.121,0.178C7.708,13.793,8,14.005,8,14.629   C8,15.436,7.663,15.696,7.413,15.82z M7.678,9.733C7.38,9.91,6.969,10,6.457,10H4V8h2.101C6.71,8,7.212,8.063,7.563,8.177   C7.779,8.264,8,8.426,8,8.967C8,9.482,7.816,9.651,7.678,9.733z"/>
	<path style="fill:#3D5AFE;" d="M11.025,13.034c0-0.001-0.001-0.001-0.001-0.002c-0.304-0.509-0.752-0.874-1.371-1.116   c-0.181-0.071-0.305-0.24-0.317-0.435c-0.012-0.194,0.089-0.377,0.26-0.47c0.408-0.222,0.715-0.464,0.912-0.72   c0.367-0.472,0.544-1.094,0.544-1.903c0-0.787-0.187-1.463-0.556-2.011C9.878,5.479,8.821,5.027,7.268,5H1v14h5.819   c0.67,0,1.3-0.064,1.873-0.191c0.528-0.117,0.991-0.336,1.375-0.651c0.347-0.277,0.64-0.625,0.875-1.039   c0.372-0.627,0.558-1.347,0.558-2.146C11.5,14.208,11.34,13.555,11.025,13.034z M7.413,15.82C7.167,15.939,6.791,16,6.293,16H4   v-2.5h2.333c0.619,0.006,0.949,0.1,1.121,0.178C7.708,13.793,8,14.005,8,14.629C8,15.436,7.663,15.696,7.413,15.82z M7.678,9.733   C7.38,9.91,6.969,10,6.457,10H4V8h2.101C6.71,8,7.212,8.063,7.563,8.177C7.779,8.264,8,8.426,8,8.967   C8,9.482,7.816,9.651,7.678,9.733z"/>
	<path style="fill:#303C42;" d="M7.905,7.238C7.422,7.08,6.815,7,6.101,7H3.5C3.224,7,3,7.224,3,7.5v3C3,10.776,3.224,11,3.5,11   h2.957c0.694,0,1.277-0.137,1.732-0.407C8.559,10.373,9,9.913,9,8.967C9,7.901,8.421,7.444,7.905,7.238z M7.678,9.733   C7.38,9.91,6.969,10,6.457,10H4V8h2.101C6.71,8,7.212,8.063,7.563,8.177C7.779,8.264,8,8.426,8,8.967   C8,9.482,7.816,9.651,7.678,9.733z"/>
	<path style="fill:#303C42;" d="M18.5,8c-3.033,0-5.5,2.691-5.5,6s2.467,6,5.5,6c2.081,0,3.959-1.26,4.903-3.289   c0.072-0.155,0.06-0.336-0.032-0.48C23.279,16.087,23.121,16,22.95,16h-2.706c-0.16,0-0.31,0.076-0.403,0.205   C19.465,16.718,18.989,17,18.5,17c-0.843,0-1.592-0.828-1.873-2h6.85c0.26,0,0.477-0.2,0.498-0.458C23.99,14.363,24,14.183,24,14   C24,10.691,21.533,8,18.5,8z M17.029,12c0.376-0.624,0.913-1,1.471-1s1.094,0.376,1.471,1H17.029z"/>
	<path style="fill:#3D5AFE;" d="M18.5,18c-1.509,0-2.754-1.45-2.961-3.448c-0.014-0.141,0.031-0.281,0.126-0.387   C15.76,14.06,15.895,14,16.036,14H23c0-2.757-2.019-5-4.5-5S14,11.243,14,14s2.019,5,4.5,5c1.433,0,2.754-0.75,3.596-2h-1.609   C19.939,17.647,19.242,18,18.5,18z M18.5,11c0.558,0,1.094,0.376,1.471,1h-2.941C17.406,11.376,17.942,11,18.5,11z"/>
	<path style="fill:#303C42;" d="M7.868,12.769C7.489,12.594,6.99,12.506,6.337,12.5H3.5C3.224,12.5,3,12.724,3,13v3.5   C3,16.776,3.224,17,3.5,17h2.793c0.659,0,1.168-0.092,1.56-0.282C8.376,16.459,9,15.886,9,14.629   C9,13.514,8.383,13.001,7.868,12.769z M7.413,15.82C7.167,15.939,6.791,16,6.293,16H4v-2.5h2.333   c0.619,0.006,0.949,0.1,1.121,0.178C7.708,13.793,8,14.005,8,14.629C8,15.436,7.663,15.696,7.413,15.82z"/>
	<path style="fill:#303C42;" d="M21.222,12.338C20.729,10.896,19.687,10,18.5,10s-2.229,0.896-2.722,2.338   c-0.052,0.153-0.027,0.321,0.066,0.453S16.09,13,16.251,13h4.498c0.161,0,0.313-0.078,0.407-0.209S21.274,12.491,21.222,12.338z    M17.029,12c0.376-0.624,0.913-1,1.471-1s1.094,0.376,1.471,1H17.029z"/>
	<path style="fill:#303C42;" d="M15.5,7h6C21.776,7,22,6.776,22,6.5v-2C22,4.224,21.776,4,21.5,4h-6C15.224,4,15,4.224,15,4.5v2   C15,6.776,15.224,7,15.5,7z"/>
	<rect x="16" y="5" style="fill:#3D5AFE;" width="5" height="1"/>
	<path style="opacity:0.2;fill:#FFFFFF;" d="M10.496,6.877c0.33,0.489,0.505,1.086,0.541,1.767c0.004-0.086,0.015-0.166,0.015-0.256   c0-0.787-0.187-1.463-0.556-2.011C9.878,5.479,8.821,5.027,7.268,5H1v0.5h6.268C8.821,5.527,9.878,5.979,10.496,6.877z"/>
	<path style="opacity:0.2;fill:#FFFFFF;" d="M18.5,9.5c2.327,0,4.225,1.98,4.455,4.5H23c0-2.757-2.019-5-4.5-5S14,11.243,14,14   c0,0.086,0.019,0.165,0.023,0.25C14.143,11.611,16.096,9.5,18.5,9.5z"/>
	<rect x="16" y="5" style="opacity:0.2;fill:#FFFFFF;" width="5" height="0.5"/>
	<linearGradient id="SVGID_1_" gradientUnits="userSpaceOnUse" x1="-0.9506" y1="6.4273" x2="22.992" y2="17.592">
		<stop offset="0" style="stop-color:#FFFFFF;stop-opacity:0.2"/>
		<stop offset="1" style="stop-color:#FFFFFF;stop-opacity:0"/>
	</linearGradient>
	<path style="fill:url(#SVGID_1_);" d="M10.814,11.397c0.19-0.156,0.352-0.321,0.484-0.493c0.5-0.644,0.754-1.49,0.754-2.516   c0-0.989-0.245-1.854-0.729-2.574C10.517,4.643,9.159,4.033,7.276,4H0.5C0.224,4,0,4.224,0,4.5v15C0,19.776,0.224,20,0.5,20h6.319   c0.742,0,1.445-0.072,2.089-0.214c0.684-0.151,1.287-0.439,1.788-0.851c0.441-0.353,0.816-0.797,1.11-1.313   c0.46-0.777,0.693-1.668,0.693-2.648c0-0.949-0.208-1.775-0.618-2.454C11.613,12.068,11.255,11.693,10.814,11.397z M7.413,15.82   C7.167,15.939,6.791,16,6.293,16H4v-2.5h2.333c0.619,0.006,0.949,0.1,1.121,0.178C7.708,13.793,8,14.005,8,14.629   C8,15.436,7.663,15.696,7.413,15.82z M7.678,9.733C7.38,9.91,6.969,10,6.457,10H4V8h2.101C6.71,8,7.212,8.063,7.563,8.177   C7.779,8.264,8,8.426,8,8.967C8,9.482,7.816,9.651,7.678,9.733z M18.5,8c-3.033,0-5.5,2.691-5.5,6s2.467,6,5.5,6   c2.081,0,3.959-1.26,4.903-3.289c0.072-0.155,0.06-0.336-0.032-0.48C23.279,16.087,23.121,16,22.95,16h-2.706   c-0.16,0-0.31,0.076-0.403,0.205C19.465,16.718,18.989,17,18.5,17c-0.843,0-1.592-0.828-1.873-2h6.85c0.26,0,0.477-0.2,0.498-0.458   C23.99,14.363,24,14.183,24,14C24,10.691,21.533,8,18.5,8z M17.029,12c0.376-0.624,0.913-1,1.471-1s1.094,0.376,1.471,1H17.029z    M15.5,7h6C21.776,7,22,6.776,22,6.5v-2C22,4.224,21.776,4,21.5,4h-6C15.224,4,15,4.224,15,4.5v2C15,6.776,15.224,7,15.5,7z"/>
</g>
<g>
</g>
<g>
</g>
<g>
</g>
<g>
</g>
<g>
</g>
<g>
</g>
<g>
</g>
<g>
</g>
<g>
</g>
<g>
</g>
<g>
</g>
<g>
</g>
<g>
</g>
<g>
</g>
<g>
</g>

	<metadata>
		<rdf:RDF xmlns:rdf="http://www.w3.org/1999/02/22-rdf-syntax-ns#" xmlns:rdfs="http://www.w3.org/2000/01/rdf-schema#" xmlns:dc="http://purl.org/dc/elements/1.1/">
			<rdf:Description about="https://iconscout.com/legal#licenses" dc:title="social; media; social media; logo; behance" dc:description="social; media; social media; logo; behance" dc:publisher="Iconscout" dc:date="2017-03-22" dc:format="image/svg+xml" dc:language="en">
				<dc:creator>
					<rdf:Bag>
						<rdf:li>Alpár - Etele Méder</rdf:li>
					</rdf:Bag>
				</dc:creator>
			</rdf:Description>
		</rdf:RDF>
    </metadata></svg>
