<?xml version="1.0" encoding="UTF-8"?>
<svg xmlns="http://www.w3.org/2000/svg" xmlns:xlink="http://www.w3.org/1999/xlink" version="1.1" id="Layer_1" x="0px" y="0px" viewBox="0 0 24 24" style="enable-background:new 0 0 24 24;" xml:space="preserve">
<g>
	<path style="fill:#303C42;" d="M20.5,10h-1C19.225,10,19,9.776,19,9.5v-3C19,3.467,16.532,1,13.5,1h-7C3.468,1,1,3.467,1,6.5v10   C1,20.084,3.916,23,7.5,23h9c3.584,0,6.5-2.916,6.5-6.5v-4C23,11.122,21.879,10,20.5,10z M7.5,7h5C12.775,7,13,7.224,13,7.5   S12.775,8,12.5,8h-5C7.225,8,7,7.776,7,7.5S7.225,7,7.5,7z M16.5,17h-9C7.225,17,7,16.776,7,16.5S7.225,16,7.5,16h9   c0.275,0,0.5,0.224,0.5,0.5S16.775,17,16.5,17z"/>
	<path style="fill:#F57C00;" d="M20.5,11h-1c-0.827,0-1.5-0.673-1.5-1.5v-3C18,4.019,15.981,2,13.5,2h-7C4.019,2,2,4.019,2,6.5v10   C2,19.533,4.468,22,7.5,22h9c3.032,0,5.5-2.467,5.5-5.5v-4C22,11.673,21.327,11,20.5,11z M7.5,7h5C12.775,7,13,7.224,13,7.5   S12.775,8,12.5,8h-5C7.225,8,7,7.776,7,7.5S7.225,7,7.5,7z M16.5,17h-9C7.225,17,7,16.776,7,16.5S7.225,16,7.5,16h9   c0.275,0,0.5,0.224,0.5,0.5S16.775,17,16.5,17z"/>
	<g>
		<path style="opacity:0.1;" d="M16.5,21.376h-9c-1.788,0-3.375-0.862-4.38-2.188c0.214,0.572,0.517,1.1,0.898,1.564    C4.967,21.531,6.18,22,7.5,22h9c3.032,0,5.5-2.467,5.5-5.5v-0.624C22,18.909,19.532,21.376,16.5,21.376z"/>
	</g>
	<path style="opacity:0.2;fill:#FFFFFF;" d="M20.271,11.771h1c0.214,0,0.417,0.047,0.601,0.128C21.64,11.371,21.113,11,20.5,11h-1   c-0.214,0-0.417-0.047-0.601-0.128C19.131,11.4,19.658,11.771,20.271,11.771z"/>
	<path style="opacity:0.2;fill:#FFFFFF;" d="M2.771,17.271v-10c0-2.481,2.019-4.5,4.5-4.5h7c1.044,0,1.994,0.372,2.758,0.971   C16.205,2.69,14.937,2,13.5,2h-7C4.019,2,2,4.019,2,6.5v10c0,1.712,0.787,3.243,2.018,4.253   C3.239,19.804,2.771,18.591,2.771,17.271z"/>
	<path style="fill:#303C42;" d="M12.5,6h-5C6.673,6,6,6.673,6,7.5S6.673,9,7.5,9h5C13.327,9,14,8.327,14,7.5S13.327,6,12.5,6z    M12.5,8h-5C7.225,8,7,7.776,7,7.5S7.225,7,7.5,7h5C12.775,7,13,7.224,13,7.5S12.775,8,12.5,8z"/>
	<path style="fill:#303C42;" d="M16.5,15h-9C6.673,15,6,15.673,6,16.5S6.673,18,7.5,18h9c0.827,0,1.5-0.673,1.5-1.5   S17.327,15,16.5,15z M16.5,17h-9C7.225,17,7,16.776,7,16.5S7.225,16,7.5,16h9c0.275,0,0.5,0.224,0.5,0.5S16.775,17,16.5,17z"/>
	<linearGradient id="SVGID_1_" gradientUnits="userSpaceOnUse" x1="0.1036" y1="7.2038" x2="23.0228" y2="17.8912">
		<stop offset="0" style="stop-color:#FFFFFF;stop-opacity:0.2"/>
		<stop offset="1" style="stop-color:#FFFFFF;stop-opacity:0"/>
	</linearGradient>
	<path style="fill:url(#SVGID_1_);" d="M20.5,10h-1C19.225,10,19,9.776,19,9.5v-3C19,3.467,16.532,1,13.5,1h-7   C3.468,1,1,3.467,1,6.5v10C1,20.084,3.916,23,7.5,23h9c3.584,0,6.5-2.916,6.5-6.5v-4C23,11.122,21.879,10,20.5,10z M7.5,7h5   C12.775,7,13,7.224,13,7.5S12.775,8,12.5,8h-5C7.225,8,7,7.776,7,7.5S7.225,7,7.5,7z M16.5,17h-9C7.225,17,7,16.776,7,16.5   S7.225,16,7.5,16h9c0.275,0,0.5,0.224,0.5,0.5S16.775,17,16.5,17z"/>
</g>
<g>
</g>
<g>
</g>
<g>
</g>
<g>
</g>
<g>
</g>
<g>
</g>
<g>
</g>
<g>
</g>
<g>
</g>
<g>
</g>
<g>
</g>
<g>
</g>
<g>
</g>
<g>
</g>
<g>
</g>

	<metadata>
		<rdf:RDF xmlns:rdf="http://www.w3.org/1999/02/22-rdf-syntax-ns#" xmlns:rdfs="http://www.w3.org/2000/01/rdf-schema#" xmlns:dc="http://purl.org/dc/elements/1.1/">
			<rdf:Description about="https://iconscout.com/legal#licenses" dc:title="social; media; social media; logo; blogger" dc:description="social; media; social media; logo; blogger" dc:publisher="Iconscout" dc:date="2017-03-22" dc:format="image/svg+xml" dc:language="en">
				<dc:creator>
					<rdf:Bag>
						<rdf:li>Alpár - Etele Méder</rdf:li>
					</rdf:Bag>
				</dc:creator>
			</rdf:Description>
		</rdf:RDF>
    </metadata></svg>
