<?xml version="1.0" encoding="UTF-8"?>
<svg xmlns="http://www.w3.org/2000/svg" xmlns:xlink="http://www.w3.org/1999/xlink" version="1.1" id="Layer_1" x="0px" y="0px" viewBox="0 0 24 24" style="enable-background:new 0 0 24 24;" xml:space="preserve">
<g>
	<path style="fill:#303C42;" d="M16.872,8.646l-0.097-0.063c-0.164-0.109-0.375-0.111-0.542-0.006   c-0.166,0.104-0.256,0.297-0.229,0.491c0.028,0.207-0.029,0.395-0.172,0.558C15.639,9.849,15.304,10,15,10c-0.463,0-1-0.437-1-1   c0-0.877,0.11-1.228,0.228-1.601C14.361,6.971,14.5,6.529,14.5,5.5c0-2.027-0.24-3.079-2.656-5.363   c-0.159-0.149-0.395-0.18-0.586-0.074c-0.19,0.105-0.291,0.322-0.248,0.535c0.573,2.865-1.182,4.37-3.402,6.275   C6.958,7.43,6.287,8.006,5.646,8.646C2.633,11.66,2,14.308,2,16c0,2.983,1.108,6.79,6.39,7.987   c0.223,0.053,0.448-0.055,0.553-0.255c0.105-0.2,0.063-0.447-0.104-0.601c-1.956-1.8-2.339-2.694-2.339-3.632   c0-0.688,0.405-1.678,1.189-2.584c0.004,0.45,0.118,0.841,0.342,1.17c0.578,0.848,1.653,0.914,1.969,0.914c1.178,0,2-1.028,2-2.5   c0-0.796-0.545-1.376-1.071-1.935C10.451,14.055,10,13.576,10,13c0-0.437,0.104-0.83,0.239-1.157   c0.184,0.341,0.484,0.707,0.965,1.061c0.252,0.185,0.62,0.419,1.053,0.692C13.914,14.645,17,16.598,17,18.499   c0,2.477-0.906,3.239-2.792,4.594c-0.192,0.139-0.262,0.394-0.165,0.61c0.082,0.183,0.263,0.296,0.457,0.296   c0.035,0,0.071-0.004,0.107-0.012C18.241,23.192,22,19.986,22,16C22,12.025,18.536,9.743,16.872,8.646z"/>
	<path style="fill:#E53935;" d="M16.993,21.976C17.641,21.136,18,20.102,18,18.499c0-2.451-3.26-4.516-5.208-5.749   c-0.409-0.259-0.758-0.479-0.996-0.654c-0.998-0.733-0.825-1.424-0.82-1.441c0.071-0.221-0.018-0.462-0.216-0.582   c-0.195-0.122-0.452-0.091-0.616,0.076C10.097,10.196,9,11.33,9,13c0,0.972,0.638,1.65,1.2,2.249c0.411,0.437,0.8,0.851,0.8,1.251   c0,0.897-0.402,1.5-1,1.5c-0.395,0-0.902-0.125-1.143-0.478c-0.255-0.375-0.218-1.011,0.107-1.84   c0.082-0.206,0.017-0.441-0.158-0.578c-0.177-0.136-0.421-0.14-0.6-0.01C6.347,16.442,5.5,18.323,5.5,19.499   c0,0.883,0.229,1.707,1.209,2.878C4.246,21.232,3,19.094,3,16c0-1.502,0.582-3.875,3.354-6.646c0.613-0.613,1.27-1.177,1.904-1.721   c1.936-1.661,3.78-3.243,3.86-5.8C13.369,3.212,13.5,4.021,13.5,5.5c0,0.877-0.11,1.228-0.228,1.601C13.139,7.528,13,7.97,13,9   c0,1.065,0.935,2,2,2c0.594,0,1.202-0.274,1.587-0.717c0.117-0.135,0.212-0.281,0.281-0.437C18.489,10.95,21,12.937,21,16   C21,18.492,19.196,20.691,16.993,21.976z"/>
	<path style="opacity:0.1;" d="M16.868,9.845c-0.069,0.156-0.164,0.303-0.281,0.437c-0.013,0.015-0.032,0.027-0.046,0.042   C18.102,11.488,20,13.337,20,16c0,1.824-0.971,3.488-2.354,4.754c-0.166,0.457-0.377,0.864-0.653,1.222   C19.196,20.691,21,18.492,21,16C21,12.937,18.489,10.95,16.868,9.845z"/>
	<path style="opacity:0.2;fill:#FFFFFF;" d="M3.561,16.561c0-1.502,0.582-3.875,3.354-6.646c0.613-0.613,1.27-1.177,1.904-1.721   c1.906-1.636,3.715-3.199,3.847-5.688c-0.155-0.213-0.329-0.432-0.548-0.673c-0.08,2.557-1.925,4.139-3.86,5.8   C7.623,8.176,6.967,8.74,6.354,9.353C3.582,12.125,3,14.498,3,16c0,2.359,0.729,4.158,2.164,5.389   C4.105,20.193,3.561,18.586,3.561,16.561z"/>
	<linearGradient id="SVGID_1_" gradientUnits="userSpaceOnUse" x1="4.2564" y1="9.4542" x2="21.8882" y2="17.676">
		<stop offset="0" style="stop-color:#FFFFFF;stop-opacity:0.2"/>
		<stop offset="1" style="stop-color:#FFFFFF;stop-opacity:0"/>
	</linearGradient>
	<path style="fill:url(#SVGID_1_);" d="M16.872,8.646l-0.097-0.063c-0.164-0.109-0.375-0.111-0.542-0.006   c-0.166,0.104-0.256,0.297-0.229,0.491c0.028,0.207-0.029,0.395-0.172,0.558C15.639,9.849,15.304,10,15,10c-0.463,0-1-0.437-1-1   c0-0.877,0.11-1.228,0.228-1.601C14.361,6.971,14.5,6.529,14.5,5.5c0-2.027-0.24-3.079-2.656-5.363   c-0.159-0.149-0.395-0.18-0.586-0.074c-0.19,0.105-0.291,0.322-0.248,0.535c0.573,2.865-1.182,4.37-3.402,6.275   C6.958,7.43,6.287,8.006,5.646,8.646C2.633,11.66,2,14.308,2,16c0,2.983,1.108,6.79,6.39,7.987   c0.223,0.053,0.448-0.055,0.553-0.255c0.105-0.2,0.063-0.447-0.104-0.601c-1.956-1.8-2.339-2.694-2.339-3.632   c0-0.688,0.405-1.678,1.189-2.584c0.004,0.45,0.118,0.841,0.342,1.17c0.578,0.848,1.653,0.914,1.969,0.914c1.178,0,2-1.028,2-2.5   c0-0.796-0.545-1.376-1.071-1.935C10.451,14.055,10,13.576,10,13c0-0.437,0.104-0.83,0.239-1.157   c0.184,0.341,0.484,0.707,0.965,1.061c0.252,0.185,0.62,0.419,1.053,0.692C13.914,14.645,17,16.598,17,18.499   c0,2.477-0.906,3.239-2.792,4.594c-0.192,0.139-0.262,0.394-0.165,0.61c0.082,0.183,0.263,0.296,0.457,0.296   c0.035,0,0.071-0.004,0.107-0.012C18.241,23.192,22,19.986,22,16C22,12.025,18.536,9.743,16.872,8.646z"/>
</g>
<g>
</g>
<g>
</g>
<g>
</g>
<g>
</g>
<g>
</g>
<g>
</g>
<g>
</g>
<g>
</g>
<g>
</g>
<g>
</g>
<g>
</g>
<g>
</g>
<g>
</g>
<g>
</g>
<g>
</g>

	<metadata>
		<rdf:RDF xmlns:rdf="http://www.w3.org/1999/02/22-rdf-syntax-ns#" xmlns:rdfs="http://www.w3.org/2000/01/rdf-schema#" xmlns:dc="http://purl.org/dc/elements/1.1/">
			<rdf:Description about="https://iconscout.com/legal#licenses" dc:title="social; media; social media; logo; codeigniter" dc:description="social; media; social media; logo; codeigniter" dc:publisher="Iconscout" dc:date="2017-03-22" dc:format="image/svg+xml" dc:language="en">
				<dc:creator>
					<rdf:Bag>
						<rdf:li>Alpár - Etele Méder</rdf:li>
					</rdf:Bag>
				</dc:creator>
			</rdf:Description>
		</rdf:RDF>
    </metadata></svg>
