<?xml version="1.0" encoding="UTF-8"?>
<svg xmlns="http://www.w3.org/2000/svg" xmlns:xlink="http://www.w3.org/1999/xlink" version="1.1" id="Layer_1" x="0px" y="0px" viewBox="0 0 24 24" style="enable-background:new 0 0 24 24;" xml:space="preserve">
<g>
	<path style="fill:#303C42;" d="M22.887,6.479l-8.777-5.852C13.49,0.213,12.733,0.005,12,0c-0.749-0.005-1.476,0.204-2.109,0.627   L1.113,6.479C0.416,6.943,0,7.721,0,8.559v6.859c0,0.838,0.416,1.615,1.113,2.08l8.777,5.852C10.517,23.768,11.247,24,12,24   s1.483-0.232,2.109-0.65l8.777-5.852C23.584,17.033,24,16.256,24,15.418V8.559C24,7.721,23.584,6.943,22.887,6.479z M10,4.416   v3.816L7.491,9.905L4.434,7.994L10,4.416z M3,12.617v-1.233L4.028,12L3,12.617z M10,19.584l-5.566-3.578l3.057-1.911L10,15.768   V19.584z M9.901,12L12,10.601L14.099,12L12,13.399L9.901,12z M14,19.584v-3.816l2.509-1.672l3.057,1.911L14,19.584z M16.509,9.905   L14,8.232V4.416l5.566,3.578L16.509,9.905z M21,12.617L19.972,12L21,11.383V12.617z"/>
	<path style="fill:#4D4D4D;" d="M22.332,7.322l-8.777-5.852C13.093,1.163,12.555,1,12,1s-1.093,0.163-1.555,0.471L1.668,7.322   C1.25,7.601,1,8.068,1,8.57v6.859c0,0.502,0.25,0.969,0.668,1.248l8.777,5.852c0.924,0.616,2.186,0.616,3.109,0l8.777-5.852   C22.75,16.399,23,15.932,23,15.43V8.57C23,8.068,22.75,7.601,22.332,7.322z M10,4.416v3.816L7.491,9.905L4.434,7.994L10,4.416z    M3,12.617v-1.233L4.028,12L3,12.617z M10,19.584l-5.566-3.578l3.057-1.911L10,15.768V19.584z M12,13.399L9.901,12L12,10.601   L14.099,12L12,13.399z M14,19.584v-3.816l2.509-1.672l3.057,1.911L14,19.584z M16.509,9.905L14,8.232V4.416l5.566,3.578   L16.509,9.905z M21,12.617L19.972,12L21,11.383V12.617z"/>
	<path style="fill:#303C42;" d="M10.74,3.061c-0.161-0.087-0.357-0.081-0.51,0.019l-7,4.5C3.085,7.672,2.999,7.832,3,8.003   c0.001,0.171,0.09,0.33,0.235,0.42l4,2.5C7.316,10.975,7.408,11,7.5,11c0.097,0,0.193-0.028,0.277-0.084l3-2   C10.917,8.823,11,8.667,11,8.5v-5C11,3.317,10.9,3.149,10.74,3.061z M10,8.232L7.491,9.905L4.434,7.994L10,4.416V8.232z"/>
	<path style="fill:#303C42;" d="M20.771,7.58l-7-4.5c-0.154-0.1-0.349-0.106-0.51-0.019C13.1,3.149,13,3.317,13,3.5v5   c0,0.167,0.083,0.323,0.223,0.416l3,2C16.307,10.972,16.403,11,16.5,11c0.092,0,0.184-0.025,0.265-0.076l4-2.5   c0.145-0.091,0.234-0.25,0.235-0.42C21.001,7.832,20.915,7.672,20.771,7.58z M16.509,9.905L14,8.232V4.416l5.566,3.578   L16.509,9.905z"/>
	<path style="fill:#303C42;" d="M20.765,15.576l-4-2.5c-0.166-0.104-0.378-0.102-0.542,0.008l-3,2C13.083,15.177,13,15.333,13,15.5   v5c0,0.183,0.1,0.351,0.26,0.439C13.335,20.979,13.417,21,13.5,21c0.094,0,0.188-0.026,0.271-0.08l7-4.5   c0.144-0.092,0.23-0.252,0.229-0.424C20.999,15.826,20.91,15.667,20.765,15.576z M14,19.584v-3.816l2.509-1.672l3.057,1.911   L14,19.584z"/>
	<path style="fill:#303C42;" d="M10.777,15.084l-3-2c-0.164-0.11-0.376-0.113-0.542-0.008l-4,2.5C3.09,15.667,3.001,15.826,3,15.997   c-0.001,0.171,0.085,0.332,0.229,0.424l7,4.5C10.312,20.974,10.406,21,10.5,21c0.083,0,0.165-0.021,0.24-0.061   C10.9,20.851,11,20.683,11,20.5v-5C11,15.333,10.917,15.177,10.777,15.084z M10,19.584l-5.566-3.578l3.057-1.911L10,15.768V19.584z   "/>
	<path style="fill:#303C42;" d="M5.257,11.571l-2.5-1.5C2.602,9.979,2.41,9.976,2.253,10.065S2,10.32,2,10.5v3   c0,0.18,0.097,0.346,0.253,0.435C2.33,13.979,2.415,14,2.5,14c0.089,0,0.178-0.024,0.257-0.071l2.5-1.5   C5.408,12.338,5.5,12.176,5.5,12S5.408,11.662,5.257,11.571z M3,12.617v-1.233L4.028,12L3,12.617z"/>
	<path style="fill:#303C42;" d="M21.747,10.065c-0.156-0.089-0.349-0.086-0.504,0.006l-2.5,1.5C18.592,11.662,18.5,11.824,18.5,12   s0.092,0.338,0.243,0.429l2.5,1.5C21.322,13.976,21.411,14,21.5,14c0.085,0,0.17-0.021,0.247-0.065C21.903,13.846,22,13.68,22,13.5   v-3C22,10.32,21.903,10.154,21.747,10.065z M21,12.617L19.972,12L21,11.383V12.617z"/>
	<path style="fill:#303C42;" d="M15.277,11.584l-3-2c-0.168-0.112-0.387-0.112-0.555,0l-3,2C8.583,11.677,8.5,11.833,8.5,12   s0.083,0.323,0.223,0.416l3,2C11.807,14.472,11.903,14.5,12,14.5s0.193-0.028,0.277-0.084l3-2C15.417,12.323,15.5,12.167,15.5,12   S15.417,11.677,15.277,11.584z M12,13.399L9.901,12L12,10.601L14.099,12L12,13.399z"/>
	<linearGradient id="SVGID_1_" gradientUnits="userSpaceOnUse" x1="0.6155" y1="6.6828" x2="23.3821" y2="17.299">
		<stop offset="0" style="stop-color:#FFFFFF;stop-opacity:0.2"/>
		<stop offset="1" style="stop-color:#FFFFFF;stop-opacity:0"/>
	</linearGradient>
	<path style="fill:url(#SVGID_1_);" d="M22.887,6.479l-8.777-5.852C13.49,0.213,12.733,0.005,12,0   c-0.749-0.005-1.476,0.204-2.109,0.627L1.113,6.479C0.416,6.943,0,7.721,0,8.559v6.859c0,0.838,0.416,1.615,1.113,2.08l8.777,5.852   C10.517,23.768,11.247,24,12,24s1.483-0.232,2.109-0.65l8.777-5.852C23.584,17.033,24,16.256,24,15.418V8.559   C24,7.721,23.584,6.943,22.887,6.479z M10,4.416v3.816L7.491,9.905L4.434,7.994L10,4.416z M3,12.617v-1.233L4.028,12L3,12.617z    M10,19.584l-5.566-3.578l3.057-1.911L10,15.768V19.584z M9.901,12L12,10.601L14.099,12L12,13.399L9.901,12z M14,19.584v-3.816   l2.509-1.672l3.057,1.911L14,19.584z M16.509,9.905L14,8.232V4.416l5.566,3.578L16.509,9.905z M21,12.617L19.972,12L21,11.383   V12.617z"/>
</g>
<g>
</g>
<g>
</g>
<g>
</g>
<g>
</g>
<g>
</g>
<g>
</g>
<g>
</g>
<g>
</g>
<g>
</g>
<g>
</g>
<g>
</g>
<g>
</g>
<g>
</g>
<g>
</g>
<g>
</g>

	<metadata>
		<rdf:RDF xmlns:rdf="http://www.w3.org/1999/02/22-rdf-syntax-ns#" xmlns:rdfs="http://www.w3.org/2000/01/rdf-schema#" xmlns:dc="http://purl.org/dc/elements/1.1/">
			<rdf:Description about="https://iconscout.com/legal#licenses" dc:title="social; media; social media; logo; codepen" dc:description="social; media; social media; logo; codepen" dc:publisher="Iconscout" dc:date="2017-03-22" dc:format="image/svg+xml" dc:language="en">
				<dc:creator>
					<rdf:Bag>
						<rdf:li>Alpár - Etele Méder</rdf:li>
					</rdf:Bag>
				</dc:creator>
			</rdf:Description>
		</rdf:RDF>
    </metadata></svg>
