<?xml version="1.0" encoding="UTF-8"?>
<svg xmlns="http://www.w3.org/2000/svg" xmlns:xlink="http://www.w3.org/1999/xlink" version="1.1" id="Layer_1" x="0px" y="0px" viewBox="0 0 24 24" style="enable-background:new 0 0 24 24;" xml:space="preserve">
<g>
	<path style="fill:#303C42;" d="M11.584,6.777C11.677,6.916,11.833,7,12,7s0.323-0.084,0.416-0.223l2-3   c0.103-0.153,0.112-0.351,0.024-0.514C14.354,3.102,14.185,3,14,3h-4C9.815,3,9.646,3.102,9.56,3.264   c-0.088,0.163-0.078,0.36,0.024,0.514L11.584,6.777z"/>
	<polygon style="fill:#0D47A1;" points="13.065,4 12,5.599 10.935,4  "/>
	<path style="fill:#303C42;" d="M9.032,13.401c-0.102-0.104-0.23-0.162-0.39-0.151c-0.146,0.009-0.28,0.08-0.368,0.197   c-0.497,0.654-0.898,1.275-1.224,1.891C2.63,15.967,0,17.329,0,18.999c0,0.746,0.532,1.825,3.069,2.734   c0.006,0.002,0.012,0.001,0.018,0.003c0.006,0.002,0.01,0.006,0.015,0.008C3.94,21.979,5.041,22,5.396,22   c0.065,0,0.105-0.001,0.114-0.001c0.264-0.005,0.479-0.215,0.49-0.478c0.011-0.265-0.186-0.491-0.448-0.519l-2.187-0.229   C2.362,20.367,2,19.969,2,19.749c0-0.415,1.135-1.226,4.122-1.766C6.03,18.494,5.99,18.998,6,19.509   c0.006,0.272,0.228,0.49,0.5,0.49h3c0.276,0,0.5-0.224,0.5-0.5c0-0.946,0.383-1.983,1.171-3.17   c0.121-0.183,0.109-0.423-0.029-0.593C10.589,15.06,9.919,14.318,9.032,13.401z"/>
	<path style="fill:#0D47A1;" d="M9.027,18.999h-2.02c0.027-0.494,0.109-0.988,0.249-1.498c0.045-0.163,0.004-0.338-0.108-0.464   C7.036,16.911,6.866,16.85,6.7,16.875c-1.942,0.292-5.084,0.982-5.621,2.433C1.027,19.203,1,19.1,1,18.999   c0-0.916,2.213-2.14,6.443-2.707c0.164-0.021,0.308-0.124,0.381-0.272c0.243-0.488,0.54-0.98,0.9-1.495   c0.556,0.586,1.015,1.097,1.411,1.566C9.491,17.129,9.125,18.088,9.027,18.999z"/>
	<path style="opacity:0.1;enable-background:new    ;" d="M8.725,14.525c-0.075,0.108-0.137,0.211-0.207,0.317   c0.42,0.451,0.797,0.87,1.118,1.25C8.991,17.13,8.625,18.089,8.528,19h0.5c0.098-0.911,0.464-1.87,1.108-2.908   C9.739,15.621,9.28,15.111,8.725,14.525z"/>
	<path style="fill:#303C42;" d="M16.943,15.336c-0.521-0.991-1.235-1.996-2.218-3.121l0.418-0.428C18.022,8.845,21,5.804,21,2.5   c0-0.147-0.064-0.286-0.177-0.382c-0.112-0.095-0.261-0.136-0.405-0.111l-2.999,0.5c-0.162,0.027-0.301,0.132-0.371,0.281   c-1.185,2.53-3.122,4.586-5.046,6.555c-1.928-1.973-3.868-4.032-5.05-6.555c-0.07-0.149-0.209-0.254-0.371-0.281l-2.999-0.5   C3.438,1.983,3.289,2.024,3.177,2.118C3.064,2.214,3,2.353,3,2.5c0,3.302,2.975,6.342,5.853,9.283   C11.499,14.488,14,17.043,14,19.499c0,0.276,0.224,0.5,0.5,0.5h3c0.272,0,0.494-0.218,0.5-0.49c0.01-0.508-0.03-1.012-0.123-1.525   C20.865,18.523,22,19.334,22,19.749c0,0.22-0.362,0.618-1.365,1.024l-2.187,0.229c-0.263,0.027-0.459,0.254-0.448,0.519   c0.012,0.264,0.227,0.474,0.49,0.478c0.009,0,0.049,0.001,0.114,0.001c0.354,0,1.455-0.021,2.293-0.256   c0.006-0.002,0.01-0.006,0.015-0.008c0.006-0.002,0.012-0.001,0.018-0.003c2.538-0.909,3.07-1.988,3.07-2.734   C24,17.329,21.368,15.967,16.943,15.336z"/>
	<path style="fill:#0D47A1;" d="M22.921,19.309c-0.537-1.451-3.68-2.141-5.622-2.433c-0.024-0.004-0.05-0.006-0.074-0.006   c-0.142,0-0.278,0.061-0.374,0.168c-0.112,0.126-0.152,0.301-0.108,0.464c0.14,0.513,0.223,1.007,0.249,1.498h-2.018   c-0.282-2.679-2.776-5.227-5.406-7.916C7.019,8.478,4.389,5.791,4.039,3.097L6.16,3.45c1.335,2.721,3.443,4.874,5.484,6.958   c0.188,0.193,0.527,0.193,0.715,0c2.037-2.081,4.143-4.23,5.48-6.958l2.121-0.353c-0.35,2.696-2.981,5.385-5.532,7.992   l-0.744,0.763c-0.184,0.189-0.189,0.488-0.013,0.684c1.165,1.29,1.958,2.397,2.496,3.483c0.074,0.149,0.217,0.252,0.382,0.273   c4.234,0.567,6.45,1.791,6.45,2.708C23,19.1,22.973,19.203,22.921,19.309z"/>
	<path style="opacity:0.1;enable-background:new    ;" d="M16.851,17.037c0.05-0.056,0.111-0.097,0.178-0.126   c-0.077-0.012-0.156-0.025-0.229-0.036c-0.024-0.004-0.05-0.006-0.074-0.006c-0.142,0-0.278,0.061-0.374,0.168   c-0.112,0.126-0.152,0.301-0.108,0.464c0.14,0.513,0.223,1.007,0.249,1.498h0.5c-0.026-0.491-0.109-0.985-0.249-1.498   C16.698,17.338,16.738,17.163,16.851,17.037z"/>
	<path style="fill:#0D47A1;" d="M5.66,3.45c1.335,2.721,3.443,4.874,5.484,6.958c0.157,0.162,0.416,0.18,0.607,0.071   c-0.037-0.021-0.077-0.039-0.107-0.071C9.604,8.324,7.495,6.171,6.16,3.45L4.039,3.097c0.004,0.029,0.016,0.058,0.02,0.087   L5.66,3.45z"/>
	<path style="opacity:0.1;enable-background:new    ;" d="M16.55,16.291c-0.165-0.021-0.308-0.124-0.382-0.273   c-0.538-1.086-1.331-2.193-2.496-3.483c-0.177-0.195-0.171-0.494,0.013-0.684l0.744-0.763c2.551-2.606,5.183-5.296,5.532-7.992   l-0.52,0.087c-0.394,2.667-2.989,5.327-5.512,7.905l-0.744,0.763c-0.184,0.189-0.189,0.488-0.013,0.684   c1.165,1.29,1.958,2.397,2.496,3.483c0.074,0.149,0.217,0.252,0.382,0.273H16.55z"/>
	<path style="opacity:0.2;fill:#FFFFFF;enable-background:new    ;" d="M5.039,3.263l-1-0.166c0.35,2.694,2.979,5.382,5.528,7.987   c2.63,2.688,5.124,5.237,5.406,7.916h0.961c-0.282-2.679-2.776-5.227-5.406-7.916C8.032,8.532,5.472,5.902,5.039,3.263z"/>
	<g>
		<g>
			
				<linearGradient id="SVGID_1_" gradientUnits="userSpaceOnUse" x1="0.9385" y1="17.1904" x2="24.6863" y2="6.1166" gradientTransform="matrix(1 0 0 -1 0 24)">
				<stop offset="0" style="stop-color:#FFFFFF;stop-opacity:0.2"/>
				<stop offset="1" style="stop-color:#FFFFFF;stop-opacity:0"/>
			</linearGradient>
			<path style="fill:url(#SVGID_1_);" d="M11.584,6.777C11.677,6.916,11.833,7,12,7s0.323-0.084,0.416-0.223l2-3     c0.103-0.153,0.112-0.351,0.024-0.514C14.354,3.102,14.185,3,14,3h-4C9.815,3,9.646,3.102,9.56,3.264     c-0.088,0.163-0.078,0.36,0.024,0.514L11.584,6.777z M9.032,13.401c-0.102-0.104-0.23-0.162-0.39-0.151     c-0.146,0.009-0.28,0.08-0.368,0.197c-0.497,0.654-0.898,1.275-1.224,1.891C2.63,15.967,0,17.329,0,18.999     c0,0.746,0.532,1.825,3.069,2.734c0.006,0.002,0.012,0.001,0.018,0.003c0.006,0.002,0.01,0.006,0.015,0.008     C3.94,21.979,5.041,22,5.396,22c0.065,0,0.105-0.001,0.114-0.001C5.774,21.994,5.989,21.784,6,21.52     c0.011-0.265-0.186-0.491-0.448-0.518l-2.187-0.229C2.362,20.367,2,19.969,2,19.749c0-0.415,1.135-1.227,4.122-1.766     C6.03,18.494,5.99,18.998,6,19.509c0.006,0.272,0.228,0.49,0.5,0.49h3c0.276,0,0.5-0.224,0.5-0.5c0-0.946,0.383-1.983,1.171-3.17     c0.121-0.183,0.109-0.423-0.029-0.593C10.589,15.06,9.919,14.318,9.032,13.401z M16.943,15.336     c-0.521-0.991-1.235-1.996-2.218-3.121l0.418-0.428C18.022,8.845,21,5.804,21,2.5c0-0.147-0.064-0.286-0.177-0.382     c-0.112-0.095-0.261-0.136-0.405-0.111l-2.999,0.5c-0.162,0.027-0.301,0.132-0.371,0.281c-1.185,2.53-3.122,4.586-5.046,6.555     c-1.928-1.973-3.868-4.032-5.05-6.555c-0.07-0.149-0.209-0.254-0.371-0.281l-2.999-0.5C3.438,1.983,3.289,2.023,3.177,2.118     C3.064,2.214,3,2.353,3,2.5c0,3.302,2.975,6.342,5.853,9.283C11.499,14.488,14,17.043,14,19.499c0,0.276,0.224,0.5,0.5,0.5h3     c0.272,0,0.494-0.218,0.5-0.49c0.01-0.508-0.03-1.012-0.123-1.525C20.865,18.523,22,19.334,22,19.749     c0,0.22-0.362,0.618-1.365,1.024l-2.187,0.229c-0.263,0.027-0.459,0.254-0.448,0.518c0.012,0.264,0.227,0.474,0.49,0.479     c0.009,0,0.049,0.001,0.114,0.001c0.354,0,1.455-0.021,2.293-0.256c0.006-0.002,0.01-0.006,0.015-0.008     c0.006-0.002,0.012-0.001,0.018-0.003c2.538-0.909,3.07-1.988,3.07-2.734C24,17.329,21.368,15.967,16.943,15.336z"/>
		</g>
	</g>
</g>

	<metadata>
		<rdf:RDF xmlns:rdf="http://www.w3.org/1999/02/22-rdf-syntax-ns#" xmlns:rdfs="http://www.w3.org/2000/01/rdf-schema#" xmlns:dc="http://purl.org/dc/elements/1.1/">
			<rdf:Description about="https://iconscout.com/legal#licenses" dc:title="social; media; social media; logo; confluence" dc:description="social; media; social media; logo; confluence" dc:publisher="Iconscout" dc:date="2017-03-22" dc:format="image/svg+xml" dc:language="en">
				<dc:creator>
					<rdf:Bag>
						<rdf:li>Alpár - Etele Méder</rdf:li>
					</rdf:Bag>
				</dc:creator>
			</rdf:Description>
		</rdf:RDF>
    </metadata></svg>
