<?xml version="1.0" encoding="UTF-8"?>
<svg xmlns="http://www.w3.org/2000/svg" xmlns:xlink="http://www.w3.org/1999/xlink" version="1.1" id="Layer_1" x="0px" y="0px" viewBox="0 0 24 24" style="enable-background:new 0 0 24 24;" xml:space="preserve">
<g>
	<path style="fill:#303C42;" d="M12,3C5.772,3,1.517,6.151,0.017,11.873c-0.022,0.083-0.022,0.171,0,0.254   C1.517,17.849,5.772,21,12,21s10.483-3.151,11.983-8.873c0.022-0.083,0.022-0.171,0-0.254C22.483,6.151,18.228,3,12,3z"/>
	<path style="fill:#FFFFFF;" d="M12,20c-5.684,0-9.578-2.84-10.982-8C2.422,6.84,6.316,4,12,4s9.578,2.84,10.982,8   C21.578,17.16,17.684,20,12,20z"/>
	<path style="opacity:0.1;" d="M19.973,6.8c1.138,1.238,1.983,2.805,2.494,4.684c-1.404,5.16-5.299,8-10.982,8   c-3.314,0-6.014-0.972-7.973-2.8C5.498,18.847,8.385,20,12,20c5.684,0,9.578-2.84,10.982-8C22.397,9.849,21.373,8.107,19.973,6.8z"/>
	<circle style="fill:#303C42;" cx="12" cy="12" r="5"/>
	<circle style="fill:#EF5350;" cx="12" cy="12" r="4"/>
	<path style="opacity:0.2;fill:#FFFFFF;" d="M8.312,12.313c0-2.206,1.794-4,4-4c1.023,0,1.948,0.397,2.656,1.031   C14.236,8.526,13.183,8,12,8c-2.206,0-4,1.794-4,4c0,1.183,0.526,2.236,1.344,2.969C8.71,14.26,8.312,13.336,8.312,12.313z"/>
	<linearGradient id="SVGID_1_" gradientUnits="userSpaceOnUse" x1="1.8944" y1="7.2877" x2="22.1056" y2="16.7123">
		<stop offset="0" style="stop-color:#FFFFFF;stop-opacity:0.2"/>
		<stop offset="1" style="stop-color:#FFFFFF;stop-opacity:0"/>
	</linearGradient>
	<path style="fill:url(#SVGID_1_);" d="M12,3C5.772,3,1.517,6.151,0.017,11.873c-0.022,0.083-0.022,0.171,0,0.254   C1.517,17.849,5.772,21,12,21s10.483-3.151,11.983-8.873c0.022-0.083,0.022-0.171,0-0.254C22.483,6.151,18.228,3,12,3z"/>
</g>
<g>
</g>
<g>
</g>
<g>
</g>
<g>
</g>
<g>
</g>
<g>
</g>
<g>
</g>
<g>
</g>
<g>
</g>
<g>
</g>
<g>
</g>
<g>
</g>
<g>
</g>
<g>
</g>
<g>
</g>

	<metadata>
		<rdf:RDF xmlns:rdf="http://www.w3.org/1999/02/22-rdf-syntax-ns#" xmlns:rdfs="http://www.w3.org/2000/01/rdf-schema#" xmlns:dc="http://purl.org/dc/elements/1.1/">
			<rdf:Description about="https://iconscout.com/legal#licenses" dc:title="social; media; social media; logo; coroflot" dc:description="social; media; social media; logo; coroflot" dc:publisher="Iconscout" dc:date="2017-03-22" dc:format="image/svg+xml" dc:language="en">
				<dc:creator>
					<rdf:Bag>
						<rdf:li>Alpár - Etele Méder</rdf:li>
					</rdf:Bag>
				</dc:creator>
			</rdf:Description>
		</rdf:RDF>
    </metadata></svg>
