<?xml version="1.0" encoding="UTF-8"?>
<svg xmlns="http://www.w3.org/2000/svg" xmlns:xlink="http://www.w3.org/1999/xlink" version="1.1" id="Layer_1" x="0px" y="0px" viewBox="0 0 24 24" style="enable-background:new 0 0 24 24;" xml:space="preserve">
<g>
	<path style="fill:#303C42;" d="M21,1h-9c-0.276,0-0.5,0.224-0.5,0.5v10h-10C1.224,11.5,1,11.724,1,12v9c0,1.103,0.897,2,2,2h9   c0.276,0,0.5-0.224,0.5-0.5v-10h10c0.276,0,0.5-0.224,0.5-0.5V3C23,1.897,22.103,1,21,1z"/>
	<path style="fill:#4D4D4D;" d="M11.5,22H3c-0.552,0-1-0.449-1-1v-8.5h9.5V22z"/>
	<path style="fill:#1E88E5;" d="M22,11.5h-9.5V2H21c0.552,0,1,0.449,1,1V11.5z"/>
	<path style="fill:#303C42;" d="M23,21v-9c0-0.276-0.224-0.5-0.5-0.5h-10v-10C12.5,1.224,12.276,1,12,1H3C1.897,1,1,1.897,1,3v9   c0,0.276,0.224,0.5,0.5,0.5h10v10c0,0.276,0.224,0.5,0.5,0.5h9C22.103,23,23,22.103,23,21z"/>
	<path style="fill:#FFFFFF;" d="M2,11.5V3c0-0.552,0.449-1,1-1h8.5v9.5H2z"/>
	<path style="fill:#E6E6E6;" d="M12.5,22v-9.5H22V21c0,0.552-0.449,1-1,1H12.5z"/>
	<linearGradient id="SVGID_1_" gradientUnits="userSpaceOnUse" x1="-0.6522" y1="6.1002" x2="24.6523" y2="17.8998">
		<stop offset="0" style="stop-color:#FFFFFF;stop-opacity:0.2"/>
		<stop offset="1" style="stop-color:#FFFFFF;stop-opacity:0"/>
	</linearGradient>
	<path style="fill:url(#SVGID_1_);" d="M21,1h-9H3C1.897,1,1,1.897,1,3v9v9c0,1.103,0.897,2,2,2h9h9c1.103,0,2-0.897,2-2v-9V3   C23,1.897,22.103,1,21,1z"/>
</g>
<g>
</g>
<g>
</g>
<g>
</g>
<g>
</g>
<g>
</g>
<g>
</g>
<g>
</g>
<g>
</g>
<g>
</g>
<g>
</g>
<g>
</g>
<g>
</g>
<g>
</g>
<g>
</g>
<g>
</g>

	<metadata>
		<rdf:RDF xmlns:rdf="http://www.w3.org/1999/02/22-rdf-syntax-ns#" xmlns:rdfs="http://www.w3.org/2000/01/rdf-schema#" xmlns:dc="http://purl.org/dc/elements/1.1/">
			<rdf:Description about="https://iconscout.com/legal#licenses" dc:title="social; media; social media; logo; delicious" dc:description="social; media; social media; logo; delicious" dc:publisher="Iconscout" dc:date="2017-03-22" dc:format="image/svg+xml" dc:language="en">
				<dc:creator>
					<rdf:Bag>
						<rdf:li>Alpár - Etele Méder</rdf:li>
					</rdf:Bag>
				</dc:creator>
			</rdf:Description>
		</rdf:RDF>
    </metadata></svg>
