<?xml version="1.0" encoding="UTF-8"?>
<svg xmlns="http://www.w3.org/2000/svg" xmlns:xlink="http://www.w3.org/1999/xlink" version="1.1" id="Layer_1" x="0px" y="0px" viewBox="0 0 24 24" style="enable-background:new 0 0 24 24;" xml:space="preserve">
<g>
	<path style="fill:#303C42;" d="M18.365,8.637l-7.671-7.831C10.175,0.286,9.484,0,8.75,0C7.233,0,6,1.233,6,2.75   c0,0.734,0.286,1.425,0.81,1.948l1.955,1.91C5.332,7.933,3,11.271,3,15c0,4.963,4.037,9,9,9s9-4.037,9-9   C21,12.596,20.064,10.337,18.365,8.637z"/>
	<path style="fill:#FFB74D;" d="M12,23c-4.411,0-8-3.589-8-8c0-3.566,2.399-6.73,5.835-7.695c0.172-0.049,0.306-0.185,0.35-0.357   c0.044-0.174-0.007-0.356-0.135-0.481L7.513,3.987C7.182,3.656,7,3.217,7,2.75C7,1.785,7.785,1,8.75,1   c0.467,0,0.906,0.182,1.233,0.509l7.67,7.83c0.001,0.002,0.003,0.003,0.004,0.004C19.168,10.854,20,12.862,20,15   C20,19.411,16.411,23,12,23z"/>
	<path style="opacity:0.2;fill:#FFFFFF;" d="M4.75,15.75c0-3.566,2.399-6.73,5.835-7.695c0.172-0.049,0.306-0.185,0.35-0.357   c0.044-0.174-0.007-0.356-0.135-0.481l-0.726-0.709c0.103,0.123,0.15,0.283,0.11,0.44c-0.044,0.173-0.178,0.309-0.35,0.357   C6.399,8.27,4,11.434,4,15c0,2.396,1.064,4.544,2.739,6.011C5.505,19.603,4.75,17.765,4.75,15.75z"/>
	<path style="opacity:0.2;fill:#FFFFFF;" d="M8.19,4.649C7.909,4.33,7.75,3.928,7.75,3.5c0-0.965,0.785-1.75,1.75-1.75   c0.432,0,0.837,0.162,1.155,0.445L9.983,1.509C9.656,1.182,9.217,1,8.75,1C7.785,1,7,1.785,7,2.75c0,0.467,0.182,0.906,0.513,1.237   L8.19,4.649z"/>
	<path style="fill:#303C42;" d="M17.507,13.8l-4.653-4.653c-0.746-0.746-1.961-0.746-2.707,0s-0.746,1.961,0,2.707L11.293,13H8   c-1.103,0-2,0.897-2,2s0.897,2,2,2h3.293l-1.146,1.146c-0.746,0.746-0.746,1.961,0,2.707c0.373,0.373,0.863,0.56,1.354,0.56   s0.98-0.187,1.354-0.56l4.653-4.653C18.169,15.538,18.169,14.462,17.507,13.8z"/>
	<path style="fill:#FFFFFF;" d="M16.8,15.493l-4.653,4.653c-0.346,0.346-0.947,0.346-1.293,0c-0.173-0.173-0.269-0.402-0.269-0.646   s0.096-0.474,0.269-0.646l2-2c0.143-0.143,0.186-0.358,0.108-0.545S12.702,16,12.5,16H8c-0.552,0-1-0.448-1-1s0.448-1,1-1h4.5   c0.202,0,0.385-0.122,0.462-0.309s0.034-0.402-0.108-0.545l-2-2c-0.173-0.173-0.269-0.402-0.269-0.646s0.096-0.474,0.269-0.646   c0.346-0.346,0.947-0.346,1.293,0l4.653,4.653C17.071,14.778,17.071,15.222,16.8,15.493z"/>
	<linearGradient id="SVGID_1_" gradientUnits="userSpaceOnUse" x1="9.4105" y1="12.9268" x2="17.3898" y2="20.9062">
		<stop offset="0" style="stop-color:#000000;stop-opacity:0.1"/>
		<stop offset="1" style="stop-color:#000000;stop-opacity:0"/>
	</linearGradient>
	<path style="fill:url(#SVGID_1_);" d="M11.293,17H8c-0.386,0-0.743-0.115-1.049-0.305l2.65,2.65   c0.035-0.437,0.211-0.865,0.545-1.199L11.293,17z M6.297,16.041l0.008,0.008C6.303,16.046,6.302,16.043,6.3,16.04L6.297,16.041z    M17.676,14.001l-0.004,0.001c0.485,0.664,0.434,1.599-0.165,2.198l-4.653,4.653c-0.373,0.373-0.863,0.56-1.354,0.56   s-0.98-0.187-1.354-0.56l2.132,2.132c3.868-0.134,7.04-3.022,7.618-6.764L17.676,14.001z"/>
	<linearGradient id="SVGID_2_" gradientUnits="userSpaceOnUse" x1="2.8816" y1="8.8279" x2="20.8919" y2="17.2262">
		<stop offset="0" style="stop-color:#FFFFFF;stop-opacity:0.2"/>
		<stop offset="1" style="stop-color:#FFFFFF;stop-opacity:0"/>
	</linearGradient>
	<path style="fill:url(#SVGID_2_);" d="M18.365,8.637l-7.671-7.831C10.175,0.286,9.484,0,8.75,0C7.233,0,6,1.233,6,2.75   c0,0.734,0.286,1.425,0.81,1.948l1.955,1.91C5.332,7.933,3,11.271,3,15c0,4.963,4.037,9,9,9s9-4.037,9-9   C21,12.596,20.064,10.337,18.365,8.637z"/>
</g>
<g>
</g>
<g>
</g>
<g>
</g>
<g>
</g>
<g>
</g>
<g>
</g>
<g>
</g>
<g>
</g>
<g>
</g>
<g>
</g>
<g>
</g>
<g>
</g>
<g>
</g>
<g>
</g>
<g>
</g>

	<metadata>
		<rdf:RDF xmlns:rdf="http://www.w3.org/1999/02/22-rdf-syntax-ns#" xmlns:rdfs="http://www.w3.org/2000/01/rdf-schema#" xmlns:dc="http://purl.org/dc/elements/1.1/">
			<rdf:Description about="https://iconscout.com/legal#licenses" dc:title="social; media; social media; logo; doctrine" dc:description="social; media; social media; logo; doctrine" dc:publisher="Iconscout" dc:date="2017-03-22" dc:format="image/svg+xml" dc:language="en">
				<dc:creator>
					<rdf:Bag>
						<rdf:li>Alpár - Etele Méder</rdf:li>
					</rdf:Bag>
				</dc:creator>
			</rdf:Description>
		</rdf:RDF>
    </metadata></svg>
