<?xml version="1.0" encoding="UTF-8"?>
<svg xmlns="http://www.w3.org/2000/svg" xmlns:xlink="http://www.w3.org/1999/xlink" version="1.1" id="Layer_1" x="0px" y="0px" viewBox="0 0 24 24" style="enable-background:new 0 0 24 24;" xml:space="preserve">
<g>
	<path style="fill:#303C42;" d="M16.501,17L12,16.999c-1.537,0-2.251-1.187-3.753-6.539l-1.312,1.311   c-1.64,4.797-2.48,5.228-4.436,5.228h-2c-0.158,0-0.306-0.074-0.401-0.201c-0.094-0.126-0.124-0.29-0.079-0.441   C1.943,9.885,4.096,7,7,7h4.5c2.242,0,2.795,1.343,4.004,5.649C16.342,9.738,17.315,7,19.5,7h4c0.177,0,0.341,0.094,0.431,0.246   c0.09,0.153,0.092,0.342,0.006,0.497C19.508,15.714,18.118,17,16.501,17z"/>
	<path style="fill:#1E88E5;" d="M8.5,9c0.042,0,0.085,0.006,0.128,0.017C8.8,9.062,8.935,9.196,8.982,9.368   c1.566,5.709,2.172,6.631,3.018,6.631L16.501,16c0.87,0,2.001-0.627,6.147-8H19.5c-1.652,0-2.521,3.092-3.288,5.82l-0.231,0.817   c-0.062,0.215-0.258,0.362-0.48,0.362c0,0-0.001,0-0.002,0c-0.224-0.001-0.42-0.15-0.48-0.366l-0.144-0.518   C13.419,8.87,13.132,8,11.5,8H7c-1.44,0-3.593,0.846-5.825,7.999H2.5c1.334,0,1.944,0,3.526-4.661   c0.025-0.072,0.066-0.139,0.12-0.192l2-2C8.241,9.052,8.369,9,8.5,9z"/>
	<path style="opacity:0.1;" d="M16.501,15.664L12,15.663c-0.845,0-1.452-0.922-3.018-6.631C8.935,8.86,8.8,8.726,8.628,8.68   C8.586,8.669,8.543,8.663,8.5,8.663c-0.131,0-0.259,0.052-0.354,0.146l-2,2c-0.054,0.054-0.095,0.12-0.12,0.192   c-1.583,4.661-2.192,4.661-3.526,4.661l-0.794,0.043c-0.037,0.115-0.058,0.174-0.095,0.293H2.5c1.334,0,1.944,0,3.526-4.661   c0.025-0.072,0.066-0.139,0.12-0.192l2-2C8.241,9.052,8.369,9,8.5,9c0.042,0,0.085,0.006,0.128,0.017   C8.8,9.062,8.935,9.196,8.982,9.368c1.566,5.709,2.172,6.631,3.018,6.631L16.501,16c0.87,0,1.815-0.299,5.96-7.672H22.27   C18.286,15.37,17.357,15.664,16.501,15.664z"/>
	<path style="opacity:0.2;fill:#FFFFFF;" d="M7.328,8.328h4.5c0.47,0,0.827,0.077,1.134,0.305C12.581,8.142,12.146,8,11.5,8H7   c-1.44,0-3.593,0.846-5.825,7.999h0.436C3.804,9.16,5.911,8.328,7.328,8.328z"/>
	<path style="opacity:0.2;fill:#FFFFFF;" d="M15.346,14.961c0.06,0.216,0.256,0.365,0.48,0.366c0,0,0.002,0,0.002,0   c0.223,0,0.419-0.147,0.48-0.362l0.231-0.817c0.767-2.727,1.636-5.82,3.288-5.82h2.633C22.525,8.215,22.583,8.116,22.648,8H19.5   c-1.652,0-2.521,3.092-3.288,5.82l-0.231,0.817c-0.062,0.215-0.258,0.362-0.48,0.362c0,0-0.001,0-0.002,0   c-0.058,0-0.104-0.034-0.156-0.053L15.346,14.961z"/>
	<linearGradient id="SVGID_1_" gradientUnits="userSpaceOnUse" x1="3.4446" y1="8.01" x2="20.1759" y2="15.8119">
		<stop offset="0" style="stop-color:#FFFFFF;stop-opacity:0.2"/>
		<stop offset="1" style="stop-color:#FFFFFF;stop-opacity:0"/>
	</linearGradient>
	<path style="fill:url(#SVGID_1_);" d="M16.501,17L12,16.999c-1.537,0-2.251-1.187-3.753-6.539l-1.312,1.311   c-1.64,4.797-2.48,5.228-4.436,5.228h-2c-0.158,0-0.306-0.074-0.401-0.201c-0.094-0.126-0.124-0.29-0.079-0.441   C1.943,9.885,4.096,7,7,7h4.5c2.242,0,2.795,1.343,4.004,5.649C16.342,9.738,17.315,7,19.5,7h4c0.177,0,0.341,0.094,0.431,0.246   c0.09,0.153,0.092,0.342,0.006,0.497C19.508,15.714,18.118,17,16.501,17z"/>
</g>
<g>
</g>
<g>
</g>
<g>
</g>
<g>
</g>
<g>
</g>
<g>
</g>
<g>
</g>
<g>
</g>
<g>
</g>
<g>
</g>
<g>
</g>
<g>
</g>
<g>
</g>
<g>
</g>
<g>
</g>

	<metadata>
		<rdf:RDF xmlns:rdf="http://www.w3.org/1999/02/22-rdf-syntax-ns#" xmlns:rdfs="http://www.w3.org/2000/01/rdf-schema#" xmlns:dc="http://purl.org/dc/elements/1.1/">
			<rdf:Description about="https://iconscout.com/legal#licenses" dc:title="social; media; social media; logo; dot; net" dc:description="social; media; social media; logo; dot; net" dc:publisher="Iconscout" dc:date="2017-03-22" dc:format="image/svg+xml" dc:language="en">
				<dc:creator>
					<rdf:Bag>
						<rdf:li>Alpár - Etele Méder</rdf:li>
					</rdf:Bag>
				</dc:creator>
			</rdf:Description>
		</rdf:RDF>
    </metadata></svg>
