<?xml version="1.0" encoding="UTF-8"?>
<svg xmlns="http://www.w3.org/2000/svg" xmlns:xlink="http://www.w3.org/1999/xlink" version="1.1" id="Layer_1" x="0px" y="0px" viewBox="0 0 24 24" style="enable-background:new 0 0 24 24;" xml:space="preserve">
<g>
	<path style="fill:#303C42;" d="M12,0C5.383,0,0,5.383,0,12s5.383,12,12,12s12-5.383,12-12S18.617,0,12,0z"/>
	<path style="fill:#FF538E;" d="M19.861,5.839c1.317,1.677,2.114,3.78,2.134,6.069c-2.476-0.569-4.754-0.708-6.866-0.429   c-0.267-0.622-0.547-1.241-0.85-1.853C16.358,8.738,18.212,7.516,19.861,5.839z"/>
	<path style="fill:#FF538E;" d="M18.481,4.398c-1.448,1.499-3.092,2.639-5.128,3.477c-1.051-1.881-2.28-3.732-3.706-5.584   C10.403,2.108,11.188,2,12,2C14.472,2,16.733,2.907,18.481,4.398z"/>
	<path style="fill:#FF538E;" d="M7.666,3.002c1.468,1.856,2.72,3.687,3.781,5.538c-2.465,0.723-5.45,1.126-9.202,1.286   C2.917,6.812,4.951,4.315,7.666,3.002z"/>
	<path style="fill:#FF538E;" d="M2.008,11.837c3.939-0.149,7.39-0.549,10.404-1.508c0.258,0.513,0.503,1.028,0.733,1.547   c-3.373,0.933-6.287,3.082-8.847,6.495C2.864,16.639,2,14.419,2,12C2,11.945,2.007,11.892,2.008,11.837z"/>
	<path style="fill:#FF538E;" d="M5.74,19.787c2.378-3.244,5.039-5.24,8.163-6.044c0.888,2.368,1.52,4.835,1.928,7.491   C14.65,21.726,13.357,22,12,22C9.631,22,7.455,21.168,5.74,19.787z"/>
	<path style="fill:#FF538E;" d="M17.687,20.215c-0.407-2.374-0.997-4.629-1.79-6.807c1.814-0.174,3.774-0.004,5.914,0.513   C21.303,16.519,19.787,18.757,17.687,20.215z"/>
	<linearGradient id="SVGID_1_" gradientUnits="userSpaceOnUse" x1="3.8255" y1="5.8868" x2="6.97" y2="7.3531">
		<stop offset="0" style="stop-color:#FFFFFF;stop-opacity:0.2"/>
		<stop offset="1" style="stop-color:#FFFFFF;stop-opacity:0"/>
	</linearGradient>
	<path style="fill:url(#SVGID_1_);" d="M8.494,4.085c-0.27-0.36-0.542-0.721-0.828-1.083C4.951,4.315,2.917,6.812,2.245,9.826   c0.446-0.019,0.88-0.042,1.305-0.068C4.401,7.286,6.19,5.255,8.494,4.085z"/>
	<linearGradient id="SVGID_2_" gradientUnits="userSpaceOnUse" x1="1.0692" y1="13.8506" x2="5.5075" y2="15.9202">
		<stop offset="0" style="stop-color:#FFFFFF;stop-opacity:0.2"/>
		<stop offset="1" style="stop-color:#FFFFFF;stop-opacity:0"/>
	</linearGradient>
	<path style="fill:url(#SVGID_2_);" d="M3,13c0-0.415,0.033-0.822,0.083-1.225c-0.361,0.019-0.705,0.047-1.075,0.061   C2.007,11.892,2,11.945,2,12c0,2.419,0.864,4.639,2.298,6.371c0.052-0.07,0.107-0.13,0.159-0.199C3.539,16.66,3,14.894,3,13z"/>
	<linearGradient id="SVGID_3_" gradientUnits="userSpaceOnUse" x1="9.9772" y1="1.5817" x2="18.0407" y2="5.3418">
		<stop offset="0" style="stop-color:#FFFFFF;stop-opacity:0.2"/>
		<stop offset="1" style="stop-color:#FFFFFF;stop-opacity:0"/>
	</linearGradient>
	<path style="fill:url(#SVGID_3_);" d="M13,3c1.956,0,3.778,0.573,5.321,1.548c0.052-0.052,0.108-0.097,0.16-0.15   C16.733,2.907,14.472,2,12,2c-0.812,0-1.597,0.108-2.354,0.291c0.271,0.352,0.528,0.704,0.785,1.056C11.252,3.128,12.111,3,13,3z"/>
	<linearGradient id="SVGID_4_" gradientUnits="userSpaceOnUse" x1="1.1249" y1="6.9289" x2="22.8751" y2="17.0711">
		<stop offset="0" style="stop-color:#FFFFFF;stop-opacity:0.2"/>
		<stop offset="1" style="stop-color:#FFFFFF;stop-opacity:0"/>
	</linearGradient>
	<path style="fill:url(#SVGID_4_);" d="M12,0C5.383,0,0,5.383,0,12s5.383,12,12,12s12-5.383,12-12S18.617,0,12,0z"/>
</g>
<g>
</g>
<g>
</g>
<g>
</g>
<g>
</g>
<g>
</g>
<g>
</g>
<g>
</g>
<g>
</g>
<g>
</g>
<g>
</g>
<g>
</g>
<g>
</g>
<g>
</g>
<g>
</g>
<g>
</g>

	<metadata>
		<rdf:RDF xmlns:rdf="http://www.w3.org/1999/02/22-rdf-syntax-ns#" xmlns:rdfs="http://www.w3.org/2000/01/rdf-schema#" xmlns:dc="http://purl.org/dc/elements/1.1/">
			<rdf:Description about="https://iconscout.com/legal#licenses" dc:title="social; media; social media; logo; dribbble" dc:description="social; media; social media; logo; dribbble" dc:publisher="Iconscout" dc:date="2017-03-22" dc:format="image/svg+xml" dc:language="en">
				<dc:creator>
					<rdf:Bag>
						<rdf:li>Alpár - Etele Méder</rdf:li>
					</rdf:Bag>
				</dc:creator>
			</rdf:Description>
		</rdf:RDF>
    </metadata></svg>
