<?xml version="1.0" encoding="UTF-8"?>
<svg xmlns="http://www.w3.org/2000/svg" xmlns:xlink="http://www.w3.org/1999/xlink" version="1.1" id="Layer_1" x="0px" y="0px" viewBox="0 0 24 24" style="enable-background:new 0 0 24 24;" xml:space="preserve">
<g>
	<path style="fill:#303C42;" d="M16.219,3.805c-2.116-1.143-4.323-3.611-4.345-3.636c-0.111-0.125-0.28-0.189-0.445-0.163   c-0.167,0.024-0.31,0.13-0.382,0.282c-0.011,0.024-1.138,2.389-2.831,3.363C3.899,5.163,1,9.121,1,13.5C1,19.29,5.935,24,12,24   s11-4.71,11-10.5C23,9.242,20.339,5.439,16.219,3.805z"/>
	<path style="fill:#4FC3F7;" d="M12,23c-5.514,0-10-4.262-10-9.5c0-3.955,2.631-7.534,6.628-8.943   c1.449-0.825,2.481-2.344,2.983-3.206c0.802,0.83,2.477,2.447,4.16,3.348c0.018,0.009,0.035,0.017,0.053,0.024   C19.576,6.201,22,9.646,22,13.5C22,18.738,17.514,23,12,23z"/>
	<path style="opacity:0.1;" d="M11.643,1.384c-0.01-0.01-0.023-0.023-0.032-0.032l0,0.001C11.621,1.363,11.633,1.373,11.643,1.384z"/>
	<path style="opacity:0.1;" d="M19.003,6.72C20.581,8.418,21.5,10.63,21.5,13c0,5.238-4.486,9.5-10,9.5   c-2.697,0-5.143-1.024-6.944-2.679C6.389,21.767,9.043,23,12,23c5.514,0,10-4.262,10-9.5C22,10.89,20.886,8.47,19.003,6.72z"/>
	<path style="opacity:0.2;fill:#FFFFFF;" d="M2.574,14.074c0-3.955,2.631-7.534,6.628-8.943c1.449-0.825,2.481-2.344,2.983-3.206   c0.802,0.83,2.477,2.447,4.16,3.348c0.018,0.009,0.035,0.017,0.053,0.024c1.182,0.465,2.232,1.127,3.116,1.934   c-0.99-1.07-2.24-1.937-3.69-2.509c-0.018-0.007-0.035-0.015-0.053-0.024c-1.684-0.901-3.358-2.518-4.16-3.348   c-0.502,0.862-1.534,2.381-2.983,3.206C4.631,5.967,2,9.545,2,13.5c0,2.685,1.183,5.108,3.075,6.837   C3.524,18.663,2.574,16.475,2.574,14.074z"/>
	<path style="fill:#303C42;" d="M19,12c-1.007,0-1.598,0.479-2.578,1.273c-0.37,0.3-0.82,0.662-1.383,1.078   C12.508,11.957,10.928,11,9.5,11C6.408,11,5,13.073,5,15c0,2.206,1.794,4,4,4c1.86,0,4.822-2.344,5.928-3.279   c0.743,0.925,2.38,2.779,3.572,2.779c1.549,0,2.5-2.039,2.5-3.5C21,12.292,19.602,12,19,12z"/>
	<path style="fill:#FFFFFF;" d="M9,18c-1.853,0-3-1.557-3-3c0-1.493,1.082-3,3.5-3c1.117,0,2.513,0.87,4.755,2.981   C12.959,16.066,10.367,18,9,18z"/>
	<path style="fill:#FFFFFF;" d="M18.5,17.5c-0.556,0-1.807-1.181-2.789-2.4c0.545-0.404,0.977-0.754,1.341-1.049   C18.036,13.252,18.378,13,19,13c0.826,0,1,1.087,1,2C20,15.983,19.355,17.5,18.5,17.5z"/>
	<path style="fill:#303C42;" d="M12.903,19.795C13.395,19.123,13.826,19,14.5,19c0.187,0,0.337,0.053,0.422,0.148   c0.085,0.095,0.091,0.212,0.082,0.293c-0.033,0.274,0.163,0.523,0.438,0.555c0.021,0.002,0.04,0.003,0.06,0.003   c0.25,0,0.466-0.187,0.495-0.441c0.048-0.402-0.068-0.784-0.327-1.075C15.392,18.172,14.977,18,14.5,18   c-0.791,0-1.63,0.146-2.403,1.205c-0.163,0.223-0.114,0.536,0.108,0.699C12.427,20.066,12.74,20.019,12.903,19.795z"/>
	<path style="fill:#303C42;" d="M15.771,20.556c-1.268,0.655-3.919,0.552-5.049-0.004c-0.245-0.12-0.547-0.022-0.67,0.227   c-0.122,0.248-0.021,0.547,0.227,0.669c0.713,0.352,1.873,0.556,3.043,0.556c1.074,0,2.157-0.172,2.908-0.56   c0.245-0.127,0.342-0.428,0.215-0.674C16.317,20.524,16.014,20.431,15.771,20.556z"/>
	<linearGradient id="SVGID_1_" gradientUnits="userSpaceOnUse" x1="2.4312" y1="8.2212" x2="22.2026" y2="17.4408">
		<stop offset="0" style="stop-color:#FFFFFF;stop-opacity:0.2"/>
		<stop offset="1" style="stop-color:#FFFFFF;stop-opacity:0"/>
	</linearGradient>
	<path style="fill:url(#SVGID_1_);" d="M16.219,3.805c-2.116-1.143-4.323-3.611-4.345-3.636c-0.111-0.125-0.28-0.189-0.445-0.163   c-0.167,0.024-0.31,0.13-0.382,0.282c-0.011,0.024-1.138,2.389-2.831,3.363C3.899,5.163,1,9.121,1,13.5C1,19.29,5.935,24,12,24   s11-4.71,11-10.5C23,9.242,20.339,5.439,16.219,3.805z"/>
</g>
<g>
</g>
<g>
</g>
<g>
</g>
<g>
</g>
<g>
</g>
<g>
</g>
<g>
</g>
<g>
</g>
<g>
</g>
<g>
</g>
<g>
</g>
<g>
</g>
<g>
</g>
<g>
</g>
<g>
</g>

	<metadata>
		<rdf:RDF xmlns:rdf="http://www.w3.org/1999/02/22-rdf-syntax-ns#" xmlns:rdfs="http://www.w3.org/2000/01/rdf-schema#" xmlns:dc="http://purl.org/dc/elements/1.1/">
			<rdf:Description about="https://iconscout.com/legal#licenses" dc:title="social; media; social media; logo; drupal" dc:description="social; media; social media; logo; drupal" dc:publisher="Iconscout" dc:date="2017-03-22" dc:format="image/svg+xml" dc:language="en">
				<dc:creator>
					<rdf:Bag>
						<rdf:li>Alpár - Etele Méder</rdf:li>
					</rdf:Bag>
				</dc:creator>
			</rdf:Description>
		</rdf:RDF>
    </metadata></svg>
