<?xml version="1.0" encoding="UTF-8"?>
<svg xmlns="http://www.w3.org/2000/svg" xmlns:xlink="http://www.w3.org/1999/xlink" version="1.1" id="Layer_1" x="0px" y="0px" viewBox="0 0 24 24" style="enable-background:new 0 0 24 24;" xml:space="preserve">
<g>
	<path style="fill:#303C42;" d="M19.944,0.716C19.49,0.05,17.973,0.018,17.458,0c-2.841,0.243-5.008,0.965-6.44,2.146   C7.829,4.772,6,8.637,6,12.749c0,0.67,0.049,1.345,0.146,2.006c0.02,0.133-0.077,0.188-0.136,0.208   c-0.071,0.024-0.167,0.031-0.229-0.078c-0.939-1.664-1.376-3.561-1.263-5.486c0.05-0.842,0.221-1.684,0.51-2.502   c0.146-0.413-0.021-0.853-0.406-1.07C4.236,5.609,3.773,5.694,3.495,6.033c-1.682,2.046-2.566,4.633-2.491,7.285   c0.161,5.67,4.718,10.355,10.376,10.665C11.59,23.994,11.799,24,12.007,24c2.827,0,5.489-1.057,7.553-3.011   c2.218-2.1,3.439-4.937,3.439-7.99C23,5.418,20.257,1.175,19.944,0.716z"/>
	<path style="fill:#7CB342;" d="M18.873,20.263c-2.015,1.907-4.655,2.874-7.438,2.721c-5.143-0.283-9.285-4.542-9.431-9.695   c-0.063-2.208,0.606-4.367,1.894-6.143C3.69,7.867,3.563,8.604,3.52,9.34c-0.124,2.117,0.357,4.204,1.391,6.036   c0.285,0.503,0.873,0.723,1.424,0.532c0.557-0.191,0.886-0.726,0.801-1.3C7.046,13.996,7,13.37,7,12.749   c0-3.812,1.696-7.395,4.653-9.831c1.273-1.049,3.255-1.695,5.847-1.92c0.917,0,1.512,0.19,1.624,0.291   C19.31,1.566,22,5.693,22,12.999C22,15.774,20.89,18.354,18.873,20.263z"/>
	<path style="opacity:0.2;fill:#FFFFFF;" d="M5.21,15.897c0.285,0.503,0.873,0.723,1.424,0.532c0.557-0.191,0.886-0.726,0.801-1.3   C7.345,14.517,7.3,13.891,7.3,13.27c0-3.812,1.696-7.396,4.653-9.831c1.273-1.049,3.255-1.695,5.847-1.92   c0.917,0,1.512,0.19,1.624,0.291c0.015,0.022,0.052,0.08,0.097,0.152c-0.208-0.383-0.358-0.616-0.396-0.673   c-0.112-0.101-0.708-0.291-1.624-0.291c-2.592,0.224-4.574,0.871-5.847,1.92C8.696,5.353,7,8.937,7,12.749   c0,0.622,0.046,1.247,0.136,1.86c0.085,0.574-0.245,1.109-0.801,1.3c-0.486,0.168-0.989,0.003-1.299-0.38   C5.098,15.65,5.142,15.778,5.21,15.897z"/>
	<path style="opacity:0.2;fill:#FFFFFF;" d="M2.304,13.81c-0.052-1.834,0.408-3.631,1.301-5.207C3.671,8.114,3.76,7.626,3.898,7.145   c-1.288,1.776-1.957,3.935-1.894,6.143c0.05,1.765,0.577,3.42,1.444,4.851C2.76,16.833,2.348,15.364,2.304,13.81z"/>
	<path style="opacity:0.1;" d="M20.693,4.692c0.544,1.878,0.995,4.323,0.995,7.308c0,2.776-1.11,5.355-3.127,7.264   c-2.015,1.907-4.655,2.874-7.438,2.721c-4.043-0.222-7.459-2.907-8.809-6.548c1.054,4.141,4.717,7.304,9.122,7.546   c2.783,0.153,5.423-0.814,7.438-2.721C20.89,18.354,22,15.774,22,12.999C22,9.453,21.366,6.664,20.693,4.692z"/>
	<linearGradient id="SVGID_1_" gradientUnits="userSpaceOnUse" x1="2.8011" y1="6.7044" x2="22.7455" y2="16.0046">
		<stop offset="0" style="stop-color:#FFFFFF;stop-opacity:0.2"/>
		<stop offset="1" style="stop-color:#FFFFFF;stop-opacity:0"/>
	</linearGradient>
	<path style="fill:url(#SVGID_1_);" d="M19.944,0.716C19.49,0.05,17.973,0.018,17.458,0c-2.841,0.243-5.008,0.965-6.44,2.146   C7.829,4.772,6,8.637,6,12.749c0,0.67,0.049,1.345,0.146,2.006c0.02,0.133-0.077,0.188-0.136,0.208   c-0.071,0.024-0.167,0.031-0.229-0.078c-0.939-1.664-1.376-3.561-1.263-5.486c0.05-0.842,0.221-1.684,0.51-2.502   c0.146-0.413-0.021-0.853-0.406-1.07C4.236,5.609,3.773,5.694,3.495,6.033c-1.682,2.046-2.566,4.633-2.491,7.285   c0.161,5.67,4.718,10.355,10.376,10.665C11.59,23.994,11.799,24,12.007,24c2.827,0,5.489-1.057,7.553-3.011   c2.218-2.1,3.439-4.937,3.439-7.99C23,5.418,20.257,1.175,19.944,0.716z"/>
</g>
<g>
</g>
<g>
</g>
<g>
</g>
<g>
</g>
<g>
</g>
<g>
</g>
<g>
</g>
<g>
</g>
<g>
</g>
<g>
</g>
<g>
</g>
<g>
</g>
<g>
</g>
<g>
</g>
<g>
</g>

	<metadata>
		<rdf:RDF xmlns:rdf="http://www.w3.org/1999/02/22-rdf-syntax-ns#" xmlns:rdfs="http://www.w3.org/2000/01/rdf-schema#" xmlns:dc="http://purl.org/dc/elements/1.1/">
			<rdf:Description about="https://iconscout.com/legal#licenses" dc:title="social; media; social media; logo; envato" dc:description="social; media; social media; logo; envato" dc:publisher="Iconscout" dc:date="2017-03-22" dc:format="image/svg+xml" dc:language="en">
				<dc:creator>
					<rdf:Bag>
						<rdf:li>Alpár - Etele Méder</rdf:li>
					</rdf:Bag>
				</dc:creator>
			</rdf:Description>
		</rdf:RDF>
    </metadata></svg>
