<?xml version="1.0" encoding="UTF-8"?>
<svg xmlns="http://www.w3.org/2000/svg" xmlns:xlink="http://www.w3.org/1999/xlink" version="1.1" id="Layer_1" x="0px" y="0px" viewBox="0 0 24 24" style="enable-background:new 0 0 24 24;" xml:space="preserve">
<g>
	<path style="fill:#303C42;" d="M12,0C5.383,0,0,5.159,0,11.5c0,3.24,1.43,6.32,3.934,8.503l-0.916,3.366   c-0.051,0.188,0.012,0.389,0.16,0.514C3.271,23.96,3.385,24,3.5,24c0.072,0,0.145-0.016,0.212-0.047l3.805-1.783   C8.943,22.721,10.451,23,12,23c6.617,0,12-5.159,12-11.5S18.617,0,12,0z"/>
	<path style="fill:#5262BC;" d="M12,22c-1.494,0-2.944-0.282-4.312-0.838c-0.129-0.052-0.275-0.049-0.4,0.011l-3.021,1.416   l0.716-2.63c0.052-0.189-0.013-0.392-0.164-0.517C2.392,17.44,1,14.545,1,11.5C1,5.71,5.935,1,12,1s11,4.71,11,10.5   S18.065,22,12,22z"/>
	<path style="opacity:0.2;fill:#FFFFFF;" d="M1.5,12c0-5.79,4.935-10.5,11-10.5c2.966,0,5.657,1.132,7.637,2.96   C18.123,2.341,15.226,1,12,1C5.935,1,1,5.71,1,11.5c0,2.805,1.192,5.472,3.274,7.441C2.503,17.031,1.5,14.573,1.5,12z"/>
	<path style="fill:#303C42;" d="M19.9,8.201c-0.15-0.2-0.425-0.258-0.64-0.14l-5.197,2.835l-3.238-2.775   c-0.197-0.169-0.493-0.158-0.679,0.026l-6,6c-0.176,0.176-0.195,0.454-0.047,0.653C4.197,14.93,4.347,15,4.5,15   c0.082,0,0.164-0.02,0.239-0.061l5.197-2.835l3.238,2.775c0.198,0.171,0.493,0.159,0.679-0.026l6-6   C20.029,8.678,20.049,8.399,19.9,8.201z"/>
	<path style="fill:#FFFFFF;" d="M13.474,13.819l-3.148-2.698C10.232,11.041,10.117,11,10,11c-0.082,0-0.164,0.02-0.239,0.061   l-2.452,1.337l3.218-3.217l3.148,2.698c0.158,0.136,0.382,0.16,0.564,0.06l2.452-1.337L13.474,13.819z"/>
	<linearGradient id="SVGID_1_" gradientUnits="userSpaceOnUse" x1="9.6976" y1="9.2013" x2="19.5981" y2="19.1017">
		<stop offset="0" style="stop-color:#000000;stop-opacity:0.1"/>
		<stop offset="1" style="stop-color:#000000;stop-opacity:0"/>
	</linearGradient>
	<path style="fill:url(#SVGID_1_);" d="M22.989,11.289L19.9,8.201c0.148,0.199,0.129,0.477-0.047,0.653l-6,6   c-0.186,0.185-0.48,0.197-0.679,0.026l-3.238-2.775l-5.197,2.835C4.664,14.98,4.582,15,4.5,15c-0.153,0-0.303-0.07-0.4-0.201   l7.166,7.166C11.51,21.98,11.753,22,12,22c6.065,0,11-4.71,11-10.5C23,11.429,22.99,11.36,22.989,11.289z"/>
	<linearGradient id="SVGID_2_" gradientUnits="userSpaceOnUse" x1="0.4903" y1="7.9965" x2="22.0821" y2="18.0649">
		<stop offset="0" style="stop-color:#FFFFFF;stop-opacity:0.2"/>
		<stop offset="1" style="stop-color:#FFFFFF;stop-opacity:0"/>
	</linearGradient>
	<path style="fill:url(#SVGID_2_);" d="M12,0C5.383,0,0,5.159,0,11.5c0,3.24,1.43,6.32,3.934,8.503l-0.916,3.366   c-0.051,0.188,0.012,0.389,0.16,0.514C3.271,23.96,3.385,24,3.5,24c0.072,0,0.145-0.016,0.212-0.047l3.805-1.783   C8.943,22.721,10.451,23,12,23c6.617,0,12-5.159,12-11.5S18.617,0,12,0z"/>
</g>
<g>
</g>
<g>
</g>
<g>
</g>
<g>
</g>
<g>
</g>
<g>
</g>
<g>
</g>
<g>
</g>
<g>
</g>
<g>
</g>
<g>
</g>
<g>
</g>
<g>
</g>
<g>
</g>
<g>
</g>

	<metadata>
		<rdf:RDF xmlns:rdf="http://www.w3.org/1999/02/22-rdf-syntax-ns#" xmlns:rdfs="http://www.w3.org/2000/01/rdf-schema#" xmlns:dc="http://purl.org/dc/elements/1.1/">
			<rdf:Description about="https://iconscout.com/legal#licenses" dc:title="social; media; social media; logo; facebook; messenger" dc:description="social; media; social media; logo; facebook; messenger" dc:publisher="Iconscout" dc:date="2017-03-22" dc:format="image/svg+xml" dc:language="en">
				<dc:creator>
					<rdf:Bag>
						<rdf:li>Alpár - Etele Méder</rdf:li>
					</rdf:Bag>
				</dc:creator>
			</rdf:Description>
		</rdf:RDF>
    </metadata></svg>
