<?xml version="1.0" encoding="UTF-8"?>
<svg xmlns="http://www.w3.org/2000/svg" xmlns:xlink="http://www.w3.org/1999/xlink" version="1.1" id="Layer_1" x="0px" y="0px" viewBox="0 0 24 24" style="enable-background:new 0 0 24 24;" xml:space="preserve">
<g>
	<circle style="fill:#303C42;" cx="6" cy="12" r="5"/>
	<circle style="fill:#1E88E5;" cx="6" cy="12" r="4"/>
	<circle style="fill:#303C42;" cx="18" cy="12" r="5"/>
	<circle style="fill:#FF4081;" cx="18" cy="12" r="4"/>
	<path style="opacity:0.2;fill:#FFFFFF;" d="M2.5,12.5c0-2.206,1.794-4,4-4c0.975,0,1.858,0.365,2.553,0.947C8.319,8.57,7.231,8,6,8   c-2.206,0-4,1.794-4,4c0,1.23,0.57,2.319,1.447,3.053C2.865,14.358,2.5,13.475,2.5,12.5z"/>
	<path style="opacity:0.2;fill:#FFFFFF;" d="M14.5,12.5c0-2.206,1.794-4,4-4c0.975,0,1.858,0.365,2.553,0.947   C20.319,8.57,19.231,8,18,8c-2.206,0-4,1.794-4,4c0,1.23,0.57,2.319,1.447,3.053C14.865,14.358,14.5,13.475,14.5,12.5z"/>
	<linearGradient id="SVGID_1_" gradientUnits="userSpaceOnUse" x1="2.5404" y1="7.5889" x2="21.4596" y2="16.4111">
		<stop offset="0" style="stop-color:#FFFFFF;stop-opacity:0.2"/>
		<stop offset="1" style="stop-color:#FFFFFF;stop-opacity:0"/>
	</linearGradient>
	<path style="fill:url(#SVGID_1_);" d="M6,7c-2.757,0-5,2.243-5,5s2.243,5,5,5s5-2.243,5-5S8.757,7,6,7z M18,7c-2.757,0-5,2.243-5,5   s2.243,5,5,5s5-2.243,5-5S20.757,7,18,7z"/>
</g>
<g>
</g>
<g>
</g>
<g>
</g>
<g>
</g>
<g>
</g>
<g>
</g>
<g>
</g>
<g>
</g>
<g>
</g>
<g>
</g>
<g>
</g>
<g>
</g>
<g>
</g>
<g>
</g>
<g>
</g>

	<metadata>
		<rdf:RDF xmlns:rdf="http://www.w3.org/1999/02/22-rdf-syntax-ns#" xmlns:rdfs="http://www.w3.org/2000/01/rdf-schema#" xmlns:dc="http://purl.org/dc/elements/1.1/">
			<rdf:Description about="https://iconscout.com/legal#licenses" dc:title="social; media; social media; logo; flickr" dc:description="social; media; social media; logo; flickr" dc:publisher="Iconscout" dc:date="2017-03-22" dc:format="image/svg+xml" dc:language="en">
				<dc:creator>
					<rdf:Bag>
						<rdf:li>Alpár - Etele Méder</rdf:li>
					</rdf:Bag>
				</dc:creator>
			</rdf:Description>
		</rdf:RDF>
    </metadata></svg>
