<?xml version="1.0" encoding="UTF-8"?>
<svg xmlns="http://www.w3.org/2000/svg" xmlns:xlink="http://www.w3.org/1999/xlink" version="1.1" id="Layer_1" x="0px" y="0px" viewBox="0 0 24 24" style="enable-background:new 0 0 24 24;" xml:space="preserve">
<g>
	<path style="fill:#303C42;" d="M21.962,23.308l-9.5-23.027c-0.154-0.374-0.77-0.374-0.924,0l-9.5,23.027   c-0.064,0.154-0.046,0.33,0.046,0.469C2.177,23.916,2.333,24,2.5,24h8c0.276,0,0.5-0.224,0.5-0.501v-9.511h2v9.511   C13,23.776,13.224,24,13.5,24h8c0.167,0,0.323-0.084,0.416-0.222C22.008,23.639,22.026,23.463,21.962,23.308z"/>
	<path style="fill:#66BB6A;" d="M14,22.999v-3.695l2.724-1.363c0.247-0.124,0.347-0.424,0.224-0.672   c-0.124-0.247-0.424-0.347-0.671-0.224L14,18.184v-1.425l1.277-0.853c0.23-0.154,0.292-0.464,0.139-0.694   c-0.153-0.23-0.463-0.293-0.693-0.139L14,15.556v-2.068c0-0.277-0.224-0.501-0.5-0.501h-3c-0.276,0-0.5,0.224-0.5,0.501v3.797   l-1.146-1.148c-0.195-0.196-0.512-0.196-0.707,0c-0.195,0.196-0.195,0.512,0,0.708L10,18.701v4.298H3.248L12,1.783l8.752,21.216H14   z"/>
	<polygon style="opacity:0.2;fill:#FFFFFF;" points="12.441,2.853 12,1.783 3.248,22.999 4.13,22.999  "/>
	<linearGradient id="SVGID_1_" gradientUnits="userSpaceOnUse" x1="11.4809" y1="15.6324" x2="19.7998" y2="23.9514">
		<stop offset="0" style="stop-color:#000000;stop-opacity:0.1"/>
		<stop offset="1" style="stop-color:#000000;stop-opacity:0"/>
	</linearGradient>
	<path style="fill:url(#SVGID_1_);" d="M14,13.487v2.068l0.723-0.482c0.23-0.154,0.541-0.091,0.693,0.139   c0.153,0.23,0.091,0.541-0.139,0.694L14,16.759v1.425l2.276-1.14c0.247-0.123,0.547-0.023,0.671,0.224   c0.124,0.247,0.023,0.548-0.224,0.672L14,19.303v3.695h6.752l-2.066-5.008l-4.782-4.782C13.96,13.29,14,13.382,14,13.487z"/>
	<linearGradient id="SVGID_2_" gradientUnits="userSpaceOnUse" x1="6.2846" y1="11.5459" x2="23.8141" y2="19.72">
		<stop offset="0" style="stop-color:#FFFFFF;stop-opacity:0.2"/>
		<stop offset="1" style="stop-color:#FFFFFF;stop-opacity:0"/>
	</linearGradient>
	<path style="fill:url(#SVGID_2_);" d="M21.962,23.308l-9.5-23.027c-0.154-0.374-0.77-0.374-0.924,0l-9.5,23.027   c-0.064,0.154-0.046,0.33,0.046,0.469C2.177,23.916,2.333,24,2.5,24h8c0.276,0,0.5-0.224,0.5-0.501v-9.511h2v9.511   C13,23.776,13.224,24,13.5,24h8c0.167,0,0.323-0.084,0.416-0.222C22.008,23.639,22.026,23.463,21.962,23.308z"/>
</g>
<g>
</g>
<g>
</g>
<g>
</g>
<g>
</g>
<g>
</g>
<g>
</g>
<g>
</g>
<g>
</g>
<g>
</g>
<g>
</g>
<g>
</g>
<g>
</g>
<g>
</g>
<g>
</g>
<g>
</g>

	<metadata>
		<rdf:RDF xmlns:rdf="http://www.w3.org/1999/02/22-rdf-syntax-ns#" xmlns:rdfs="http://www.w3.org/2000/01/rdf-schema#" xmlns:dc="http://purl.org/dc/elements/1.1/">
			<rdf:Description about="https://iconscout.com/legal#licenses" dc:title="social; media; social media; logo; forest" dc:description="social; media; social media; logo; forest" dc:publisher="Iconscout" dc:date="2017-03-22" dc:format="image/svg+xml" dc:language="en">
				<dc:creator>
					<rdf:Bag>
						<rdf:li>Alpár - Etele Méder</rdf:li>
					</rdf:Bag>
				</dc:creator>
			</rdf:Description>
		</rdf:RDF>
    </metadata></svg>
