<?xml version="1.0" encoding="UTF-8"?>
<svg xmlns="http://www.w3.org/2000/svg" xmlns:xlink="http://www.w3.org/1999/xlink" version="1.1" id="Layer_1" x="0px" y="0px" viewBox="0 0 24 24" style="enable-background:new 0 0 24 24;" xml:space="preserve">
<g>
	<path style="fill:#303C42;" d="M23.562,10.932C23.561,10.932,23.561,10.932,23.562,10.932l-10.5-10.506   c-0.566-0.568-1.558-0.567-2.122,0L0.438,10.932C0.156,11.216,0,11.593,0,11.993c0,0.401,0.156,0.778,0.439,1.061L10.938,23.56   C11.222,23.844,11.599,24,12,24s0.778-0.156,1.061-0.44l10.5-10.506C23.844,12.771,24,12.393,24,11.993   C24,11.593,23.844,11.216,23.562,10.932z"/>
	<path style="fill:#EF5350;" d="M22.854,12.354l-10.501,10.5c-0.188,0.188-0.517,0.189-0.706,0l-10.5-10.5   C1.052,12.259,1,12.133,1,12s0.052-0.259,0.146-0.354L8.543,4.25l1.74,1.741C10.108,6.288,10,6.63,10,7   c0,0.929,0.64,1.705,1.5,1.929v6.142c-0.86,0.224-1.5,1-1.5,1.929c0,1.103,0.897,2,2,2s2-0.897,2-2c0-0.929-0.64-1.705-1.5-1.929   V8.929c0.177-0.046,0.343-0.116,0.497-0.206l2.28,2.28C15.105,11.298,15,11.635,15,12c0,1.103,0.897,2,2,2s2-0.897,2-2   s-0.897-2-2-2c-0.375,0-0.722,0.11-1.022,0.29L13.71,8.022C13.89,7.722,14,7.375,14,7c0-1.103-0.897-2-2-2   c-0.37,0-0.712,0.108-1.01,0.284L9.25,3.543l2.397-2.397C11.741,1.052,11.866,1,12,1s0.259,0.052,0.354,0.146l10.499,10.5   C22.948,11.741,23,11.867,23,12S22.948,12.259,22.854,12.354z"/>
	<circle style="fill:#FFFFFF;" cx="12" cy="7" r="1"/>
	<circle style="fill:#FFFFFF;" cx="12" cy="17" r="1"/>
	<circle style="fill:#FFFFFF;" cx="17" cy="12" r="1"/>
	<path style="opacity:0.2;fill:#FFFFFF;" d="M1.667,12.167l7.397-7.396L8.543,4.25l-7.397,7.396C1.052,11.741,1,11.867,1,12   s0.052,0.259,0.146,0.354l0.521,0.521c-0.095-0.095-0.146-0.22-0.146-0.354S1.573,12.262,1.667,12.167z"/>
	<path style="opacity:0.2;fill:#FFFFFF;" d="M10.99,5.284l-1.219-1.22l2.397-2.397c0.094-0.094,0.219-0.146,0.353-0.146   s0.259,0.052,0.353,0.146l-0.521-0.521C12.259,1.052,12.134,1,12,1s-0.259,0.052-0.353,0.146L9.25,3.543L10.99,5.284L10.99,5.284z"/>
	<linearGradient id="SVGID_1_" gradientUnits="userSpaceOnUse" x1="9.6205" y1="9.6267" x2="17.6004" y2="17.6066">
		<stop offset="0" style="stop-color:#000000;stop-opacity:0.1"/>
		<stop offset="1" style="stop-color:#000000;stop-opacity:0"/>
	</linearGradient>
	<path style="fill:url(#SVGID_1_);" d="M13.71,8.022l2.268,2.268C16.278,10.11,16.625,10,17,10c0.49,0,0.933,0.184,1.281,0.477   l-4.756-4.756l0,0C13.817,6.07,14,6.512,14,7C14,7.375,13.89,7.722,13.71,8.022z M18.523,10.719C18.816,11.067,19,11.51,19,12   c0,1.103-0.897,2-2,2s-2-0.897-2-2c0-0.365,0.105-0.702,0.277-0.997l-2.28-2.28c-0.154,0.09-0.32,0.16-0.497,0.206v6.142   c0.86,0.224,1.5,1,1.5,1.929c0,1.103-0.897,2-2,2c-0.523,0-0.996-0.206-1.353-0.536l3.048,3.048l7.81-7.81L18.523,10.719z    M10.512,18.328l0.025,0.025c-0.008-0.009-0.015-0.018-0.023-0.027L10.512,18.328z"/>
	<path style="opacity:0.1;" d="M22.853,11.646l-0.498-0.498c0.096,0.095,0.147,0.221,0.147,0.354s-0.052,0.259-0.146,0.354   l-10.501,10.5c-0.188,0.188-0.517,0.189-0.706,0l0.498,0.498c0.189,0.189,0.519,0.189,0.706,0l10.501-10.5   C22.948,12.259,23,12.133,23,12S22.948,11.741,22.853,11.646z"/>
	<linearGradient id="SVGID_2_" gradientUnits="userSpaceOnUse" x1="2.0138" y1="7.3399" x2="21.9834" y2="16.6519">
		<stop offset="0" style="stop-color:#FFFFFF;stop-opacity:0.2"/>
		<stop offset="1" style="stop-color:#FFFFFF;stop-opacity:0"/>
	</linearGradient>
	<path style="fill:url(#SVGID_2_);" d="M23.562,10.932C23.561,10.932,23.561,10.932,23.562,10.932l-10.5-10.506   c-0.566-0.568-1.558-0.567-2.122,0L0.438,10.932C0.156,11.216,0,11.593,0,11.993c0,0.401,0.156,0.778,0.439,1.061L10.938,23.56   C11.222,23.844,11.599,24,12,24s0.778-0.156,1.061-0.44l10.5-10.506C23.844,12.771,24,12.393,24,11.993   C24,11.593,23.844,11.216,23.562,10.932z"/>
</g>
<g>
</g>
<g>
</g>
<g>
</g>
<g>
</g>
<g>
</g>
<g>
</g>
<g>
</g>
<g>
</g>
<g>
</g>
<g>
</g>
<g>
</g>
<g>
</g>
<g>
</g>
<g>
</g>
<g>
</g>

	<metadata>
		<rdf:RDF xmlns:rdf="http://www.w3.org/1999/02/22-rdf-syntax-ns#" xmlns:rdfs="http://www.w3.org/2000/01/rdf-schema#" xmlns:dc="http://purl.org/dc/elements/1.1/">
			<rdf:Description about="https://iconscout.com/legal#licenses" dc:title="social; media; social media; logo; git" dc:description="social; media; social media; logo; git" dc:publisher="Iconscout" dc:date="2017-03-22" dc:format="image/svg+xml" dc:language="en">
				<dc:creator>
					<rdf:Bag>
						<rdf:li>Alpár - Etele Méder</rdf:li>
					</rdf:Bag>
				</dc:creator>
			</rdf:Description>
		</rdf:RDF>
    </metadata></svg>
