<?xml version="1.0" encoding="UTF-8"?>
<svg xmlns="http://www.w3.org/2000/svg" xmlns:xlink="http://www.w3.org/1999/xlink" version="1.1" id="Layer_1" x="0px" y="0px" viewBox="0 0 24 24" style="enable-background:new 0 0 24 24;" xml:space="preserve">
<g>
	<path style="fill:#303C42;" d="M22.171,7.326c0.148-0.988,0.048-3.528-0.864-5.999c-0.08-0.216-0.299-0.349-0.528-0.323   c-0.096,0.011-2.349,0.302-5.733,2.751C14.311,3.578,13.221,3.479,12,3.479s-2.31,0.1-3.047,0.276   c-3.385-2.45-5.638-2.74-5.734-2.751C2.993,0.979,2.771,1.111,2.691,1.327C1.779,3.798,1.68,6.338,1.828,7.326   C0.599,8.846,0,10.597,0,12.669c0,6.661,3.492,10.329,9.833,10.329L12,23l2.166-0.002c6.341,0,9.834-3.668,9.834-10.329   C24,10.597,23.401,8.846,22.171,7.326z"/>
	<path style="fill:#5C6671;" d="M14.166,21.998L12,22l-2.167-0.002C5.804,21.998,1,20.379,1,12.669c0-1.938,0.555-3.491,1.748-4.886   c0.116-0.135,0.147-0.332,0.088-0.5C2.72,6.95,2.675,4.541,3.488,2.078c0.765,0.193,2.608,0.808,5.065,2.624   c0.127,0.093,0.29,0.123,0.44,0.077C9.623,4.591,10.747,4.479,12,4.479c1.254,0,2.378,0.112,3.006,0.299   c0.149,0.045,0.313,0.016,0.44-0.077c2.456-1.815,4.299-2.43,5.064-2.623c0.813,2.463,0.769,4.872,0.653,5.205   c-0.064,0.171-0.031,0.363,0.088,0.501C22.444,9.179,23,10.731,23,12.669C23,20.379,18.196,21.998,14.166,21.998z"/>
	<path style="opacity:0.2;fill:#FFFFFF;" d="M1.75,13.419c0-1.938,0.555-3.491,1.748-4.886c0.116-0.135,0.147-0.332,0.088-0.5   C3.47,7.7,3.425,5.291,4.238,2.828c0.765,0.193,2.608,0.808,5.065,2.624c0.127,0.093,0.29,0.123,0.44,0.077   c0.629-0.188,1.753-0.299,3.007-0.299c1.254,0,2.378,0.112,3.006,0.299c0.149,0.045,0.313,0.016,0.44-0.077   c2.039-1.507,3.646-2.181,4.574-2.479c-0.075-0.295-0.161-0.594-0.26-0.894c-0.765,0.193-2.608,0.808-5.064,2.623   c-0.128,0.093-0.291,0.122-0.44,0.077C14.378,4.591,13.254,4.479,12,4.479c-1.253,0-2.377,0.112-3.007,0.299   c-0.15,0.046-0.313,0.016-0.44-0.077c-2.457-1.815-4.3-2.43-5.065-2.624C2.675,4.541,2.72,6.95,2.836,7.284   c0.059,0.168,0.027,0.365-0.088,0.5C1.555,9.179,1,10.731,1,12.669c0,3.762,1.148,6.067,2.787,7.448   C2.561,18.696,1.75,16.573,1.75,13.419z"/>
	<path style="fill:#303C42;" d="M14.318,10.103c-0.736,0.058-1.498,0.117-2.282,0.117h-0.071c-0.785,0-1.546-0.06-2.282-0.117   c-2.019-0.157-3.925-0.306-5.22,1.006C3.492,12.095,3,13.325,3,14.762C3,20.518,7.429,21,12.036,21C16.571,21,21,20.518,21,14.762   c0-1.438-0.492-2.667-1.463-3.654C18.243,9.797,16.336,9.945,14.318,10.103z"/>
	<path style="fill:#D9CFCC;" d="M11.964,20C6.799,20,4,19.165,4,14.762c0-1.166,0.396-2.159,1.175-2.952   c0.631-0.64,1.501-0.812,2.566-0.812c0.567,0,1.191,0.049,1.863,0.101c0.755,0.06,1.534,0.115,2.375,0.119   c0.875,0.019,1.655-0.06,2.417-0.119c1.935-0.149,3.461-0.27,4.428,0.71C19.604,12.603,20,13.596,20,14.762   C20,19.165,17.201,20,11.964,20z"/>
	<path style="opacity:0.1;" d="M5.175,12.56c0.631-0.64,1.501-0.812,2.566-0.812c0.567,0,1.191,0.049,1.863,0.101   c0.755,0.06,1.534,0.115,2.375,0.119c0.875,0.019,1.655-0.06,2.417-0.119c1.935-0.149,3.461-0.27,4.428,0.71   c0.724,0.736,1.102,1.652,1.155,2.711C19.988,15.104,20,14.941,20,14.762c0-1.166-0.396-2.159-1.176-2.952   c-0.967-0.979-2.493-0.859-4.428-0.71c-0.762,0.059-1.541,0.138-2.417,0.119c-0.841-0.003-1.62-0.059-2.375-0.119   c-0.672-0.052-1.295-0.101-1.863-0.101c-1.065,0-1.935,0.171-2.566,0.812C4.396,12.603,4,13.596,4,14.762   c0,0.178,0.012,0.342,0.021,0.509C4.074,14.211,4.451,13.296,5.175,12.56z"/>
	<path style="fill:#303C42;" d="M8,12c-1.14,0-2,1.505-2,3.5S6.86,19,8,19s2-1.505,2-3.5S9.14,12,8,12z"/>
	<path style="fill:#6D4C41;" d="M8,18c-0.408,0-1-0.974-1-2.5S7.592,13,8,13s1,0.974,1,2.5S8.408,18,8,18z"/>
	<path style="fill:#303C42;" d="M16,12c-1.14,0-2,1.505-2,3.5s0.86,3.5,2,3.5s2-1.505,2-3.5S17.14,12,16,12z"/>
	<path style="fill:#6D4C41;" d="M16,18c-0.408,0-1-0.974-1-2.5s0.592-2.5,1-2.5s1,0.974,1,2.5S16.408,18,16,18z"/>
	<circle style="fill:#A1887F;" cx="7.909" cy="14.482" r="0.446"/>
	<circle style="fill:#A1887F;" cx="15.909" cy="14.482" r="0.446"/>
	<linearGradient id="SVGID_1_" gradientUnits="userSpaceOnUse" x1="10.7681" y1="13.8597" x2="18.6326" y2="21.7241">
		<stop offset="0" style="stop-color:#000000;stop-opacity:0.1"/>
		<stop offset="1" style="stop-color:#000000;stop-opacity:0"/>
	</linearGradient>
	<path style="fill:url(#SVGID_1_);" d="M20,11.65l-0.017,0.007C20.646,12.541,21,13.576,21,14.762C21,20.518,16.571,21,12.036,21   C9.37,21,6.77,20.831,5.047,19.58l2.142,2.142c0.881,0.193,1.779,0.275,2.644,0.275L12,22l2.166-0.002   c3.679,0,7.991-1.365,8.716-7.466L20,11.65z"/>
	<linearGradient id="SVGID_2_" gradientUnits="userSpaceOnUse" x1="4.0039" y1="18.5292" x2="4.0473" y2="18.5727">
		<stop offset="0" style="stop-color:#000000;stop-opacity:0.1"/>
		<stop offset="1" style="stop-color:#000000;stop-opacity:0"/>
	</linearGradient>
	<path style="fill:url(#SVGID_2_);" d="M4.011,18.528L4,18.533l0.043,0.043C4.032,18.561,4.022,18.544,4.011,18.528z"/>
	<linearGradient id="SVGID_3_" gradientUnits="userSpaceOnUse" x1="0.6171" y1="5.7711" x2="23.6904" y2="16.5304">
		<stop offset="0" style="stop-color:#FFFFFF;stop-opacity:0.2"/>
		<stop offset="1" style="stop-color:#FFFFFF;stop-opacity:0"/>
	</linearGradient>
	<path style="fill:url(#SVGID_3_);" d="M22.171,7.326c0.148-0.988,0.048-3.528-0.864-5.999c-0.08-0.216-0.299-0.349-0.528-0.323   c-0.096,0.011-2.349,0.302-5.733,2.751C14.311,3.578,13.221,3.479,12,3.479s-2.31,0.1-3.047,0.276   c-3.385-2.45-5.638-2.74-5.734-2.751C2.993,0.979,2.771,1.111,2.691,1.327C1.779,3.798,1.68,6.338,1.828,7.326   C0.599,8.846,0,10.597,0,12.669c0,6.661,3.492,10.329,9.833,10.329L12,23l2.166-0.002c6.341,0,9.834-3.668,9.834-10.329   C24,10.597,23.401,8.846,22.171,7.326z"/>
</g>
<g>
</g>
<g>
</g>
<g>
</g>
<g>
</g>
<g>
</g>
<g>
</g>
<g>
</g>
<g>
</g>
<g>
</g>
<g>
</g>
<g>
</g>
<g>
</g>
<g>
</g>
<g>
</g>
<g>
</g>

	<metadata>
		<rdf:RDF xmlns:rdf="http://www.w3.org/1999/02/22-rdf-syntax-ns#" xmlns:rdfs="http://www.w3.org/2000/01/rdf-schema#" xmlns:dc="http://purl.org/dc/elements/1.1/">
			<rdf:Description about="https://iconscout.com/legal#licenses" dc:title="social; media; social media; logo; github (2)" dc:description="social; media; social media; logo; github (2)" dc:publisher="Iconscout" dc:date="2017-03-22" dc:format="image/svg+xml" dc:language="en">
				<dc:creator>
					<rdf:Bag>
						<rdf:li>Alpár - Etele Méder</rdf:li>
					</rdf:Bag>
				</dc:creator>
			</rdf:Description>
		</rdf:RDF>
    </metadata></svg>
