<?xml version="1.0" encoding="UTF-8"?>
<svg xmlns="http://www.w3.org/2000/svg" xmlns:xlink="http://www.w3.org/1999/xlink" version="1.1" id="Layer_1" x="0px" y="0px" viewBox="0 0 24 24" style="enable-background:new 0 0 24 24;" xml:space="preserve">
<g>
	<path style="fill:#303C42;" d="M23,12c0-6.821-0.976-10.479-1.018-10.632C21.923,1.151,21.726,1,21.5,1h-5   c-0.156,0-0.303,0.072-0.397,0.196c-0.094,0.124-0.126,0.284-0.085,0.435c0.008,0.028,0.665,2.496,0.899,7.083   c-0.592-1.096-1.246-2.246-1.989-3.473C14.837,5.092,14.675,5,14.5,5h-5C9.319,5,9.153,5.098,9.064,5.255   C9.021,5.331,9.002,5.416,9.002,5.5H9c0,0.991-0.361,2.966-0.94,5.205c-0.366-0.544-0.76-1.065-1.189-1.54   C6.776,9.06,6.642,9,6.5,9h-5C1.302,9,1.124,9.116,1.043,9.297c-0.08,0.181-0.046,0.392,0.086,0.538   c2.414,2.672,3.793,6.951,4.313,8.563l0.083,0.258C5.592,18.86,5.784,19,6,19h5c0.16,0,0.311-0.077,0.405-0.206   c0.024-0.033,0.03-0.072,0.045-0.109l0.013,0.005c0.637-1.545,1.242-3.25,1.781-4.991c1.542,3.557,2.265,6.371,2.767,8.898   C16.056,22.831,16.261,23,16.5,23h5c0.15,0,0.292-0.067,0.386-0.183c0.045-0.055,0.076-0.119,0.094-0.186l0.002,0.001   C22.024,22.479,23,18.821,23,12z"/>
	<path style="fill:#039BE5;" d="M17.13,2h3.975C21.346,3.084,22,6.53,22,12c0,3.571-0.279,6.271-0.539,8.023   c-0.646-2.591-1.641-5.549-3.474-9.249C17.904,6.19,17.39,3.221,17.13,2z"/>
	<path style="fill:#7CB342;" d="M6.364,18c-0.505-1.566-1.717-5.252-3.803-8h3.714c2.148,2.479,3.452,6.205,4.038,8H6.364z"/>
	<path style="fill:#FFCF3D;" d="M11.042,17.029c-0.462-1.353-1.202-3.306-2.26-5.158c0.505-1.826,0.877-3.512,1.069-4.798   c1.114,1.913,2.021,3.648,2.767,5.236C12.149,13.927,11.613,15.531,11.042,17.029z"/>
	<path style="fill:#E53935;" d="M16.909,22c-0.826-4.024-2.25-8.781-6.527-16h3.835c4.366,7.259,5.835,12.01,6.67,16H16.909z"/>
	<linearGradient id="SVGID_1_" gradientUnits="userSpaceOnUse" x1="8.0394" y1="12.355" x2="11.8776" y2="16.1933">
		<stop offset="0" style="stop-color:#000000;stop-opacity:0.1"/>
		<stop offset="1" style="stop-color:#000000;stop-opacity:0"/>
	</linearGradient>
	<path style="fill:url(#SVGID_1_);" d="M8.875,11.52c-0.032,0.118-0.059,0.231-0.093,0.351c1.058,1.852,1.798,3.805,2.26,5.158   c0.304-0.797,0.595-1.625,0.874-2.468L8.875,11.52z"/>
	<linearGradient id="SVGID_2_" gradientUnits="userSpaceOnUse" x1="16.2649" y1="11.4446" x2="23.152" y2="18.3317">
		<stop offset="0" style="stop-color:#000000;stop-opacity:0.1"/>
		<stop offset="1" style="stop-color:#000000;stop-opacity:0"/>
	</linearGradient>
	<path style="fill:url(#SVGID_2_);" d="M17.956,9.753c0.011,0.336,0.025,0.664,0.031,1.02c1.833,3.701,2.828,6.659,3.474,9.249   c0.215-1.448,0.44-3.552,0.513-6.252L17.956,9.753z"/>
	<linearGradient id="SVGID_3_" gradientUnits="userSpaceOnUse" x1="3.0431" y1="5.0073" x2="25.3554" y2="15.4117">
		<stop offset="0" style="stop-color:#FFFFFF;stop-opacity:0.2"/>
		<stop offset="1" style="stop-color:#FFFFFF;stop-opacity:0"/>
	</linearGradient>
	<path style="fill:url(#SVGID_3_);" d="M23,12c0-6.821-0.976-10.479-1.018-10.632C21.923,1.151,21.726,1,21.5,1h-5   c-0.156,0-0.303,0.072-0.397,0.196c-0.094,0.124-0.126,0.284-0.085,0.435c0.008,0.028,0.665,2.496,0.899,7.083   c-0.592-1.096-1.246-2.246-1.989-3.473C14.837,5.092,14.675,5,14.5,5h-5C9.319,5,9.153,5.098,9.064,5.255   C9.021,5.331,9.002,5.416,9.002,5.5H9c0,0.991-0.361,2.966-0.94,5.205c-0.366-0.544-0.76-1.065-1.189-1.54   C6.776,9.06,6.642,9,6.5,9h-5C1.302,9,1.124,9.116,1.043,9.297c-0.08,0.181-0.046,0.392,0.086,0.538   c2.414,2.672,3.793,6.951,4.313,8.563l0.083,0.258C5.592,18.86,5.784,19,6,19h5c0.16,0,0.311-0.077,0.405-0.206   c0.024-0.033,0.03-0.072,0.045-0.109l0.013,0.005c0.637-1.545,1.242-3.25,1.781-4.991c1.542,3.557,2.265,6.371,2.767,8.898   C16.056,22.831,16.261,23,16.5,23h5c0.15,0,0.292-0.067,0.386-0.183c0.045-0.055,0.076-0.119,0.094-0.186l0.002,0.001   C22.024,22.479,23,18.821,23,12z"/>
</g>
<g>
</g>
<g>
</g>
<g>
</g>
<g>
</g>
<g>
</g>
<g>
</g>
<g>
</g>
<g>
</g>
<g>
</g>
<g>
</g>
<g>
</g>
<g>
</g>
<g>
</g>
<g>
</g>
<g>
</g>

	<metadata>
		<rdf:RDF xmlns:rdf="http://www.w3.org/1999/02/22-rdf-syntax-ns#" xmlns:rdfs="http://www.w3.org/2000/01/rdf-schema#" xmlns:dc="http://purl.org/dc/elements/1.1/">
			<rdf:Description about="https://iconscout.com/legal#licenses" dc:title="social; media; social media; logo; google; wallet" dc:description="social; media; social media; logo; google; wallet" dc:publisher="Iconscout" dc:date="2017-03-22" dc:format="image/svg+xml" dc:language="en">
				<dc:creator>
					<rdf:Bag>
						<rdf:li>Alpár - Etele Méder</rdf:li>
					</rdf:Bag>
				</dc:creator>
			</rdf:Description>
		</rdf:RDF>
    </metadata></svg>
