<?xml version="1.0" encoding="UTF-8"?>
<svg xmlns="http://www.w3.org/2000/svg" xmlns:xlink="http://www.w3.org/1999/xlink" version="1.1" id="Layer_1" x="0px" y="0px" viewBox="0 0 24 24" style="enable-background:new 0 0 24 24;" xml:space="preserve">
<g>
	<path style="fill:#303C42;" d="M12,0C5.383,0,0,5.383,0,12s5.383,12,12,12s12-5.383,12-12S18.617,0,12,0z"/>
	<path style="fill:#EF5350;" d="M12,23C5.935,23,1,18.065,1,12S5.935,1,12,1s11,4.935,11,11S18.065,23,12,23z"/>
	<path style="opacity:0.2;fill:#FFFFFF;" d="M1.5,12.5c0-6.065,4.935-11,11-11c2.906,0,5.544,1.141,7.513,2.987   C18.004,2.347,15.16,1,12,1C5.935,1,1,5.935,1,12c0,3.16,1.347,6.004,3.487,8.013C2.641,18.044,1.5,15.406,1.5,12.5z"/>
	<path style="fill:#303C42;" d="M13.5,10.5H8c-0.276,0-0.5,0.224-0.5,0.5v2c0,0.276,0.224,0.5,0.5,0.5h2.597   C10.067,14.408,9.079,15,8,15c-1.654,0-3-1.346-3-3s1.346-3,3-3c0.801,0,1.555,0.312,2.122,0.879c0.188,0.188,0.52,0.188,0.707,0   l1.414-1.415c0.094-0.094,0.146-0.221,0.146-0.354c0-0.133-0.053-0.26-0.146-0.354C11.109,6.624,9.602,6,8,6c-3.309,0-6,2.691-6,6   s2.691,6,6,6s6-2.691,6-6v-1C14,10.724,13.776,10.5,13.5,10.5z"/>
	<path style="fill:#FFFFFF;" d="M13,12c0,2.757-2.243,5-5,5s-5-2.243-5-5s2.243-5,5-5c1.167,0,2.273,0.397,3.165,1.128L10.453,8.84   C9.754,8.295,8.9,8,8,8c-2.206,0-4,1.794-4,4s1.794,4,4,4c1.755,0,3.332-1.175,3.833-2.857c0.045-0.151,0.016-0.315-0.078-0.442   c-0.094-0.126-0.243-0.201-0.401-0.201H8.5v-1H13V12z"/>
	<path style="fill:#303C42;" d="M21.5,10.5H20V9c0-0.276-0.224-0.5-0.5-0.5h-2C17.224,8.5,17,8.724,17,9v1.5h-1.5   c-0.276,0-0.5,0.224-0.5,0.5v2c0,0.276,0.224,0.5,0.5,0.5H17V15c0,0.276,0.224,0.5,0.5,0.5h2c0.276,0,0.5-0.224,0.5-0.5v-1.5h1.5   c0.276,0,0.5-0.224,0.5-0.5v-2C22,10.724,21.776,10.5,21.5,10.5z"/>
	<path style="fill:#FFFFFF;" d="M21,12.5h-1.5c-0.276,0-0.5,0.224-0.5,0.5v1.5h-1V13c0-0.276-0.224-0.5-0.5-0.5H16v-1h1.5   c0.276,0,0.5-0.224,0.5-0.5V9.5h1V11c0,0.276,0.224,0.5,0.5,0.5H21V12.5z"/>
	<linearGradient id="SVGID_1_" gradientUnits="userSpaceOnUse" x1="7.5506" y1="8.2087" x2="19.4455" y2="20.1036">
		<stop offset="0" style="stop-color:#000000;stop-opacity:0.1"/>
		<stop offset="1" style="stop-color:#000000;stop-opacity:0"/>
	</linearGradient>
	<path style="fill:url(#SVGID_1_);" d="M22.99,11.806l-1.088-1.088C21.959,10.799,22,10.893,22,11v2c0,0.276-0.224,0.5-0.5,0.5H20   V15c0,0.276-0.224,0.5-0.5,0.5h-2c-0.276,0-0.5-0.224-0.5-0.5v-1.5h-1.5c-0.276,0-0.5-0.224-0.5-0.5v-2   c0-0.135,0.054-0.255,0.141-0.345l-2.898-2.898c0.094,0.094,0.146,0.221,0.146,0.354c0,0.132-0.053,0.26-0.146,0.354l-1.414,1.415   c-0.187,0.188-0.52,0.188-0.707,0C9.555,9.312,8.801,9,8,9c-1.654,0-3,1.346-3,3s1.346,3,3,3c1.079,0,2.067-0.592,2.597-1.5H8   c-0.276,0-0.5-0.224-0.5-0.5v-2c0-0.276,0.224-0.5,0.5-0.5h5.5c0.276,0,0.5,0.224,0.5,0.5v1c0,3.309-2.691,6-6,6   c-1.542,0-2.945-0.59-4.009-1.549L4,16.5l6.365,6.365C10.9,22.945,11.443,23,12,23c6.065,0,11-4.935,11-11   C23,11.935,22.991,11.871,22.99,11.806z M20,10.5h1.5c0.107,0,0.201,0.041,0.282,0.098l-1.88-1.88C19.959,8.799,20,8.893,20,9V10.5   z"/>
	<linearGradient id="SVGID_2_" gradientUnits="userSpaceOnUse" x1="1.1249" y1="6.9289" x2="22.8751" y2="17.0711">
		<stop offset="0" style="stop-color:#FFFFFF;stop-opacity:0.2"/>
		<stop offset="1" style="stop-color:#FFFFFF;stop-opacity:0"/>
	</linearGradient>
	<path style="fill:url(#SVGID_2_);" d="M12,0C5.383,0,0,5.383,0,12s5.383,12,12,12s12-5.383,12-12S18.617,0,12,0z"/>
</g>
<g>
</g>
<g>
</g>
<g>
</g>
<g>
</g>
<g>
</g>
<g>
</g>
<g>
</g>
<g>
</g>
<g>
</g>
<g>
</g>
<g>
</g>
<g>
</g>
<g>
</g>
<g>
</g>
<g>
</g>

	<metadata>
		<rdf:RDF xmlns:rdf="http://www.w3.org/1999/02/22-rdf-syntax-ns#" xmlns:rdfs="http://www.w3.org/2000/01/rdf-schema#" xmlns:dc="http://purl.org/dc/elements/1.1/">
			<rdf:Description about="https://iconscout.com/legal#licenses" dc:title="social; media; social media; logo; google; plus" dc:description="social; media; social media; logo; google; plus" dc:publisher="Iconscout" dc:date="2017-03-22" dc:format="image/svg+xml" dc:language="en">
				<dc:creator>
					<rdf:Bag>
						<rdf:li>Alpár - Etele Méder</rdf:li>
					</rdf:Bag>
				</dc:creator>
			</rdf:Description>
		</rdf:RDF>
    </metadata></svg>
