<?xml version="1.0" encoding="UTF-8"?>
<svg xmlns="http://www.w3.org/2000/svg" xmlns:xlink="http://www.w3.org/1999/xlink" version="1.1" id="Layer_1" x="0px" y="0px" viewBox="0 0 24 24" style="enable-background:new 0 0 24 24;" xml:space="preserve">
<g>
	<path style="fill:none;" d="M3.51,12.188C3.508,12.125,3.5,12.064,3.5,12C3.5,12,3.502,12.081,3.51,12.188z"/>
	<path style="fill:#303C42;" d="M12,0C5.383,0,0,5.383,0,12s5.383,12,12,12s12-5.383,12-12S18.617,0,12,0z"/>
	<path style="fill:#FFFFFF;" d="M12,23C5.935,23,1,18.065,1,12S5.935,1,12,1s11,4.935,11,11S18.065,23,12,23z"/>
	<path style="opacity:0.1;" d="M19.382,3.868c1.776,1.954,2.868,4.539,2.868,7.382c0,6.065-4.935,11-11,11   c-2.842,0-5.427-1.093-7.382-2.868C5.882,21.598,8.777,23,12,23c6.065,0,11-4.935,11-11C23,8.777,21.598,5.882,19.382,3.868z"/>
	<path style="fill:#303C42;" d="M12,3c-4.963,0-9,4.037-9,9c0,0.048,0.003,0.096,0.011,0.223C3.106,13.627,3.869,14.5,5,14.5   c0.976,0,1.938-0.554,2.712-1.558c1.23-1.598,1.773-3.988,1.452-6.182c3.051,1.202,4.599,3.474,5.862,5.328   C16.091,13.65,17.01,15,18.5,15c2.178,0,2.485-2.83,2.5-3C21,7.037,16.963,3,12,3z"/>
	<path style="fill:#FB8C00;" d="M18.5,14c-0.962,0-1.669-1.038-2.647-2.475c-1.382-2.028-3.273-4.806-7.207-6.004   C8.598,5.507,8.549,5.5,8.5,5.5c-0.128,0-0.252,0.049-0.347,0.14C8.022,5.766,7.971,5.952,8.017,6.128   c0.65,2.457-0.083,4.887-1.097,6.204C6.34,13.085,5.658,13.5,5,13.5c-0.782,0-0.957-0.843-0.99-1.327C4.01,12.166,4,12.007,4,12   c0-4.411,3.589-8,8-8s8,3.589,8.003,7.95C20,11.971,19.782,14,18.5,14z"/>
	<linearGradient id="SVGID_1_" gradientUnits="userSpaceOnUse" x1="1.1248" y1="6.9288" x2="22.8752" y2="17.0712">
		<stop offset="0" style="stop-color:#FFFFFF;stop-opacity:0.2"/>
		<stop offset="1" style="stop-color:#FFFFFF;stop-opacity:0"/>
	</linearGradient>
	<path style="fill:url(#SVGID_1_);" d="M12,0C5.383,0,0,5.383,0,12s5.383,12,12,12s12-5.383,12-12S18.617,0,12,0z"/>
</g>
<g>
</g>
<g>
</g>
<g>
</g>
<g>
</g>
<g>
</g>
<g>
</g>
<g>
</g>
<g>
</g>
<g>
</g>
<g>
</g>
<g>
</g>
<g>
</g>
<g>
</g>
<g>
</g>
<g>
</g>

	<metadata>
		<rdf:RDF xmlns:rdf="http://www.w3.org/1999/02/22-rdf-syntax-ns#" xmlns:rdfs="http://www.w3.org/2000/01/rdf-schema#" xmlns:dc="http://purl.org/dc/elements/1.1/">
			<rdf:Description about="https://iconscout.com/legal#licenses" dc:title="social; media; social media; logo; grooveshark" dc:description="social; media; social media; logo; grooveshark" dc:publisher="Iconscout" dc:date="2017-03-22" dc:format="image/svg+xml" dc:language="en">
				<dc:creator>
					<rdf:Bag>
						<rdf:li>Alpár - Etele Méder</rdf:li>
					</rdf:Bag>
				</dc:creator>
			</rdf:Description>
		</rdf:RDF>
    </metadata></svg>
