<?xml version="1.0" encoding="UTF-8"?>
<svg xmlns="http://www.w3.org/2000/svg" xmlns:xlink="http://www.w3.org/1999/xlink" version="1.1" id="Layer_1" x="0px" y="0px" viewBox="0 0 24 24" style="enable-background:new 0 0 24 24;" xml:space="preserve">
<g>
	<path style="fill:#303C42;" d="M22,10c0-5.514-4.486-10-10-10S2,4.486,2,10c0,5.157,3.916,9.434,9,9.938V23.5   c0,0.155,0.072,0.302,0.195,0.396C11.284,23.964,11.391,24,11.5,24c0.043,0,0.087-0.005,0.129-0.017   C17.735,22.349,22,16.804,22,10.5C22,10.459,22,10.128,22,10z"/>
	<path style="fill:#7CB342;" d="M20.999,10.664c-0.07,5.566-3.72,10.466-8.999,12.168v-3.357c0-0.266-0.208-0.485-0.474-0.5   C6.745,18.726,3,14.783,3,10c0-4.962,4.037-9,9-9s9,4.038,9,9C21,10.112,21,10.5,20.999,10.664z"/>
	<path style="opacity:0.1;" d="M12,21.832v1c5.279-1.702,8.929-6.602,8.999-12.168C21,10.5,21,10.112,21,10   c0-0.061-0.008-0.12-0.009-0.181C20.855,15.32,17.23,20.146,12,21.832z"/>
	<path style="opacity:0.2;fill:#FFFFFF;" d="M3.5,10.5c0-4.962,4.037-9,9-9c2.354,0,4.494,0.916,6.099,2.401   C16.954,2.122,14.608,1,12,1c-4.963,0-9,4.038-9,9c0,2.588,1.103,4.924,2.867,6.568C4.397,14.966,3.5,12.835,3.5,10.5z"/>
	<path style="fill:#303C42;" d="M10.5,7h-3C7.224,7,7,7.224,7,7.5v3C7,10.776,7.224,11,7.5,11h1v1.5c0,0.15,0.067,0.293,0.185,0.388   C8.774,12.961,8.886,13,9,13c0.034,0,0.068-0.003,0.102-0.011C9.759,12.853,11,12.156,11,10.5v-3C11,7.224,10.776,7,10.5,7z"/>
	<path style="fill:#FFFFFF;" d="M10,10.5c0,0.604-0.242,0.974-0.5,1.197V10.5C9.5,10.224,9.276,10,9,10H8V8h2V10.5z"/>
	<path style="fill:#303C42;" d="M16.5,7h-3C13.224,7,13,7.224,13,7.5v3c0,0.276,0.224,0.5,0.5,0.5h1v1.5   c0,0.15,0.067,0.293,0.185,0.388C14.774,12.961,14.886,13,15,13c0.034,0,0.068-0.003,0.102-0.011C15.759,12.853,17,12.156,17,10.5   v-3C17,7.224,16.776,7,16.5,7z"/>
	<path style="fill:#FFFFFF;" d="M16,10.5c0,0.604-0.242,0.974-0.5,1.197V10.5c0-0.276-0.224-0.5-0.5-0.5h-1V8h2V10.5z"/>
	<linearGradient id="SVGID_1_" gradientUnits="userSpaceOnUse" x1="10.326" y1="7.5767" x2="19.7959" y2="17.0466">
		<stop offset="0" style="stop-color:#000000;stop-opacity:0.1"/>
		<stop offset="1" style="stop-color:#000000;stop-opacity:0"/>
	</linearGradient>
	<path style="fill:url(#SVGID_1_);" d="M7.138,10.843l0.004,0.004C7.141,10.846,7.14,10.844,7.138,10.843L7.138,10.843z M10.8,7.103   l-0.004,0.004c0.008,0.006,0.017,0.01,0.025,0.017L10.8,7.103z M7.152,10.858L8.5,12.205V11h-1C7.364,11,7.242,10.945,7.152,10.858   z M16.872,7.169L16.87,7.171C16.949,7.259,17,7.372,17,7.5v3c0,1.656-1.241,2.353-1.898,2.489C15.068,12.997,15.034,13,15,13   c-0.114,0-0.226-0.039-0.315-0.112C14.567,12.793,14.5,12.65,14.5,12.5V11h-1c-0.276,0-0.5-0.224-0.5-0.5V9.304L10.876,7.18   C10.95,7.267,11,7.376,11,7.5v3c0,1.656-1.241,2.353-1.898,2.489C9.068,12.997,9.034,13,9,13c-0.114,0-0.226-0.039-0.315-0.112   l7.594,7.594c2.725-2.252,4.472-5.567,4.689-9.217L16.872,7.169z"/>
	<linearGradient id="SVGID_2_" gradientUnits="userSpaceOnUse" x1="2.3147" y1="7.1095" x2="20.9619" y2="15.8048">
		<stop offset="0" style="stop-color:#FFFFFF;stop-opacity:0.2"/>
		<stop offset="1" style="stop-color:#FFFFFF;stop-opacity:0"/>
	</linearGradient>
	<path style="fill:url(#SVGID_2_);" d="M22,10c0-5.514-4.486-10-10-10S2,4.486,2,10c0,5.157,3.916,9.434,9,9.938V23.5   c0,0.155,0.072,0.302,0.195,0.396C11.284,23.964,11.391,24,11.5,24c0.043,0,0.087-0.005,0.129-0.017   C17.735,22.349,22,16.804,22,10.5C22,10.459,22,10.128,22,10z"/>
</g>
<g>
</g>
<g>
</g>
<g>
</g>
<g>
</g>
<g>
</g>
<g>
</g>
<g>
</g>
<g>
</g>
<g>
</g>
<g>
</g>
<g>
</g>
<g>
</g>
<g>
</g>
<g>
</g>
<g>
</g>

	<metadata>
		<rdf:RDF xmlns:rdf="http://www.w3.org/1999/02/22-rdf-syntax-ns#" xmlns:rdfs="http://www.w3.org/2000/01/rdf-schema#" xmlns:dc="http://purl.org/dc/elements/1.1/">
			<rdf:Description about="https://iconscout.com/legal#licenses" dc:title="social; media; social media; logo; hangout" dc:description="social; media; social media; logo; hangout" dc:publisher="Iconscout" dc:date="2017-03-22" dc:format="image/svg+xml" dc:language="en">
				<dc:creator>
					<rdf:Bag>
						<rdf:li>Alpár - Etele Méder</rdf:li>
					</rdf:Bag>
				</dc:creator>
			</rdf:Description>
		</rdf:RDF>
    </metadata></svg>
