<?xml version="1.0" encoding="UTF-8"?>
<svg xmlns="http://www.w3.org/2000/svg" xmlns:xlink="http://www.w3.org/1999/xlink" version="1.1" id="Layer_1" x="0px" y="0px" viewBox="0 0 24 24" style="enable-background:new 0 0 24 24;" xml:space="preserve">
<g>
	<path style="fill:#303C42;" d="M12,0C5.383,0,0,5.383,0,12c0,2.043,0.53,4.064,1.534,5.854c0.014,0.04,0.032,0.079,0.057,0.116   c0.373,0.568-0.794,1.696-1.384,2.124c-0.143,0.104-0.22,0.275-0.204,0.45c0.016,0.176,0.123,0.33,0.282,0.406   c0.081,0.038,1.902,0.887,3.854,0.099C6.328,22.955,9.107,24,12,24c6.617,0,12-5.383,12-12S18.617,0,12,0z"/>
	<path style="fill:#1E88E5;" d="M12,23c-2.751,0-5.391-1.032-7.432-2.907c-0.094-0.087-0.216-0.132-0.338-0.132   c-0.076,0-0.151,0.017-0.222,0.052c-0.92,0.457-1.853,0.408-2.49,0.279c0.688-0.666,1.523-1.756,0.976-2.758   c-0.01-0.027-0.022-0.054-0.037-0.08C1.504,15.792,1,13.905,1,12C1,5.935,5.935,1,12,1s11,4.935,11,11S18.065,23,12,23z"/>
	<path style="fill:#303C42;" d="M5.5,10C5.224,10,5,10.224,5,10.5v4C5,14.776,5.224,15,5.5,15S6,14.776,6,14.5v-4   C6,10.224,5.776,10,5.5,10z"/>
	<path style="fill:#303C42;" d="M12,10c-0.6,0-1.133,0.271-1.5,0.691C10.133,10.271,9.6,10,9,10c-0.382,0-0.74,0.107-1.044,0.295   C7.877,10.121,7.703,10,7.5,10C7.224,10,7,10.224,7,10.5v4C7,14.776,7.224,15,7.5,15S8,14.776,8,14.5V12c0-0.552,0.449-1,1-1   s1,0.448,1,1v2.5c0,0.276,0.224,0.5,0.5,0.5s0.5-0.224,0.5-0.5V12c0-0.552,0.449-1,1-1s1,0.448,1,1v2.5c0,0.276,0.224,0.5,0.5,0.5   s0.5-0.224,0.5-0.5V12C14,10.897,13.103,10,12,10z"/>
	<path style="fill:#303C42;" d="M17,10c-1.103,0-2,0.897-2,2v1c0,1.103,0.897,2,2,2s2-0.897,2-2v-1C19,10.897,18.103,10,17,10z    M18,13c0,0.552-0.449,1-1,1s-1-0.448-1-1v-1c0-0.552,0.449-1,1-1s1,0.448,1,1V13z"/>
	<circle style="fill:#303C42;" cx="5.5" cy="8.5" r="0.5"/>
	<path style="opacity:0.1;" d="M19.914,4.403c-0.055-0.051-0.115-0.097-0.171-0.146C21.449,6.194,22.5,8.722,22.5,11.5   c0,6.065-4.935,11-11,11c-2.751,0-5.391-1.032-7.432-2.907c-0.094-0.087-0.216-0.132-0.338-0.132c-0.076,0-0.151,0.017-0.222,0.052   c-0.221,0.11-0.44,0.182-0.656,0.237c-0.127,0.22-0.278,0.43-0.441,0.62c-0.329,0.001,0.678,0.1,1.598-0.357   c0.071-0.035,0.146-0.052,0.222-0.052c0.123,0,0.244,0.045,0.338,0.132C6.609,21.968,9.249,23,12,23c6.065,0,11-4.935,11-11   C23,9.048,21.815,6.38,19.914,4.403z"/>
	<path style="opacity:0.1;" d="M19.758,4.242c-0.083-0.083-0.16-0.174-0.246-0.254c0.03,0.031,0.055,0.067,0.084,0.098   C19.651,4.138,19.705,4.189,19.758,4.242z"/>
	<path style="opacity:0.2;fill:#FFFFFF;" d="M2.41,20.37c0.559-0.655,1.027-1.523,0.583-2.336c-0.01-0.027-0.022-0.054-0.037-0.08   C2.004,16.292,1.5,14.405,1.5,12.5c0-6.065,4.935-11,11-11c2.906,0,5.544,1.141,7.513,2.987C18.004,2.347,15.16,1,12,1   C5.935,1,1,5.935,1,12c0,1.905,0.504,3.792,1.457,5.454c0.015,0.026,0.027,0.053,0.037,0.08c0.547,1.002-0.288,2.092-0.976,2.758   C1.772,20.343,2.081,20.371,2.41,20.37z"/>
	<linearGradient id="SVGID_1_" gradientUnits="userSpaceOnUse" x1="0.9" y1="7.4111" x2="22.6503" y2="17.5534">
		<stop offset="0" style="stop-color:#FFFFFF;stop-opacity:0.2"/>
		<stop offset="1" style="stop-color:#FFFFFF;stop-opacity:0"/>
	</linearGradient>
	<path style="fill:url(#SVGID_1_);" d="M12,0C5.383,0,0,5.383,0,12c0,2.043,0.53,4.064,1.534,5.854   c0.014,0.04,0.032,0.079,0.057,0.116c0.373,0.568-0.794,1.696-1.384,2.124c-0.143,0.104-0.22,0.275-0.204,0.45   c0.016,0.176,0.123,0.33,0.282,0.406c0.081,0.038,1.902,0.887,3.854,0.099C6.328,22.955,9.107,24,12,24c6.617,0,12-5.383,12-12   S18.617,0,12,0z"/>
</g>
<g>
</g>
<g>
</g>
<g>
</g>
<g>
</g>
<g>
</g>
<g>
</g>
<g>
</g>
<g>
</g>
<g>
</g>
<g>
</g>
<g>
</g>
<g>
</g>
<g>
</g>
<g>
</g>
<g>
</g>

	<metadata>
		<rdf:RDF xmlns:rdf="http://www.w3.org/1999/02/22-rdf-syntax-ns#" xmlns:rdfs="http://www.w3.org/2000/01/rdf-schema#" xmlns:dc="http://purl.org/dc/elements/1.1/">
			<rdf:Description about="https://iconscout.com/legal#licenses" dc:title="social; media; social media; logo; imo" dc:description="social; media; social media; logo; imo" dc:publisher="Iconscout" dc:date="2017-03-22" dc:format="image/svg+xml" dc:language="en">
				<dc:creator>
					<rdf:Bag>
						<rdf:li>Alpár - Etele Méder</rdf:li>
					</rdf:Bag>
				</dc:creator>
			</rdf:Description>
		</rdf:RDF>
    </metadata></svg>
