<?xml version="1.0" encoding="UTF-8"?>
<svg xmlns="http://www.w3.org/2000/svg" xmlns:xlink="http://www.w3.org/1999/xlink" version="1.1" id="Layer_1" x="0px" y="0px" viewBox="0 0 24 24" style="enable-background:new 0 0 24 24;" xml:space="preserve">
<g>
	<path style="fill:#303C42;" d="M20.975,16.34C20.99,16.199,21,16.053,21,15.904c0-1.361-0.53-2.641-1.492-3.604L19.207,12   l0.301-0.3C20.47,10.737,21,9.457,21,8.096c0-0.149-0.01-0.295-0.025-0.436C22.201,7.092,23,5.87,23,4.5C23,2.57,21.43,1,19.5,1   c-1.369,0-2.591,0.799-3.16,2.025C16.199,3.01,16.054,3,15.904,3c-1.361,0-2.642,0.53-3.604,1.493L12,4.793l-0.301-0.3   C10.737,3.53,9.457,3,8.096,3C7.946,3,7.801,3.01,7.66,3.025C7.091,1.799,5.869,1,4.5,1C2.57,1,1,2.57,1,4.5   c0,1.37,0.799,2.592,2.025,3.16C3.01,7.801,3,7.947,3,8.096c0,1.361,0.53,2.641,1.492,3.604L4.793,12l-0.301,0.3   C3.53,13.263,3,14.543,3,15.904c0,0.149,0.01,0.295,0.025,0.436C1.799,16.908,1,18.13,1,19.5C1,21.43,2.57,23,4.5,23   c1.369,0,2.591-0.799,3.16-2.025C7.801,20.99,7.946,21,8.096,21c1.361,0,2.642-0.53,3.604-1.493l0.301-0.3l0.301,0.3   C13.263,20.47,14.543,21,15.904,21c0.149,0,0.295-0.01,0.436-0.025C16.909,22.201,18.131,23,19.5,23c1.93,0,3.5-1.57,3.5-3.5   C23,18.13,22.201,16.908,20.975,16.34z M8.621,17C7.728,17,7,16.273,7,15.379c0-0.325,0.095-0.636,0.271-0.9l2.249,2.249   C9.256,16.903,8.941,17,8.621,17z M7.271,9.521C7.095,9.257,7,8.946,7,8.621C7,7.727,7.728,7,8.621,7   c0.32,0,0.635,0.097,0.899,0.272L7.271,9.521z M12,14.293L9.707,12L12,9.707L14.293,12L12,14.293z M15.379,17   c-0.32,0-0.635-0.097-0.899-0.272l2.249-2.249c0.177,0.264,0.271,0.575,0.271,0.9C17,16.273,16.272,17,15.379,17z M16.729,9.521   l-2.249-2.249C14.744,7.097,15.059,7,15.379,7C16.272,7,17,7.727,17,8.621C17,8.946,16.905,9.257,16.729,9.521z"/>
	<path style="fill:#F9A825;" d="M13.008,5.2c0.937-0.936,2.309-1.34,3.57-1.13c0.251,0.047,0.481-0.104,0.558-0.338   C17.473,2.696,18.423,2,19.5,2C20.879,2,22,3.122,22,4.5c0,1.077-0.695,2.027-1.73,2.364c-0.235,0.077-0.379,0.313-0.339,0.557   C19.967,7.643,20,7.865,20,8.096c0,1.094-0.426,2.123-1.199,2.896l-0.301,0.3l-1.065-1.065C17.795,9.769,18,9.213,18,8.621   C18,7.176,16.824,6,15.379,6c-0.69,0-1.366,0.28-1.854,0.768L9,11.293L7.957,10.25L13.008,5.2z"/>
	<path style="fill:#7CB342;" d="M4,8.096c0-0.231,0.033-0.454,0.069-0.675c0.04-0.244-0.104-0.48-0.339-0.557   C2.695,6.527,2,5.577,2,4.5C2,3.122,3.121,2,4.5,2c1.077,0,2.027,0.696,2.364,1.731c0.077,0.234,0.311,0.385,0.558,0.338   c1.263-0.21,2.634,0.194,3.57,1.13l0.301,0.3l-1.065,1.065C9.77,6.209,9.204,6,8.621,6C7.176,6,6,7.176,6,8.621   c0,0.7,0.272,1.358,0.768,1.854L11.293,15l-1.043,1.043l-5.051-5.05C4.426,10.219,4,9.19,4,8.096z"/>
	<path style="fill:#2962FF;" d="M10.992,18.8c-0.937,0.936-2.308,1.341-3.57,1.13c-0.246-0.043-0.48,0.104-0.558,0.338   C6.527,21.304,5.577,22,4.5,22C3.121,22,2,20.878,2,19.5c0-1.077,0.695-2.027,1.73-2.364c0.235-0.077,0.379-0.313,0.339-0.557   C4.033,16.357,4,16.135,4,15.904c0-1.094,0.426-2.123,1.199-2.896l0.301-0.3l1.065,1.065C6.205,14.231,6,14.787,6,15.379   C6,16.824,7.176,18,8.621,18c0.69,0,1.366-0.28,1.854-0.768L15,12.707l1.043,1.043L10.992,18.8z"/>
	<path style="fill:#E53935;" d="M19.5,22c-1.077,0-2.027-0.696-2.364-1.731c-0.068-0.208-0.262-0.345-0.476-0.345   c-0.026,0-0.055,0.002-0.082,0.007c-1.262,0.21-2.634-0.194-3.57-1.13l-0.301-0.3l1.065-1.065C14.23,17.791,14.796,18,15.379,18   C16.824,18,18,16.824,18,15.379c0-0.7-0.272-1.358-0.768-1.854L12.707,9l1.043-1.043l5.051,5.05C19.574,13.781,20,14.81,20,15.904   c0,0.231-0.033,0.454-0.069,0.675c-0.04,0.244,0.104,0.48,0.339,0.557C21.305,17.473,22,18.423,22,19.5   C22,20.878,20.879,22,19.5,22z"/>
	<g>
		
			<rect x="14.723" y="8.165" transform="matrix(0.7071 -0.7071 0.7071 0.7071 -3.4774 13.6375)" style="fill:#E53935;" width="0" height="5.703"/>
		<path style="opacity:0.1;" d="M16.643,19.776c-0.068-0.208-0.262-0.345-0.476-0.345c-0.026,0-0.055,0.002-0.082,0.007    c-1.175,0.196-2.44-0.148-3.366-0.95L12.707,18.5l0.301,0.3c0.937,0.936,2.309,1.341,3.57,1.13    c0.027-0.005,0.056-0.007,0.082-0.007c0.019,0,0.033,0.014,0.051,0.016C16.689,19.885,16.662,19.833,16.643,19.776z"/>
		<path style="opacity:0.1;" d="M21.011,17.525c0.314,0.419,0.496,0.933,0.496,1.482c0,1.378-1.121,2.5-2.5,2.5    c-0.549,0-1.063-0.182-1.482-0.496C17.987,21.622,18.708,22,19.5,22c1.379,0,2.5-1.122,2.5-2.5    C22,18.708,21.622,17.987,21.011,17.525z"/>
	</g>
	<path style="opacity:0.2;fill:#FFFFFF;" d="M17.109,4.601c0.251,0.047,0.481-0.104,0.558-0.338   c0.337-1.035,1.287-1.731,2.364-1.731c0.554,0,1.061,0.187,1.476,0.493C21.052,2.406,20.325,2,19.5,2   c-1.077,0-2.027,0.696-2.364,1.731c-0.076,0.235-0.307,0.386-0.558,0.338c-1.262-0.21-2.634,0.194-3.57,1.13l-5.051,5.05   l0.531,0.531l5.051-5.05C14.476,4.795,15.848,4.391,17.109,4.601z"/>
	<path style="opacity:0.1;" d="M17.472,7.06C17.799,7.497,18,8.034,18,8.621c0,0.592-0.205,1.148-0.565,1.607l0.531,0.531   c0.36-0.459,0.565-1.015,0.565-1.607C18.531,8.294,18.111,7.538,17.472,7.06z"/>
	<path style="opacity:0.2;fill:#FFFFFF;" d="M7.396,4.262c0.077,0.234,0.311,0.385,0.558,0.338c1.158-0.193,2.403,0.137,3.325,0.914   L11.293,5.5l-0.301-0.3c-0.937-0.936-2.308-1.34-3.57-1.13c-0.036,0.007-0.071,0.001-0.106,0C7.342,4.133,7.374,4.195,7.396,4.262z   "/>
	<path style="opacity:0.2;fill:#FFFFFF;" d="M2.531,5.031c0-1.378,1.121-2.5,2.5-2.5c0.539,0,1.046,0.174,1.461,0.478   C6.031,2.386,5.301,2,4.5,2C3.121,2,2,3.122,2,4.5c0,0.801,0.386,1.532,1.009,1.992C2.706,6.078,2.531,5.57,2.531,5.031z"/>
	<path style="opacity:0.2;fill:#FFFFFF;" d="M2.531,20.031c0-1.077,0.695-2.027,1.73-2.364c0.235-0.077,0.379-0.313,0.339-0.557   c-0.036-0.221-0.069-0.443-0.069-0.675c0-1.094,0.426-2.123,1.199-2.896l0.301-0.3L5.5,12.707l-0.301,0.3   C4.426,13.781,4,14.81,4,15.904c0,0.231,0.033,0.454,0.069,0.675c0.04,0.244-0.104,0.48-0.339,0.557C2.695,17.473,2,18.423,2,19.5   c0,0.825,0.406,1.552,1.024,2.007C2.718,21.092,2.531,20.585,2.531,20.031z"/>
	<path style="opacity:0.2;fill:#FFFFFF;" d="M9.152,18.531c0.69,0,1.366-0.28,1.854-0.768l4.525-4.525L15,12.707l-4.525,4.525   C9.987,17.72,9.312,18,8.621,18c-0.587,0-1.124-0.201-1.562-0.528C7.538,18.111,8.294,18.531,9.152,18.531z"/>
	<linearGradient id="SVGID_1_" gradientUnits="userSpaceOnUse" x1="-0.205" y1="6.3087" x2="24.205" y2="17.6913">
		<stop offset="0" style="stop-color:#FFFFFF;stop-opacity:0.2"/>
		<stop offset="1" style="stop-color:#FFFFFF;stop-opacity:0"/>
	</linearGradient>
	<path style="fill:url(#SVGID_1_);" d="M20.975,16.34C20.99,16.199,21,16.053,21,15.904c0-1.361-0.53-2.641-1.492-3.604L19.207,12   l0.301-0.3C20.47,10.737,21,9.457,21,8.096c0-0.149-0.01-0.295-0.025-0.436C22.201,7.092,23,5.87,23,4.5C23,2.57,21.43,1,19.5,1   c-1.369,0-2.591,0.799-3.16,2.025C16.199,3.01,16.054,3,15.904,3c-1.361,0-2.642,0.53-3.604,1.493L12,4.793l-0.301-0.3   C10.737,3.53,9.457,3,8.096,3C7.946,3,7.801,3.01,7.66,3.025C7.091,1.799,5.869,1,4.5,1C2.57,1,1,2.57,1,4.5   c0,1.37,0.799,2.592,2.025,3.16C3.01,7.801,3,7.947,3,8.096c0,1.361,0.53,2.641,1.492,3.604L4.793,12l-0.301,0.3   C3.53,13.263,3,14.543,3,15.904c0,0.149,0.01,0.295,0.025,0.436C1.799,16.908,1,18.13,1,19.5C1,21.43,2.57,23,4.5,23   c1.369,0,2.591-0.799,3.16-2.025C7.801,20.99,7.946,21,8.096,21c1.361,0,2.642-0.53,3.604-1.493l0.301-0.3l0.301,0.3   C13.263,20.47,14.543,21,15.904,21c0.149,0,0.295-0.01,0.436-0.025C16.909,22.201,18.131,23,19.5,23c1.93,0,3.5-1.57,3.5-3.5   C23,18.13,22.201,16.908,20.975,16.34z M8.621,17C7.728,17,7,16.273,7,15.379c0-0.325,0.095-0.636,0.271-0.9l2.249,2.249   C9.256,16.903,8.941,17,8.621,17z M7.271,9.521C7.095,9.257,7,8.946,7,8.621C7,7.727,7.728,7,8.621,7   c0.32,0,0.635,0.097,0.899,0.272L7.271,9.521z M12,14.293L9.707,12L12,9.707L14.293,12L12,14.293z M15.379,17   c-0.32,0-0.635-0.097-0.899-0.272l2.249-2.249c0.177,0.264,0.271,0.575,0.271,0.9C17,16.273,16.272,17,15.379,17z M16.729,9.521   l-2.249-2.249C14.744,7.097,15.059,7,15.379,7C16.272,7,17,7.727,17,8.621C17,8.946,16.905,9.257,16.729,9.521z"/>
</g>
<g>
</g>
<g>
</g>
<g>
</g>
<g>
</g>
<g>
</g>
<g>
</g>
<g>
</g>
<g>
</g>
<g>
</g>
<g>
</g>
<g>
</g>
<g>
</g>
<g>
</g>
<g>
</g>
<g>
</g>

	<metadata>
		<rdf:RDF xmlns:rdf="http://www.w3.org/1999/02/22-rdf-syntax-ns#" xmlns:rdfs="http://www.w3.org/2000/01/rdf-schema#" xmlns:dc="http://purl.org/dc/elements/1.1/">
			<rdf:Description about="https://iconscout.com/legal#licenses" dc:title="social; media; social media; logo; joomla" dc:description="social; media; social media; logo; joomla" dc:publisher="Iconscout" dc:date="2017-03-22" dc:format="image/svg+xml" dc:language="en">
				<dc:creator>
					<rdf:Bag>
						<rdf:li>Alpár - Etele Méder</rdf:li>
					</rdf:Bag>
				</dc:creator>
			</rdf:Description>
		</rdf:RDF>
    </metadata></svg>
