<?xml version="1.0" encoding="UTF-8"?>
<svg xmlns="http://www.w3.org/2000/svg" xmlns:xlink="http://www.w3.org/1999/xlink" version="1.1" id="Layer_1" x="0px" y="0px" viewBox="0 0 24 24" style="enable-background:new 0 0 24 24;" xml:space="preserve">
<g>
	<path style="fill:#303C42;" d="M21,1H3C1.897,1,1,1.897,1,3v18c0,1.103,0.897,2,2,2h18c1.103,0,2-0.897,2-2V3   C23,1.897,22.103,1,21,1z"/>
	<path style="fill:#7CB342;" d="M22,21c0,0.552-0.449,1-1,1H3c-0.551,0-1-0.448-1-1V3c0-0.552,0.449-1,1-1h18c0.551,0,1,0.448,1,1   V21z"/>
	<path style="opacity:0.2;fill:#FFFFFF;" d="M2.5,21.5v-18c0-0.552,0.449-1,1-1h18c0.146,0,0.283,0.035,0.408,0.092   C21.751,2.245,21.405,2,21,2H3C2.449,2,2,2.448,2,3v18c0,0.405,0.245,0.751,0.592,0.908C2.535,21.783,2.5,21.646,2.5,21.5z"/>
	<path style="fill:#303C42;" d="M17.161,5.631c-0.5-0.444-1.147-0.667-1.809-0.627c-0.667,0.039-1.278,0.336-1.721,0.835L11,8.799   V7.5C11,6.121,9.878,5,8.5,5S6,6.121,6,7.5v9C6,17.879,7.122,19,8.5,19s2.5-1.121,2.5-2.5v-1.299l2.632,2.96   C14.105,18.694,14.787,19,15.5,19c0.612,0,1.201-0.224,1.661-0.631c1.03-0.916,1.123-2.5,0.207-3.53L14.845,12l2.524-2.839   C18.284,8.131,18.191,6.547,17.161,5.631z"/>
	<path style="fill:#FFFFFF;" d="M16.621,8.497l-2.819,3.171c-0.168,0.189-0.168,0.475,0,0.664l2.818,3.171   c0.55,0.618,0.494,1.569-0.124,2.118c-0.597,0.529-1.59,0.469-2.118-0.124l-3.505-3.943c-0.097-0.109-0.233-0.168-0.374-0.168   c-0.06,0-0.12,0.011-0.178,0.032C10.128,13.492,10,13.678,10,13.886V16.5c0,0.827-0.673,1.5-1.5,1.5S7,17.327,7,16.5v-9   C7,6.673,7.673,6,8.5,6S10,6.673,10,7.5v2.614c0,0.208,0.128,0.394,0.322,0.468c0.195,0.071,0.413,0.021,0.551-0.136l3.506-3.943   c0.266-0.299,0.632-0.478,1.032-0.501c0.408-0.022,0.786,0.111,1.084,0.377C17.114,6.928,17.17,7.879,16.621,8.497z"/>
	<linearGradient id="SVGID_1_" gradientUnits="userSpaceOnUse" x1="8.0857" y1="8.0776" x2="21.7109" y2="21.7027">
		<stop offset="0" style="stop-color:#000000;stop-opacity:0.1"/>
		<stop offset="1" style="stop-color:#000000;stop-opacity:0"/>
	</linearGradient>
	<path style="fill:url(#SVGID_1_);" d="M11,8.799l1.091-1.227l-1.75-1.75C10.746,6.267,11,6.852,11,7.5V8.799z M17.384,5.867   L17.381,5.87c0.808,0.934,0.829,2.343-0.013,3.291L14.845,12l2.523,2.839c0.916,1.03,0.823,2.614-0.207,3.53   C16.702,18.776,16.112,19,15.5,19c-0.714,0-1.395-0.306-1.869-0.839L11,15.201V16.5c0,1.379-1.122,2.5-2.5,2.5   c-0.599,0-1.141-0.22-1.572-0.572L10.5,22H21c0.551,0,1-0.448,1-1V10.484L17.384,5.867z"/>
	<linearGradient id="SVGID_2_" gradientUnits="userSpaceOnUse" x1="-0.6522" y1="6.1002" x2="24.6523" y2="17.8998">
		<stop offset="0" style="stop-color:#FFFFFF;stop-opacity:0.2"/>
		<stop offset="1" style="stop-color:#FFFFFF;stop-opacity:0"/>
	</linearGradient>
	<path style="fill:url(#SVGID_2_);" d="M21,1H3C1.897,1,1,1.897,1,3v18c0,1.103,0.897,2,2,2h18c1.103,0,2-0.897,2-2V3   C23,1.897,22.103,1,21,1z"/>
</g>
<g>
</g>
<g>
</g>
<g>
</g>
<g>
</g>
<g>
</g>
<g>
</g>
<g>
</g>
<g>
</g>
<g>
</g>
<g>
</g>
<g>
</g>
<g>
</g>
<g>
</g>
<g>
</g>
<g>
</g>

	<metadata>
		<rdf:RDF xmlns:rdf="http://www.w3.org/1999/02/22-rdf-syntax-ns#" xmlns:rdfs="http://www.w3.org/2000/01/rdf-schema#" xmlns:dc="http://purl.org/dc/elements/1.1/">
			<rdf:Description about="https://iconscout.com/legal#licenses" dc:title="social; media; social media; logo; kickstarter" dc:description="social; media; social media; logo; kickstarter" dc:publisher="Iconscout" dc:date="2017-03-22" dc:format="image/svg+xml" dc:language="en">
				<dc:creator>
					<rdf:Bag>
						<rdf:li>Alpár - Etele Méder</rdf:li>
					</rdf:Bag>
				</dc:creator>
			</rdf:Description>
		</rdf:RDF>
    </metadata></svg>
