<?xml version="1.0" encoding="UTF-8"?>
<svg xmlns="http://www.w3.org/2000/svg" xmlns:xlink="http://www.w3.org/1999/xlink" version="1.1" id="Layer_1" x="0px" y="0px" viewBox="0 0 24 24" style="enable-background:new 0 0 24 24;" xml:space="preserve">
<g>
	<path style="fill:#303C42;" d="M21,1H3C1.897,1,1,1.897,1,3v18c0,1.103,0.897,2,2,2h18c1.103,0,2-0.897,2-2V3   C23,1.897,22.103,1,21,1z"/>
	<path style="fill:#039BE5;" d="M22,21c0,0.551-0.449,1-1,1H3c-0.551,0-1-0.449-1-1V3c0-0.551,0.449-1,1-1h18c0.551,0,1,0.449,1,1   V21z"/>
	<path style="opacity:0.2;fill:#FFFFFF;" d="M2.75,21.75v-18c0-0.551,0.449-1,1-1h18c0.074,0,0.139,0.027,0.208,0.042   C21.859,2.344,21.478,2,21,2H3C2.449,2,2,2.449,2,3v18c0,0.478,0.344,0.859,0.792,0.958C2.777,21.889,2.75,21.824,2.75,21.75z"/>
	<circle style="fill:#303C42;" cx="6" cy="6" r="2"/>
	<circle style="fill:#FFFFFF;" cx="6" cy="6" r="1"/>
	<path style="fill:#303C42;" d="M7.5,9h-3C4.224,9,4,9.224,4,9.5v10C4,19.776,4.224,20,4.5,20h3C7.776,20,8,19.776,8,19.5v-10   C8,9.224,7.776,9,7.5,9z"/>
	<rect x="5" y="10" style="fill:#FFFFFF;" width="2" height="9"/>
	<path style="fill:#303C42;" d="M15.5,9c-1.084,0-1.85,0.306-2.5,0.814V9.5C13,9.224,12.776,9,12.5,9h-3C9.224,9,9,9.224,9,9.5v10   C9,19.776,9.224,20,9.5,20h3c0.276,0,0.5-0.224,0.5-0.5V14c0-1.252,0.561-2,1.5-2s1.5,0.748,1.5,2v5.5c0,0.276,0.224,0.5,0.5,0.5h3   c0.276,0,0.5-0.224,0.5-0.5V14C20,10.962,18.233,9,15.5,9z"/>
	<path style="fill:#FFFFFF;" d="M19,19h-2v-5c0-2.072-1.256-3-2.5-3S12,11.928,12,14v5h-2v-9h2v1.001   c0,0.209,0.13,0.396,0.326,0.469c0.195,0.073,0.417,0.017,0.553-0.142C13.622,10.467,14.26,10,15.5,10c2.159,0,3.5,1.533,3.5,4V19z   "/>
	<linearGradient id="SVGID_1_" gradientUnits="userSpaceOnUse" x1="7.2956" y1="4.4876" x2="7.3105" y2="4.5025">
		<stop offset="0" style="stop-color:#000000;stop-opacity:0.1"/>
		<stop offset="1" style="stop-color:#000000;stop-opacity:0"/>
	</linearGradient>
	<path style="fill:url(#SVGID_1_);" d="M7.311,4.502L7.296,4.487L7.295,4.488C7.3,4.493,7.306,4.497,7.311,4.502z"/>
	<linearGradient id="SVGID_2_" gradientUnits="userSpaceOnUse" x1="4.1999" y1="7.8391" x2="19.8871" y2="23.5264">
		<stop offset="0" style="stop-color:#000000;stop-opacity:0.1"/>
		<stop offset="1" style="stop-color:#000000;stop-opacity:0"/>
	</linearGradient>
	<path style="fill:url(#SVGID_2_);" d="M18.605,10.187l-0.022,0.003C19.478,11.063,20,12.369,20,14v5.5c0,0.276-0.224,0.5-0.5,0.5   h-3c-0.276,0-0.5-0.224-0.5-0.5V14c0-1.252-0.561-2-1.5-2S13,12.748,13,14v5.5c0,0.276-0.224,0.5-0.5,0.5h-3   C9.224,20,9,19.776,9,19.5v-10C9,9.224,9.224,9,9.5,9h2.309L7.498,4.689C7.807,5.041,8,5.496,8,6c0,1.103-0.897,2-2,2   C5.458,8,4.968,7.782,4.608,7.431L4.607,7.432L6.175,9H7.5C7.776,9,8,9.224,8,9.5v10C8,19.776,7.776,20,7.5,20h-3   c-0.124,0-0.234-0.05-0.321-0.124L6.303,22H21c0.551,0,1-0.449,1-1v-7.418L18.605,10.187z"/>
	<linearGradient id="SVGID_3_" gradientUnits="userSpaceOnUse" x1="4.1166" y1="19.8115" x2="4.1252" y2="19.8202">
		<stop offset="0" style="stop-color:#000000;stop-opacity:0.1"/>
		<stop offset="1" style="stop-color:#000000;stop-opacity:0"/>
	</linearGradient>
	<polygon style="fill:url(#SVGID_3_);" points="4.117,19.811 4.117,19.813 4.124,19.821  "/>
	<linearGradient id="SVGID_4_" gradientUnits="userSpaceOnUse" x1="-0.6523" y1="6.1001" x2="24.6523" y2="17.8999">
		<stop offset="0" style="stop-color:#FFFFFF;stop-opacity:0.2"/>
		<stop offset="1" style="stop-color:#FFFFFF;stop-opacity:0"/>
	</linearGradient>
	<path style="fill:url(#SVGID_4_);" d="M21,1H3C1.897,1,1,1.897,1,3v18c0,1.103,0.897,2,2,2h18c1.103,0,2-0.897,2-2V3   C23,1.897,22.103,1,21,1z"/>
</g>
<g>
</g>
<g>
</g>
<g>
</g>
<g>
</g>
<g>
</g>
<g>
</g>
<g>
</g>
<g>
</g>
<g>
</g>
<g>
</g>
<g>
</g>
<g>
</g>
<g>
</g>
<g>
</g>
<g>
</g>

	<metadata>
		<rdf:RDF xmlns:rdf="http://www.w3.org/1999/02/22-rdf-syntax-ns#" xmlns:rdfs="http://www.w3.org/2000/01/rdf-schema#" xmlns:dc="http://purl.org/dc/elements/1.1/">
			<rdf:Description about="https://iconscout.com/legal#licenses" dc:title="social; media; social media; logo; likedin" dc:description="social; media; social media; logo; likedin" dc:publisher="Iconscout" dc:date="2017-03-22" dc:format="image/svg+xml" dc:language="en">
				<dc:creator>
					<rdf:Bag>
						<rdf:li>Alpár - Etele Méder</rdf:li>
					</rdf:Bag>
				</dc:creator>
			</rdf:Description>
		</rdf:RDF>
    </metadata></svg>
