<?xml version="1.0" encoding="UTF-8"?>
<svg xmlns="http://www.w3.org/2000/svg" xmlns:xlink="http://www.w3.org/1999/xlink" version="1.1" id="Layer_1" x="0px" y="0px" viewBox="0 0 24 24" style="enable-background:new 0 0 24 24;" xml:space="preserve">
<g>
	<path style="fill:#303C42;" d="M12,1C5.383,1,0,5.262,0,10.5c0,4.582,4.106,8.49,9.782,9.33c0.027,0.009,0.055,0.016,0.084,0.021   c0.685,0.106,1.132,0.353,1.327,0.731c0.295,0.573,0,1.416-0.139,1.692c-0.101,0.201-0.055,0.446,0.113,0.597   C11.261,22.956,11.381,23,11.501,23c0.094,0,0.188-0.026,0.271-0.08l7.748-5.012c0.016-0.011,0.032-0.021,0.046-0.034   C22.385,16.061,24,13.377,24,10.5C24,5.262,18.617,1,12,1z"/>
	<path style="fill:#A6FF5B;" d="M18.97,17.068c-0.019,0.012-0.036,0.024-0.052,0.038l-6.606,4.273   c0.029-0.4-0.017-0.841-0.227-1.251c-0.334-0.653-0.987-1.072-1.941-1.246c-0.034-0.012-0.069-0.021-0.106-0.026   C4.801,18.124,1,14.609,1,10.5C1,5.813,5.935,2,12,2s11,3.813,11,8.5C23,13.048,21.531,15.441,18.97,17.068z"/>
	<path style="opacity:0.1;" d="M20.406,5.03c1.347,1.411,2.154,3.147,2.154,5.03c0,2.548-1.469,4.941-4.03,6.568   c-0.019,0.012-0.036,0.024-0.052,0.038l-6.208,4.016c0.046,0.237,0.058,0.473,0.042,0.698l6.606-4.273   c0.017-0.014,0.034-0.026,0.052-0.038C21.531,15.441,23,13.048,23,10.5C23,8.417,22.022,6.509,20.406,5.03z"/>
	<path style="opacity:0.2;fill:#FFFFFF;" d="M1.56,11.06c0-4.687,4.935-8.5,11-8.5c3.358,0,6.365,1.172,8.385,3.011   C18.948,3.414,15.687,2,12,2C5.935,2,1,5.813,1,10.5c0,2.068,0.964,3.984,2.587,5.471C2.305,14.576,1.56,12.877,1.56,11.06z"/>
	<path style="fill:#303C42;" d="M8,13H6V8.5C6,8.224,5.776,8,5.5,8S5,8.224,5,8.5v5C5,13.776,5.224,14,5.5,14H8   c0.276,0,0.5-0.224,0.5-0.5S8.276,13,8,13z"/>
	<path style="fill:#303C42;" d="M9.5,8C9.224,8,9,8.224,9,8.5v5C9,13.776,9.224,14,9.5,14s0.5-0.224,0.5-0.5v-5   C10,8.224,9.776,8,9.5,8z"/>
	<path style="fill:#303C42;" d="M14.5,8C14.224,8,14,8.224,14,8.5v3.195l-2.071-3.452c-0.115-0.192-0.348-0.285-0.562-0.225   C11.15,8.078,11,8.275,11,8.5v5c0,0.276,0.224,0.5,0.5,0.5s0.5-0.224,0.5-0.5v-3.195l2.071,3.452C14.163,13.91,14.328,14,14.5,14   c0.044,0,0.089-0.006,0.133-0.019C14.85,13.922,15,13.725,15,13.5v-5C15,8.224,14.776,8,14.5,8z"/>
	<path style="fill:#303C42;" d="M19,9c0.276,0,0.5-0.224,0.5-0.5S19.276,8,19,8h-2.5C16.224,8,16,8.224,16,8.5v5   c0,0.276,0.224,0.5,0.5,0.5H19c0.276,0,0.5-0.224,0.5-0.5S19.276,13,19,13h-2v-1.5h2c0.276,0,0.5-0.224,0.5-0.5s-0.224-0.5-0.5-0.5   h-2V9H19z"/>
	<linearGradient id="SVGID_1_" gradientUnits="userSpaceOnUse" x1="1.1553" y1="6.3235" x2="22.1745" y2="16.1249">
		<stop offset="0" style="stop-color:#FFFFFF;stop-opacity:0.2"/>
		<stop offset="1" style="stop-color:#FFFFFF;stop-opacity:0"/>
	</linearGradient>
	<path style="fill:url(#SVGID_1_);" d="M12,1C5.383,1,0,5.262,0,10.5c0,4.582,4.106,8.49,9.782,9.33   c0.027,0.009,0.055,0.016,0.084,0.021c0.685,0.106,1.132,0.353,1.327,0.731c0.295,0.573,0,1.416-0.139,1.692   c-0.101,0.201-0.055,0.446,0.113,0.597C11.261,22.956,11.381,23,11.501,23c0.094,0,0.188-0.026,0.271-0.08l7.748-5.012   c0.016-0.011,0.032-0.021,0.046-0.034C22.385,16.061,24,13.377,24,10.5C24,5.262,18.617,1,12,1z"/>
</g>
<g>
</g>
<g>
</g>
<g>
</g>
<g>
</g>
<g>
</g>
<g>
</g>
<g>
</g>
<g>
</g>
<g>
</g>
<g>
</g>
<g>
</g>
<g>
</g>
<g>
</g>
<g>
</g>
<g>
</g>

	<metadata>
		<rdf:RDF xmlns:rdf="http://www.w3.org/1999/02/22-rdf-syntax-ns#" xmlns:rdfs="http://www.w3.org/2000/01/rdf-schema#" xmlns:dc="http://purl.org/dc/elements/1.1/">
			<rdf:Description about="https://iconscout.com/legal#licenses" dc:title="social; media; social media; logo; link" dc:description="social; media; social media; logo; link" dc:publisher="Iconscout" dc:date="2017-03-22" dc:format="image/svg+xml" dc:language="en">
				<dc:creator>
					<rdf:Bag>
						<rdf:li>Alpár - Etele Méder</rdf:li>
					</rdf:Bag>
				</dc:creator>
			</rdf:Description>
		</rdf:RDF>
    </metadata></svg>
