<?xml version="1.0" encoding="UTF-8"?>
<svg xmlns="http://www.w3.org/2000/svg" xmlns:xlink="http://www.w3.org/1999/xlink" version="1.1" id="Layer_1" x="0px" y="0px" viewBox="0 0 24 24" style="enable-background:new 0 0 24 24;" xml:space="preserve">
<g>
	<path style="fill:#303C42;" d="M14.98,10.033C14.742,7.218,12.375,5,9.5,5C7.024,5,4.871,6.659,4.212,9.008   C4.142,9.003,4.071,9,4,9c-2.206,0-4,1.794-4,4s1.794,4,4,4h10.5c1.93,0,3.5-1.57,3.5-3.5C18,11.733,16.684,10.268,14.98,10.033z"/>
	<path style="fill:#FFFFFF;" d="M14.5,16H4c-1.654,0-3-1.346-3-3s1.346-3,3-3c0.17,0,0.334,0.024,0.496,0.051   c0.027,0.006,0.045,0.01,0.076,0.017c0.471,0.107,1.074,0.336,1.549,0.81c0.098,0.098,0.226,0.146,0.354,0.146   s0.256-0.049,0.354-0.146c0.195-0.195,0.195-0.512,0-0.707C6.371,9.714,5.806,9.413,5.206,9.232h0C5.762,7.34,7.494,6,9.5,6   c2.468,0,4.474,1.997,4.496,4.46c0.006,0.57-0.093,1.15-0.317,1.711c-0.103,0.256,0.021,0.547,0.278,0.65   c0.061,0.024,0.124,0.036,0.186,0.036c0.198,0,0.386-0.119,0.464-0.314c0.196-0.491,0.312-0.994,0.362-1.495   C16.124,11.268,17,12.282,17,13.5C17,14.878,15.879,16,14.5,16z"/>
	<path style="opacity:0.1;" d="M14.5,15.344H4c-1.542,0-2.801-1.174-2.967-2.672C1.021,12.781,1,12.888,1,13c0,1.654,1.346,3,3,3   h10.5c1.379,0,2.5-1.122,2.5-2.5c0-0.119-0.015-0.234-0.031-0.348C16.815,14.384,15.773,15.344,14.5,15.344z"/>
	<path style="fill:#303C42;" d="M19.605,17.154c-0.09,0-0.181-0.024-0.263-0.075c-0.235-0.145-0.308-0.453-0.163-0.688   c0.537-0.869,0.82-1.862,0.82-2.873c0-1.021-0.288-2.023-0.834-2.897c-0.146-0.234-0.075-0.542,0.159-0.689   c0.232-0.145,0.542-0.075,0.688,0.16C20.659,11.125,21,12.311,21,13.519c0,1.196-0.335,2.371-0.969,3.398   C19.937,17.07,19.772,17.154,19.605,17.154z"/>
	<path style="fill:#303C42;" d="M22,19c-0.096,0-0.192-0.027-0.277-0.084c-0.229-0.153-0.292-0.464-0.139-0.693   C22.511,16.833,23,15.201,23,13.5s-0.489-3.333-1.416-4.723c-0.153-0.229-0.091-0.54,0.139-0.693   c0.227-0.153,0.539-0.092,0.693,0.139C23.452,9.776,24,11.602,24,13.5s-0.548,3.724-1.584,5.277C22.319,18.922,22.161,19,22,19z"/>
	<linearGradient id="SVGID_1_" gradientUnits="userSpaceOnUse" x1="2.1046" y1="7.6003" x2="23.1671" y2="17.4219">
		<stop offset="0" style="stop-color:#FFFFFF;stop-opacity:0.2"/>
		<stop offset="1" style="stop-color:#FFFFFF;stop-opacity:0"/>
	</linearGradient>
	<path style="fill:url(#SVGID_1_);" d="M14.98,10.033C14.742,7.218,12.375,5,9.5,5C7.024,5,4.871,6.659,4.212,9.008   C4.142,9.003,4.071,9,4,9c-2.206,0-4,1.794-4,4s1.794,4,4,4h10.5c1.93,0,3.5-1.57,3.5-3.5C18,11.733,16.684,10.268,14.98,10.033z    M19.325,9.933c-0.234,0.146-0.306,0.455-0.159,0.689C19.712,11.496,20,12.498,20,13.519c0,1.01-0.283,2.004-0.82,2.873   c-0.145,0.235-0.072,0.543,0.163,0.688c0.082,0.051,0.173,0.075,0.263,0.075c0.167,0,0.331-0.084,0.426-0.237   C20.665,15.89,21,14.715,21,13.519c0-1.208-0.341-2.394-0.986-3.426C19.867,9.858,19.558,9.789,19.325,9.933z M22.416,8.223   c-0.154-0.231-0.467-0.292-0.693-0.139c-0.229,0.153-0.292,0.464-0.139,0.693C22.511,10.167,23,11.799,23,13.5   s-0.489,3.333-1.416,4.723c-0.153,0.229-0.091,0.54,0.139,0.693C21.808,18.973,21.904,19,22,19c0.161,0,0.319-0.078,0.416-0.223   C23.452,17.224,24,15.398,24,13.5S23.452,9.776,22.416,8.223z"/>
</g>
<g>
</g>
<g>
</g>
<g>
</g>
<g>
</g>
<g>
</g>
<g>
</g>
<g>
</g>
<g>
</g>
<g>
</g>
<g>
</g>
<g>
</g>
<g>
</g>
<g>
</g>
<g>
</g>
<g>
</g>

	<metadata>
		<rdf:RDF xmlns:rdf="http://www.w3.org/1999/02/22-rdf-syntax-ns#" xmlns:rdfs="http://www.w3.org/2000/01/rdf-schema#" xmlns:dc="http://purl.org/dc/elements/1.1/">
			<rdf:Description about="https://iconscout.com/legal#licenses" dc:title="social; media; social media; logo; mixcloud" dc:description="social; media; social media; logo; mixcloud" dc:publisher="Iconscout" dc:date="2017-03-22" dc:format="image/svg+xml" dc:language="en">
				<dc:creator>
					<rdf:Bag>
						<rdf:li>Alpár - Etele Méder</rdf:li>
					</rdf:Bag>
				</dc:creator>
			</rdf:Description>
		</rdf:RDF>
    </metadata></svg>
