<?xml version="1.0" encoding="UTF-8"?>
<svg xmlns="http://www.w3.org/2000/svg" xmlns:xlink="http://www.w3.org/1999/xlink" version="1.1" id="Layer_1" x="0px" y="0px" viewBox="0 0 24 24" style="enable-background:new 0 0 24 24;" xml:space="preserve">
<g>
	<path style="fill:#303C42;" d="M12,0C8.691,0,6,2.691,6,6s2.691,6,6,6s6-2.691,6-6S15.309,0,12,0z M12,8c-1.103,0-2-0.897-2-2   s0.897-2,2-2s2,0.897,2,2S13.103,8,12,8z"/>
	<path style="fill:#FB8C00;" d="M12,1C9.243,1,7,3.243,7,6s2.243,5,5,5s5-2.243,5-5S14.757,1,12,1z M12,9c-1.654,0-3-1.346-3-3   s1.346-3,3-3s3,1.346,3,3S13.654,9,12,9z"/>
	<path style="opacity:0.2;fill:#FFFFFF;" d="M7.5,6.5c0-2.757,2.243-5,5-5c1.251,0,2.382,0.478,3.26,1.24   C14.842,1.683,13.506,1,12,1C9.243,1,7,3.243,7,6c0,1.506,0.683,2.842,1.74,3.76C7.978,8.882,7.5,7.751,7.5,6.5z"/>
	<path style="fill:#303C42;" d="M12,3c-1.654,0-3,1.346-3,3s1.346,3,3,3s3-1.346,3-3S13.654,3,12,3z M12,8c-1.103,0-2-0.897-2-2   s0.897-2,2-2s2,0.897,2,2S13.103,8,12,8z"/>
	<path style="fill:#303C42;" d="M18.802,15.521C19.552,15.023,20,14.193,20,13.299c0-0.755-0.399-1.406-1.067-1.741   c-0.681-0.34-1.487-0.266-2.108,0.197c-1.403,1.048-3.071,1.603-4.824,1.603s-3.421-0.555-4.824-1.603   c-0.62-0.463-1.428-0.537-2.108-0.197C4.399,11.893,4,12.544,4,13.299c0,0.895,0.448,1.725,1.198,2.221   c0.967,0.644,2.019,1.146,3.13,1.495c0.209,0.063,0.424,0.122,0.644,0.177l-3.283,3.212c-0.398,0.397-0.617,0.927-0.617,1.489   s0.219,1.092,0.617,1.49c0.41,0.41,0.95,0.618,1.49,0.617c0.541-0.001,1.082-0.209,1.496-0.623L12,19.934l3.331,3.449   c0.411,0.411,0.95,0.617,1.49,0.617s1.079-0.206,1.49-0.617c0.398-0.398,0.617-0.928,0.617-1.49s-0.219-1.092-0.621-1.493   l-3.279-3.208c0.221-0.055,0.437-0.114,0.646-0.179C16.783,16.665,17.835,16.163,18.802,15.521z"/>
	<path style="fill:#FB8C00;" d="M13.923,16.399c-0.185,0.032-0.337,0.165-0.393,0.345c-0.056,0.179-0.007,0.374,0.128,0.506   l3.946,3.86c0.209,0.209,0.324,0.486,0.324,0.782s-0.115,0.574-0.324,0.783c-0.434,0.433-1.137,0.431-1.561,0.006l-3.685-3.815   c-0.094-0.098-0.224-0.152-0.359-0.152s-0.266,0.055-0.359,0.152l-3.679,3.81c-0.432,0.432-1.135,0.432-1.566,0   c-0.209-0.209-0.324-0.487-0.324-0.783s0.115-0.573,0.32-0.778l3.95-3.864c0.135-0.132,0.184-0.327,0.128-0.506   c-0.056-0.18-0.208-0.313-0.393-0.345c-0.512-0.087-1.001-0.202-1.453-0.34c-1.018-0.32-1.983-0.782-2.873-1.373   C5.28,14.376,5,13.856,5,13.299c0-0.374,0.188-0.683,0.516-0.848c0.347-0.172,0.742-0.134,1.063,0.104   c1.577,1.179,3.452,1.802,5.422,1.802s3.845-0.623,5.422-1.802c0.32-0.239,0.718-0.276,1.063-0.104   C18.812,12.616,19,12.925,19,13.299c0,0.558-0.28,1.077-0.751,1.389c-0.89,0.59-1.855,1.052-2.87,1.37   C14.924,16.197,14.435,16.313,13.923,16.399z"/>
	<path style="opacity:0.1;" d="M5.516,13.045c0.347-0.172,0.742-0.134,1.063,0.104c1.577,1.179,3.452,1.802,5.422,1.802   s3.845-0.623,5.422-1.802c0.32-0.239,0.718-0.276,1.063-0.104c0.241,0.122,0.406,0.322,0.476,0.569   C18.981,13.51,19,13.406,19,13.299c0-0.374-0.188-0.683-0.516-0.848c-0.345-0.172-0.742-0.135-1.063,0.104   c-1.577,1.179-3.452,1.802-5.422,1.802s-3.845-0.623-5.422-1.802c-0.32-0.238-0.716-0.276-1.063-0.104   C5.188,12.616,5,12.925,5,13.299c0,0.108,0.019,0.212,0.039,0.315C5.11,13.367,5.274,13.167,5.516,13.045z"/>
	<linearGradient id="SVGID_1_" gradientUnits="userSpaceOnUse" x1="3.9106" y1="9.1513" x2="21.3066" y2="17.2632">
		<stop offset="0" style="stop-color:#FFFFFF;stop-opacity:0.2"/>
		<stop offset="1" style="stop-color:#FFFFFF;stop-opacity:0"/>
	</linearGradient>
	<path style="fill:url(#SVGID_1_);" d="M12,12c3.309,0,6-2.691,6-6s-2.691-6-6-6S6,2.691,6,6S8.691,12,12,12z M12,4   c1.103,0,2,0.897,2,2s-0.897,2-2,2s-2-0.897-2-2S10.897,4,12,4z M18.802,15.521C19.552,15.023,20,14.193,20,13.299   c0-0.755-0.399-1.406-1.067-1.741c-0.681-0.34-1.487-0.266-2.108,0.197c-1.403,1.048-3.071,1.603-4.824,1.603   s-3.421-0.555-4.824-1.603c-0.62-0.463-1.428-0.537-2.108-0.197C4.399,11.893,4,12.544,4,13.299c0,0.895,0.448,1.725,1.198,2.221   c0.967,0.644,2.019,1.146,3.13,1.495c0.209,0.063,0.424,0.122,0.644,0.177l-3.283,3.212c-0.398,0.397-0.617,0.927-0.617,1.489   s0.219,1.092,0.617,1.49c0.41,0.41,0.95,0.618,1.49,0.617s1.082-0.209,1.496-0.623L12,19.934l3.331,3.449   c0.411,0.411,0.95,0.617,1.49,0.617s1.079-0.206,1.49-0.617c0.398-0.398,0.617-0.928,0.617-1.49s-0.219-1.092-0.621-1.493   l-3.279-3.208c0.221-0.055,0.437-0.114,0.646-0.179C16.783,16.665,17.835,16.163,18.802,15.521z"/>
</g>
<g>
</g>
<g>
</g>
<g>
</g>
<g>
</g>
<g>
</g>
<g>
</g>
<g>
</g>
<g>
</g>
<g>
</g>
<g>
</g>
<g>
</g>
<g>
</g>
<g>
</g>
<g>
</g>
<g>
</g>

	<metadata>
		<rdf:RDF xmlns:rdf="http://www.w3.org/1999/02/22-rdf-syntax-ns#" xmlns:rdfs="http://www.w3.org/2000/01/rdf-schema#" xmlns:dc="http://purl.org/dc/elements/1.1/">
			<rdf:Description about="https://iconscout.com/legal#licenses" dc:title="social; media; social media; logo; Odnoklassniki" dc:description="social; media; social media; logo; Odnoklassniki" dc:publisher="Iconscout" dc:date="2017-03-22" dc:format="image/svg+xml" dc:language="en">
				<dc:creator>
					<rdf:Bag>
						<rdf:li>Alpár - Etele Méder</rdf:li>
					</rdf:Bag>
				</dc:creator>
			</rdf:Description>
		</rdf:RDF>
    </metadata></svg>
