<?xml version="1.0" encoding="UTF-8"?>
<svg xmlns="http://www.w3.org/2000/svg" xmlns:xlink="http://www.w3.org/1999/xlink" version="1.1" id="Layer_1" x="0px" y="0px" viewBox="0 0 24 24" style="enable-background:new 0 0 24 24;" xml:space="preserve">
<g>
	<path style="fill:#303C42;" d="M23.736,8.059c-0.162-0.089-0.36-0.077-0.513,0.024l-2.33,1.554C19.294,8.475,17.225,7.658,15,7.274   V1.5c0-0.173-0.09-0.334-0.237-0.426c-0.147-0.09-0.332-0.099-0.486-0.021l-3,1.5C11.107,2.638,11,2.81,11,3v4.046   C4.796,7.387,0,10.813,0,15c0,4.432,6.291,8,11.5,8c0.076,0,0.146-0.019,0.21-0.049c0.004-0.002,0.009-0.001,0.014-0.003l3-1.5   C14.893,21.362,15,21.189,15,21V10.24c1.184,0.224,2.314,0.61,3.277,1.14l-1.054,0.703c-0.171,0.114-0.254,0.32-0.211,0.521   c0.043,0.201,0.204,0.354,0.407,0.389l6,1C23.445,13.998,23.473,14,23.5,14c0.118,0,0.232-0.041,0.323-0.118   C23.936,13.786,24,13.647,24,13.5v-5C24,8.315,23.898,8.146,23.736,8.059z M11,19.913C7.035,19.488,4,17.392,4,15   s3.035-4.488,7-4.913V19.913z"/>
	<path style="fill:#E6E6E6;" d="M1,15c0-3.641,4.352-6.638,10-6.962v1.038C6.407,9.53,3,12.026,3,15s3.407,5.47,8,5.924v1.064   C6.376,21.773,1,18.638,1,15z"/>
	<polygon style="fill:#F9A825;" points="14,20.691 12,21.691 12,20.464 12,9.536 12,7.516 12,3.308 14,2.308 14,7.682 14,9.64  "/>
	<path style="fill:#E6E6E6;" d="M23,12.91l-4.171-0.695l0.654-0.437c0.139-0.093,0.222-0.248,0.223-0.415s-0.083-0.322-0.221-0.416   C18.242,10.111,16.664,9.502,15,9.213V8.271c2.138,0.393,4.097,1.226,5.567,2.373c0.167,0.13,0.396,0.142,0.575,0.028l0.009-0.006   c0.003-0.002,0.007-0.005,0.01-0.007L23,9.434V12.91z"/>
	<linearGradient id="SVGID_1_" gradientUnits="userSpaceOnUse" x1="2.7428" y1="7.8918" x2="22.3939" y2="17.0552">
		<stop offset="0" style="stop-color:#FFFFFF;stop-opacity:0.2"/>
		<stop offset="1" style="stop-color:#FFFFFF;stop-opacity:0"/>
	</linearGradient>
	<path style="fill:url(#SVGID_1_);" d="M23.736,8.059c-0.162-0.089-0.36-0.077-0.513,0.024l-2.33,1.554   C19.294,8.475,17.225,7.658,15,7.274V1.5c0-0.173-0.09-0.334-0.237-0.426c-0.147-0.09-0.332-0.099-0.486-0.021l-3,1.5   C11.107,2.638,11,2.81,11,3v4.046C4.796,7.387,0,10.813,0,15c0,4.432,6.291,8,11.5,8c0.076,0,0.146-0.019,0.21-0.049   c0.004-0.002,0.009-0.001,0.014-0.003l3-1.5C14.893,21.362,15,21.189,15,21V10.24c1.184,0.224,2.314,0.61,3.277,1.14l-1.054,0.703   c-0.171,0.114-0.254,0.32-0.211,0.521c0.043,0.201,0.204,0.354,0.407,0.389l6,1C23.445,13.998,23.473,14,23.5,14   c0.118,0,0.232-0.041,0.323-0.118C23.936,13.786,24,13.647,24,13.5v-5C24,8.315,23.898,8.146,23.736,8.059z M11,19.913   C7.035,19.488,4,17.392,4,15s3.035-4.488,7-4.913V19.913z"/>
</g>
<g>
</g>
<g>
</g>
<g>
</g>
<g>
</g>
<g>
</g>
<g>
</g>
<g>
</g>
<g>
</g>
<g>
</g>
<g>
</g>
<g>
</g>
<g>
</g>
<g>
</g>
<g>
</g>
<g>
</g>

	<metadata>
		<rdf:RDF xmlns:rdf="http://www.w3.org/1999/02/22-rdf-syntax-ns#" xmlns:rdfs="http://www.w3.org/2000/01/rdf-schema#" xmlns:dc="http://purl.org/dc/elements/1.1/">
			<rdf:Description about="https://iconscout.com/legal#licenses" dc:title="social; media; social media; logo; opneid" dc:description="social; media; social media; logo; opneid" dc:publisher="Iconscout" dc:date="2017-03-22" dc:format="image/svg+xml" dc:language="en">
				<dc:creator>
					<rdf:Bag>
						<rdf:li>Alpár - Etele Méder</rdf:li>
					</rdf:Bag>
				</dc:creator>
			</rdf:Description>
		</rdf:RDF>
    </metadata></svg>
