<?xml version="1.0" encoding="UTF-8"?>
<svg xmlns="http://www.w3.org/2000/svg" xmlns:xlink="http://www.w3.org/1999/xlink" version="1.1" id="Layer_1" x="0px" y="0px" viewBox="0 0 24 24" style="enable-background:new 0 0 24 24;" xml:space="preserve">
<g>
	<path style="fill:#303C42;" d="M12,0C5.383,0,0,4.262,0,9.5c0,1.931,0.725,3.788,2.096,5.37c0.169,0.194,0.458,0.229,0.668,0.08   l2.436-1.733c0.117-0.084,0.193-0.214,0.207-0.357c0.015-0.144-0.034-0.287-0.133-0.393C4.44,11.58,4,10.554,4,9.5   C4,6.468,7.589,4,12,4s8,2.468,8,5.5c0,1.062-0.576,2.055-1.621,2.798c-1.674,1.19-4.143,1.508-6.379,0.839V7.5   C12,7.224,11.776,7,11.5,7h-3C8.224,7,8,7.224,8,7.5v11c0,0.665-0.136,1.099-0.382,1.221c-0.407,0.205-1.325-0.248-1.816-0.619   c-0.15-0.114-0.354-0.133-0.524-0.049C5.107,19.137,5,19.311,5,19.5v3c0,0.136,0.055,0.265,0.152,0.359C5.2,22.905,6.348,24,8,24   c1.67,0,4-1.712,4-4.5v-2.369c3.605,0.772,6.807,0.244,9.068-1.516C22.959,14.144,24,11.972,24,9.5C24,4.262,18.617,0,12,0z"/>
	<path style="fill:#F44336;" d="M20.454,14.826c-2.141,1.666-5.274,2.087-8.831,1.189c-0.15-0.04-0.309-0.005-0.43,0.09   C11.071,16.2,11,16.346,11,16.5v3c0,2.137-1.776,3.5-3,3.5c-0.941,0-1.69-0.492-2-0.732v-1.876   c0.592,0.296,1.402,0.553,2.062,0.226C8.685,20.309,9,19.596,9,18.5V8h2v5.5c0,0.213,0.135,0.402,0.336,0.473   c2.617,0.91,5.609,0.573,7.622-0.859C20.275,12.177,21,10.894,21,9.5C21,5.916,16.963,3,12,3S3,5.916,3,9.5   c0,1.142,0.403,2.244,1.173,3.22l-1.609,1.146C1.539,12.548,1,11.048,1,9.5C1,4.813,5.935,1,12,1s11,3.813,11,8.5   C23,11.657,22.096,13.549,20.454,14.826z"/>
	<linearGradient id="SVGID_1_" gradientUnits="userSpaceOnUse" x1="0.3918" y1="6.9608" x2="21.4495" y2="16.7802">
		<stop offset="0" style="stop-color:#FFFFFF;stop-opacity:0.2"/>
		<stop offset="1" style="stop-color:#FFFFFF;stop-opacity:0"/>
	</linearGradient>
	<path style="fill:url(#SVGID_1_);" d="M12,0C5.383,0,0,4.262,0,9.5c0,1.931,0.725,3.788,2.096,5.37   c0.169,0.194,0.458,0.229,0.668,0.08l2.436-1.733c0.117-0.084,0.193-0.214,0.207-0.357c0.015-0.144-0.034-0.287-0.133-0.393   C4.44,11.58,4,10.554,4,9.5C4,6.468,7.589,4,12,4s8,2.468,8,5.5c0,1.062-0.576,2.055-1.621,2.798   c-1.674,1.19-4.143,1.508-6.379,0.839V7.5C12,7.224,11.776,7,11.5,7h-3C8.224,7,8,7.224,8,7.5v11c0,0.665-0.136,1.099-0.382,1.221   c-0.407,0.205-1.325-0.248-1.816-0.619c-0.15-0.114-0.354-0.133-0.524-0.049C5.107,19.137,5,19.311,5,19.5v3   c0,0.136,0.055,0.265,0.152,0.359C5.2,22.905,6.348,24,8,24c1.67,0,4-1.712,4-4.5v-2.369c3.605,0.772,6.807,0.244,9.068-1.516   C22.959,14.144,24,11.972,24,9.5C24,4.262,18.617,0,12,0z"/>
</g>
<g>
</g>
<g>
</g>
<g>
</g>
<g>
</g>
<g>
</g>
<g>
</g>
<g>
</g>
<g>
</g>
<g>
</g>
<g>
</g>
<g>
</g>
<g>
</g>
<g>
</g>
<g>
</g>
<g>
</g>

	<metadata>
		<rdf:RDF xmlns:rdf="http://www.w3.org/1999/02/22-rdf-syntax-ns#" xmlns:rdfs="http://www.w3.org/2000/01/rdf-schema#" xmlns:dc="http://purl.org/dc/elements/1.1/">
			<rdf:Description about="https://iconscout.com/legal#licenses" dc:title="social; media; social media; logo; path" dc:description="social; media; social media; logo; path" dc:publisher="Iconscout" dc:date="2017-03-22" dc:format="image/svg+xml" dc:language="en">
				<dc:creator>
					<rdf:Bag>
						<rdf:li>Alpár - Etele Méder</rdf:li>
					</rdf:Bag>
				</dc:creator>
			</rdf:Description>
		</rdf:RDF>
    </metadata></svg>
