<?xml version="1.0" encoding="UTF-8"?>
<svg xmlns="http://www.w3.org/2000/svg" xmlns:xlink="http://www.w3.org/1999/xlink" version="1.1" id="Layer_1" x="0px" y="0px" viewBox="0 0 24 24" style="enable-background:new 0 0 24 24;" xml:space="preserve">
<g>
	<path style="fill:#303C42;" d="M12,0C5.383,0,0,5.383,0,12s5.383,12,12,12s12-5.383,12-12S18.617,0,12,0z"/>
	<path style="fill:#29B6F6;" d="M12,23C5.935,23,1,18.065,1,12S5.935,1,12,1s11,4.935,11,11S18.065,23,12,23z"/>
	<path style="opacity:0.2;fill:#FFFFFF;" d="M1.5,12.5c0-6.065,4.935-11,11-11c2.906,0,5.544,1.141,7.513,2.987   C18.004,2.347,15.16,1,12,1C5.935,1,1,5.935,1,12c0,3.16,1.347,6.004,3.487,8.013C2.641,18.044,1.5,15.406,1.5,12.5z"/>
	<path style="fill:#303C42;" d="M12,6c-2.757,0-5,2.243-5,5c0,2.604,3.643,8,5,8s5-5.396,5-8C17,8.243,14.757,6,12,6z"/>
	<path style="fill:#FFFFFF;" d="M12,17.987C11.183,17.608,8,13.248,8,11c0-2.206,1.794-4,4-4s4,1.794,4,4   C16,13.248,12.817,17.608,12,17.987z"/>
	<path style="fill:#303C42;" d="M12,8c-0.052,0-0.102,0.006-0.174,0.016c-0.172,0.011-0.327,0.109-0.409,0.261   c-0.083,0.152-0.08,0.336,0.005,0.486C11.476,8.855,11.5,8.931,11.5,9c0,0.275-0.225,0.5-0.5,0.5c-0.195,0-0.373-0.117-0.453-0.298   c-0.07-0.157-0.217-0.268-0.388-0.292c-0.17-0.024-0.342,0.041-0.452,0.174C9.244,9.636,9,10.299,9,11c0,1.654,1.346,3,3,3   s3-1.346,3-3S13.654,8,12,8z"/>
	<path style="fill:#D32F2F;" d="M12,13c-1.103,0-2-0.897-2-2c0-0.265,0.054-0.521,0.156-0.762C10.4,10.405,10.693,10.5,11,10.5   c0.806,0,1.466-0.639,1.499-1.438C13.361,9.285,14,10.069,14,11C14,12.103,13.103,13,12,13z"/>
	<linearGradient id="SVGID_1_" gradientUnits="userSpaceOnUse" x1="11.7695" y1="11.4803" x2="19.9123" y2="19.6232">
		<stop offset="0" style="stop-color:#000000;stop-opacity:0.1"/>
		<stop offset="1" style="stop-color:#000000;stop-opacity:0"/>
	</linearGradient>
	<path style="fill:url(#SVGID_1_);" d="M15.655,7.595l-0.005,0.011C16.48,8.499,17,9.687,17,11c0,2.604-3.643,8-5,8   c-0.367,0-0.902-0.402-1.486-1.029l-0.008,0.016l4.567,4.567c3.747-1.093,6.665-4.129,7.599-7.941L15.655,7.595z"/>
	<linearGradient id="SVGID_2_" gradientUnits="userSpaceOnUse" x1="1.1248" y1="6.9288" x2="22.8752" y2="17.0712">
		<stop offset="0" style="stop-color:#FFFFFF;stop-opacity:0.2"/>
		<stop offset="1" style="stop-color:#FFFFFF;stop-opacity:0"/>
	</linearGradient>
	<path style="fill:url(#SVGID_2_);" d="M12,0C5.383,0,0,5.383,0,12s5.383,12,12,12s12-5.383,12-12S18.617,0,12,0z"/>
</g>
<g>
</g>
<g>
</g>
<g>
</g>
<g>
</g>
<g>
</g>
<g>
</g>
<g>
</g>
<g>
</g>
<g>
</g>
<g>
</g>
<g>
</g>
<g>
</g>
<g>
</g>
<g>
</g>
<g>
</g>

	<metadata>
		<rdf:RDF xmlns:rdf="http://www.w3.org/1999/02/22-rdf-syntax-ns#" xmlns:rdfs="http://www.w3.org/2000/01/rdf-schema#" xmlns:dc="http://purl.org/dc/elements/1.1/">
			<rdf:Description about="https://iconscout.com/legal#licenses" dc:title="social; media; social media; logo; periscope" dc:description="social; media; social media; logo; periscope" dc:publisher="Iconscout" dc:date="2017-03-22" dc:format="image/svg+xml" dc:language="en">
				<dc:creator>
					<rdf:Bag>
						<rdf:li>Alpár - Etele Méder</rdf:li>
					</rdf:Bag>
				</dc:creator>
			</rdf:Description>
		</rdf:RDF>
    </metadata></svg>
