<?xml version="1.0" encoding="UTF-8"?>
<svg xmlns="http://www.w3.org/2000/svg" xmlns:xlink="http://www.w3.org/1999/xlink" version="1.1" id="Layer_1" x="0px" y="0px" viewBox="0 0 24 24" style="enable-background:new 0 0 24 24;" xml:space="preserve">
<g>
	<path style="fill:#303C42;" d="M12.527,0C4.757,0,2,4.581,2,8.504c0,2.994,2.347,5.723,3.605,6.347   c0.132,0.065,0.287,0.069,0.421,0.011c0.135-0.059,0.237-0.174,0.279-0.315l0.828-2.746c0.053-0.173,0.007-0.361-0.117-0.491   C6.738,11.02,6,10.249,6,8.993c0-3.439,2.408-5.492,6.442-5.492C15.559,3.502,18,5.694,18,8.493c0,2.576-2.071,5.513-3.889,5.513   c-2.114,0-2.139-1.919-2.141-1.992c1.188-1.127,1.585-3.509,1.585-4.047c0.001-0.317,0.003-0.905-0.475-1.359   c-0.424-0.402-1.143-0.606-2.137-0.606c-2.478,0-3.139,1.887-3.139,3.001c0,0.841,0.507,1.962,0.529,1.992L5.874,21.162   c-0.027,0.146-0.24,1.459,0.739,2.655C6.712,23.937,6.854,24,7,24c0.096,0,0.192-0.027,0.277-0.084   c0.474-0.316,1.326-0.964,1.71-1.755c0.445-0.92,1.708-4.188,2.421-6.054l0.09-0.093c0.012,0.01,1.236,0.994,3.141,0.994   c5.434,0,7.361-4.581,7.361-8.504C22,5.345,20.005,0,12.527,0z"/>
	<path style="fill:#E53935;" d="M14.639,16.007c-1.501,0-2.505-0.766-2.513-0.772c-0.25-0.2-0.607-0.271-0.902-0.198   c-0.323,0.079-0.588,0.305-0.708,0.603l-0.041,0.108c-1.204,3.15-2.074,5.328-2.388,5.975c-0.158,0.326-0.505,0.709-0.963,1.068   c-0.395-0.73-0.274-1.408-0.271-1.422l2.456-10.146c0.048-0.21,0.024-0.434-0.064-0.627c-0.144-0.314-0.438-1.115-0.438-1.593   c0-0.334,0.104-2.001,2.139-2.001c0.992,0,1.344,0.232,1.448,0.332c0.152,0.145,0.164,0.361,0.163,0.631   c0,0.359-0.347,2.444-1.273,3.323c-0.196,0.187-0.31,0.448-0.31,0.716c0,1.207,0.836,3.001,3.139,3.001   c2.587,0,4.889-3.642,4.889-6.514c0-3.36-2.881-5.992-6.558-5.992C7.852,2.501,5,4.989,5,8.993c0,1.389,0.684,2.328,1.094,2.793   l-0.551,1.827C4.451,12.717,3,10.599,3,8.504C3,7.251,3.459,1,12.527,1C19.216,1,21,5.717,21,8.504   C21,9.757,20.693,16.007,14.639,16.007z"/>
	<linearGradient id="SVGID_1_" gradientUnits="userSpaceOnUse" x1="1.5771" y1="7.5693" x2="19.6652" y2="16.004">
		<stop offset="0" style="stop-color:#FFFFFF;stop-opacity:0.2"/>
		<stop offset="1" style="stop-color:#FFFFFF;stop-opacity:0"/>
	</linearGradient>
	<path style="fill:url(#SVGID_1_);" d="M12.527,0C4.757,0,2,4.581,2,8.504c0,2.994,2.347,5.723,3.605,6.347   c0.132,0.065,0.287,0.069,0.421,0.011c0.135-0.059,0.237-0.174,0.279-0.315l0.828-2.746c0.053-0.173,0.007-0.361-0.117-0.491   C6.738,11.02,6,10.249,6,8.993c0-3.439,2.408-5.492,6.442-5.492C15.559,3.502,18,5.694,18,8.493c0,2.576-2.071,5.513-3.889,5.513   c-2.114,0-2.139-1.919-2.141-1.992c1.188-1.127,1.585-3.509,1.585-4.047c0.001-0.317,0.003-0.905-0.475-1.359   c-0.424-0.402-1.143-0.606-2.137-0.606c-2.478,0-3.139,1.887-3.139,3.001c0,0.841,0.507,1.962,0.529,1.992L5.874,21.162   c-0.027,0.146-0.24,1.459,0.739,2.655C6.712,23.937,6.854,24,7,24c0.096,0,0.192-0.027,0.277-0.084   c0.474-0.316,1.326-0.964,1.71-1.755c0.445-0.92,1.708-4.188,2.421-6.054l0.09-0.093c0.012,0.01,1.236,0.994,3.141,0.994   c5.434,0,7.361-4.581,7.361-8.504C22,5.345,20.005,0,12.527,0z"/>
</g>
<g>
</g>
<g>
</g>
<g>
</g>
<g>
</g>
<g>
</g>
<g>
</g>
<g>
</g>
<g>
</g>
<g>
</g>
<g>
</g>
<g>
</g>
<g>
</g>
<g>
</g>
<g>
</g>
<g>
</g>

	<metadata>
		<rdf:RDF xmlns:rdf="http://www.w3.org/1999/02/22-rdf-syntax-ns#" xmlns:rdfs="http://www.w3.org/2000/01/rdf-schema#" xmlns:dc="http://purl.org/dc/elements/1.1/">
			<rdf:Description about="https://iconscout.com/legal#licenses" dc:title="social; media; social media; logo; pinterest" dc:description="social; media; social media; logo; pinterest" dc:publisher="Iconscout" dc:date="2017-03-22" dc:format="image/svg+xml" dc:language="en">
				<dc:creator>
					<rdf:Bag>
						<rdf:li>Alpár - Etele Méder</rdf:li>
					</rdf:Bag>
				</dc:creator>
			</rdf:Description>
		</rdf:RDF>
    </metadata></svg>
