<?xml version="1.0" encoding="UTF-8"?>
<svg xmlns="http://www.w3.org/2000/svg" xmlns:xlink="http://www.w3.org/1999/xlink" version="1.1" id="Layer_1" x="0px" y="0px" viewBox="0 0 24 24" style="enable-background:new 0 0 24 24;" xml:space="preserve">
<g>
	<path style="fill:#303C42;" d="M22.5,0h-21C1.224,0,1,0.224,1,0.5v23C1,23.776,1.224,24,1.5,24h6C7.776,24,8,23.776,8,23.5V18h14.5   c0.276,0,0.5-0.224,0.5-0.5v-17C23,0.224,22.776,0,22.5,0z M16,11H8V7h8V11z"/>
	<path style="fill:#E04119;" d="M2,1v22h5v-5.5C7,17.224,7.224,17,7.5,17H22V1H2z M16,11H8V7h8V11z"/>
	<path style="opacity:0.1;" d="M21.5,1v15.5H7c-0.276,0-0.5,0.224-0.5,0.5v5.5h-4V23H7v-5.5C7,17.224,7.224,17,7.5,17H22V1H21.5z"/>
	<polygon style="opacity:0.2;fill:#FFFFFF;" points="2.5,1.5 22,1.5 22,1 2,1 2,23 2.5,23  "/>
	<path style="fill:#303C42;" d="M16.5,6h-9C7.224,6,7,6.224,7,6.5v5C7,11.776,7.224,12,7.5,12h9c0.276,0,0.5-0.224,0.5-0.5v-5   C17,6.224,16.776,6,16.5,6z M16,11H8V7h8V11z"/>
	<linearGradient id="SVGID_1_" gradientUnits="userSpaceOnUse" x1="-1.4827" y1="5.7129" x2="23.1846" y2="17.2155">
		<stop offset="0" style="stop-color:#FFFFFF;stop-opacity:0.2"/>
		<stop offset="1" style="stop-color:#FFFFFF;stop-opacity:0"/>
	</linearGradient>
	<path style="fill:url(#SVGID_1_);" d="M22.5,0h-21C1.224,0,1,0.224,1,0.5v23C1,23.776,1.224,24,1.5,24h6C7.776,24,8,23.776,8,23.5   V18h14.5c0.276,0,0.5-0.224,0.5-0.5v-17C23,0.224,22.776,0,22.5,0z M16,11H8V7h8V11z"/>
</g>
<g>
</g>
<g>
</g>
<g>
</g>
<g>
</g>
<g>
</g>
<g>
</g>
<g>
</g>
<g>
</g>
<g>
</g>
<g>
</g>
<g>
</g>
<g>
</g>
<g>
</g>
<g>
</g>
<g>
</g>

	<metadata>
		<rdf:RDF xmlns:rdf="http://www.w3.org/1999/02/22-rdf-syntax-ns#" xmlns:rdfs="http://www.w3.org/2000/01/rdf-schema#" xmlns:dc="http://purl.org/dc/elements/1.1/">
			<rdf:Description about="https://iconscout.com/legal#licenses" dc:title="social; media; social media; logo; plurk" dc:description="social; media; social media; logo; plurk" dc:publisher="Iconscout" dc:date="2017-03-22" dc:format="image/svg+xml" dc:language="en">
				<dc:creator>
					<rdf:Bag>
						<rdf:li>Alpár - Etele Méder</rdf:li>
					</rdf:Bag>
				</dc:creator>
			</rdf:Description>
		</rdf:RDF>
    </metadata></svg>
