<?xml version="1.0" encoding="UTF-8"?>
<svg xmlns="http://www.w3.org/2000/svg" xmlns:xlink="http://www.w3.org/1999/xlink" version="1.1" id="Layer_1" x="0px" y="0px" viewBox="0 0 24 24" style="enable-background:new 0 0 24 24;" xml:space="preserve">
<g>
	<path style="fill:#303C42;" d="M6.366,10.482c0.217,0.058,0.446-0.032,0.562-0.224C8.065,8.37,10.618,7,13,7   c3.584,0,6.5,2.916,6.5,6.5S16.584,20,13,20c-1.301,0-2.497-0.405-3.5-1.103V13.5c0-1.93,1.57-3.5,3.5-3.5s3.5,1.57,3.5,3.5   S14.93,17,13,17c-0.454,0-0.896-0.085-1.313-0.254c-0.255-0.104-0.547,0.02-0.651,0.276s0.02,0.547,0.276,0.651   C11.849,17.89,12.417,18,13,18c2.481,0,4.5-2.019,4.5-4.5S15.481,9,13,9s-4.5,2.019-4.5,4.5v4.547   c-0.68-0.731-1.206-1.641-1.521-2.69C6.9,15.092,6.621,14.94,6.356,15.021c-0.265,0.08-0.415,0.358-0.335,0.623   C6.998,18.897,9.737,21,13,21c4.136,0,7.5-3.364,7.5-7.5S17.136,6,13,6c-2.184,0-4.5,1.022-6,2.554V1h11c0.276,0,0.5-0.224,0.5-0.5   S18.276,0,18,0H6.5C6.224,0,6,0.224,6,0.5V10C6,10.225,6.15,10.422,6.366,10.482z"/>
	<path style="fill:#303C42;" d="M20.121,19.674C18.28,21.819,15.751,23,13,23c-4.775,0-8.31-2.973-9.006-7.575   c-0.041-0.273-0.297-0.464-0.569-0.419c-0.273,0.041-0.461,0.296-0.419,0.569C3.768,20.614,7.784,24,13,24   c3.047,0,5.846-1.305,7.879-3.674c0.18-0.209,0.156-0.525-0.054-0.705C20.618,19.442,20.3,19.464,20.121,19.674z"/>
	<path style="fill:#303C42;" d="M9.341,3.655C9.082,3.751,8.95,4.04,9.046,4.298C9.144,4.557,9.433,4.69,9.689,4.593   C10.747,4.199,11.861,4,13,4c2.75,0,5.279,1.181,7.121,3.326C20.22,7.441,20.359,7.5,20.5,7.5c0.116,0,0.231-0.04,0.326-0.121   c0.209-0.18,0.233-0.496,0.054-0.705C18.845,4.305,16.047,3,13,3C11.742,3,10.511,3.221,9.341,3.655z"/>
	<path style="fill:#303C42;" d="M11.146,15.354c0.098,0.098,0.226,0.146,0.354,0.146s0.256-0.049,0.354-0.146L13,14.207l1.146,1.146   c0.098,0.098,0.226,0.146,0.354,0.146s0.256-0.049,0.354-0.146c0.195-0.195,0.195-0.512,0-0.707L13.707,13.5l1.146-1.146   c0.195-0.195,0.195-0.512,0-0.707s-0.512-0.195-0.707,0L13,12.793l-1.146-1.146c-0.195-0.195-0.512-0.195-0.707,0   s-0.195,0.512,0,0.707l1.146,1.146l-1.146,1.146C10.951,14.842,10.951,15.158,11.146,15.354z"/>
	<linearGradient id="SVGID_1_" gradientUnits="userSpaceOnUse" x1="3.0394" y1="6.7378" x2="22.9144" y2="16.0056">
		<stop offset="0" style="stop-color:#FFFFFF;stop-opacity:0.2"/>
		<stop offset="1" style="stop-color:#FFFFFF;stop-opacity:0"/>
	</linearGradient>
	<path style="fill:url(#SVGID_1_);" d="M6.366,10.482c0.217,0.058,0.446-0.032,0.562-0.224C8.065,8.37,10.618,7,13,7   c3.584,0,6.5,2.916,6.5,6.5S16.584,20,13,20c-1.301,0-2.497-0.405-3.5-1.103V13.5c0-1.93,1.57-3.5,3.5-3.5s3.5,1.57,3.5,3.5   S14.93,17,13,17c-0.454,0-0.896-0.085-1.313-0.254c-0.255-0.104-0.547,0.02-0.651,0.276s0.02,0.547,0.276,0.651   C11.849,17.89,12.417,18,13,18c2.481,0,4.5-2.019,4.5-4.5S15.481,9,13,9s-4.5,2.019-4.5,4.5v4.547   c-0.68-0.731-1.206-1.641-1.521-2.69C6.9,15.092,6.621,14.94,6.356,15.021c-0.265,0.08-0.415,0.358-0.335,0.623   C6.998,18.897,9.737,21,13,21c4.136,0,7.5-3.364,7.5-7.5S17.136,6,13,6c-2.184,0-4.5,1.022-6,2.554V1h11c0.276,0,0.5-0.224,0.5-0.5   S18.276,0,18,0H6.5C6.224,0,6,0.224,6,0.5V10C6,10.225,6.15,10.422,6.366,10.482z M20.121,19.674C18.28,21.819,15.751,23,13,23   c-4.775,0-8.31-2.973-9.006-7.575c-0.041-0.273-0.297-0.464-0.569-0.419c-0.273,0.041-0.461,0.296-0.419,0.569   C3.768,20.614,7.784,24,13,24c3.047,0,5.846-1.305,7.879-3.674c0.18-0.209,0.156-0.525-0.054-0.705   C20.618,19.442,20.3,19.464,20.121,19.674z M9.341,3.655C9.082,3.751,8.95,4.04,9.046,4.298C9.144,4.557,9.433,4.69,9.689,4.593   C10.747,4.199,11.861,4,13,4c2.75,0,5.279,1.181,7.121,3.326C20.22,7.441,20.359,7.5,20.5,7.5c0.116,0,0.231-0.04,0.326-0.121   c0.209-0.18,0.233-0.496,0.054-0.705C18.845,4.305,16.047,3,13,3C11.742,3,10.511,3.221,9.341,3.655z M11.146,15.354   c0.098,0.098,0.226,0.146,0.354,0.146s0.256-0.049,0.354-0.146L13,14.207l1.146,1.146c0.098,0.098,0.226,0.146,0.354,0.146   s0.256-0.049,0.354-0.146c0.195-0.195,0.195-0.512,0-0.707L13.707,13.5l1.146-1.146c0.195-0.195,0.195-0.512,0-0.707   s-0.512-0.195-0.707,0L13,12.793l-1.146-1.146c-0.195-0.195-0.512-0.195-0.707,0s-0.195,0.512,0,0.707l1.146,1.146l-1.146,1.146   C10.951,14.842,10.951,15.158,11.146,15.354z"/>
</g>
<g>
</g>
<g>
</g>
<g>
</g>
<g>
</g>
<g>
</g>
<g>
</g>
<g>
</g>
<g>
</g>
<g>
</g>
<g>
</g>
<g>
</g>
<g>
</g>
<g>
</g>
<g>
</g>
<g>
</g>

	<metadata>
		<rdf:RDF xmlns:rdf="http://www.w3.org/1999/02/22-rdf-syntax-ns#" xmlns:rdfs="http://www.w3.org/2000/01/rdf-schema#" xmlns:dc="http://purl.org/dc/elements/1.1/">
			<rdf:Description about="https://iconscout.com/legal#licenses" dc:title="social; media; social media; logo; 500px" dc:description="social; media; social media; logo; 500px" dc:publisher="Iconscout" dc:date="2017-03-22" dc:format="image/svg+xml" dc:language="en">
				<dc:creator>
					<rdf:Bag>
						<rdf:li>Alpár - Etele Méder</rdf:li>
					</rdf:Bag>
				</dc:creator>
			</rdf:Description>
		</rdf:RDF>
    </metadata></svg>
