<?xml version="1.0" encoding="UTF-8"?>
<svg xmlns="http://www.w3.org/2000/svg" xmlns:xlink="http://www.w3.org/1999/xlink" version="1.1" id="Layer_1" x="0px" y="0px" viewBox="0 0 24 24" style="enable-background:new 0 0 24 24;" xml:space="preserve">
<g>
	<path style="fill:#303C42;" d="M24,11c0-1.654-1.346-3-3-3c-1.086,0-2.063,0.594-2.589,1.518c-1.617-0.881-3.668-1.429-5.911-1.501   V4.103l5.514,1.034C18.085,6.175,18.944,7,20,7c1.103,0,2-0.897,2-2s-0.897-2-2-2c-0.799,0-1.485,0.474-1.805,1.153l-6.103-1.144   c-0.144-0.027-0.296,0.012-0.411,0.106C11.566,3.21,11.5,3.351,11.5,3.5v4.516C9.258,8.089,7.207,8.637,5.589,9.518   C5.063,8.594,4.086,8,3,8c-1.654,0-3,1.346-3,3c0,1.297,0.852,2.433,2.052,2.835C2.018,14.054,2,14.276,2,14.5   C2,18.084,6.486,21,12,21s10-2.916,10-6.5c0-0.224-0.018-0.446-0.052-0.665C23.148,13.433,24,12.297,24,11z"/>
	<circle style="fill:#FFFFFF;" cx="20" cy="5" r="1"/>
	<path style="opacity:0.1;" d="M19.294,5.294c0-0.551,0.448-1,1-1c0.2,0,0.375,0.074,0.531,0.175C20.647,4.193,20.352,4,20,4   c-0.552,0-1,0.449-1,1c0,0.352,0.193,0.647,0.469,0.825C19.368,5.669,19.294,5.494,19.294,5.294z"/>
	<path style="fill:#FFFFFF;" d="M1,11c0-1.103,0.897-2,2-2c0.734,0,1.378,0.421,1.723,1.055c-1.132,0.782-1.965,1.745-2.393,2.815   C1.551,12.592,1,11.849,1,11z"/>
	<ellipse style="fill:#FFFFFF;" cx="12" cy="14.5" rx="9" ry="5.5"/>
	<path style="fill:#FFFFFF;" d="M21.669,12.871c-0.427-1.07-1.261-2.033-2.393-2.815C19.622,9.421,20.266,9,21,9   c1.103,0,2,0.897,2,2C23,11.849,22.449,12.592,21.669,12.871z"/>
	<path style="opacity:0.1;" d="M1.878,12.626c0.141,0.097,0.288,0.186,0.453,0.245c0.427-1.07,1.261-2.033,2.393-2.815   C4.637,9.897,4.532,9.752,4.412,9.624C3.22,10.449,2.342,11.474,1.878,12.626z"/>
	<path style="opacity:0.1;" d="M22.122,12.626c-0.464-1.152-1.342-2.177-2.534-3.002c-0.12,0.129-0.225,0.273-0.311,0.432   c1.132,0.782,1.965,1.745,2.393,2.815C21.834,12.812,21.981,12.722,22.122,12.626z"/>
	<path style="fill:#303C42;" d="M16.306,17.039c-3.07,1.293-5.541,1.293-8.611,0c-0.257-0.107-0.547,0.013-0.655,0.267   c-0.107,0.254,0.013,0.547,0.267,0.655C8.967,18.66,10.502,19,12,19s3.033-0.34,4.694-1.039c0.254-0.107,0.374-0.4,0.267-0.655   S16.562,16.933,16.306,17.039z"/>
	<circle style="fill:#E53935;" cx="8.5" cy="13.5" r="1.5"/>
	<circle style="fill:#E53935;" cx="15.5" cy="13.5" r="1.5"/>
	<linearGradient id="SVGID_1_" gradientUnits="userSpaceOnUse" x1="1.973" y1="6.1042" x2="22.1913" y2="15.5321">
		<stop offset="0" style="stop-color:#FFFFFF;stop-opacity:0.2"/>
		<stop offset="1" style="stop-color:#FFFFFF;stop-opacity:0"/>
	</linearGradient>
	<path style="fill:url(#SVGID_1_);" d="M24,11c0-1.654-1.346-3-3-3c-1.086,0-2.063,0.594-2.589,1.518   c-1.617-0.881-3.668-1.429-5.911-1.501V4.103l5.514,1.034C18.085,6.175,18.944,7,20,7c1.103,0,2-0.897,2-2s-0.897-2-2-2   c-0.799,0-1.485,0.474-1.805,1.153l-6.103-1.144c-0.144-0.027-0.296,0.012-0.411,0.106C11.566,3.21,11.5,3.351,11.5,3.5v4.516   C9.258,8.089,7.207,8.637,5.589,9.518C5.063,8.594,4.086,8,3,8c-1.654,0-3,1.346-3,3c0,1.297,0.852,2.433,2.052,2.835   C2.018,14.054,2,14.276,2,14.5C2,18.084,6.486,21,12,21s10-2.916,10-6.5c0-0.224-0.018-0.446-0.052-0.665   C23.148,13.433,24,12.297,24,11z"/>
</g>
<g>
</g>
<g>
</g>
<g>
</g>
<g>
</g>
<g>
</g>
<g>
</g>
<g>
</g>
<g>
</g>
<g>
</g>
<g>
</g>
<g>
</g>
<g>
</g>
<g>
</g>
<g>
</g>
<g>
</g>

	<metadata>
		<rdf:RDF xmlns:rdf="http://www.w3.org/1999/02/22-rdf-syntax-ns#" xmlns:rdfs="http://www.w3.org/2000/01/rdf-schema#" xmlns:dc="http://purl.org/dc/elements/1.1/">
			<rdf:Description about="https://iconscout.com/legal#licenses" dc:title="social; media; social media; logo; reddit" dc:description="social; media; social media; logo; reddit" dc:publisher="Iconscout" dc:date="2017-03-22" dc:format="image/svg+xml" dc:language="en">
				<dc:creator>
					<rdf:Bag>
						<rdf:li>Alpár - Etele Méder</rdf:li>
					</rdf:Bag>
				</dc:creator>
			</rdf:Description>
		</rdf:RDF>
    </metadata></svg>
