<?xml version="1.0" encoding="UTF-8"?>
<svg xmlns="http://www.w3.org/2000/svg" xmlns:xlink="http://www.w3.org/1999/xlink" version="1.1" id="Layer_1" x="0px" y="0px" viewBox="0 0 24 24" style="enable-background:new 0 0 24 24;" xml:space="preserve">
<g>
	<path style="fill:#303C42;" d="M22.918,13.262C22.974,12.799,23,12.395,23,12c0-6.065-4.935-11-11-11   c-0.39,0-0.794,0.026-1.262,0.082C9.62,0.374,8.331,0,7,0C3.141,0,0,3.14,0,7c0,1.332,0.374,2.62,1.082,3.738   C1.026,11.201,1,11.605,1,12c0,6.065,4.935,11,11,11c0.39,0,0.794-0.026,1.262-0.082C14.38,23.626,15.669,24,17,24   c3.859,0,7-3.14,7-7C24,15.668,23.626,14.38,22.918,13.262z"/>
	<path style="fill:#4FC3F7;" d="M17,23c-1.196,0-2.351-0.352-3.34-1.016c-0.083-0.056-0.181-0.085-0.279-0.085   c-0.021,0-0.043,0.001-0.065,0.004C12.813,21.969,12.396,22,12,22C6.486,22,2,17.514,2,12c0-0.401,0.031-0.818,0.097-1.314   c0.017-0.121-0.012-0.244-0.08-0.345C1.352,9.351,1,8.196,1,7c0-3.309,2.691-6,6-6c1.196,0,2.351,0.352,3.34,1.016   c0.102,0.068,0.221,0.097,0.345,0.081C11.187,2.031,11.604,2,12,2c5.514,0,10,4.486,10,10c0,0.401-0.031,0.818-0.097,1.314   c-0.017,0.121,0.012,0.244,0.08,0.345C22.648,14.649,23,15.804,23,17C23,20.309,20.309,23,17,23z"/>
	<path style="opacity:0.1;" d="M21.983,13.66c-0.068-0.101-0.097-0.224-0.08-0.345C21.969,12.818,22,12.401,22,12   c0-2.911-1.258-5.526-3.249-7.356c1.636,1.781,2.645,4.148,2.645,6.751c0,0.401-0.031,0.818-0.097,1.314   c-0.017,0.121,0.012,0.244,0.08,0.345c0.665,0.989,1.017,2.144,1.017,3.34c0,3.309-2.691,6-6,6c-1.196,0-2.351-0.352-3.34-1.016   c-0.083-0.056-0.181-0.085-0.279-0.085c-0.021,0-0.043,0.001-0.065,0.004c-0.502,0.066-0.92,0.097-1.315,0.097   c-2.603,0-4.97-1.008-6.751-2.644C6.474,20.742,9.09,22,12,22c0.396,0,0.813-0.031,1.315-0.097   c0.022-0.003,0.044-0.004,0.065-0.004c0.099,0,0.196,0.029,0.279,0.085C14.649,22.648,15.804,23,17,23c3.309,0,6-2.691,6-6   C23,15.804,22.648,14.649,21.983,13.66z"/>
	<linearGradient id="SVGID_1_" gradientUnits="userSpaceOnUse" x1="0.6369" y1="6.4492" x2="15.6016" y2="13.4274">
		<stop offset="0" style="stop-color:#FFFFFF;stop-opacity:0.2"/>
		<stop offset="1" style="stop-color:#FFFFFF;stop-opacity:0"/>
	</linearGradient>
	<path style="fill:url(#SVGID_1_);" d="M2.687,12.688c0-0.401,0.031-0.818,0.097-1.314c0.017-0.121-0.012-0.244-0.08-0.345   c-0.665-0.989-1.017-2.144-1.017-3.34c0-3.309,2.691-6,6-6c1.196,0,2.351,0.352,3.34,1.016c0.102,0.068,0.221,0.097,0.345,0.081   c0.502-0.066,0.92-0.097,1.315-0.097c2.582,0,4.931,0.992,6.708,2.605C17.564,3.276,14.932,2,12,2   c-0.396,0-0.813,0.031-1.315,0.097c-0.124,0.016-0.243-0.013-0.345-0.081C9.351,1.352,8.196,1,7,1C3.691,1,1,3.691,1,7   c0,1.196,0.352,2.351,1.017,3.34c0.068,0.101,0.097,0.224,0.08,0.345C2.031,11.182,2,11.599,2,12c0,2.932,1.276,5.564,3.292,7.395   C3.68,17.619,2.687,15.27,2.687,12.688z"/>
	<path style="fill:#303C42;" d="M12.254,10.113C9.578,9.394,9,9.019,9,8c0-0.306,0.944-1,2.5-1c1.411,0,2.278,0.436,2.507,0.639   C14.077,8.401,14.72,9,15.5,9C16.327,9,17,8.327,17,7.5C17,5.505,14.636,4,11.5,4C8.416,4,6,5.757,6,8   c0,3.539,3.164,4.389,5.476,5.01C14.374,13.789,15,14.23,15,15.5c0,0.612-1.169,1.5-3,1.5c-2.021,0-2.957-0.695-3.007-0.985   C8.847,15.169,8.247,14.6,7.5,14.6c-0.827,0-1.5,0.673-1.5,1.5c0,2.223,2.579,3.9,6,3.9c3.364,0,6-1.977,6-4.5   C18,11.656,14.542,10.728,12.254,10.113z"/>
	<path style="fill:#FFFFFF;" d="M12,19c-2.804,0-5-1.274-5-2.9c0-0.276,0.225-0.5,0.5-0.5c0.387,0,0.49,0.487,0.507,0.584   C8.162,17.087,9.583,18,12,18c2.393,0,4-1.292,4-2.5c0-2.155-1.611-2.743-4.267-3.456C9.515,11.448,7,10.771,7,8   c0-1.682,1.977-3,4.5-3S16,6.098,16,7.5C16,7.776,15.775,8,15.5,8S15,7.776,15,7.5C15,6.792,13.503,6,11.5,6C9.603,6,8,6.916,8,8   c0,1.87,1.509,2.411,3.995,3.079C14.225,11.678,17,12.423,17,15.5C17,17.462,14.804,19,12,19z"/>
	<linearGradient id="SVGID_2_" gradientUnits="userSpaceOnUse" x1="15.9523" y1="5.4049" x2="16.0098" y2="5.4625">
		<stop offset="0" style="stop-color:#000000;stop-opacity:0.1"/>
		<stop offset="1" style="stop-color:#000000;stop-opacity:0"/>
	</linearGradient>
	<path style="fill:url(#SVGID_2_);" d="M16.013,5.459L15.964,5.41l-0.016-0.001C15.969,5.426,15.994,5.441,16.013,5.459z"/>
	<linearGradient id="SVGID_3_" gradientUnits="userSpaceOnUse" x1="8.2532" y1="8.6331" x2="21.0508" y2="21.4307">
		<stop offset="0" style="stop-color:#000000;stop-opacity:0.1"/>
		<stop offset="1" style="stop-color:#000000;stop-opacity:0"/>
	</linearGradient>
	<path style="fill:url(#SVGID_3_);" d="M21.983,13.66c-0.068-0.101-0.097-0.224-0.08-0.345C21.969,12.818,22,12.401,22,12   c0-0.197-0.018-0.39-0.03-0.584l-5.804-5.804C16.691,6.151,17,6.792,17,7.5C17,8.327,16.327,9,15.5,9   c-0.78,0-1.423-0.599-1.493-1.361C13.778,7.436,12.911,7,11.5,7C9.944,7,9,7.694,9,8c0,1.019,0.578,1.394,3.254,2.113   C14.542,10.728,18,11.656,18,15.5c0,2.523-2.636,4.5-6,4.5c-2.136,0-3.943-0.654-5-1.686h0l3.572,3.572   C11.039,21.953,11.514,22,12,22c0.396,0,0.813-0.031,1.315-0.097c0.022-0.003,0.044-0.004,0.065-0.004   c0.099,0,0.196,0.029,0.279,0.085C14.649,22.648,15.804,23,17,23c3.309,0,6-2.691,6-6C23,15.804,22.648,14.649,21.983,13.66z"/>
	<linearGradient id="SVGID_4_" gradientUnits="userSpaceOnUse" x1="-0.3658" y1="6.2337" x2="24.3658" y2="17.7663">
		<stop offset="0" style="stop-color:#FFFFFF;stop-opacity:0.2"/>
		<stop offset="1" style="stop-color:#FFFFFF;stop-opacity:0"/>
	</linearGradient>
	<path style="fill:url(#SVGID_4_);" d="M22.918,13.262C22.974,12.799,23,12.395,23,12c0-6.065-4.935-11-11-11   c-0.39,0-0.794,0.026-1.262,0.082C9.62,0.374,8.331,0,7,0C3.141,0,0,3.14,0,7c0,1.332,0.374,2.62,1.082,3.738   C1.026,11.201,1,11.605,1,12c0,6.065,4.935,11,11,11c0.39,0,0.794-0.026,1.262-0.082C14.38,23.626,15.669,24,17,24   c3.859,0,7-3.14,7-7C24,15.668,23.626,14.38,22.918,13.262z"/>
</g>
<g>
</g>
<g>
</g>
<g>
</g>
<g>
</g>
<g>
</g>
<g>
</g>
<g>
</g>
<g>
</g>
<g>
</g>
<g>
</g>
<g>
</g>
<g>
</g>
<g>
</g>
<g>
</g>
<g>
</g>

	<metadata>
		<rdf:RDF xmlns:rdf="http://www.w3.org/1999/02/22-rdf-syntax-ns#" xmlns:rdfs="http://www.w3.org/2000/01/rdf-schema#" xmlns:dc="http://purl.org/dc/elements/1.1/">
			<rdf:Description about="https://iconscout.com/legal#licenses" dc:title="social; media; social media; logo; skype" dc:description="social; media; social media; logo; skype" dc:publisher="Iconscout" dc:date="2017-03-22" dc:format="image/svg+xml" dc:language="en">
				<dc:creator>
					<rdf:Bag>
						<rdf:li>Alpár - Etele Méder</rdf:li>
					</rdf:Bag>
				</dc:creator>
			</rdf:Description>
		</rdf:RDF>
    </metadata></svg>
