<?xml version="1.0" encoding="UTF-8"?>
<svg xmlns="http://www.w3.org/2000/svg" xmlns:xlink="http://www.w3.org/1999/xlink" version="1.1" id="Layer_1" x="0px" y="0px" viewBox="0 0 24 24" style="enable-background:new 0 0 24 24;" xml:space="preserve">
<g>
	<path style="fill:#303C42;" d="M20.566,12h-0.363c-0.169,0-0.339,0.018-0.505,0.053l-0.908,0.193l-0.684-3.226l0.965-0.205   C20.188,8.578,21,7.576,21,6.434C21,5.092,19.908,4,18.566,4h-0.363c-0.169,0-0.339,0.018-0.505,0.053l-0.618,0.131l-0.266-1.255   C16.577,1.811,15.576,1,14.434,1C13.092,1,12,2.092,12,3.434v0.364c0,0.171,0.018,0.342,0.053,0.504l0.193,0.908L9.019,5.894   L8.814,4.929C8.577,3.811,7.576,3,6.434,3C5.092,3,4,4.092,4,5.434v0.364c0,0.171,0.018,0.342,0.053,0.504l0.131,0.618L2.929,7.186   C1.812,7.422,1,8.424,1,9.566C1,10.908,2.092,12,3.434,12h0.363c0.169,0,0.339-0.018,0.505-0.053l0.908-0.193l0.684,3.226   l-0.965,0.205C3.812,15.422,3,16.424,3,17.566C3,18.908,4.092,20,5.434,20h0.363c0.169,0,0.339-0.018,0.505-0.053l0.618-0.131   l0.266,1.255C7.423,22.189,8.424,23,9.566,23C10.908,23,12,21.908,12,20.566v-0.364c0-0.171-0.018-0.342-0.053-0.504l-0.193-0.908   l3.226-0.684l0.205,0.965C15.423,20.189,16.424,21,17.566,21C18.908,21,20,19.908,20,18.566v-0.364   c0-0.171-0.018-0.342-0.053-0.504l-0.131-0.618l1.255-0.266C22.188,16.578,23,15.576,23,14.434C23,13.092,21.908,12,20.566,12z    M10.729,13.955l-0.684-3.226l3.226-0.684l0.684,3.226L10.729,13.955z"/>
	
		<rect x="14.56" y="9.496" transform="matrix(0.9782 -0.2075 0.2075 0.9782 -1.9637 3.569)" style="fill:#FFB300;" width="2.942" height="3.298"/>
	
		<rect x="15.414" y="13.704" transform="matrix(0.9782 -0.2075 0.2075 0.9782 -2.7812 3.8336)" style="fill:#FFB300;" width="2.942" height="2.943"/>
	
		<rect x="15.414" y="13.704" transform="matrix(0.9782 -0.2075 0.2075 0.9782 -2.7812 3.8336)" style="opacity:0.75;fill:#D81B60;" width="2.942" height="2.943"/>
	<path style="fill:#26C6DA;" d="M17.905,5.031C18.003,5.011,18.104,5,18.203,5h0.363C19.356,5,20,5.643,20,6.434   c0,0.673-0.478,1.263-1.136,1.402l-0.965,0.205l-0.611-2.879L17.905,5.031z"/>
	<path style="fill:#FFB300;" d="M13.031,4.093C13.011,3.998,13,3.898,13,3.797V3.434C13,2.643,13.644,2,14.434,2   c0.673,0,1.263,0.478,1.402,1.136l0.266,1.256l-2.878,0.61L13.031,4.093z"/>
	
		<rect x="9.496" y="6.498" transform="matrix(0.9782 -0.2075 0.2075 0.9782 -1.411 2.486)" style="fill:#26C6DA;" width="3.298" height="2.943"/>
	
		<rect x="5.643" y="7.353" transform="matrix(0.9782 -0.2075 0.2075 0.9782 -1.6762 1.6683)" style="fill:#66BB6A;" width="2.942" height="2.943"/>
	
		<rect x="5.643" y="7.353" transform="matrix(0.9782 -0.2075 0.2075 0.9782 -1.6762 1.6683)" style="opacity:0.6;fill:#448AFF;" width="2.942" height="2.943"/>
	<path style="fill:#66BB6A;" d="M5.031,6.093C5.011,5.998,5,5.898,5,5.797V5.434C5,4.643,5.644,4,6.434,4   c0.673,0,1.263,0.478,1.402,1.136l0.205,0.965L5.162,6.712L5.031,6.093z"/>
	<path style="fill:#26C6DA;" d="M4.095,10.969C3.997,10.989,3.896,11,3.797,11H3.434C2.644,11,2,10.357,2,9.566   c0-0.673,0.478-1.263,1.136-1.402l1.255-0.266l0.611,2.879L4.095,10.969z"/>
	
		<rect x="6.498" y="11.206" transform="matrix(0.9782 -0.2075 0.2075 0.9782 -2.494 1.9334)" style="fill:#66BB6A;" width="2.942" height="3.298"/>
	
		<rect x="7.353" y="15.414" transform="matrix(0.9782 -0.2075 0.2075 0.9782 -3.3114 2.1983)" style="fill:#D81B60;" width="2.942" height="2.943"/>
	<path style="fill:#D81B60;" d="M6.095,18.969C5.997,18.989,5.896,19,5.797,19H5.434C4.644,19,4,18.357,4,17.566   c0-0.673,0.478-1.263,1.136-1.402l0.965-0.205l0.611,2.879L6.095,18.969z"/>
	<path style="fill:#66BB6A;" d="M10.969,19.907C10.989,20.002,11,20.102,11,20.203v0.364C11,21.357,10.356,22,9.566,22   c-0.673,0-1.263-0.478-1.402-1.136l-0.266-1.256l2.878-0.61L10.969,19.907z"/>
	
		<rect x="11.206" y="14.559" transform="matrix(0.9782 -0.2075 0.2075 0.9782 -3.0466 3.0163)" style="fill:#D81B60;" width="3.298" height="2.943"/>
	<path style="fill:#FFB300;" d="M18.969,17.907C18.989,18.002,19,18.102,19,18.203v0.364C19,19.357,18.356,20,17.566,20   c-0.673,0-1.263-0.478-1.402-1.136l-0.205-0.965l2.878-0.611L18.969,17.907z"/>
	<path style="fill:#D81B60;" d="M20.864,15.836l-1.255,0.266l-0.611-2.879l0.907-0.192C20.003,13.011,20.104,13,20.203,13h0.363   C21.356,13,22,13.643,22,14.434C22,15.107,21.522,15.696,20.864,15.836z"/>
	
		<rect x="13.705" y="5.643" transform="matrix(0.9782 -0.2075 0.2075 0.9782 -1.1458 3.3035)" style="fill:#FFB300;" width="2.942" height="2.943"/>
	
		<rect x="13.705" y="5.643" transform="matrix(0.9782 -0.2075 0.2075 0.9782 -1.1458 3.3035)" style="opacity:0.51;fill:#7CB342;" width="2.942" height="2.943"/>
	
		<rect x="7.353" y="15.414" transform="matrix(0.9782 -0.2075 0.2075 0.9782 -3.3114 2.1983)" style="opacity:0.57;fill:#66BB6A;" width="2.942" height="2.943"/>
	<linearGradient id="SVGID_1_" gradientUnits="userSpaceOnUse" x1="1.828" y1="7.2567" x2="22.172" y2="16.7433">
		<stop offset="0" style="stop-color:#FFFFFF;stop-opacity:0.2"/>
		<stop offset="1" style="stop-color:#FFFFFF;stop-opacity:0"/>
	</linearGradient>
	<path style="fill:url(#SVGID_1_);" d="M20.566,12h-0.363c-0.169,0-0.339,0.018-0.505,0.053l-0.908,0.193l-0.684-3.226l0.965-0.205   C20.188,8.578,21,7.576,21,6.434C21,5.092,19.908,4,18.566,4h-0.363c-0.169,0-0.339,0.018-0.505,0.053l-0.618,0.131l-0.266-1.255   C16.577,1.811,15.576,1,14.434,1C13.092,1,12,2.092,12,3.434v0.364c0,0.171,0.018,0.342,0.053,0.504l0.193,0.908L9.019,5.894   L8.814,4.929C8.577,3.811,7.576,3,6.434,3C5.092,3,4,4.092,4,5.434v0.364c0,0.171,0.018,0.342,0.053,0.504l0.131,0.618L2.929,7.186   C1.812,7.422,1,8.424,1,9.566C1,10.908,2.092,12,3.434,12h0.363c0.169,0,0.339-0.018,0.505-0.053l0.908-0.193l0.684,3.226   l-0.965,0.205C3.812,15.422,3,16.424,3,17.566C3,18.908,4.092,20,5.434,20h0.363c0.169,0,0.339-0.018,0.505-0.053l0.618-0.131   l0.266,1.255C7.423,22.189,8.424,23,9.566,23C10.908,23,12,21.908,12,20.566v-0.364c0-0.171-0.018-0.342-0.053-0.504l-0.193-0.908   l3.226-0.684l0.205,0.965C15.423,20.189,16.424,21,17.566,21C18.908,21,20,19.908,20,18.566v-0.364   c0-0.171-0.018-0.342-0.053-0.504l-0.131-0.618l1.255-0.266C22.188,16.578,23,15.576,23,14.434C23,13.092,21.908,12,20.566,12z    M10.729,13.955l-0.684-3.226l3.226-0.684l0.684,3.226L10.729,13.955z"/>
</g>
<g>
</g>
<g>
</g>
<g>
</g>
<g>
</g>
<g>
</g>
<g>
</g>
<g>
</g>
<g>
</g>
<g>
</g>
<g>
</g>
<g>
</g>
<g>
</g>
<g>
</g>
<g>
</g>
<g>
</g>

	<metadata>
		<rdf:RDF xmlns:rdf="http://www.w3.org/1999/02/22-rdf-syntax-ns#" xmlns:rdfs="http://www.w3.org/2000/01/rdf-schema#" xmlns:dc="http://purl.org/dc/elements/1.1/">
			<rdf:Description about="https://iconscout.com/legal#licenses" dc:title="social; media; social media; logo; slack" dc:description="social; media; social media; logo; slack" dc:publisher="Iconscout" dc:date="2017-03-22" dc:format="image/svg+xml" dc:language="en">
				<dc:creator>
					<rdf:Bag>
						<rdf:li>Alpár - Etele Méder</rdf:li>
					</rdf:Bag>
				</dc:creator>
			</rdf:Description>
		</rdf:RDF>
    </metadata></svg>
