<?xml version="1.0" encoding="UTF-8"?>
<svg xmlns="http://www.w3.org/2000/svg" xmlns:xlink="http://www.w3.org/1999/xlink" version="1.1" id="Layer_1" x="0px" y="0px" viewBox="0 0 24 24" style="enable-background:new 0 0 24 24;" xml:space="preserve">
<g>
	<path style="fill:#303C42;" d="M23.831,11.125c-0.197-0.175-0.497-0.166-0.685,0.021c-0.047,0.047-0.098,0.092-0.146,0.138V2.5   C23,1.121,21.879,0,20.5,0h-17C2.121,0,1,1.121,1,2.5v8.785c-0.049-0.046-0.099-0.091-0.146-0.138   c-0.188-0.187-0.487-0.196-0.685-0.021s-0.226,0.473-0.064,0.682c1.924,2.48,4.299,3.616,5.288,4.007C5.236,16.451,5,17.712,5,19.5   C5,22.397,7.365,24,9,24c1.038,0,2.5-0.62,2.5-2v-4.924l1,0.144V22c0,1.38,1.462,2,2.5,2c1.635,0,4-1.603,4-4.5   c0-1.788-0.236-3.049-0.393-3.687c0.989-0.391,3.364-1.526,5.288-4.007C24.057,11.598,24.028,11.3,23.831,11.125z"/>
	<path style="fill:#FB8C00;" d="M11.071,16.005c-0.146-0.018-0.289,0.023-0.398,0.117c-0.11,0.095-0.173,0.233-0.173,0.378V22   c0,0.707-0.977,1-1.5,1c-1.227,0-3-1.246-3-3.5c0-2.431,0.468-3.823,0.473-3.837c0.044-0.129,0.034-0.27-0.028-0.391   c-0.062-0.121-0.17-0.212-0.301-0.251c-0.018-0.006-1.05-0.324-2.354-1.175c1.646,0.445,3.753,0.645,6.531,0.653   c0.479,0.39,1.237,0.968,2.259,1.721L11.071,16.005z"/>
	<g>
		<path style="fill:#FFFFFF;" d="M20.5,1h-17C2.673,1,2,1.673,2,2.5l0.004,9.541C3.491,12.941,5.846,13.5,10.5,13.5    c0.117,0,0.23,0.041,0.32,0.116c0.358,0.298,0.933,0.743,1.714,1.326c0.063-0.787,0.269-1.442,0.966-1.442    c4.658,0,7.013-0.56,8.5-1.461V2.5C22,1.673,21.327,1,20.5,1z"/>
	</g>
	<path style="fill:#448AFF;" d="M17.855,15.021c-0.13,0.039-0.238,0.13-0.3,0.251c-0.063,0.121-0.072,0.263-0.028,0.391   C17.532,15.677,18,17.069,18,19.5c0,2.254-1.773,3.5-3,3.5c-0.523,0-1.5-0.293-1.5-1v-5.214c0-0.187-0.103-0.351-0.257-0.437   c0.157-0.087,0.257-0.253,0.259-0.434c0.008-0.747,0.044-1.223,0.109-1.416c2.809-0.005,4.933-0.204,6.592-0.651   C18.902,14.695,17.873,15.016,17.855,15.021z"/>
	<path style="opacity:0.1;" d="M12.152,15.904l-1.331-0.19c-0.146-0.018-0.289,0.023-0.398,0.117   c-0.11,0.095-0.173,0.233-0.173,0.378v5.5c0,0.707-0.977,1-1.5,1c-0.606,0-1.344-0.307-1.937-0.886C7.437,22.584,8.303,23,9,23   c0.523,0,1.5-0.293,1.5-1v-5.5c0-0.145,0.062-0.283,0.173-0.378c0.109-0.094,0.252-0.135,0.398-0.117l1.508,0.216   C12.427,16.108,12.292,16.008,12.152,15.904z"/>
	<path style="opacity:0.1;" d="M17.556,15.272c0.062-0.121,0.17-0.212,0.3-0.251c0.018-0.006,1.047-0.326,2.348-1.173   c-0.371,0.1-0.77,0.186-1.19,0.262c-0.824,0.436-1.394,0.615-1.407,0.619c-0.13,0.039-0.238,0.13-0.3,0.251   c-0.063,0.121-0.072,0.263-0.028,0.391c0.005,0.014,0.473,1.406,0.473,3.837c0,2.254-1.773,3.5-3,3.5   c-0.324,0-0.82-0.113-1.153-0.366C13.85,22.8,14.572,23,15,23c1.227,0,3-1.246,3-3.5c0-2.431-0.468-3.823-0.473-3.837   C17.483,15.535,17.493,15.394,17.556,15.272z"/>
	<circle style="fill:#303C42;" cx="8.5" cy="9.5" r="2.5"/>
	<circle style="fill:#FB8C00;" cx="8.5" cy="9.5" r="1.5"/>
	<circle style="fill:#303C42;" cx="15.5" cy="9.5" r="2.5"/>
	<circle style="fill:#448AFF;" cx="15.5" cy="9.5" r="1.5"/>
	<path style="opacity:0.2;fill:#FFFFFF;" d="M7.292,9.792c0-0.827,0.673-1.5,1.5-1.5c0.339,0,0.649,0.117,0.9,0.308   C9.418,8.238,8.988,8,8.5,8C7.673,8,7,8.673,7,9.5c0,0.488,0.238,0.918,0.6,1.192C7.409,10.441,7.292,10.131,7.292,9.792z"/>
	<path style="opacity:0.2;fill:#FFFFFF;" d="M14.292,9.792c0-0.827,0.673-1.5,1.5-1.5c0.339,0,0.649,0.117,0.9,0.308   C16.418,8.238,15.988,8,15.5,8C14.673,8,14,8.673,14,9.5c0,0.488,0.238,0.918,0.6,1.192C14.409,10.441,14.292,10.131,14.292,9.792z   "/>
	<linearGradient id="SVGID_1_" gradientUnits="userSpaceOnUse" x1="-0.4068" y1="4.9626" x2="22.1875" y2="15.4985">
		<stop offset="0" style="stop-color:#FFFFFF;stop-opacity:0.2"/>
		<stop offset="1" style="stop-color:#FFFFFF;stop-opacity:0"/>
	</linearGradient>
	<path style="fill:url(#SVGID_1_);" d="M23.831,11.125c-0.197-0.175-0.497-0.166-0.685,0.021c-0.047,0.047-0.098,0.092-0.146,0.138   V2.5C23,1.121,21.879,0,20.5,0h-17C2.121,0,1,1.121,1,2.5v8.785c-0.049-0.046-0.099-0.091-0.146-0.138   c-0.188-0.187-0.487-0.196-0.685-0.021s-0.226,0.473-0.064,0.682c1.924,2.48,4.299,3.616,5.288,4.007C5.236,16.451,5,17.712,5,19.5   C5,22.397,7.365,24,9,24c1.038,0,2.5-0.62,2.5-2v-4.924l1,0.144V22c0,1.38,1.462,2,2.5,2c1.635,0,4-1.603,4-4.5   c0-1.788-0.236-3.049-0.393-3.687c0.989-0.391,3.364-1.526,5.288-4.007C24.057,11.598,24.028,11.3,23.831,11.125z"/>
</g>
<g>
</g>
<g>
</g>
<g>
</g>
<g>
</g>
<g>
</g>
<g>
</g>
<g>
</g>
<g>
</g>
<g>
</g>
<g>
</g>
<g>
</g>
<g>
</g>
<g>
</g>
<g>
</g>
<g>
</g>

	<metadata>
		<rdf:RDF xmlns:rdf="http://www.w3.org/1999/02/22-rdf-syntax-ns#" xmlns:rdfs="http://www.w3.org/2000/01/rdf-schema#" xmlns:dc="http://purl.org/dc/elements/1.1/">
			<rdf:Description about="https://iconscout.com/legal#licenses" dc:title="social; media; social media; logo; slideshare" dc:description="social; media; social media; logo; slideshare" dc:publisher="Iconscout" dc:date="2017-03-22" dc:format="image/svg+xml" dc:language="en">
				<dc:creator>
					<rdf:Bag>
						<rdf:li>Alpár - Etele Méder</rdf:li>
					</rdf:Bag>
				</dc:creator>
			</rdf:Description>
		</rdf:RDF>
    </metadata></svg>
