<?xml version="1.0" encoding="UTF-8"?>
<svg xmlns="http://www.w3.org/2000/svg" xmlns:xlink="http://www.w3.org/1999/xlink" version="1.1" id="Layer_1" x="0px" y="0px" viewBox="0 0 24 24" style="enable-background:new 0 0 24 24;" xml:space="preserve">
<g>
	<path style="fill:#303C42;" d="M23.626,17.516c-2.357-0.612-4.161-2.027-5.077-3.972c0-0.001,0.002-0.005,0.006-0.009   c0.001,0,0.001,0,0.001,0l2.194-1.707c0.5-0.39,0.701-1.056,0.501-1.657c-0.237-0.708-0.966-1.135-1.7-0.999l-1.535,0.274   C18.437,6.879,17.934,4.6,16.6,3.028C15.49,1.72,13.855,1,12,1c-1.856,0-3.491,0.721-4.601,2.029   C6.064,4.602,5.562,6.882,5.99,9.466C5.334,9.348,4.459,9.182,4.459,9.182c-0.742-0.147-1.473,0.279-1.711,0.992   c-0.2,0.6,0.001,1.264,0.501,1.652l2.204,1.707c-0.918,1.957-2.722,3.371-5.079,3.983c-0.233,0.061-0.391,0.28-0.373,0.521   c0.031,0.414,0.187,0.743,0.464,0.979c0.568,0.484,1.454,0.407,2.234,0.34c0.328-0.028,0.821-0.073,0.91-0.044   C3.989,19.788,4,20.495,4,20.5C4,20.776,4.224,21,4.5,21h2c0.551,0,1.252,0.387,1.995,0.797C9.517,22.361,10.675,23,12,23   s2.483-0.639,3.505-1.203C16.248,21.387,16.949,21,17.5,21h2c0.274,0,0.498-0.224,0.5-0.498c0-0.007,0.011-0.714,0.35-1.153   c0.129-0.063,0.624-0.02,0.951,0.008c0.779,0.066,1.666,0.144,2.234-0.34c0.276-0.236,0.433-0.565,0.464-0.979   C24.016,17.796,23.859,17.577,23.626,17.516z"/>
	<g>
		<path style="fill:#FFEE58;" d="M21.385,18.36c-0.757-0.065-1.417-0.123-1.776,0.328c-0.343,0.428-0.492,0.941-0.559,1.313H17.5    c-0.809,0-1.619,0.448-2.478,0.921C14.061,21.452,13.067,22,12,22s-2.061-0.548-3.021-1.079C8.119,20.448,7.309,20,6.5,20H4.949    c-0.066-0.371-0.216-0.884-0.559-1.313c-0.359-0.45-1.02-0.394-1.776-0.328C2.143,18.4,1.516,18.454,1.21,18.314    c2.365-0.763,4.181-2.293,5.149-4.357c0.194-0.417,0.067-0.926-0.302-1.212l-2.195-1.709c-0.165-0.128-0.231-0.348-0.165-0.546    c0.078-0.236,0.319-0.376,0.57-0.327c0,0,0.883,0.167,1.545,0.287c0.323,0.057,0.641-0.041,0.871-0.269    C6.918,9.951,7.026,9.617,6.971,9.29C6.597,7.015,7.02,5.021,8.16,3.676C9.092,2.58,10.419,2,12,2c1.58,0,2.907,0.58,3.838,1.676    c1.142,1.344,1.564,3.336,1.191,5.609c-0.054,0.329,0.055,0.663,0.29,0.894c0.232,0.229,0.552,0.327,0.873,0.267l1.546-0.291    c0.248-0.052,0.484,0.093,0.563,0.333c0.067,0.201,0,0.422-0.166,0.552l-2.193,1.706c-0.37,0.287-0.496,0.796-0.302,1.212    c0.969,2.064,2.784,3.594,5.149,4.357C22.483,18.454,21.856,18.4,21.385,18.36z"/>
	</g>
	<path style="opacity:0.1;" d="M4.047,18.344c-0.359-0.45-1.02-0.394-1.776-0.328c-0.104,0.009-0.218,0.018-0.332,0.026   C1.701,18.14,1.46,18.234,1.21,18.314c0.306,0.14,0.933,0.086,1.404,0.045c0.618-0.054,1.161-0.085,1.539,0.144   C4.118,18.45,4.088,18.395,4.047,18.344z"/>
	<path style="opacity:0.1;" d="M22.074,18.047c-0.316,0.027-0.709-0.003-1.032-0.031c-0.757-0.065-1.417-0.123-1.776,0.328   c-0.343,0.428-0.492,0.941-0.559,1.313h-1.551c-0.809,0-1.619,0.448-2.478,0.921c-0.96,0.53-1.954,1.079-3.021,1.079   c-1.067,0-2.061-0.548-3.021-1.079c-0.859-0.474-1.67-0.921-2.478-0.921H4.869C4.903,19.778,4.931,19.895,4.949,20H6.5   c0.809,0,1.619,0.448,2.478,0.921C9.939,21.452,10.933,22,12,22c1.067,0,2.061-0.548,3.021-1.079C15.881,20.448,16.691,20,17.5,20   h1.551c0.066-0.371,0.216-0.884,0.559-1.313c0.359-0.451,1.02-0.393,1.776-0.328c0.471,0.041,1.098,0.094,1.404-0.045   C22.544,18.235,22.308,18.143,22.074,18.047z"/>
	<path style="opacity:0.2;fill:#FFFFFF;" d="M4.256,11.343c-0.026-0.093-0.028-0.194,0.004-0.29c0.078-0.236,0.319-0.376,0.57-0.327   c0,0,0.883,0.167,1.545,0.287c0.323,0.057,0.641-0.041,0.871-0.269c0.234-0.231,0.342-0.565,0.287-0.892   C7.159,7.577,7.582,5.583,8.723,4.239c0.932-1.097,2.259-1.676,3.84-1.676c1.333,0,2.469,0.436,3.356,1.223   c-0.028-0.035-0.052-0.075-0.081-0.11C14.907,2.58,13.58,2,12,2c-1.581,0-2.908,0.58-3.84,1.676C7.02,5.021,6.597,7.015,6.971,9.29   c0.055,0.327-0.053,0.661-0.287,0.892c-0.23,0.228-0.548,0.326-0.871,0.269c-0.662-0.12-1.545-0.287-1.545-0.287   c-0.251-0.05-0.492,0.091-0.57,0.327c-0.066,0.199,0,0.418,0.165,0.546L4.256,11.343z"/>
	<linearGradient id="SVGID_1_" gradientUnits="userSpaceOnUse" x1="3.5261" y1="8.4828" x2="24.0997" y2="18.0764">
		<stop offset="0" style="stop-color:#FFFFFF;stop-opacity:0.2"/>
		<stop offset="1" style="stop-color:#FFFFFF;stop-opacity:0"/>
	</linearGradient>
	<path style="fill:url(#SVGID_1_);" d="M23.626,17.516c-2.357-0.612-4.161-2.027-5.077-3.972c0-0.001,0.002-0.005,0.006-0.009   c0.001,0,0.001,0,0.001,0l2.194-1.707c0.5-0.39,0.701-1.056,0.501-1.657c-0.237-0.708-0.966-1.135-1.7-0.999l-1.535,0.274   C18.437,6.879,17.934,4.6,16.6,3.028C15.49,1.72,13.855,1,12,1c-1.856,0-3.491,0.721-4.601,2.029   C6.064,4.602,5.562,6.882,5.99,9.466C5.334,9.348,4.459,9.182,4.459,9.182c-0.742-0.147-1.473,0.279-1.711,0.992   c-0.2,0.6,0.001,1.264,0.501,1.652l2.204,1.707c-0.918,1.957-2.722,3.371-5.079,3.983c-0.233,0.061-0.391,0.28-0.373,0.521   c0.031,0.414,0.187,0.743,0.464,0.979c0.568,0.484,1.454,0.407,2.234,0.34c0.328-0.028,0.821-0.073,0.91-0.044   C3.989,19.788,4,20.495,4,20.5C4,20.776,4.224,21,4.5,21h2c0.551,0,1.252,0.387,1.995,0.797C9.517,22.361,10.675,23,12,23   s2.483-0.639,3.505-1.203C16.248,21.387,16.949,21,17.5,21h2c0.274,0,0.498-0.224,0.5-0.498c0-0.007,0.011-0.714,0.35-1.153   c0.129-0.063,0.624-0.02,0.951,0.008c0.779,0.066,1.666,0.144,2.234-0.34c0.276-0.236,0.433-0.565,0.464-0.979   C24.016,17.796,23.859,17.577,23.626,17.516z"/>
</g>
<g>
</g>
<g>
</g>
<g>
</g>
<g>
</g>
<g>
</g>
<g>
</g>
<g>
</g>
<g>
</g>
<g>
</g>
<g>
</g>
<g>
</g>
<g>
</g>
<g>
</g>
<g>
</g>
<g>
</g>

	<metadata>
		<rdf:RDF xmlns:rdf="http://www.w3.org/1999/02/22-rdf-syntax-ns#" xmlns:rdfs="http://www.w3.org/2000/01/rdf-schema#" xmlns:dc="http://purl.org/dc/elements/1.1/">
			<rdf:Description about="https://iconscout.com/legal#licenses" dc:title="social; media; social media; logo; snapchat" dc:description="social; media; social media; logo; snapchat" dc:publisher="Iconscout" dc:date="2017-03-22" dc:format="image/svg+xml" dc:language="en">
				<dc:creator>
					<rdf:Bag>
						<rdf:li>Alpár - Etele Méder</rdf:li>
					</rdf:Bag>
				</dc:creator>
			</rdf:Description>
		</rdf:RDF>
    </metadata></svg>
