<?xml version="1.0" encoding="UTF-8"?>
<svg xmlns="http://www.w3.org/2000/svg" xmlns:xlink="http://www.w3.org/1999/xlink" version="1.1" id="Layer_1" x="0px" y="0px" viewBox="0 0 24 24" style="enable-background:new 0 0 24 24;" xml:space="preserve">
<g>
	<path style="fill:#303C42;" d="M0.5,12.5C0.224,12.5,0,12.724,0,13v4c0,0.276,0.224,0.5,0.5,0.5S1,17.276,1,17v-4   C1,12.724,0.776,12.5,0.5,12.5z"/>
	<path style="fill:#303C42;" d="M3.5,9.5C3.224,9.5,3,9.724,3,10v8c0,0.276,0.224,0.5,0.5,0.5S4,18.276,4,18v-8   C4,9.724,3.776,9.5,3.5,9.5z"/>
	<path style="fill:#303C42;" d="M6.5,10.5C6.224,10.5,6,10.724,6,11v7c0,0.276,0.224,0.5,0.5,0.5S7,18.276,7,18v-7   C7,10.724,6.776,10.5,6.5,10.5z"/>
	<path style="fill:#303C42;" d="M9.5,6.5C9.224,6.5,9,6.724,9,7v11c0,0.276,0.224,0.5,0.5,0.5S10,18.276,10,18V7   C10,6.724,9.776,6.5,9.5,6.5z"/>
	<path style="fill:#303C42;" d="M20.5,11.5c-0.525,0-1.036,0.118-1.502,0.342C18.914,8.331,16.031,5.5,12.5,5.5   C12.224,5.5,12,5.724,12,6v12c0,0.276,0.224,0.5,0.5,0.5h8c1.93,0,3.5-1.57,3.5-3.5S22.43,11.5,20.5,11.5z"/>
	<path style="fill:#FF8F00;" d="M20.5,17.5H13V6.525c2.799,0.254,5,2.611,5,5.475c0,0.26-0.024,0.513-0.06,0.762   c-0.029,0.211,0.077,0.417,0.267,0.514c0.188,0.096,0.419,0.063,0.573-0.083c0.47-0.447,1.081-0.694,1.72-0.694   c1.379,0,2.5,1.122,2.5,2.5S21.879,17.5,20.5,17.5z"/>
	<path style="opacity:0.1;" d="M21.849,12.901c0.251,0.39,0.401,0.851,0.401,1.349c0,1.378-1.121,2.5-2.5,2.5H13v0.75h7.5   c1.379,0,2.5-1.122,2.5-2.5C23,14.119,22.539,13.347,21.849,12.901z"/>
	<linearGradient id="SVGID_1_" gradientUnits="userSpaceOnUse" x1="1.8115" y1="9.0039" x2="22.6306" y2="18.712">
		<stop offset="0" style="stop-color:#FFFFFF;stop-opacity:0.2"/>
		<stop offset="1" style="stop-color:#FFFFFF;stop-opacity:0"/>
	</linearGradient>
	<path style="fill:url(#SVGID_1_);" d="M0.5,12.5C0.224,12.5,0,12.724,0,13v4c0,0.276,0.224,0.5,0.5,0.5S1,17.276,1,17v-4   C1,12.724,0.776,12.5,0.5,12.5z M3.5,9.5C3.224,9.5,3,9.724,3,10v8c0,0.276,0.224,0.5,0.5,0.5S4,18.276,4,18v-8   C4,9.724,3.776,9.5,3.5,9.5z M6.5,10.5C6.224,10.5,6,10.724,6,11v7c0,0.276,0.224,0.5,0.5,0.5S7,18.276,7,18v-7   C7,10.724,6.776,10.5,6.5,10.5z M9.5,6.5C9.224,6.5,9,6.724,9,7v11c0,0.276,0.224,0.5,0.5,0.5S10,18.276,10,18V7   C10,6.724,9.776,6.5,9.5,6.5z M20.5,11.5c-0.525,0-1.036,0.118-1.502,0.342C18.914,8.331,16.031,5.5,12.5,5.5   C12.224,5.5,12,5.724,12,6v12c0,0.276,0.224,0.5,0.5,0.5h8c1.93,0,3.5-1.57,3.5-3.5S22.43,11.5,20.5,11.5z"/>
</g>
<g>
</g>
<g>
</g>
<g>
</g>
<g>
</g>
<g>
</g>
<g>
</g>
<g>
</g>
<g>
</g>
<g>
</g>
<g>
</g>
<g>
</g>
<g>
</g>
<g>
</g>
<g>
</g>
<g>
</g>

	<metadata>
		<rdf:RDF xmlns:rdf="http://www.w3.org/1999/02/22-rdf-syntax-ns#" xmlns:rdfs="http://www.w3.org/2000/01/rdf-schema#" xmlns:dc="http://purl.org/dc/elements/1.1/">
			<rdf:Description about="https://iconscout.com/legal#licenses" dc:title="social; media; social media; logo; sound; cloud" dc:description="social; media; social media; logo; sound; cloud" dc:publisher="Iconscout" dc:date="2017-03-22" dc:format="image/svg+xml" dc:language="en">
				<dc:creator>
					<rdf:Bag>
						<rdf:li>Alpár - Etele Méder</rdf:li>
					</rdf:Bag>
				</dc:creator>
			</rdf:Description>
		</rdf:RDF>
    </metadata></svg>
