<?xml version="1.0" encoding="UTF-8"?>
<svg xmlns="http://www.w3.org/2000/svg" xmlns:xlink="http://www.w3.org/1999/xlink" version="1.1" id="Layer_1" x="0px" y="0px" viewBox="0 0 24 24" style="enable-background:new 0 0 24 24;" xml:space="preserve">
<g>
	<circle style="fill:#303C42;" cx="15.5" cy="9.5" r="2.5"/>
	<circle style="fill:#5C6671;" cx="15.5" cy="9.5" r="1.5"/>
	<path style="opacity:0.2;fill:#FFFFFF;enable-background:new    ;" d="M14.5,10c0-0.827,0.673-1.5,1.5-1.5   c0.285,0,0.549,0.084,0.777,0.223C16.513,8.292,16.042,8,15.5,8C14.673,8,14,8.673,14,9.5c0,0.542,0.292,1.013,0.723,1.277   C14.584,10.549,14.5,10.285,14.5,10z"/>
	<path style="fill:#303C42;" d="M8.671,18.342c-0.547,0.273-1.199,0.188-1.66-0.217c-0.208-0.182-0.523-0.161-0.706,0.046   c-0.183,0.208-0.162,0.523,0.045,0.706c0.47,0.411,1.057,0.624,1.65,0.624c0.379,0,0.762-0.087,1.118-0.265   c1.232-0.616,1.734-2.121,1.118-3.354c-0.372-0.741-1.083-1.25-1.905-1.359c-0.275-0.047-0.525,0.155-0.562,0.429   s0.156,0.525,0.429,0.562c0.493,0.066,0.921,0.372,1.144,0.816C9.711,17.069,9.411,17.972,8.671,18.342z"/>
	<path style="fill:#303C42;" d="M12,0C5.383,0,0,5.383,0,12c0,0.122,0.008,0.241,0.016,0.36l0.011,0.174   c0.009,0.188,0.122,0.354,0.292,0.433l4.844,2.202c0.201,0.091,0.439,0.039,0.584-0.127C6.322,14.38,7.144,14,8,14   c0.217,0,0.449,0.031,0.709,0.095c0.194,0.049,0.396-0.024,0.516-0.182l2.727-3.565c0.082-0.106,0.104-0.329,0.086-0.462   C12.02,9.759,12,9.632,12,9.5C12,7.57,13.57,6,15.5,6S19,7.57,19,9.5c0,1.928-1.567,3.497-3.526,3.497   c-0.085-0.015-0.232,0.039-0.323,0.114l-3.99,3.286c-0.124,0.102-0.191,0.256-0.181,0.416c0,0.013,0.018,0.174,0.02,0.187   c0,1.654-1.346,3-3,3c-1.486,0-2.728-1.072-2.953-2.549c-0.024-0.16-0.125-0.3-0.271-0.372l-3.384-1.692   c-0.182-0.091-0.402-0.063-0.555,0.072c-0.153,0.136-0.208,0.35-0.14,0.542C2.392,20.785,6.934,24,12,24c6.617,0,12-5.383,12-12   S18.617,0,12,0z"/>
	<path style="fill:#5C6671;" d="M12,23c-4.199,0-8.004-2.409-9.843-6.113l1.95,0.976C4.507,19.695,6.104,21,8,21   c2.205,0,4-1.794,4-3.999l3.647-3.003C18.061,13.92,20,11.932,20,9.5C20,7.019,17.981,5,15.5,5S11,7.019,11,9.5   c0,0.128,0.012,0.252,0.031,0.405l-2.409,3.15C8.406,13.019,8.2,13,8,13c-1.021,0-2.003,0.401-2.747,1.112L1.006,12.18   C1.002,12.121,1,12.061,1,12C1,5.935,5.935,1,12,1s11,4.935,11,11S18.065,23,12,23z"/>
	<path style="opacity:0.2;fill:#FFFFFF;enable-background:new    ;" d="M12.5,1.5c2.906,0,5.544,1.141,7.513,2.987   C18.004,2.347,15.16,1,12,1C5.935,1,1,5.935,1,12c0,0.061,0.002,0.121,0.006,0.181l0.498,0.227C1.555,6.385,6.466,1.5,12.5,1.5z"/>
	
		<linearGradient id="SVGID_1_" gradientUnits="userSpaceOnUse" x1="8.9267" y1="13.8838" x2="19.1796" y2="3.6309" gradientTransform="matrix(1 0 0 -1 0 24)">
		<stop offset="0" style="stop-color:#000000;stop-opacity:0.1"/>
		<stop offset="1" style="stop-color:#000000;stop-opacity:0"/>
	</linearGradient>
	<path style="fill:url(#SVGID_1_);" d="M12,23c6.065,0,11-4.935,11-11c0-0.495-0.044-0.98-0.108-1.458l-4.098-4.098l-0.007,0.004   C19.534,7.252,20,8.32,20,9.5c0,2.432-1.939,4.42-4.353,4.498L12,17.001C12,19.206,10.205,21,8,21   c-1.896,0-3.493-1.305-3.893-3.138l-1.95-0.976l4.913,4.913C8.572,22.559,10.246,23,12,23z"/>
	
		<linearGradient id="SVGID_2_" gradientUnits="userSpaceOnUse" x1="1.1261" y1="17.0739" x2="22.8764" y2="6.9316" gradientTransform="matrix(1 0 0 -1 0 24)">
		<stop offset="0" style="stop-color:#FFFFFF;stop-opacity:0.2"/>
		<stop offset="1" style="stop-color:#FFFFFF;stop-opacity:0"/>
	</linearGradient>
	<path style="fill:url(#SVGID_2_);" d="M18,9.5C18,8.121,16.878,7,15.5,7S13,8.121,13,9.5s1.122,2.5,2.5,2.5S18,10.879,18,9.5z    M12,0C5.383,0,0,5.383,0,12c0,0.122,0.008,0.241,0.016,0.36l0.011,0.174c0.009,0.188,0.122,0.354,0.292,0.433l4.844,2.202   c0.201,0.091,0.439,0.039,0.584-0.127C6.322,14.38,7.144,14,8,14c0.217,0,0.449,0.031,0.709,0.095   c0.194,0.049,0.396-0.024,0.516-0.182l2.727-3.565c0.082-0.106,0.104-0.329,0.086-0.462C12.02,9.759,12,9.632,12,9.5   C12,7.57,13.57,6,15.5,6S19,7.57,19,9.5c0,1.928-1.567,3.497-3.526,3.497c-0.085-0.015-0.232,0.039-0.323,0.114l-3.99,3.286   c-0.124,0.102-0.191,0.256-0.181,0.416c0,0.013,0.018,0.174,0.02,0.187c0,1.654-1.346,3-3,3c-1.486,0-2.728-1.072-2.953-2.549   c-0.024-0.16-0.125-0.3-0.271-0.372l-3.384-1.692c-0.182-0.091-0.402-0.063-0.555,0.072c-0.153,0.136-0.208,0.35-0.14,0.542   C2.392,20.785,6.934,24,12,24c6.617,0,12-5.383,12-12S18.617,0,12,0z M8.671,18.342c-0.547,0.273-1.199,0.188-1.66-0.217   c-0.208-0.182-0.523-0.161-0.706,0.046c-0.183,0.208-0.162,0.523,0.045,0.706c0.47,0.411,1.057,0.624,1.65,0.624   c0.379,0,0.762-0.087,1.118-0.265c1.232-0.616,1.734-2.121,1.118-3.354c-0.372-0.741-1.083-1.25-1.905-1.359   c-0.275-0.047-0.525,0.155-0.562,0.429s0.156,0.525,0.429,0.562c0.493,0.066,0.921,0.372,1.144,0.816   C9.711,17.069,9.411,17.972,8.671,18.342z"/>
</g>

	<metadata>
		<rdf:RDF xmlns:rdf="http://www.w3.org/1999/02/22-rdf-syntax-ns#" xmlns:rdfs="http://www.w3.org/2000/01/rdf-schema#" xmlns:dc="http://purl.org/dc/elements/1.1/">
			<rdf:Description about="https://iconscout.com/legal#licenses" dc:title="social; media; social media; logo; steam" dc:description="social; media; social media; logo; steam" dc:publisher="Iconscout" dc:date="2017-03-22" dc:format="image/svg+xml" dc:language="en">
				<dc:creator>
					<rdf:Bag>
						<rdf:li>Alpár - Etele Méder</rdf:li>
					</rdf:Bag>
				</dc:creator>
			</rdf:Description>
		</rdf:RDF>
    </metadata></svg>
