<?xml version="1.0" encoding="UTF-8"?>
<svg xmlns="http://www.w3.org/2000/svg" xmlns:xlink="http://www.w3.org/1999/xlink" version="1.1" id="Layer_1" x="0px" y="0px" viewBox="0 0 24 24" style="enable-background:new 0 0 24 24;" xml:space="preserve">
<g>
	<path style="fill:#303C42;" d="M12,0C5.383,0,0,5.383,0,12s5.383,12,12,12s12-5.383,12-12S18.617,0,12,0z"/>
	<path style="fill:#F4511E;" d="M12,23C5.935,23,1,18.065,1,12S5.935,1,12,1s11,4.935,11,11S18.065,23,12,23z"/>
	<path style="opacity:0.2;fill:#FFFFFF;" d="M1.5,12.5c0-6.065,4.935-11,11-11c2.906,0,5.544,1.141,7.513,2.987   C18.004,2.347,15.16,1,12,1C5.935,1,1,5.935,1,12c0,3.16,1.347,6.004,3.487,8.013C2.641,18.044,1.5,15.406,1.5,12.5z"/>
	<path style="fill:#303C42;" d="M19.5,10h-3c-0.276,0-0.5,0.224-0.5,0.5V9c0-2.206-1.794-4-4-4S8,6.794,8,9v2   c0-0.276-0.224-0.5-0.5-0.5h-3C4.224,10.5,4,10.724,4,11v3c0,2.206,1.794,4,4,4s4-1.794,4-4c0,2.206,1.794,4,4,4s4-1.794,4-4v-3.5   C20,10.224,19.776,10,19.5,10z"/>
	<path style="fill:#FFFFFF;" d="M11,9v5c0,1.654-1.346,3-3,3s-3-1.346-3-3v-2.5h2V14c0,0.551,0.448,1,1,1s1-0.449,1-1V9   c0-1.654,1.346-3,3-3s3,1.346,3,3v1.732l-1,0.667l-1-0.667V9c0-0.551-0.448-1-1-1S11,8.449,11,9z"/>
	<path style="fill:#FFFFFF;" d="M19,14c0,1.654-1.346,3-3,3s-3-1.346-3-3v-2.066l0.723,0.482C13.807,12.472,13.903,12.5,14,12.5   s0.193-0.028,0.277-0.084L15,11.934V14c0,0.551,0.448,1,1,1s1-0.449,1-1v-3h2V14z"/>
	<linearGradient id="SVGID_1_" gradientUnits="userSpaceOnUse" x1="10.2717" y1="11.2456" x2="19.2858" y2="20.2598">
		<stop offset="0" style="stop-color:#000000;stop-opacity:0.1"/>
		<stop offset="1" style="stop-color:#000000;stop-opacity:0"/>
	</linearGradient>
	<path style="fill:url(#SVGID_1_);" d="M16,10.5c0-0.276,0.224-0.5,0.5-0.5h2.13l-3.556-3.556l-0.013,0.013   C15.638,7.15,16,8.029,16,9V10.5z M19.884,10.192C19.953,10.277,20,10.381,20,10.5V14c0,2.206-1.794,4-4,4s-4-1.794-4-4   c0,2.206-1.794,4-4,4c-1.066,0-2.03-0.425-2.748-1.107l6.073,6.073C11.55,22.98,11.772,23,12,23c5.648,0,10.31-4.28,10.926-9.766   L19.884,10.192z M5,16.641l0.107,0.107c-0.035-0.037-0.063-0.079-0.097-0.118L5,16.641z"/>
	<linearGradient id="SVGID_2_" gradientUnits="userSpaceOnUse" x1="1.1249" y1="6.9288" x2="22.8751" y2="17.0712">
		<stop offset="0" style="stop-color:#FFFFFF;stop-opacity:0.2"/>
		<stop offset="1" style="stop-color:#FFFFFF;stop-opacity:0"/>
	</linearGradient>
	<path style="fill:url(#SVGID_2_);" d="M12,0C5.383,0,0,5.383,0,12s5.383,12,12,12s12-5.383,12-12S18.617,0,12,0z"/>
</g>
<g>
</g>
<g>
</g>
<g>
</g>
<g>
</g>
<g>
</g>
<g>
</g>
<g>
</g>
<g>
</g>
<g>
</g>
<g>
</g>
<g>
</g>
<g>
</g>
<g>
</g>
<g>
</g>
<g>
</g>

	<metadata>
		<rdf:RDF xmlns:rdf="http://www.w3.org/1999/02/22-rdf-syntax-ns#" xmlns:rdfs="http://www.w3.org/2000/01/rdf-schema#" xmlns:dc="http://purl.org/dc/elements/1.1/">
			<rdf:Description about="https://iconscout.com/legal#licenses" dc:title="social; media; social media; logo; stumbleupon" dc:description="social; media; social media; logo; stumbleupon" dc:publisher="Iconscout" dc:date="2017-03-22" dc:format="image/svg+xml" dc:language="en">
				<dc:creator>
					<rdf:Bag>
						<rdf:li>Alpár - Etele Méder</rdf:li>
					</rdf:Bag>
				</dc:creator>
			</rdf:Description>
		</rdf:RDF>
    </metadata></svg>
