<?xml version="1.0" encoding="UTF-8"?>
<svg xmlns="http://www.w3.org/2000/svg" xmlns:xlink="http://www.w3.org/1999/xlink" version="1.1" id="Layer_1" x="0px" y="0px" viewBox="0 0 24 24" style="enable-background:new 0 0 24 24;" xml:space="preserve">
<g>
	<path style="fill:#303C42;" d="M21,1H3C1.897,1,1,1.897,1,3v18c0,1.103,0.897,2,2,2h18c1.103,0,2-0.897,2-2V3   C23,1.897,22.103,1,21,1z"/>
	<path style="fill:#0288D1;" d="M22,21c0,0.552-0.449,1-1,1H3c-0.551,0-1-0.448-1-1V3c0-0.552,0.449-1,1-1h18c0.551,0,1,0.448,1,1   V21z"/>
	<path style="fill:#303C42;" d="M12,3c-4.962,0-9,4.037-9,9s4.038,9,9,9s9-4.037,9-9S16.962,3,12,3z"/>
	<circle style="fill:#FFFFFF;" cx="12" cy="12" r="8"/>
	<circle style="fill:#FFFFFF;" cx="12" cy="12" r="8"/>
	<path style="opacity:0.1;enable-background:new    ;" d="M4.5,12.5c0-4.411,3.589-8,8-8c2.079,0,3.968,0.803,5.392,2.108   C16.429,5.01,14.333,4,12,4c-4.411,0-8,3.589-8,8c0,2.333,1.01,4.429,2.608,5.892C5.303,16.468,4.5,14.579,4.5,12.5z"/>
	<path style="fill:#303C42;" d="M15.288,9.047C15.112,9.13,15,9.306,15,9.5v1H9v-1c0-0.194-0.112-0.37-0.288-0.453   C8.538,8.967,8.33,8.991,8.18,9.116l-3,2.5C5.066,11.711,5,11.852,5,12s0.066,0.289,0.18,0.384l3,2.5   c0.149,0.126,0.357,0.15,0.532,0.069C8.888,14.87,9,14.694,9,14.5v-1h6v1c0,0.194,0.112,0.37,0.288,0.453   C15.355,14.984,15.428,15,15.5,15c0.115,0,0.229-0.039,0.32-0.116l3-2.5C18.934,12.289,19,12.148,19,12s-0.066-0.289-0.18-0.384   l-3-2.5C15.671,8.99,15.463,8.966,15.288,9.047z"/>
	<path style="fill:#0288D1;" d="M16,11v-0.433L17.719,12L16,13.433V13c0-0.276-0.224-0.5-0.5-0.5h-7C8.224,12.5,8,12.724,8,13v0.433   L6.281,12L8,10.567V11c0,0.276,0.224,0.5,0.5,0.5h7C15.776,11.5,16,11.276,16,11z"/>
	<path style="opacity:0.2;fill:#FFFFFF;enable-background:new    ;" d="M2.75,21.75v-18c0-0.552,0.448-1,1-1h18   c0.074,0,0.139,0.027,0.208,0.042C21.859,2.343,21.478,2,21,2H3C2.448,2,2,2.448,2,3v18c0,0.478,0.343,0.859,0.792,0.958   C2.777,21.889,2.75,21.824,2.75,21.75z"/>
	
		<linearGradient id="SVGID_1_" gradientUnits="userSpaceOnUse" x1="9.1062" y1="15.0612" x2="21.7906" y2="2.3769" gradientTransform="matrix(1 0 0 -1 0 24)">
		<stop offset="0" style="stop-color:#000000;stop-opacity:0.1"/>
		<stop offset="1" style="stop-color:#000000;stop-opacity:0"/>
	</linearGradient>
	<path style="fill:url(#SVGID_1_);" d="M20.816,13.816c-0.703,3.418-3.354,6.126-6.734,6.931L15.335,22H21c0.551,0,1-0.448,1-1v-6   L20.816,13.816z M9,10.5h1.199L8.872,9.173L8.87,9.186C8.946,9.275,9,9.379,9,9.5V10.5z M19.94,12.94L19,12   c0,0.148-0.066,0.289-0.18,0.384l-3,2.5C15.729,14.961,15.615,15,15.5,15c-0.072,0-0.145-0.016-0.212-0.047   C15.112,14.87,15,14.694,15,14.5v-1H9v1c0,0.194-0.112,0.37-0.288,0.453c-0.139,0.064-0.291,0.044-0.425-0.023l-0.002,0.02   l4.946,4.946C16.753,19.348,19.52,16.502,19.94,12.94z"/>
	
		<linearGradient id="SVGID_2_" gradientUnits="userSpaceOnUse" x1="-0.6523" y1="17.8998" x2="24.6523" y2="6.1002" gradientTransform="matrix(1 0 0 -1 0 24)">
		<stop offset="0" style="stop-color:#FFFFFF;stop-opacity:0.2"/>
		<stop offset="1" style="stop-color:#FFFFFF;stop-opacity:0"/>
	</linearGradient>
	<path style="fill:url(#SVGID_2_);" d="M21,1H3C1.897,1,1,1.897,1,3v18c0,1.103,0.897,2,2,2h18c1.103,0,2-0.897,2-2V3   C23,1.897,22.103,1,21,1z"/>
</g>

	<metadata>
		<rdf:RDF xmlns:rdf="http://www.w3.org/1999/02/22-rdf-syntax-ns#" xmlns:rdfs="http://www.w3.org/2000/01/rdf-schema#" xmlns:dc="http://purl.org/dc/elements/1.1/">
			<rdf:Description about="https://iconscout.com/legal#licenses" dc:title="social; media; social media; logo; teamviewer" dc:description="social; media; social media; logo; teamviewer" dc:publisher="Iconscout" dc:date="2017-03-22" dc:format="image/svg+xml" dc:language="en">
				<dc:creator>
					<rdf:Bag>
						<rdf:li>Alpár - Etele Méder</rdf:li>
					</rdf:Bag>
				</dc:creator>
			</rdf:Description>
		</rdf:RDF>
    </metadata></svg>
