<?xml version="1.0" encoding="UTF-8"?>
<svg xmlns="http://www.w3.org/2000/svg" xmlns:xlink="http://www.w3.org/1999/xlink" version="1.1" id="Layer_1" x="0px" y="0px" viewBox="0 0 24 24" style="enable-background:new 0 0 24 24;" xml:space="preserve">
<g>
	<path style="fill:#303C42;" d="M12,24c-0.41,0-0.82-0.103-1.187-0.309l-8.617-4.834C1.458,18.442,1,17.668,1,16.835V7.165   c0-0.832,0.458-1.607,1.196-2.021l8.617-4.836c0.732-0.41,1.641-0.411,2.373,0.001l1.84,1.031c0.069,0.039,0.128,0.094,0.172,0.159   c0.671,1.007,0.174,2.847-1.299,4.801c-1.64,2.176-4.006,3.157-6.491,2.691C7.225,9,7,9.225,7,9.5C7,9.775,7.225,10,7.5,10   c0.237,0,0.369-0.178,0.415-0.254c0.091-0.15,0.253-0.242,0.429-0.242c0.003,0,0.006,0,0.008,0c0.665,0.01,2.397,0.039,2.795-0.357   c0.195-0.195,0.512-0.195,0.707,0C11.951,9.244,12,9.372,12,9.5c0,0.128-0.049,0.256-0.146,0.354l-0.34,0.351   C10.214,11.557,8.725,13,7.5,13C7.225,13,7,13.225,7,13.5S7.225,14,7.5,14c0.257,0,0.42-0.194,0.468-0.387   c0.031-0.13,0.113-0.24,0.228-0.31c1.278-0.77,3.533-2.224,3.533-2.224c0.176-0.113,0.401-0.105,0.567,0.017   c0.167,0.123,0.241,0.337,0.186,0.536c-0.046,0.169-1.152,4.155-1.891,5.392c-0.038,0.063-0.088,0.116-0.148,0.157   C10.165,17.372,10,17.677,10,18.001c0,0.552,0.448,1,1,1s1-0.448,1-1c0-0.215-0.07-0.421-0.203-0.596   c-0.108-0.142-0.133-0.329-0.064-0.494c0.11-0.266,0.242-0.629,0.391-1.035C13.005,13.464,13.604,12,14.5,12   c0.681,0,1.273,0.596,1.763,1.772c0.07,0.171,0.042,0.367-0.076,0.51c-0.248,0.303-0.234,0.731,0.033,0.999   c0.283,0.283,0.777,0.283,1.061,0c0.142-0.142,0.22-0.33,0.22-0.53s-0.078-0.389-0.22-0.53C16.349,13.288,15,11.249,15,10   c0-1.114,0.585-2.502,1.606-3.808l0.166-0.215c0.7-0.91,1.57-2.047,3.15-1.846c0.064,0.008,0.127,0.028,0.184,0.06l1.696,0.952   c0.001,0.001,0.001,0.001,0.001,0.001C22.542,5.558,23,6.333,23,7.165v9.671c0,0.832-0.458,1.607-1.196,2.021l-8.617,4.836   C12.82,23.897,12.41,24,12,24z"/>
	<path style="fill:#AED581;" d="M12,0.999c-0.241,0-0.481,0.061-0.696,0.181L2.687,6.016C2.263,6.254,2,6.694,2,7.165v9.671   c0,0.471,0.263,0.911,0.687,1.149l8.617,4.834c0.43,0.242,0.963,0.241,1.393,0.001l8.617-4.836C21.737,17.747,22,17.306,22,16.835   V7.165c0-0.471-0.263-0.911-0.687-1.149l-1.605-0.901c-0.965-0.072-1.533,0.68-2.144,1.472l-0.171,0.221   C16.521,7.925,16,9.118,16,10c0,0.821,1.093,2.618,1.987,3.513c0.331,0.33,0.513,0.77,0.513,1.237s-0.182,0.907-0.513,1.237   c-0.682,0.682-1.793,0.682-2.475,0c-0.557-0.557-0.656-1.401-0.28-2.074C14.919,13.248,14.63,13,14.5,13   c-0.337,0.208-1.108,2.318-1.438,3.218c-0.112,0.308-0.216,0.591-0.309,0.829C12.916,17.339,13,17.664,13,18.001   c0,1.103-0.897,2-2,2s-2-0.898-2-2c0-0.614,0.289-1.193,0.78-1.572c0.402-0.735,0.97-2.47,1.368-3.789   c-0.701,0.446-1.597,1.012-2.278,1.426C8.643,14.625,8.106,15,7.5,15C6.673,15,6,14.327,6,13.5S6.673,12,7.5,12   c0.602,0,1.549-0.777,2.324-1.516c-0.394,0.025-0.811,0.027-1.233,0.023C8.31,10.82,7.919,11,7.5,11C6.673,11,6,10.327,6,9.5   C6,8.673,6.673,8,7.5,8c1.325,0.239,3.681,0.247,5.601-2.301c1.348-1.789,1.526-3.058,1.313-3.555l-1.717-0.963   C12.481,1.06,12.241,0.999,12,0.999z"/>
	<path style="opacity:0.2;fill:#FFFFFF;" d="M2.5,17.335V7.664c0-0.471,0.263-0.911,0.687-1.149l8.617-4.836   c0.215-0.12,0.455-0.181,0.696-0.181s0.481,0.061,0.697,0.182l1.279,0.717c-0.012-0.098-0.032-0.185-0.061-0.254l-1.717-0.963   C12.481,1.06,12.241,0.999,12,0.999S11.519,1.06,11.304,1.18L2.687,6.016C2.263,6.254,2,6.694,2,7.165v9.671   c0,0.466,0.259,0.901,0.675,1.141C2.564,17.782,2.5,17.563,2.5,17.335z"/>
	<linearGradient id="SVGID_1_" gradientUnits="userSpaceOnUse" x1="9.7709" y1="7.2701" x2="20.9356" y2="18.4347">
		<stop offset="0" style="stop-color:#000000;stop-opacity:0.1"/>
		<stop offset="1" style="stop-color:#000000;stop-opacity:0"/>
	</linearGradient>
	<path style="fill:url(#SVGID_1_);" d="M6.326,14.423L6.326,14.423L6.326,14.423L6.326,14.423z M9.824,10.484   c-0.394,0.025-0.811,0.027-1.233,0.023C8.31,10.82,7.919,11,7.5,11c-0.403,0-0.768-0.162-1.038-0.421l0,0l1.357,1.357   C8.406,11.743,9.174,11.103,9.824,10.484z M19.708,5.115c-0.965-0.072-1.533,0.68-2.144,1.472l-0.171,0.221   C16.521,7.925,16,9.118,16,10c0,0.821,1.093,2.618,1.987,3.513c0.331,0.33,0.513,0.77,0.513,1.237s-0.182,0.907-0.513,1.237   c-0.682,0.682-1.793,0.682-2.475,0c-0.557-0.557-0.656-1.401-0.28-2.074C14.919,13.248,14.63,13,14.5,13   c-0.337,0.208-1.108,2.318-1.438,3.218c-0.112,0.308-0.216,0.591-0.309,0.829C12.916,17.339,13,17.664,13,18.001   c0,1.103-0.897,2-2,2c-0.259,0-0.504-0.053-0.732-0.143l0,0.002l2.77,2.77l8.276-4.645C21.737,17.747,22,17.306,22,16.835V7.407   L19.708,5.115z M8.87,14.065C8.643,14.625,8.106,15,7.5,15c-0.35,0-0.667-0.125-0.923-0.326l2.582,2.582   c0.132-0.32,0.338-0.609,0.621-0.827c0.402-0.735,0.97-2.47,1.368-3.789C10.447,13.085,9.552,13.651,8.87,14.065z"/>
	<linearGradient id="SVGID_2_" gradientUnits="userSpaceOnUse" x1="0.9194" y1="6.8331" x2="23.0806" y2="17.1671">
		<stop offset="0" style="stop-color:#FFFFFF;stop-opacity:0.2"/>
		<stop offset="1" style="stop-color:#FFFFFF;stop-opacity:0"/>
	</linearGradient>
	<path style="fill:url(#SVGID_2_);" d="M12,24c-0.41,0-0.82-0.103-1.187-0.309l-8.617-4.834C1.458,18.442,1,17.668,1,16.835V7.165   c0-0.832,0.458-1.607,1.196-2.021l8.617-4.836c0.732-0.41,1.641-0.411,2.373,0.001l1.84,1.031c0.069,0.039,0.128,0.094,0.172,0.159   c0.671,1.007,0.174,2.847-1.299,4.801c-1.64,2.176-4.006,3.157-6.491,2.691C7.225,9,7,9.225,7,9.5C7,9.775,7.225,10,7.5,10   c0.237,0,0.369-0.178,0.415-0.254c0.091-0.15,0.253-0.242,0.429-0.242c0.003,0,0.006,0,0.008,0c0.665,0.01,2.397,0.039,2.795-0.357   c0.195-0.195,0.512-0.195,0.707,0C11.951,9.244,12,9.372,12,9.5c0,0.128-0.049,0.256-0.146,0.354l-0.34,0.351   C10.214,11.557,8.725,13,7.5,13C7.225,13,7,13.225,7,13.5S7.225,14,7.5,14c0.257,0,0.42-0.194,0.468-0.387   c0.031-0.13,0.113-0.24,0.228-0.31c1.278-0.77,3.533-2.224,3.533-2.224c0.176-0.113,0.401-0.105,0.567,0.017   c0.167,0.123,0.241,0.337,0.186,0.536c-0.046,0.169-1.152,4.155-1.891,5.392c-0.038,0.063-0.088,0.116-0.148,0.157   C10.165,17.372,10,17.677,10,18.001c0,0.552,0.448,1,1,1s1-0.448,1-1c0-0.215-0.07-0.421-0.203-0.596   c-0.108-0.142-0.133-0.329-0.064-0.494c0.11-0.266,0.242-0.629,0.391-1.035C13.005,13.464,13.604,12,14.5,12   c0.681,0,1.273,0.596,1.763,1.772c0.07,0.171,0.042,0.367-0.076,0.51c-0.248,0.303-0.234,0.731,0.033,0.999   c0.283,0.283,0.777,0.283,1.061,0c0.142-0.142,0.22-0.33,0.22-0.53s-0.078-0.389-0.22-0.53C16.349,13.288,15,11.249,15,10   c0-1.114,0.585-2.502,1.606-3.808l0.166-0.215c0.7-0.91,1.57-2.047,3.15-1.846c0.064,0.008,0.127,0.028,0.184,0.06l1.696,0.952   c0.001,0.001,0.001,0.001,0.001,0.001C22.542,5.558,23,6.333,23,7.165v9.671c0,0.832-0.458,1.607-1.196,2.021l-8.617,4.836   C12.82,23.897,12.41,24,12,24z"/>
</g>
<g>
</g>
<g>
</g>
<g>
</g>
<g>
</g>
<g>
</g>
<g>
</g>
<g>
</g>
<g>
</g>
<g>
</g>
<g>
</g>
<g>
</g>
<g>
</g>
<g>
</g>
<g>
</g>
<g>
</g>

	<metadata>
		<rdf:RDF xmlns:rdf="http://www.w3.org/1999/02/22-rdf-syntax-ns#" xmlns:rdfs="http://www.w3.org/2000/01/rdf-schema#" xmlns:dc="http://purl.org/dc/elements/1.1/">
			<rdf:Description about="https://iconscout.com/legal#licenses" dc:title="social; media; social media; logo; treehouse" dc:description="social; media; social media; logo; treehouse" dc:publisher="Iconscout" dc:date="2017-03-22" dc:format="image/svg+xml" dc:language="en">
				<dc:creator>
					<rdf:Bag>
						<rdf:li>Alpár - Etele Méder</rdf:li>
					</rdf:Bag>
				</dc:creator>
			</rdf:Description>
		</rdf:RDF>
    </metadata></svg>
