<?xml version="1.0" encoding="UTF-8"?>
<svg xmlns="http://www.w3.org/2000/svg" xmlns:xlink="http://www.w3.org/1999/xlink" version="1.1" id="Layer_1" x="0px" y="0px" viewBox="0 0 24 24" style="enable-background:new 0 0 24 24;" xml:space="preserve">
<g>
	<path style="fill:#303C42;" d="M19.98,22.359c-0.021-0.075-0.543-1.848-1.015-3.043c-0.056-0.143-0.175-0.251-0.321-0.295   c-0.147-0.044-0.308-0.019-0.432,0.07c-0.629,0.444-1.931,0.396-2.901-0.107C14.713,18.674,14,18.078,14,17v-7h3.5   c0.276,0,0.5-0.224,0.5-0.5v-4C18,5.224,17.777,5,17.5,5H14V0.5C14,0.224,13.777,0,13.5,0h-4C9.224,0,9,0.224,9,0.5   C9,4.111,6.736,6,4.5,6C4.224,6,4,6.224,4,6.5v3C4,9.776,4.224,10,4.5,10H8v8c0,4.123,3.369,6,6.5,6c2.823,0,5.107-1,5.203-1.043   C19.932,22.855,20.05,22.6,19.98,22.359z"/>
	<path style="fill:#546E7A;" d="M14.5,23C11.851,23,9,21.436,9,18V9.5C9,9.224,8.777,9,8.5,9H5V6.975   C7.452,6.73,9.793,4.691,9.987,1H13v4.5C13,5.776,13.224,6,13.5,6H17v3h-3.5C13.224,9,13,9.224,13,9.5V17   c0,1.215,0.675,2.262,1.851,2.872c1.079,0.559,2.415,0.669,3.377,0.323c0.258,0.715,0.513,1.523,0.661,2.008   C18.14,22.476,16.445,23,14.5,23z"/>
	<path style="opacity:0.2;fill:#039BE5;" d="M14.5,23C11.851,23,9,21.436,9,18V9.5C9,9.224,8.777,9,8.5,9H5V6.975   C7.452,6.73,9.793,4.691,9.987,1H13v4.5C13,5.776,13.224,6,13.5,6H17v3h-3.5C13.224,9,13,9.224,13,9.5V17   c0,1.215,0.675,2.262,1.851,2.872c1.079,0.559,2.415,0.669,3.377,0.323c0.258,0.715,0.513,1.523,0.661,2.008   C18.14,22.476,16.445,23,14.5,23z"/>
	<path style="opacity:0.1;" d="M14.5,22C11.851,22,9,20.436,9,17v1c0,3.436,2.851,5,5.5,5c1.945,0,3.64-0.524,4.389-0.797   c-0.073-0.238-0.172-0.556-0.284-0.901C17.761,21.585,16.232,22,14.5,22z"/>
	<path style="opacity:0.2;fill:#FFFFFF;" d="M5.556,7.531c2.452-0.245,4.793-2.284,4.987-5.975H13V1H9.987   C9.793,4.691,7.452,6.73,5,6.975V9h0.556V7.531z"/>
	<linearGradient id="SVGID_1_" gradientUnits="userSpaceOnUse" x1="3.4944" y1="7.4732" x2="22.8499" y2="16.4988">
		<stop offset="0" style="stop-color:#FFFFFF;stop-opacity:0.2"/>
		<stop offset="1" style="stop-color:#FFFFFF;stop-opacity:0"/>
	</linearGradient>
	<path style="fill:url(#SVGID_1_);" d="M19.98,22.359c-0.021-0.075-0.543-1.848-1.015-3.043c-0.056-0.143-0.175-0.251-0.321-0.295   c-0.147-0.044-0.308-0.019-0.432,0.07c-0.629,0.444-1.931,0.396-2.901-0.107C14.713,18.674,14,18.078,14,17v-7h3.5   c0.276,0,0.5-0.224,0.5-0.5v-4C18,5.224,17.777,5,17.5,5H14V0.5C14,0.224,13.777,0,13.5,0h-4C9.224,0,9,0.224,9,0.5   C9,4.111,6.736,6,4.5,6C4.224,6,4,6.224,4,6.5v3C4,9.776,4.224,10,4.5,10H8v8c0,4.123,3.369,6,6.5,6c2.823,0,5.107-1,5.203-1.043   C19.932,22.855,20.05,22.6,19.98,22.359z"/>
</g>
<g>
</g>
<g>
</g>
<g>
</g>
<g>
</g>
<g>
</g>
<g>
</g>
<g>
</g>
<g>
</g>
<g>
</g>
<g>
</g>
<g>
</g>
<g>
</g>
<g>
</g>
<g>
</g>
<g>
</g>

	<metadata>
		<rdf:RDF xmlns:rdf="http://www.w3.org/1999/02/22-rdf-syntax-ns#" xmlns:rdfs="http://www.w3.org/2000/01/rdf-schema#" xmlns:dc="http://purl.org/dc/elements/1.1/">
			<rdf:Description about="https://iconscout.com/legal#licenses" dc:title="social; media; social media; logo; tumblr" dc:description="social; media; social media; logo; tumblr" dc:publisher="Iconscout" dc:date="2017-03-22" dc:format="image/svg+xml" dc:language="en">
				<dc:creator>
					<rdf:Bag>
						<rdf:li>Alpár - Etele Méder</rdf:li>
					</rdf:Bag>
				</dc:creator>
			</rdf:Description>
		</rdf:RDF>
    </metadata></svg>
