<?xml version="1.0" encoding="UTF-8"?>
<svg xmlns="http://www.w3.org/2000/svg" xmlns:xlink="http://www.w3.org/1999/xlink" version="1.1" id="Layer_1" x="0px" y="0px" viewBox="0 0 24 24" style="enable-background:new 0 0 24 24;" xml:space="preserve">
<g>
	<path style="fill:#303C42;" d="M21,1H3C1.897,1,1,1.897,1,3v18c0,1.103,0.897,2,2,2h18c1.103,0,2-0.897,2-2V3   C23,1.897,22.103,1,21,1z"/>
	<path style="fill:#455A64;" d="M22,21c0,0.551-0.449,1-1,1H3c-0.551,0-1-0.449-1-1V3c0-0.551,0.449-1,1-1h18c0.551,0,1,0.449,1,1   V21z"/>
	<circle style="fill:#303C42;" cx="12" cy="12" r="8"/>
	<path style="fill:#FFFFFF;" d="M12,19c-3.691,0-6.716-2.874-6.975-6.5H9v2C9,14.776,9.224,15,9.5,15h5c0.276,0,0.5-0.224,0.5-0.5   v-5C15,9.224,14.776,9,14.5,9h-5C9.224,9,9,9.224,9,9.5v2H5.025C5.284,7.874,8.309,5,12,5c3.86,0,7,3.14,7,7S15.86,19,12,19z"/>
	<rect x="10" y="10" style="fill:#455A64;" width="4" height="4"/>
	<path style="opacity:0.2;fill:#FFFFFF;" d="M2.5,21.5v-18c0-0.551,0.449-1,1-1h18c0.146,0,0.283,0.035,0.408,0.092   C21.751,2.245,21.405,2,21,2H3C2.449,2,2,2.449,2,3v18c0,0.405,0.245,0.751,0.592,0.908C2.535,21.783,2.5,21.646,2.5,21.5z"/>
	<polygon style="opacity:0.1;" points="10.5,10.5 14,10.5 14,10 10,10 10,14 10.5,14  "/>
	<linearGradient id="SVGID_1_" gradientUnits="userSpaceOnUse" x1="12.0895" y1="12.0873" x2="21.7078" y2="21.7056">
		<stop offset="0" style="stop-color:#000000;stop-opacity:0.1"/>
		<stop offset="1" style="stop-color:#000000;stop-opacity:0"/>
	</linearGradient>
	<path style="fill:url(#SVGID_1_);" d="M17.738,6.438C19.135,7.879,20,9.839,20,12c0,4.411-3.589,8-8,8   c-2.137,0-4.076-0.847-5.513-2.217L10.704,22H21c0.551,0,1-0.449,1-1V10.7L17.738,6.438z"/>
	<linearGradient id="SVGID_2_" gradientUnits="userSpaceOnUse" x1="-0.6523" y1="6.1001" x2="24.6523" y2="17.8999">
		<stop offset="0" style="stop-color:#FFFFFF;stop-opacity:0.2"/>
		<stop offset="1" style="stop-color:#FFFFFF;stop-opacity:0"/>
	</linearGradient>
	<path style="fill:url(#SVGID_2_);" d="M21,1H3C1.897,1,1,1.897,1,3v18c0,1.103,0.897,2,2,2h18c1.103,0,2-0.897,2-2V3   C23,1.897,22.103,1,21,1z"/>
</g>
<g>
</g>
<g>
</g>
<g>
</g>
<g>
</g>
<g>
</g>
<g>
</g>
<g>
</g>
<g>
</g>
<g>
</g>
<g>
</g>
<g>
</g>
<g>
</g>
<g>
</g>
<g>
</g>
<g>
</g>

	<metadata>
		<rdf:RDF xmlns:rdf="http://www.w3.org/1999/02/22-rdf-syntax-ns#" xmlns:rdfs="http://www.w3.org/2000/01/rdf-schema#" xmlns:dc="http://purl.org/dc/elements/1.1/">
			<rdf:Description about="https://iconscout.com/legal#licenses" dc:title="social; media; social media; logo; uber" dc:description="social; media; social media; logo; uber" dc:publisher="Iconscout" dc:date="2017-03-22" dc:format="image/svg+xml" dc:language="en">
				<dc:creator>
					<rdf:Bag>
						<rdf:li>Alpár - Etele Méder</rdf:li>
					</rdf:Bag>
				</dc:creator>
			</rdf:Description>
		</rdf:RDF>
    </metadata></svg>
