<?xml version="1.0" encoding="UTF-8"?>
<svg xmlns="http://www.w3.org/2000/svg" xmlns:xlink="http://www.w3.org/1999/xlink" version="1.1" id="Layer_1" x="0px" y="0px" viewBox="0 0 24 24" style="enable-background:new 0 0 24 24;" xml:space="preserve">
<g>
	<path style="fill:#303C42;" d="M12,1C6.678,1,1,1.734,1,10.5c0,4.641,1.637,7.497,5,8.717v2.251C6,22.313,6.687,23,7.532,23   c0.44,0,0.86-0.19,1.152-0.523l2.184-2.494C11.242,19.993,11.619,20,12,20c5.322,0,11-0.734,11-9.5S17.322,1,12,1z"/>
	<path style="fill:#9575CD;" d="M12,19c-0.449,0-0.894-0.01-1.335-0.025c-0.15-0.006-0.295,0.059-0.394,0.171l-2.339,2.672   C7.638,22.156,7.001,21.915,7,21.468v-2.609c0-0.218-0.141-0.41-0.349-0.477C3.479,17.371,2,14.866,2,10.5C2,2.656,6.94,2,12,2   s10,0.656,10,8.5S17.06,19,12,19z"/>
	<path style="opacity:0.2;fill:#FFFFFF;" d="M2.5,11c0-7.844,4.94-8.5,10-8.5c2.932,0,5.817,0.231,7.73,1.942   C18.345,2.268,15.198,2,12,2C6.94,2,2,2.656,2,10.5c0,3.015,0.724,5.124,2.205,6.485C3.058,15.623,2.5,13.662,2.5,11z"/>
	<path style="fill:#303C42;" d="M16.721,13.052c-0.001-0.001-1.225-0.603-1.992-0.996c-0.864-0.445-1.887,0.39-2.368,0.865   c-0.436-0.17-1.3-0.567-2.007-1.274S9.249,10.075,9.079,9.64c0.476-0.481,1.311-1.501,0.865-2.368   C9.551,6.504,8.949,5.28,8.948,5.279C8.864,5.108,8.69,5,8.5,5h-1C6.375,5,5,6.385,5,8c0,1.57,1.88,4.587,3.146,5.854   S12.43,17,14,17c1.615,0,3-1.375,3-2.5v-1C17,13.31,16.892,13.136,16.721,13.052z"/>
	<path style="fill:#FFFFFF;" d="M16,14.5c0,0.565-0.935,1.5-2,1.5c-1.159,0-3.927-1.634-5.146-2.854S6,9.159,6,8   c0-1.065,0.935-2,1.5-2h0.689c0.202,0.409,0.586,1.184,0.866,1.729c0.121,0.237-0.377,0.945-0.887,1.396   C8.024,9.253,7.966,9.453,8.02,9.639c0.019,0.063,0.456,1.544,1.627,2.715s2.652,1.608,2.715,1.627   c0.184,0.051,0.385-0.005,0.514-0.149c0.451-0.511,1.159-1.001,1.396-0.887c0.545,0.28,1.319,0.664,1.729,0.866V14.5z"/>
	<path style="fill:#303C42;" d="M12,9c0.552,0,1,0.448,1,1c0,0.276,0.224,0.5,0.5,0.5S14,10.276,14,10c0-1.103-0.897-2-2-2   c-0.276,0-0.5,0.224-0.5,0.5S11.724,9,12,9z"/>
	<path style="fill:#303C42;" d="M12,4c-0.276,0-0.5,0.224-0.5,0.5S11.724,5,12,5c2.757,0,5,2.243,5,5c0,0.276,0.224,0.5,0.5,0.5   S18,10.276,18,10C18,6.691,15.309,4,12,4z"/>
	<path style="fill:#303C42;" d="M12,7c1.654,0,3,1.346,3,3c0,0.276,0.224,0.5,0.5,0.5S16,10.276,16,10c0-2.206-1.794-4-4-4   c-0.276,0-0.5,0.224-0.5,0.5S11.724,7,12,7z"/>
	<linearGradient id="SVGID_1_" gradientUnits="userSpaceOnUse" x1="8.3123" y1="5.9288" x2="19.5909" y2="17.2073">
		<stop offset="0" style="stop-color:#000000;stop-opacity:0.1"/>
		<stop offset="1" style="stop-color:#000000;stop-opacity:0"/>
	</linearGradient>
	<path style="fill:url(#SVGID_1_);" d="M16.416,5.952C17.396,7.02,18,8.439,18,10c0,0.276-0.224,0.5-0.5,0.5S17,10.276,17,10   c0-2.757-2.243-5-5-5c-0.094,0-0.177-0.033-0.252-0.078l-0.011,0.003l1.183,1.193C14.682,6.535,16,8.112,16,10   c0,0.276-0.224,0.5-0.5,0.5S15,10.276,15,10c0-1.654-1.346-3-3-3c-0.111,0-0.209-0.043-0.292-0.105l1.625,1.625   C13.74,8.887,14,9.411,14,10c0,0.276-0.224,0.5-0.5,0.5S13,10.276,13,10c0-0.552-0.448-1-1-1c-0.276,0-0.5-0.224-0.5-0.5   c0-0.181,0.101-0.332,0.245-0.42L8.953,5.288c0.025,0.05,0.606,1.232,0.992,1.983c0.445,0.867-0.39,1.887-0.865,2.368   c0.17,0.436,0.567,1.3,1.274,2.007s1.571,1.104,2.007,1.274c0.481-0.476,1.504-1.311,2.368-0.865   c0.768,0.394,1.991,0.995,1.992,0.996C16.892,13.136,17,13.31,17,13.5v1c0,1.125-1.385,2.5-3,2.5c-1.494,0-4.281-1.697-5.64-2.953   l0.002,0.012l4.92,4.92c4.355-0.138,8.301-1.206,8.678-7.483L16.416,5.952z"/>
	<linearGradient id="SVGID_2_" gradientUnits="userSpaceOnUse" x1="1.172" y1="7.0293" x2="21.6188" y2="16.5638">
		<stop offset="0" style="stop-color:#FFFFFF;stop-opacity:0.2"/>
		<stop offset="1" style="stop-color:#FFFFFF;stop-opacity:0"/>
	</linearGradient>
	<path style="fill:url(#SVGID_2_);" d="M12,1C6.678,1,1,1.734,1,10.5c0,4.641,1.637,7.497,5,8.717v2.251C6,22.313,6.687,23,7.532,23   c0.44,0,0.86-0.19,1.152-0.523l2.184-2.494C11.242,19.993,11.619,20,12,20c5.322,0,11-0.734,11-9.5S17.322,1,12,1z"/>
</g>
<g>
</g>
<g>
</g>
<g>
</g>
<g>
</g>
<g>
</g>
<g>
</g>
<g>
</g>
<g>
</g>
<g>
</g>
<g>
</g>
<g>
</g>
<g>
</g>
<g>
</g>
<g>
</g>
<g>
</g>

	<metadata>
		<rdf:RDF xmlns:rdf="http://www.w3.org/1999/02/22-rdf-syntax-ns#" xmlns:rdfs="http://www.w3.org/2000/01/rdf-schema#" xmlns:dc="http://purl.org/dc/elements/1.1/">
			<rdf:Description about="https://iconscout.com/legal#licenses" dc:title="social; media; social media; logo; viber" dc:description="social; media; social media; logo; viber" dc:publisher="Iconscout" dc:date="2017-03-22" dc:format="image/svg+xml" dc:language="en">
				<dc:creator>
					<rdf:Bag>
						<rdf:li>Alpár - Etele Méder</rdf:li>
					</rdf:Bag>
				</dc:creator>
			</rdf:Description>
		</rdf:RDF>
    </metadata></svg>
