<?xml version="1.0" encoding="UTF-8"?>
<svg xmlns="http://www.w3.org/2000/svg" xmlns:xlink="http://www.w3.org/1999/xlink" version="1.1" id="Layer_1" x="0px" y="0px" viewBox="0 0 24 24" style="enable-background:new 0 0 24 24;" xml:space="preserve">
<g>
	<path style="fill:#303C42;" d="M24,8.5C24,4.916,21.084,2,17.5,2c-1.948,0-3.771,0.867-5,2.349C11.271,2.867,9.448,2,7.5,2   C3.916,2,1,4.916,1,8.5c0,3.416,2.648,6.225,6,6.481v0.76l-6.303-2.701c-0.157-0.067-0.333-0.051-0.473,0.042   C0.084,13.175,0,13.332,0,13.5v7c0,0.157,0.073,0.305,0.199,0.399c0.126,0.094,0.285,0.125,0.438,0.082L7,19.163V21.5   C7,21.776,7.224,22,7.5,22h10c0.168,0,0.325-0.084,0.417-0.225c0.093-0.141,0.108-0.318,0.043-0.472L15.258,15H17.5   C21.084,15,24,12.084,24,8.5z M7.5,9C7.225,9,7,8.776,7,8.5S7.225,8,7.5,8S8,8.224,8,8.5S7.775,9,7.5,9z M17,8.5   C17,8.224,17.225,8,17.5,8S18,8.224,18,8.5S17.775,9,17.5,9S17,8.776,17,8.5z"/>
	<path style="fill:#5C6671;" d="M17.5,3c-1.847,0-3.56,0.92-4.583,2.462c-0.186,0.279-0.648,0.279-0.834,0C11.06,3.92,9.347,3,7.5,3   C4.468,3,2,5.467,2,8.5S4.468,14,7.5,14C7.776,14,8,14.224,8,14.5v2c0,0.168-0.084,0.325-0.225,0.417   c-0.14,0.092-0.317,0.108-0.473,0.042L1,14.258v5.579l6.362-1.818c0.153-0.042,0.313-0.013,0.438,0.082   C7.927,18.195,8,18.343,8,18.5V21h8.742l-2.702-6.303c-0.065-0.154-0.05-0.332,0.043-0.472C14.175,14.084,14.332,14,14.5,14h3   c3.032,0,5.5-2.467,5.5-5.5S20.532,3,17.5,3z M7.5,9C7.225,9,7,8.776,7,8.5S7.225,8,7.5,8S8,8.224,8,8.5S7.775,9,7.5,9z M17.5,9   C17.225,9,17,8.776,17,8.5S17.225,8,17.5,8S18,8.224,18,8.5S17.775,9,17.5,9z"/>
	<path style="opacity:0.1;" d="M8.542,20.417v-2.5c0-0.157-0.073-0.305-0.199-0.399c-0.126-0.094-0.285-0.124-0.438-0.082L1,19.157   v0.68l6.362-1.818c0.153-0.042,0.313-0.013,0.438,0.082C7.927,18.195,8,18.343,8,18.5V21h8.742l-0.25-0.583H8.542z"/>
	<path style="opacity:0.2;fill:#FFFFFF;" d="M12.708,6.087c0.186,0.279,0.648,0.279,0.834,0c1.023-1.542,2.736-2.462,4.583-2.462   c1.358,0,2.6,0.497,3.56,1.316C20.676,3.755,19.175,3,17.5,3c-1.847,0-3.56,0.92-4.583,2.462c-0.118,0.178-0.345,0.229-0.545,0.181   C12.489,5.786,12.604,5.931,12.708,6.087z"/>
	<path style="opacity:0.2;fill:#FFFFFF;" d="M3.94,12.684c-0.818-0.96-1.315-2.202-1.315-3.559c0-3.033,2.468-5.5,5.5-5.5   c1.332,0,2.59,0.485,3.574,1.33C10.66,3.722,9.133,3,7.5,3C4.468,3,2,5.467,2,8.5C2,10.175,2.755,11.675,3.94,12.684z"/>
	<path style="fill:#303C42;" d="M17.5,7C16.673,7,16,7.673,16,8.5s0.673,1.5,1.5,1.5S19,9.327,19,8.5S18.327,7,17.5,7z M17.5,9   C17.225,9,17,8.776,17,8.5S17.225,8,17.5,8S18,8.224,18,8.5S17.775,9,17.5,9z"/>
	<path style="fill:#303C42;" d="M7.5,7C6.673,7,6,7.673,6,8.5S6.673,10,7.5,10S9,9.327,9,8.5S8.327,7,7.5,7z M7.5,9   C7.225,9,7,8.776,7,8.5S7.225,8,7.5,8S8,8.224,8,8.5S7.775,9,7.5,9z"/>
	<linearGradient id="SVGID_1_" gradientUnits="userSpaceOnUse" x1="0.8469" y1="7.3881" x2="20.8422" y2="16.7121">
		<stop offset="0" style="stop-color:#FFFFFF;stop-opacity:0.2"/>
		<stop offset="1" style="stop-color:#FFFFFF;stop-opacity:0"/>
	</linearGradient>
	<path style="fill:url(#SVGID_1_);" d="M24,8.5C24,4.916,21.084,2,17.5,2c-1.948,0-3.771,0.867-5,2.349C11.271,2.867,9.448,2,7.5,2   C3.916,2,1,4.916,1,8.5c0,3.416,2.648,6.225,6,6.481v0.76l-6.303-2.701c-0.157-0.067-0.333-0.051-0.473,0.042   C0.084,13.175,0,13.332,0,13.5v7c0,0.157,0.073,0.305,0.199,0.399c0.126,0.094,0.285,0.125,0.438,0.082L7,19.163V21.5   C7,21.776,7.224,22,7.5,22h10c0.168,0,0.325-0.084,0.417-0.225c0.093-0.141,0.108-0.318,0.043-0.472L15.258,15H17.5   C21.084,15,24,12.084,24,8.5z M7.5,9C7.225,9,7,8.776,7,8.5S7.225,8,7.5,8S8,8.224,8,8.5S7.775,9,7.5,9z M17,8.5   C17,8.224,17.225,8,17.5,8S18,8.224,18,8.5S17.775,9,17.5,9S17,8.776,17,8.5z"/>
</g>
<g>
</g>
<g>
</g>
<g>
</g>
<g>
</g>
<g>
</g>
<g>
</g>
<g>
</g>
<g>
</g>
<g>
</g>
<g>
</g>
<g>
</g>
<g>
</g>
<g>
</g>
<g>
</g>
<g>
</g>

	<metadata>
		<rdf:RDF xmlns:rdf="http://www.w3.org/1999/02/22-rdf-syntax-ns#" xmlns:rdfs="http://www.w3.org/2000/01/rdf-schema#" xmlns:dc="http://purl.org/dc/elements/1.1/">
			<rdf:Description about="https://iconscout.com/legal#licenses" dc:title="social; media; social media; logo; viddler" dc:description="social; media; social media; logo; viddler" dc:publisher="Iconscout" dc:date="2017-03-22" dc:format="image/svg+xml" dc:language="en">
				<dc:creator>
					<rdf:Bag>
						<rdf:li>Alpár - Etele Méder</rdf:li>
					</rdf:Bag>
				</dc:creator>
			</rdf:Description>
		</rdf:RDF>
    </metadata></svg>
