<?xml version="1.0" encoding="UTF-8"?>
<svg xmlns="http://www.w3.org/2000/svg" xmlns:xlink="http://www.w3.org/1999/xlink" version="1.1" id="Layer_1" x="0px" y="0px" viewBox="0 0 24 24" style="enable-background:new 0 0 24 24;" xml:space="preserve">
<g>
	<path style="fill:#303C42;" d="M19.5,1C15.916,1,13,3.916,13,7.5C13,7.776,13.224,8,13.5,8H15c0.905,0,0.966,0.427,0.996,0.632   C16.232,10.28,13.61,13.813,13,14c-0.691,0-1.287-3.423-1.642-5.468C10.685,4.659,10.049,1,8,1C6.611,1,3.705,2.891,0.086,8.219   C0.005,8.338-0.02,8.487,0.016,8.626c0.037,0.139,0.131,0.256,0.26,0.321l2,1c0.192,0.096,0.423,0.059,0.577-0.094l1.282-1.282   C4.644,12.186,6.54,23,11,23c5.1,0,13-10.962,13-16.5C24,3.467,21.981,1,19.5,1z"/>
	<path style="fill:#00E5FF;" d="M11,22C7.47,22,5.47,11.491,4.997,7.442c-0.022-0.19-0.151-0.351-0.333-0.414   C4.61,7.009,4.555,7,4.5,7C4.37,7,4.242,7.051,4.146,7.146L2.401,8.892L1.238,8.31C4.464,3.691,7.035,2,8,2   c1.208,0,1.881,3.875,2.373,6.704C10.984,12.222,11.467,15,13,15c1.198,0,4.009-3.979,4.009-6.162c0-0.556-0.166-1.001-0.493-1.322   C16.168,7.174,15.658,7,15,7h-0.978c0.253-2.799,2.613-5,5.478-5C21.43,2,23,4.019,23,6.5C23,11.568,15.587,22,11,22z"/>
	<path style="opacity:0.1;" d="M2.401,8.892l1.745-1.745C4.242,7.051,4.37,7,4.5,7c0.055,0,0.11,0.009,0.164,0.028   c0.181,0.063,0.311,0.224,0.333,0.414C5.47,11.491,7.47,22,11,22c4.587,0,12-10.432,12-15.5c0-0.099-0.018-0.192-0.023-0.29   C22.529,11.432,15.441,21.208,11,21.208c-3.53,0-5.53-10.509-6.003-14.558C4.975,6.46,4.845,6.299,4.664,6.236   C4.61,6.218,4.555,6.208,4.5,6.208c-0.13,0-0.258,0.051-0.354,0.146L2.004,8.693L2.401,8.892z"/>
	<path style="opacity:0.2;fill:#FFFFFF;" d="M19.5,3c1.819,0,3.301,1.8,3.467,4.084C22.987,6.883,23,6.687,23,6.5   C23,4.019,21.43,2,19.5,2c-2.864,0-5.224,2.201-5.478,5h0.187C14.864,4.694,16.987,3,19.5,3z"/>
	<path style="opacity:0.2;fill:#FFFFFF;" d="M8,3c1.208,0,1.881,3.875,2.373,6.704C10.984,13.222,11.467,16,13,16   c1.198,0,4.009-3.979,4.009-6.162c0-0.169-0.021-0.325-0.051-0.473C16.588,11.603,14.107,15,13,15   c-1.533,0-2.016-2.778-2.627-6.296C9.881,5.875,9.208,2,8,2C7.035,2,4.464,3.691,1.238,8.31l0.528,0.264C4.743,4.513,7.088,3,8,3z"/>
	<linearGradient id="SVGID_1_" gradientUnits="userSpaceOnUse" x1="1.3606" y1="5.4715" x2="21.1544" y2="14.7016">
		<stop offset="0" style="stop-color:#FFFFFF;stop-opacity:0.2"/>
		<stop offset="1" style="stop-color:#FFFFFF;stop-opacity:0"/>
	</linearGradient>
	<path style="fill:url(#SVGID_1_);" d="M19.5,1C15.916,1,13,3.916,13,7.5C13,7.776,13.224,8,13.5,8H15   c0.905,0,0.966,0.427,0.996,0.632C16.232,10.28,13.61,13.813,13,14c-0.691,0-1.287-3.423-1.642-5.468C10.685,4.659,10.049,1,8,1   C6.611,1,3.705,2.891,0.086,8.219C0.005,8.338-0.02,8.487,0.016,8.626c0.037,0.139,0.131,0.256,0.26,0.321l2,1   c0.192,0.096,0.423,0.059,0.577-0.094l1.282-1.282C4.644,12.186,6.54,23,11,23c5.1,0,13-10.962,13-16.5C24,3.467,21.981,1,19.5,1z"/>
</g>
<g>
</g>
<g>
</g>
<g>
</g>
<g>
</g>
<g>
</g>
<g>
</g>
<g>
</g>
<g>
</g>
<g>
</g>
<g>
</g>
<g>
</g>
<g>
</g>
<g>
</g>
<g>
</g>
<g>
</g>

	<metadata>
		<rdf:RDF xmlns:rdf="http://www.w3.org/1999/02/22-rdf-syntax-ns#" xmlns:rdfs="http://www.w3.org/2000/01/rdf-schema#" xmlns:dc="http://purl.org/dc/elements/1.1/">
			<rdf:Description about="https://iconscout.com/legal#licenses" dc:title="social; media; social media; logo; vimeo" dc:description="social; media; social media; logo; vimeo" dc:publisher="Iconscout" dc:date="2017-03-22" dc:format="image/svg+xml" dc:language="en">
				<dc:creator>
					<rdf:Bag>
						<rdf:li>Alpár - Etele Méder</rdf:li>
					</rdf:Bag>
				</dc:creator>
			</rdf:Description>
		</rdf:RDF>
    </metadata></svg>
