<?xml version="1.0" encoding="UTF-8"?>
<svg xmlns="http://www.w3.org/2000/svg" xmlns:xlink="http://www.w3.org/1999/xlink" version="1.1" id="Layer_1" x="0px" y="0px" viewBox="0 0 24 24" style="enable-background:new 0 0 24 24;" xml:space="preserve">
<g>
	<path style="fill:#303C42;" d="M22.388,10.623C21.313,10.87,20.487,11,20,11c-2.481,0-4.5-2.019-4.5-4.5c0-1.378,0.897-2.5,2-2.5   C18.327,4,19,4.897,19,6c0,0.168-0.039,0.834-0.544,2.346c-0.06,0.18-0.013,0.377,0.121,0.512c0.739,0.74,2.739,1.04,3.133,1.092   c0.248,0.034,0.465-0.11,0.541-0.337C22.748,8.124,23,6.908,23,6c0-3.309-2.468-6-5.5-6c-3.309,0-6,2.916-6,6.5   c0,3.113,1.735,5.99,4.463,7.469c-2.094,3.896-3.909,5.778-4.438,6.015C10.083,19.395,5,10.15,5,4.5C5,4.224,4.776,4,4.5,4h-3   C1.224,4,1,4.224,1,4.5C1,10.312,6.492,24,11.5,24c3.179,0,6.319-4.825,8.441-9.001c0.675,0.021,1.559-0.103,2.658-0.328   c0.233-0.047,0.4-0.252,0.4-0.49V11.11c0-0.152-0.069-0.296-0.188-0.391C22.692,10.624,22.537,10.589,22.388,10.623z"/>
	<path style="fill:#00BFA5;" d="M22,13.77c-0.924,0.173-1.635,0.26-2.193,0.221l-0.142-0.008c-0.192-0.018-0.381,0.099-0.47,0.276   C16.414,19.813,13.609,23,11.5,23C7.534,23,2.301,11.003,2.013,5h2.001c0.286,5.618,5.188,15.604,7.425,15.994   c0.049,0.009,0.1,0.01,0.147,0.003c1.121-0.139,3.485-3.155,5.501-7.014c0.063-0.121,0.074-0.263,0.03-0.392   s-0.139-0.235-0.263-0.293C14.209,12.069,12.5,9.401,12.5,6.5c0-3.033,2.243-5.5,5-5.5C19.981,1,22,3.243,22,6   c0,0.721-0.19,1.693-0.567,2.894c-0.668-0.121-1.474-0.332-1.915-0.577C19.935,6.993,20,6.303,20,6c0-1.654-1.121-3-2.5-3   c-1.654,0-3,1.57-3,3.5c0,3.033,2.468,5.5,5.5,5.5c0.465,0,1.136-0.09,2-0.269V13.77z"/>
	<path style="opacity:0.2;fill:#FFFFFF;" d="M17.5,1.75c2.389,0,4.33,2.085,4.473,4.7C21.987,6.294,22,6.138,22,6   c0-2.757-2.019-5-4.5-5c-2.757,0-5,2.467-5,5.5c0,0.098,0.017,0.193,0.021,0.29C12.735,3.972,14.884,1.75,17.5,1.75z"/>
	<path style="opacity:0.2;fill:#FFFFFF;" d="M19.711,8.404C19.953,7.508,20,6.997,20,6.75c0-0.118-0.018-0.23-0.029-0.345   c-0.047,0.391-0.165,0.997-0.453,1.912C19.572,8.347,19.646,8.375,19.711,8.404z"/>
	<path style="opacity:0.2;fill:#FFFFFF;" d="M4.031,5.268c0.286,5.618,5.171,16.086,7.408,16.477c0.049,0.009,0.1,0.01,0.147,0.003   c1.121-0.139,3.485-3.155,5.501-7.014c0.063-0.121,0.074-0.263,0.03-0.392c-0.025-0.073-0.068-0.135-0.121-0.188   c-1.995,3.777-4.306,6.707-5.41,6.844c-0.048,0.006-0.099,0.005-0.147-0.003C9.201,20.604,4.3,10.618,4.014,5"/>
	<path style="opacity:0.2;fill:#FFFFFF;" d="M14.524,6.973C14.518,7.066,14.5,7.155,14.5,7.25c0,3.033,2.468,5.5,5.5,5.5   c0.465,0,1.136-0.09,2-0.269v-0.75C21.136,11.91,20.465,12,20,12C17.128,12,14.765,9.785,14.524,6.973z"/>
	<linearGradient id="SVGID_1_" gradientUnits="userSpaceOnUse" x1="0.5357" y1="5.3845" x2="22.3996" y2="15.5798">
		<stop offset="0" style="stop-color:#FFFFFF;stop-opacity:0.2"/>
		<stop offset="1" style="stop-color:#FFFFFF;stop-opacity:0"/>
	</linearGradient>
	<path style="fill:url(#SVGID_1_);" d="M22.388,10.623C21.313,10.87,20.487,11,20,11c-2.481,0-4.5-2.019-4.5-4.5   c0-1.378,0.897-2.5,2-2.5C18.327,4,19,4.897,19,6c0,0.168-0.039,0.834-0.544,2.346c-0.06,0.18-0.013,0.377,0.121,0.512   c0.739,0.74,2.739,1.04,3.133,1.092c0.248,0.034,0.465-0.11,0.541-0.337C22.748,8.124,23,6.908,23,6c0-3.309-2.468-6-5.5-6   c-3.309,0-6,2.916-6,6.5c0,3.113,1.735,5.99,4.463,7.469c-2.094,3.896-3.909,5.778-4.438,6.015C10.083,19.395,5,10.15,5,4.5   C5,4.224,4.776,4,4.5,4h-3C1.224,4,1,4.224,1,4.5C1,10.312,6.492,24,11.5,24c3.179,0,6.319-4.825,8.441-9.001   c0.675,0.021,1.559-0.103,2.658-0.328c0.233-0.047,0.4-0.252,0.4-0.49V11.11c0-0.152-0.069-0.296-0.188-0.391   C22.692,10.624,22.537,10.589,22.388,10.623z"/>
</g>
<g>
</g>
<g>
</g>
<g>
</g>
<g>
</g>
<g>
</g>
<g>
</g>
<g>
</g>
<g>
</g>
<g>
</g>
<g>
</g>
<g>
</g>
<g>
</g>
<g>
</g>
<g>
</g>
<g>
</g>

	<metadata>
		<rdf:RDF xmlns:rdf="http://www.w3.org/1999/02/22-rdf-syntax-ns#" xmlns:rdfs="http://www.w3.org/2000/01/rdf-schema#" xmlns:dc="http://purl.org/dc/elements/1.1/">
			<rdf:Description about="https://iconscout.com/legal#licenses" dc:title="social; media; social media; logo; vine" dc:description="social; media; social media; logo; vine" dc:publisher="Iconscout" dc:date="2017-03-22" dc:format="image/svg+xml" dc:language="en">
				<dc:creator>
					<rdf:Bag>
						<rdf:li>Alpár - Etele Méder</rdf:li>
					</rdf:Bag>
				</dc:creator>
			</rdf:Description>
		</rdf:RDF>
    </metadata></svg>
