<?xml version="1.0" encoding="UTF-8"?>
<svg xmlns="http://www.w3.org/2000/svg" xmlns:xlink="http://www.w3.org/1999/xlink" version="1.1" id="Layer_1" x="0px" y="0px" viewBox="0 0 24 24" style="enable-background:new 0 0 24 24;" xml:space="preserve">
<g>
	<path style="fill:#303C42;" d="M20.041,12.979c0.235-0.453,1.089-1.735,1.729-2.699C23.646,7.462,24,6.861,24,6.5   C24,6.224,23.776,6,23.5,6H19c-0.242,0-0.449,0.173-0.492,0.411C18.26,7.787,15.013,11.752,14.5,12c-0.209,0-0.5-0.521-0.5-1.5v-4   l0.003-0.22c0.007-0.325,0.015-0.662-0.244-0.927C13.431,5.018,12.922,5,11.5,5C8.919,5,8,5.774,8,6.5   c0,0.276,0.177,0.492,0.454,0.492C8.459,6.995,9,7.356,9,9.5c0,0.58,0,2.041-0.135,2.488C7.602,11.771,5.845,8.597,4.966,6.32   C4.892,6.127,4.707,6,4.5,6h-4C0.352,6,0.211,6.065,0.116,6.18C0.021,6.294-0.019,6.444,0.008,6.59C0.561,9.611,6.913,19,11,19h2   c1.06,0,1.143-1.148,1.198-1.909C14.25,16.367,14.311,16,14.5,16c0.621,0,1.885,1.098,2.722,1.824C18.161,18.64,18.593,19,19,19   h2.5c1.286,0,2.5,0,2.5-1c0-0.381-0.333-0.824-2.225-2.968C21.14,14.313,20.295,13.356,20.041,12.979z"/>
	<path style="fill:#5481FF;" d="M21.5,18l-2.432,0.009c-0.18-0.062-0.764-0.569-1.19-0.939C16.76,16.1,15.494,15,14.5,15   c-1.153,0-1.241,1.215-1.299,2.019C13.178,17.328,13.136,17.903,13,18l0,0.001C12.988,18,12.977,18,12.965,18H11   c-3.04,0-8.731-7.638-9.851-11H4.16C4.778,8.526,6.78,13,9,13c1,0,1-1.393,1-3.5c0-1.845-0.37-2.723-0.755-3.138   C9.573,6.198,10.252,6,11.5,6c0.504,0,1.24,0,1.505,0.057c0.001,0.059,0,0.135-0.002,0.201L13,10.5c0,1.519,0.589,2.5,1.5,2.5   c1.012,0,4.171-4.163,4.87-6h3.334c-0.425,0.711-1.2,1.876-1.766,2.727C19.253,12.26,19,12.688,19,13   c0,0.349,0.265,0.701,2.025,2.694c0.642,0.727,1.567,1.774,1.888,2.239C22.61,18,21.982,18,21.5,18z"/>
	<path style="opacity:0.2;fill:#FFFFFF;" d="M9.31,12.94C9.455,12.977,9.602,13,9.75,13c1,0,1-1.393,1-3.5   c0-1.845-0.37-2.723-0.755-3.138c0.318-0.159,0.976-0.346,2.15-0.358C11.922,6.001,11.694,6,11.5,6   c-1.248,0-1.927,0.198-2.255,0.362C9.63,6.777,10,7.655,10,9.5C10,11.36,9.998,12.66,9.31,12.94z"/>
	<path style="opacity:0.2;fill:#FFFFFF;" d="M15.25,13c1.012,0,4.171-4.163,4.87-6h-0.75c-0.639,1.68-3.331,5.295-4.561,5.903   C14.946,12.96,15.091,13,15.25,13z"/>
	<path style="opacity:0.2;fill:#FFFFFF;" d="M1.899,7h-0.75C2.269,10.362,7.96,18,11,18h0.75C8.71,18,3.019,10.362,1.899,7z"/>
	<path style="opacity:0.1;" d="M18.628,17.069C17.51,16.1,16.244,15,15.25,15c-0.135,0-0.254,0.02-0.361,0.051   c0.923,0.225,2.013,1.172,2.989,2.019c0.426,0.37,1.01,0.878,1.19,0.939l0.745-0.003C19.63,17.94,19.052,17.437,18.628,17.069z"/>
	<path style="fill:#5481FF;" d="M12.999,18.001L12.999,18.001L12.965,18C12.977,18,12.988,18,12.999,18.001z"/>
	<linearGradient id="SVGID_1_" gradientUnits="userSpaceOnUse" x1="0.6838" y1="4.9229" x2="24.928" y2="16.2282">
		<stop offset="0" style="stop-color:#FFFFFF;stop-opacity:0.2"/>
		<stop offset="1" style="stop-color:#FFFFFF;stop-opacity:0"/>
	</linearGradient>
	<path style="fill:url(#SVGID_1_);" d="M20.041,12.979c0.235-0.453,1.089-1.735,1.729-2.699C23.646,7.462,24,6.861,24,6.5   C24,6.224,23.776,6,23.5,6H19c-0.242,0-0.449,0.173-0.492,0.411C18.26,7.787,15.013,11.752,14.5,12c-0.209,0-0.5-0.521-0.5-1.5v-4   l0.003-0.22c0.007-0.325,0.015-0.662-0.244-0.927C13.431,5.018,12.922,5,11.5,5C8.919,5,8,5.774,8,6.5   c0,0.276,0.177,0.492,0.454,0.492C8.459,6.995,9,7.356,9,9.5c0,0.58,0,2.041-0.135,2.488C7.602,11.771,5.845,8.597,4.966,6.32   C4.892,6.127,4.707,6,4.5,6h-4C0.352,6,0.211,6.065,0.116,6.18C0.021,6.294-0.019,6.444,0.008,6.59C0.561,9.611,6.913,19,11,19h2   c1.06,0,1.143-1.148,1.198-1.909C14.25,16.367,14.311,16,14.5,16c0.621,0,1.885,1.098,2.722,1.824C18.161,18.64,18.593,19,19,19   h2.5c1.286,0,2.5,0,2.5-1c0-0.381-0.333-0.824-2.225-2.968C21.14,14.313,20.295,13.356,20.041,12.979z"/>
</g>
<g>
</g>
<g>
</g>
<g>
</g>
<g>
</g>
<g>
</g>
<g>
</g>
<g>
</g>
<g>
</g>
<g>
</g>
<g>
</g>
<g>
</g>
<g>
</g>
<g>
</g>
<g>
</g>
<g>
</g>

	<metadata>
		<rdf:RDF xmlns:rdf="http://www.w3.org/1999/02/22-rdf-syntax-ns#" xmlns:rdfs="http://www.w3.org/2000/01/rdf-schema#" xmlns:dc="http://purl.org/dc/elements/1.1/">
			<rdf:Description about="https://iconscout.com/legal#licenses" dc:title="social; media; social media; logo; vk" dc:description="social; media; social media; logo; vk" dc:publisher="Iconscout" dc:date="2017-03-22" dc:format="image/svg+xml" dc:language="en">
				<dc:creator>
					<rdf:Bag>
						<rdf:li>Alpár - Etele Méder</rdf:li>
					</rdf:Bag>
				</dc:creator>
			</rdf:Description>
		</rdf:RDF>
    </metadata></svg>
