<?xml version="1.0" encoding="UTF-8"?>
<svg xmlns="http://www.w3.org/2000/svg" xmlns:xlink="http://www.w3.org/1999/xlink" version="1.1" id="Layer_1" x="0px" y="0px" viewBox="0 0 24 24" style="enable-background:new 0 0 24 24;" xml:space="preserve">
<g>
	<path style="fill:#303C42;" d="M24,15c0-3.044-2.85-5.56-6.526-5.944C17.204,5.128,13.4,2,8.75,2C3.925,2,0,5.364,0,9.5   c0,2.221,1.119,4.279,3.086,5.71l-1.033,2.066c-0.099,0.197-0.057,0.436,0.104,0.587C2.251,17.953,2.375,18,2.5,18   c0.085,0,0.17-0.021,0.248-0.065l2.646-1.513c1.283,0.458,2.676,0.626,4.025,0.537C10.437,19.307,13.223,21,16.5,21   c0.773,0,1.544-0.099,2.297-0.292l2.479,1.239C21.348,21.982,21.424,22,21.5,22c0.123,0,0.244-0.045,0.338-0.132   c0.153-0.141,0.203-0.361,0.126-0.554l-0.68-1.698C22.993,18.48,24,16.782,24,15z"/>
	<path style="fill:#7CB342;" d="M5.528,15.405c-0.14-0.054-0.296-0.04-0.428,0.032l-1.415,0.809l0.489-0.978   c0.113-0.228,0.039-0.503-0.174-0.643C2.094,13.38,1,11.512,1,9.5C1,5.916,4.477,3,8.75,3c4.083,0,7.43,2.663,7.722,6.001   C12.349,9.013,9,11.699,9,15c0,0.332,0.043,0.656,0.108,0.973C7.901,16.02,6.664,15.843,5.528,15.405z"/>
	<path style="fill:#FFFFFF;" d="M20.413,18.981c-0.214,0.125-0.304,0.388-0.212,0.617l0.347,0.866l-1.473-0.736   c-0.07-0.035-0.146-0.053-0.224-0.053c-0.045,0-0.091,0.006-0.135,0.019C17.992,19.897,17.247,20,16.5,20c-3.584,0-6.5-2.243-6.5-5   s2.916-5,6.5-5s6.5,2.243,6.5,5C23,16.57,22.057,18.021,20.413,18.981z"/>
	<path style="opacity:0.1;" d="M20.413,18.981C22.057,18.021,23,16.57,23,15c0-2.757-2.916-5-6.5-5c-0.084,0-0.166,0.007-0.25,0.01   c3.468,0.102,6.25,2.298,6.25,4.99c0,1.57-0.943,3.021-2.587,3.981c-0.214,0.125-0.304,0.388-0.212,0.617l0.222,0.554l0.625,0.312   l-0.347-0.866C20.109,19.369,20.199,19.106,20.413,18.981z"/>
	<path style="opacity:0.2;fill:#FFFFFF;" d="M1.5,10c0-3.584,3.477-6.5,7.75-6.5c2.253,0,4.278,0.814,5.694,2.101   C13.531,4.026,11.283,3,8.75,3C4.477,3,1,5.916,1,9.5c0,1.648,0.744,3.193,2.057,4.385C2.059,12.774,1.5,11.425,1.5,10z"/>
	<path style="fill:#303C42;" d="M6,6C5.449,6,5,6.448,5,7s0.449,1,1,1s1-0.448,1-1S6.551,6,6,6z"/>
	<path style="fill:#303C42;" d="M11,8c0.551,0,1-0.448,1-1s-0.449-1-1-1s-1,0.448-1,1S10.449,8,11,8z"/>
	<path style="fill:#303C42;" d="M14,12c-0.551,0-1,0.448-1,1s0.449,1,1,1s1-0.448,1-1S14.551,12,14,12z"/>
	<path style="fill:#303C42;" d="M19,12c-0.551,0-1,0.448-1,1s0.449,1,1,1s1-0.448,1-1S19.551,12,19,12z"/>
	<linearGradient id="SVGID_1_" gradientUnits="userSpaceOnUse" x1="0.4484" y1="7.0945" x2="23.7108" y2="17.942">
		<stop offset="0" style="stop-color:#FFFFFF;stop-opacity:0.2"/>
		<stop offset="1" style="stop-color:#FFFFFF;stop-opacity:0"/>
	</linearGradient>
	<path style="fill:url(#SVGID_1_);" d="M24,15c0-3.044-2.85-5.56-6.526-5.944C17.204,5.128,13.4,2,8.75,2C3.925,2,0,5.364,0,9.5   c0,2.221,1.119,4.279,3.086,5.71l-1.033,2.066c-0.099,0.197-0.057,0.436,0.104,0.587C2.251,17.953,2.375,18,2.5,18   c0.085,0,0.17-0.021,0.248-0.065l2.646-1.513c1.283,0.458,2.676,0.626,4.025,0.537C10.437,19.307,13.223,21,16.5,21   c0.773,0,1.544-0.099,2.297-0.292l2.479,1.239C21.348,21.982,21.424,22,21.5,22c0.123,0,0.244-0.045,0.338-0.132   c0.153-0.141,0.203-0.361,0.126-0.554l-0.68-1.698C22.993,18.48,24,16.782,24,15z"/>
</g>
<g>
</g>
<g>
</g>
<g>
</g>
<g>
</g>
<g>
</g>
<g>
</g>
<g>
</g>
<g>
</g>
<g>
</g>
<g>
</g>
<g>
</g>
<g>
</g>
<g>
</g>
<g>
</g>
<g>
</g>

	<metadata>
		<rdf:RDF xmlns:rdf="http://www.w3.org/1999/02/22-rdf-syntax-ns#" xmlns:rdfs="http://www.w3.org/2000/01/rdf-schema#" xmlns:dc="http://purl.org/dc/elements/1.1/">
			<rdf:Description about="https://iconscout.com/legal#licenses" dc:title="social; media; social media; logo; wechat" dc:description="social; media; social media; logo; wechat" dc:publisher="Iconscout" dc:date="2017-03-22" dc:format="image/svg+xml" dc:language="en">
				<dc:creator>
					<rdf:Bag>
						<rdf:li>Alpár - Etele Méder</rdf:li>
					</rdf:Bag>
				</dc:creator>
			</rdf:Description>
		</rdf:RDF>
    </metadata></svg>
