<?xml version="1.0" encoding="UTF-8"?>
<svg xmlns="http://www.w3.org/2000/svg" xmlns:xlink="http://www.w3.org/1999/xlink" version="1.1" id="Layer_1" x="0px" y="0px" viewBox="0 0 24 24" style="enable-background:new 0 0 24 24;" xml:space="preserve">
<g>
	<path style="fill:#303C42;" d="M12,0C5.383,0,0,5.383,0,12c0,2.31,0.655,4.543,1.896,6.476L0.033,23.32   c-0.07,0.183-0.027,0.389,0.109,0.529C0.238,23.947,0.368,24,0.5,24c0.057,0,0.113-0.009,0.168-0.029l4.999-1.785   C7.572,23.374,9.756,24,12,24c6.617,0,12-5.383,12-12S18.617,0,12,0z"/>
	<path style="fill:#00E676;" d="M12,23c-2.132,0-4.206-0.618-5.998-1.787c-0.082-0.054-0.177-0.081-0.273-0.081   c-0.057,0-0.114,0.01-0.168,0.029l-4.203,1.501l1.564-4.067c0.059-0.152,0.039-0.324-0.052-0.459C1.647,16.32,1,14.198,1,12   C1,5.935,5.935,1,12,1s11,4.935,11,11S18.065,23,12,23z"/>
	<path style="opacity:0.1;" d="M15.719,1.661c3.797,1.736,6.447,5.561,6.447,10.002c0,6.065-4.935,11-11,11   c-1.277,0-2.532-0.226-3.72-0.655C8.872,22.659,10.42,23,12,23c6.065,0,11-4.935,11-11C23,7.241,19.957,3.191,15.719,1.661z"/>
	<path style="opacity:0.2;fill:#FFFFFF;" d="M1.358,22.663l0.936-0.334l1.211-3.15c0.059-0.152,0.039-0.324-0.052-0.459   c-1.223-1.816-1.87-3.938-1.87-6.136c0-6.065,4.935-11,11-11c2.885,0,5.505,1.125,7.469,2.948C18.042,2.365,15.181,1,12,1   C5.935,1,1,5.935,1,12c0,2.198,0.647,4.32,1.87,6.136c0.091,0.135,0.111,0.307,0.052,0.459L1.358,22.663z"/>
	<path style="fill:#303C42;" d="M17.721,14.051c-0.001,0-1.225-0.602-1.992-0.996c-0.865-0.444-1.887,0.39-2.368,0.866   c-0.436-0.169-1.3-0.568-2.007-1.274s-1.105-1.571-1.274-2.007c0.476-0.481,1.311-1.5,0.866-2.368   C10.55,7.504,9.949,6.28,9.949,6.279C9.865,6.108,9.69,6,9.5,6h-1C7.375,6,6,7.384,6,9c0,1.57,1.879,4.586,3.146,5.854   S13.43,18,15,18c1.616,0,3-1.375,3-2.5v-1C18,14.31,17.892,14.135,17.721,14.051z"/>
	<path style="fill:#FFFFFF;" d="M17,15.5c0,0.565-0.935,1.5-2,1.5c-1.159,0-3.927-1.634-5.146-2.854S7,10.159,7,9   c0-1.065,0.935-2,1.5-2h0.689c0.203,0.41,0.586,1.183,0.866,1.729c0.122,0.237-0.376,0.946-0.886,1.396   c-0.145,0.128-0.203,0.328-0.149,0.514c0.018,0.063,0.456,1.543,1.627,2.715s2.652,1.609,2.715,1.627   c0.186,0.055,0.385-0.005,0.514-0.149c0.451-0.51,1.158-1.007,1.396-0.886c0.545,0.28,1.319,0.664,1.729,0.866V15.5z"/>
	<linearGradient id="SVGID_1_" gradientUnits="userSpaceOnUse" x1="7.3643" y1="8.3899" x2="19.2547" y2="20.2803">
		<stop offset="0" style="stop-color:#000000;stop-opacity:0.1"/>
		<stop offset="1" style="stop-color:#000000;stop-opacity:0"/>
	</linearGradient>
	<path style="fill:url(#SVGID_1_);" d="M17.938,14.282C17.971,14.35,18,14.421,18,14.5v1c0,1.125-1.384,2.5-3,2.5   c-1.57,0-4.586-1.879-5.854-3.146l7.232,7.232c2.082-0.907,3.822-2.444,4.999-4.364L17.938,14.282z M10.079,10.64   c0.169,0.436,0.568,1.3,1.274,2.007s1.571,1.105,2.007,1.274c0.481-0.476,1.503-1.31,2.368-0.866   c0.72,0.37,1.829,0.916,1.965,0.983L9.962,6.306c0.067,0.136,0.613,1.245,0.983,1.966C11.39,9.139,10.555,10.159,10.079,10.64z    M9.705,6.049L9.7,6.057C9.706,6.06,9.713,6.06,9.718,6.062L9.705,6.049z"/>
	<linearGradient id="SVGID_2_" gradientUnits="userSpaceOnUse" x1="0.3255" y1="8.6433" x2="22.0756" y2="18.7856">
		<stop offset="0" style="stop-color:#FFFFFF;stop-opacity:0.2"/>
		<stop offset="1" style="stop-color:#FFFFFF;stop-opacity:0"/>
	</linearGradient>
	<path style="fill:url(#SVGID_2_);" d="M12,0C5.383,0,0,5.383,0,12c0,2.31,0.655,4.543,1.896,6.476L0.033,23.32   c-0.07,0.183-0.027,0.389,0.109,0.529C0.238,23.947,0.368,24,0.5,24c0.057,0,0.113-0.009,0.168-0.029l4.999-1.785   C7.572,23.374,9.756,24,12,24c6.617,0,12-5.383,12-12S18.617,0,12,0z"/>
</g>
<g>
</g>
<g>
</g>
<g>
</g>
<g>
</g>
<g>
</g>
<g>
</g>
<g>
</g>
<g>
</g>
<g>
</g>
<g>
</g>
<g>
</g>
<g>
</g>
<g>
</g>
<g>
</g>
<g>
</g>

	<metadata>
		<rdf:RDF xmlns:rdf="http://www.w3.org/1999/02/22-rdf-syntax-ns#" xmlns:rdfs="http://www.w3.org/2000/01/rdf-schema#" xmlns:dc="http://purl.org/dc/elements/1.1/">
			<rdf:Description about="https://iconscout.com/legal#licenses" dc:title="social; media; social media; logo; whatsapp" dc:description="social; media; social media; logo; whatsapp" dc:publisher="Iconscout" dc:date="2017-03-22" dc:format="image/svg+xml" dc:language="en">
				<dc:creator>
					<rdf:Bag>
						<rdf:li>Alpár - Etele Méder</rdf:li>
					</rdf:Bag>
				</dc:creator>
			</rdf:Description>
		</rdf:RDF>
    </metadata></svg>
