<?xml version="1.0" encoding="UTF-8"?>
<svg xmlns="http://www.w3.org/2000/svg" xmlns:xlink="http://www.w3.org/1999/xlink" version="1.1" id="Layer_1" x="0px" y="0px" viewBox="0 0 24 24" style="enable-background:new 0 0 24 24;" xml:space="preserve">
<g>
	<path style="fill:#303C42;" d="M23.5,3h-4.001c-0.276,0-0.5,0.224-0.5,0.5v1c0,0.276,0.224,0.5,0.5,0.5h0.966l-4.924,10.258   l-1.783-4.457L16.571,5H17.5C17.776,5,18,4.776,18,4.5v-1C18,3.224,17.776,3,17.5,3h-4C13.224,3,13,3.224,13,3.5v1   C13,4.776,13.224,5,13.5,5h0.465l-1.378,2.871L11.438,5H12c0.276,0,0.5-0.224,0.5-0.5v-1C12.5,3.224,12.276,3,12,3H7   C6.724,3,6.5,3.224,6.5,3.5v1C6.5,4.776,6.724,5,7,5h1.356l2.528,6.418l-1.843,3.84L4.938,5H5.5C5.776,5,6,4.776,6,4.5v-1   C6,3.224,5.776,3,5.5,3h-5C0.224,3,0,3.224,0,3.5v1C0,4.776,0.224,5,0.5,5h1.356l6.178,15.684C8.107,20.868,8.283,20.992,8.481,21   c0.202,0.005,0.382-0.104,0.469-0.282l3.089-6.37l2.496,6.336c0.073,0.185,0.248,0.309,0.446,0.316c0.006,0,0.013,0,0.019,0   c0.191,0,0.366-0.109,0.45-0.282L23.071,5H23.5C23.776,5,24,4.776,24,4.5v-1C24,3.224,23.776,3,23.5,3z"/>
	<linearGradient id="SVGID_1_" gradientUnits="userSpaceOnUse" x1="-0.4406" y1="4.3335" x2="19.7411" y2="13.7444">
		<stop offset="0" style="stop-color:#FFFFFF;stop-opacity:0.2"/>
		<stop offset="1" style="stop-color:#FFFFFF;stop-opacity:0"/>
	</linearGradient>
	<path style="fill:url(#SVGID_1_);" d="M23.5,3h-4.001c-0.276,0-0.5,0.224-0.5,0.5v1c0,0.276,0.224,0.5,0.5,0.5h0.966l-4.924,10.258   l-1.783-4.457L16.571,5H17.5C17.776,5,18,4.776,18,4.5v-1C18,3.224,17.776,3,17.5,3h-4C13.224,3,13,3.224,13,3.5v1   C13,4.776,13.224,5,13.5,5h0.465l-1.378,2.871L11.438,5H12c0.276,0,0.5-0.224,0.5-0.5v-1C12.5,3.224,12.276,3,12,3H7   C6.724,3,6.5,3.224,6.5,3.5v1C6.5,4.776,6.724,5,7,5h1.356l2.528,6.418l-1.843,3.84L4.938,5H5.5C5.776,5,6,4.776,6,4.5v-1   C6,3.224,5.776,3,5.5,3h-5C0.224,3,0,3.224,0,3.5v1C0,4.776,0.224,5,0.5,5h1.356l6.178,15.684C8.107,20.868,8.283,20.992,8.481,21   c0.202,0.005,0.382-0.104,0.469-0.282l3.089-6.37l2.496,6.336c0.073,0.185,0.248,0.309,0.446,0.316c0.006,0,0.013,0,0.019,0   c0.191,0,0.366-0.109,0.45-0.282L23.071,5H23.5C23.776,5,24,4.776,24,4.5v-1C24,3.224,23.776,3,23.5,3z"/>
</g>
<g>
</g>
<g>
</g>
<g>
</g>
<g>
</g>
<g>
</g>
<g>
</g>
<g>
</g>
<g>
</g>
<g>
</g>
<g>
</g>
<g>
</g>
<g>
</g>
<g>
</g>
<g>
</g>
<g>
</g>

	<metadata>
		<rdf:RDF xmlns:rdf="http://www.w3.org/1999/02/22-rdf-syntax-ns#" xmlns:rdfs="http://www.w3.org/2000/01/rdf-schema#" xmlns:dc="http://purl.org/dc/elements/1.1/">
			<rdf:Description about="https://iconscout.com/legal#licenses" dc:title="social; media; social media; logo; wikipedia" dc:description="social; media; social media; logo; wikipedia" dc:publisher="Iconscout" dc:date="2017-03-22" dc:format="image/svg+xml" dc:language="en">
				<dc:creator>
					<rdf:Bag>
						<rdf:li>Alpár - Etele Méder</rdf:li>
					</rdf:Bag>
				</dc:creator>
			</rdf:Description>
		</rdf:RDF>
    </metadata></svg>
