<?xml version="1.0" encoding="UTF-8"?>
<svg xmlns="http://www.w3.org/2000/svg" xmlns:xlink="http://www.w3.org/1999/xlink" version="1.1" id="Layer_1" x="0px" y="0px" viewBox="0 0 24 24" style="enable-background:new 0 0 24 24;" xml:space="preserve">
<g>
	<path style="fill:#303C42;" d="M21.5,5h-19C1.122,5,0,6.122,0,7.5v7C0,15.878,1.122,17,2.5,17h9.656l3.079,1.924   C15.317,18.975,15.409,19,15.5,19c0.131,0,0.262-0.052,0.359-0.152c0.164-0.169,0.188-0.43,0.057-0.625L15.101,17H21.5   c1.378,0,2.5-1.122,2.5-2.5v-7C24,6.122,22.878,5,21.5,5z"/>
	<path style="fill:#7C4DFF;" d="M23,14.5c0,0.827-0.673,1.5-1.5,1.5h-7.333c-0.185,0-0.354,0.102-0.441,0.264   c-0.087,0.163-0.077,0.36,0.025,0.513l0.045,0.068l-1.231-0.769C12.485,16.026,12.394,16,12.3,16H2.5C1.673,16,1,15.327,1,14.5v-7   C1,6.673,1.673,6,2.5,6h19C22.327,6,23,6.673,23,7.5V14.5z"/>
	<path style="opacity:0.1;" d="M22.408,6.314c0.194,0.253,0.314,0.565,0.314,0.908v7c0,0.827-0.673,1.5-1.5,1.5h-7.333   c-0.185,0-0.354,0.102-0.441,0.264s-0.077,0.36,0.025,0.513l0.045,0.068l-1.231-0.769c-0.08-0.05-0.171-0.076-0.265-0.076h-9.8   c-0.343,0-0.655-0.12-0.908-0.314C1.589,15.765,2.016,16,2.5,16h9.8c0.094,0,0.186,0.026,0.265,0.076l1.231,0.769l-0.045-0.068   c-0.102-0.153-0.112-0.351-0.025-0.513C13.812,16.102,13.982,16,14.167,16H21.5c0.827,0,1.5-0.673,1.5-1.5v-7   C23,7.016,22.765,6.589,22.408,6.314z"/>
	<path style="opacity:0.2;fill:#FFFFFF;" d="M1.445,14.945v-7c0-0.827,0.673-1.5,1.5-1.5h19c0.3,0,0.578,0.09,0.812,0.242   C22.49,6.275,22.027,6,21.5,6h-19C1.673,6,1,6.673,1,7.5v7c0,0.527,0.275,0.99,0.688,1.258C1.536,15.523,1.445,15.245,1.445,14.945   z"/>
	<path style="fill:#303C42;" d="M10.105,6.693c-1.128,1.455-1.463,4.76-1.563,6.568c-0.563-1.04-0.979-2.78-1.212-3.752   C7.045,8.319,6.969,8,6.5,8c-0.416,0-0.449,0-2.035,3.441c-0.238,0.517-0.52,1.128-0.764,1.642   c-0.141-0.98-0.306-2.367-0.431-3.418c-0.101-0.85-0.196-1.649-0.274-2.23C2.959,7.16,2.707,6.968,2.434,7.004   C2.16,7.041,1.968,7.293,2.004,7.566c0.078,0.578,0.172,1.371,0.272,2.216C2.898,15,2.932,15,3.5,15c0.41,0,0.426,0,1.873-3.141   c0.311-0.674,0.688-1.492,0.986-2.108c0.551,2.301,1.193,4.596,2.42,5.197C8.85,14.983,8.925,15,9,15   c0.092,0,0.184-0.025,0.265-0.076C9.411,14.833,9.5,14.672,9.5,14.5c0-2.086,0.379-5.883,1.395-7.193   c0.169-0.218,0.129-0.533-0.088-0.702C10.588,6.436,10.274,6.476,10.105,6.693z"/>
	<path style="fill:#303C42;" d="M14.084,8c-1.303,0-2.615,1.496-2.987,3.404c-0.231,1.186-0.041,2.292,0.509,2.958   C11.944,14.774,12.41,15,12.916,15c1.303,0,2.615-1.496,2.987-3.404c0.231-1.186,0.041-2.292-0.509-2.958   C15.056,8.226,14.59,8,14.084,8z M14.921,11.404C14.624,12.934,13.625,14,12.916,14c-0.211,0-0.387-0.089-0.539-0.273   c-0.356-0.432-0.471-1.249-0.299-2.131C12.376,10.066,13.375,9,14.084,9c0.211,0,0.387,0.089,0.539,0.273   C14.979,9.705,15.093,10.522,14.921,11.404z"/>
	<path style="fill:#303C42;" d="M20.084,8c-1.303,0-2.615,1.496-2.987,3.404c-0.231,1.186-0.041,2.292,0.509,2.958   C17.944,14.774,18.41,15,18.916,15c1.303,0,2.615-1.496,2.987-3.404c0.231-1.186,0.041-2.292-0.509-2.958   C21.056,8.226,20.59,8,20.084,8z M20.921,11.404C20.624,12.934,19.625,14,18.916,14c-0.211,0-0.387-0.089-0.539-0.273   c-0.356-0.432-0.471-1.249-0.299-2.131C18.376,10.066,19.375,9,20.084,9c0.211,0,0.387,0.089,0.539,0.273   C20.979,9.705,21.093,10.522,20.921,11.404z"/>
	<linearGradient id="SVGID_1_" gradientUnits="userSpaceOnUse" x1="0.5906" y1="5.6797" x2="23.4094" y2="16.3203">
		<stop offset="0" style="stop-color:#FFFFFF;stop-opacity:0.2"/>
		<stop offset="1" style="stop-color:#FFFFFF;stop-opacity:0"/>
	</linearGradient>
	<path style="fill:url(#SVGID_1_);" d="M21.5,5h-19C1.122,5,0,6.122,0,7.5v7C0,15.878,1.122,17,2.5,17h9.656l3.079,1.924   C15.317,18.975,15.409,19,15.5,19c0.131,0,0.262-0.052,0.359-0.152c0.164-0.169,0.188-0.43,0.057-0.625L15.101,17H21.5   c1.378,0,2.5-1.122,2.5-2.5v-7C24,6.122,22.878,5,21.5,5z"/>
</g>
<g>
</g>
<g>
</g>
<g>
</g>
<g>
</g>
<g>
</g>
<g>
</g>
<g>
</g>
<g>
</g>
<g>
</g>
<g>
</g>
<g>
</g>
<g>
</g>
<g>
</g>
<g>
</g>
<g>
</g>

	<metadata>
		<rdf:RDF xmlns:rdf="http://www.w3.org/1999/02/22-rdf-syntax-ns#" xmlns:rdfs="http://www.w3.org/2000/01/rdf-schema#" xmlns:dc="http://purl.org/dc/elements/1.1/">
			<rdf:Description about="https://iconscout.com/legal#licenses" dc:title="social; media; social media; logo; woo commerce" dc:description="social; media; social media; logo; woo commerce" dc:publisher="Iconscout" dc:date="2017-03-22" dc:format="image/svg+xml" dc:language="en">
				<dc:creator>
					<rdf:Bag>
						<rdf:li>Alpár - Etele Méder</rdf:li>
					</rdf:Bag>
				</dc:creator>
			</rdf:Description>
		</rdf:RDF>
    </metadata></svg>
