<?xml version="1.0" encoding="UTF-8"?>
<svg xmlns="http://www.w3.org/2000/svg" xmlns:xlink="http://www.w3.org/1999/xlink" version="1.1" id="Layer_1" x="0px" y="0px" viewBox="0 0 24 24" style="enable-background:new 0 0 24 24;" xml:space="preserve">
<g>
	<path style="fill:#303C42;" d="M12,0C5.383,0,0,5.383,0,12s5.383,12,12,12s12-5.383,12-12S18.617,0,12,0z"/>
	<path style="fill:#00ACC1;" d="M12,23C5.935,23,1,18.065,1,12S5.935,1,12,1s11,4.935,11,11S18.065,23,12,23z"/>
	<path style="fill:#303C42;" d="M12,2C6.486,2,2,6.486,2,12s4.486,10,10,10s10-4.486,10-10S17.514,2,12,2z"/>
	<path style="fill:#00ACC1;" d="M18.992,6.449c0.166,0.316,0.444,1.261-0.16,3.583c-0.274-0.621-0.645-1.221-0.979-1.762   c-0.379-0.614-0.81-1.311-0.81-1.64c0-1.152,0.463-1.152,0.739-1.152c0.174,0,0.399,0.039,0.646,0.236   c0.119,0.122,0.232,0.25,0.344,0.378C18.845,6.195,18.918,6.309,18.992,6.449z"/>
	<path style="fill:#00ACC1;" d="M15.285,20.37L10.93,8h1.824l3.393,10.527c-0.253,0.788-0.452,1.409-0.552,1.719   C15.493,20.29,15.389,20.329,15.285,20.37z"/>
	<polygon style="fill:#00ACC1;" points="6.141,8 9.413,18.205 8.689,20.243 4.34,8  "/>
	<path style="fill:#FFFFFF;" d="M18.184,12.16c0.292-0.979-0.491-2.246-1.182-3.364c-0.514-0.833-0.958-1.552-0.958-2.166   c0-1.302,0.528-1.826,1.067-2.03C15.658,3.594,13.898,3,12,3C8.887,3,6.139,4.59,4.522,7H7.5C7.776,7,8,7.224,8,7.5S7.776,8,7.5,8   H7.191l2.773,8.651l1.482-4.173L9.87,8H9.5C9.224,8,9,7.776,9,7.5S9.224,7,9.5,7H14c0.276,0,0.5,0.224,0.5,0.5S14.276,8,14,8   h-0.196l2.867,8.892C17.173,15.327,17.746,13.538,18.184,12.16C18.184,12.161,18.184,12.161,18.184,12.16z M3,12   c0,3.303,1.794,6.188,4.454,7.754L3.58,8.85C3.211,9.832,3,10.891,3,12z M9.6,20.665C10.366,20.878,11.168,21,12,21   c0.809,0,1.589-0.117,2.335-0.318l-2.36-6.703L9.6,20.665z M20.167,8.243c-0.075,0.872-0.296,1.904-0.669,3.082   c-0.634,2.003-1.971,6.173-2.633,8.235C19.349,17.956,21,15.17,21,12C21,10.658,20.696,9.388,20.167,8.243z"/>
	<linearGradient id="SVGID_1_" gradientUnits="userSpaceOnUse" x1="7.8105" y1="7.3807" x2="18.5715" y2="18.1416">
		<stop offset="0" style="stop-color:#000000;stop-opacity:0.1"/>
		<stop offset="1" style="stop-color:#000000;stop-opacity:0"/>
	</linearGradient>
	<path style="fill:url(#SVGID_1_);" d="M9.6,20.665C10.366,20.878,11.168,21,12,21c0.809,0,1.589-0.117,2.335-0.318l-2.36-6.703   L9.6,20.665z M14.335,7.133L14.335,7.133c0,0.001,0.001,0.001,0.002,0.002L14.335,7.133z M11.446,12.478l-0.833-2.365L8,7.5   C8,7.776,7.776,8,7.5,8H7.191l2.773,8.651L11.446,12.478z M18.184,12.16c0.115-0.386,0.059-0.817-0.088-1.266l-3.73-3.73   C14.447,7.253,14.5,7.369,14.5,7.5C14.5,7.776,14.276,8,14,8h-0.196l2.867,8.892C17.173,15.327,17.746,13.538,18.184,12.16   C18.184,12.161,18.184,12.161,18.184,12.16z M20.167,8.243c-0.075,0.872-0.296,1.904-0.669,3.082   c-0.634,2.003-1.971,6.173-2.633,8.235C19.349,17.956,21,15.17,21,12C21,10.658,20.696,9.388,20.167,8.243z"/>
	<linearGradient id="SVGID_2_" gradientUnits="userSpaceOnUse" x1="1.1249" y1="6.9289" x2="22.8751" y2="17.0711">
		<stop offset="0" style="stop-color:#FFFFFF;stop-opacity:0.2"/>
		<stop offset="1" style="stop-color:#FFFFFF;stop-opacity:0"/>
	</linearGradient>
	<path style="fill:url(#SVGID_2_);" d="M12,0C5.383,0,0,5.383,0,12s5.383,12,12,12s12-5.383,12-12S18.617,0,12,0z"/>
</g>
<g>
</g>
<g>
</g>
<g>
</g>
<g>
</g>
<g>
</g>
<g>
</g>
<g>
</g>
<g>
</g>
<g>
</g>
<g>
</g>
<g>
</g>
<g>
</g>
<g>
</g>
<g>
</g>
<g>
</g>

	<metadata>
		<rdf:RDF xmlns:rdf="http://www.w3.org/1999/02/22-rdf-syntax-ns#" xmlns:rdfs="http://www.w3.org/2000/01/rdf-schema#" xmlns:dc="http://purl.org/dc/elements/1.1/">
			<rdf:Description about="https://iconscout.com/legal#licenses" dc:title="social; media; social media; logo; wordpress" dc:description="social; media; social media; logo; wordpress" dc:publisher="Iconscout" dc:date="2017-03-22" dc:format="image/svg+xml" dc:language="en">
				<dc:creator>
					<rdf:Bag>
						<rdf:li>Alpár - Etele Méder</rdf:li>
					</rdf:Bag>
				</dc:creator>
			</rdf:Description>
		</rdf:RDF>
    </metadata></svg>
