<?xml version="1.0" encoding="UTF-8"?>
<svg xmlns="http://www.w3.org/2000/svg" xmlns:xlink="http://www.w3.org/1999/xlink" version="1.1" id="Layer_1" x="0px" y="0px" viewBox="0 0 24 24" style="enable-background:new 0 0 24 24;" xml:space="preserve">
<g>
	<path style="fill:#303C42;" d="M12,0C5.383,0,0,5.383,0,12s5.383,12,12,12s12-5.383,12-12S18.617,0,12,0z"/>
	<path style="fill:#E6E6E6;" d="M12,23C5.935,23,1,18.065,1,12S5.935,1,12,1s11,4.935,11,11S18.065,23,12,23z"/>
	<path style="opacity:0.2;fill:#FFFFFF;" d="M1.5,12.5c0-6.065,4.935-11,11-11c2.906,0,5.544,1.141,7.513,2.987   C18.004,2.347,15.16,1,12,1C5.935,1,1,5.935,1,12c0,3.16,1.347,6.004,3.487,8.013C2.641,18.044,1.5,15.406,1.5,12.5z"/>
	<path style="fill:#303C42;" d="M12,3c-4.962,0-8.999,4.037-9,8.999c0,2.215,0.977,4.384,2.749,6.106   c2.404,2.336,4.564,2.896,6.261,2.896c0.584,0,1.113-0.066,1.578-0.149C13.826,20.81,14,20.602,14,20.36v-2.041   c0-0.153-0.07-0.297-0.189-0.392c-0.121-0.095-0.275-0.129-0.426-0.095c-1.429,0.339-2.761,0.166-4.074-0.525   c-1.819-0.957-3.075-2.741-3.276-4.656C5.853,10.923,6.388,9.267,7.54,7.987C8.677,6.724,10.303,6,12,6c2.867,0,4.737,2.07,5,5.5   c0,0.682-0.146,1.164-0.31,1.491l-0.883-2.652C15.539,9.538,14.792,9,13.948,9c-0.774,0-1.477,0.457-1.79,1.164l-1.092,2.456   L9.973,9.342C9.904,9.138,9.713,9,9.498,9H7.5C7.335,9,7.181,9.081,7.088,9.217C6.994,9.353,6.975,9.526,7.033,9.68l2.141,5.564   c0.289,0.751,1.023,1.256,1.878,1.256c0.774,0,1.477-0.457,1.79-1.164l1.092-2.455l0.759,2.28c0.269,0.801,1.016,1.339,1.859,1.339   h0.353c0.563,0,1.099-0.239,1.466-0.656c0.608-0.691,1.63-2.174,1.629-4.373C19.704,6.404,16.489,3,12,3z"/>
	<path style="fill:#5C6671;" d="M17.62,15.183c-0.178,0.202-0.438,0.317-0.716,0.317h-0.353c-0.413,0-0.779-0.264-0.91-0.656   l-1.167-3.502c-0.065-0.196-0.244-0.331-0.45-0.341c-0.233-0.008-0.397,0.108-0.481,0.296l-1.615,3.634   c-0.153,0.346-0.497,0.569-0.926,0.569c-0.394,0-0.753-0.247-0.895-0.615L8.229,10h0.909l1.388,4.158   c0.065,0.196,0.244,0.331,0.45,0.341c0.226,0.018,0.397-0.108,0.481-0.296l1.615-3.634C13.226,10.224,13.569,10,13.948,10   c0.413,0,0.779,0.264,0.91,0.656l1.167,3.502c0.049,0.145,0.161,0.26,0.306,0.313c0.143,0.051,0.304,0.034,0.434-0.047   c0.051-0.031,1.235-0.796,1.234-2.962C17.694,7.476,15.396,5,12,5c-1.98,0-3.877,0.845-5.203,2.317   c-1.345,1.493-1.969,3.425-1.757,5.438c0.235,2.243,1.693,4.326,3.806,5.436c1.325,0.698,2.718,0.944,4.154,0.732v1.008   c-1.693,0.227-3.906,0.029-6.554-2.544C4.869,15.856,4,13.942,4,11.999C4.001,7.588,7.59,4,12,4c3.986,0,6.734,2.956,7,7.5   C19,13.341,18.136,14.598,17.62,15.183z"/>
	<linearGradient id="SVGID_1_" gradientUnits="userSpaceOnUse" x1="7.728" y1="7.7872" x2="19.745" y2="19.8041">
		<stop offset="0" style="stop-color:#000000;stop-opacity:0.1"/>
		<stop offset="1" style="stop-color:#000000;stop-opacity:0"/>
	</linearGradient>
	<path style="fill:url(#SVGID_1_);" d="M16.851,4.669l-0.009-0.001c0.012,0.01,0.025,0.019,0.037,0.029L16.851,4.669z M5.041,17.341   L5.06,17.36c-0.007-0.008-0.013-0.017-0.019-0.025L5.041,17.341z M22.922,10.74l-5.027-5.027c1.21,1.457,1.968,3.428,2.104,5.757   c0.001,2.199-1.021,3.682-1.629,4.373c-0.367,0.417-0.902,0.656-1.466,0.656h-0.353c-0.844,0-1.591-0.538-1.859-1.339l-0.759-2.28   l-1.092,2.455c-0.313,0.707-1.016,1.164-1.79,1.164c-0.854,0-1.589-0.505-1.878-1.256L7.033,9.68   C6.975,9.526,6.994,9.353,7.088,9.217C7.181,9.081,7.335,9,7.5,9h1.998c0.215,0,0.406,0.138,0.475,0.342l1.094,3.278l1.092-2.456   C12.472,9.457,13.174,9,13.948,9c0.844,0,1.591,0.538,1.859,1.339l0.883,2.652C16.854,12.664,17,12.182,17,11.5   C16.737,8.07,14.867,6,12,6c-1.697,0-3.323,0.724-4.46,1.987c-1.152,1.28-1.688,2.937-1.506,4.665   c0.201,1.915,1.457,3.699,3.276,4.656c1.313,0.691,2.646,0.864,4.074,0.525c0.15-0.035,0.305,0,0.426,0.095   C13.93,18.022,14,18.167,14,18.319v2.041c0,0.242-0.174,0.45-0.412,0.492c-0.465,0.083-0.994,0.149-1.578,0.149   c-1.57,0-3.541-0.499-5.732-2.423l4.323,4.323C11.06,22.96,11.525,23,12,23c6.065,0,11-4.935,11-11   C23,11.573,22.97,11.154,22.922,10.74z"/>
	<linearGradient id="SVGID_2_" gradientUnits="userSpaceOnUse" x1="1.1249" y1="6.9288" x2="22.8751" y2="17.0712">
		<stop offset="0" style="stop-color:#FFFFFF;stop-opacity:0.2"/>
		<stop offset="1" style="stop-color:#FFFFFF;stop-opacity:0"/>
	</linearGradient>
	<path style="fill:url(#SVGID_2_);" d="M12,0C5.383,0,0,5.383,0,12s5.383,12,12,12s12-5.383,12-12S18.617,0,12,0z"/>
</g>
<g>
</g>
<g>
</g>
<g>
</g>
<g>
</g>
<g>
</g>
<g>
</g>
<g>
</g>
<g>
</g>
<g>
</g>
<g>
</g>
<g>
</g>
<g>
</g>
<g>
</g>
<g>
</g>
<g>
</g>

	<metadata>
		<rdf:RDF xmlns:rdf="http://www.w3.org/1999/02/22-rdf-syntax-ns#" xmlns:rdfs="http://www.w3.org/2000/01/rdf-schema#" xmlns:dc="http://purl.org/dc/elements/1.1/">
			<rdf:Description about="https://iconscout.com/legal#licenses" dc:title="social; media; social media; logo; workplace" dc:description="social; media; social media; logo; workplace" dc:publisher="Iconscout" dc:date="2017-03-22" dc:format="image/svg+xml" dc:language="en">
				<dc:creator>
					<rdf:Bag>
						<rdf:li>Alpár - Etele Méder</rdf:li>
					</rdf:Bag>
				</dc:creator>
			</rdf:Description>
		</rdf:RDF>
    </metadata></svg>
