<?xml version="1.0" encoding="UTF-8"?>
<svg xmlns="http://www.w3.org/2000/svg" xmlns:xlink="http://www.w3.org/1999/xlink" version="1.1" id="Layer_1" x="0px" y="0px" viewBox="0 0 24 24" style="enable-background:new 0 0 24 24;" xml:space="preserve">
<g>
	<path style="fill:#303C42;" d="M12,0C5.383,0,0,5.383,0,12s5.383,12,12,12s12-5.383,12-12S18.617,0,12,0z"/>
	<path style="fill:#FFCA28;" d="M12,23C5.935,23,1,18.065,1,12S5.935,1,12,1s11,4.935,11,11S18.065,23,12,23z"/>
	<path style="opacity:0.2;fill:#FFFFFF;" d="M1.75,12.75c0-6.065,4.935-11,11-11c2.842,0,5.427,1.093,7.382,2.868   C18.118,2.402,15.223,1,12,1C5.935,1,1,5.935,1,12c0,3.223,1.402,6.118,3.618,8.132C2.843,18.177,1.75,15.592,1.75,12.75z"/>
	<path style="fill:#303C42;" d="M19.5,11h-15C4.224,11,4,11.224,4,11.5c0,5.505,3.364,9.5,8,9.5s8-3.995,8-9.5   C20,11.224,19.776,11,19.5,11z"/>
	<path style="fill:#EF5350;" d="M12,20c-3.982,0-6.805-3.264-6.99-8h13.98C18.805,16.736,15.982,20,12,20z"/>
	<path style="opacity:0.1;" d="M12,19.5c-3.839,0-6.593-3.038-6.953-7.5H5.01c0.186,4.736,3.008,8,6.99,8s6.805-3.264,6.99-8h-0.038   C18.593,16.462,15.839,19.5,12,19.5z"/>
	<path style="fill:#AB47BC;" d="M8,9c0.552,0,1-0.448,1-1S8.552,7,8,7S7,7.448,7,8S7.448,9,8,9z"/>
	<path style="fill:#AB47BC;" d="M16,9c0.552,0,1-0.448,1-1s-0.448-1-1-1s-1,0.448-1,1S15.448,9,16,9z"/>
	<path style="fill:#FFFFFF;" d="M5.095,13h13.811c0.04-0.326,0.071-0.658,0.085-1H5.01C5.023,12.342,5.054,12.674,5.095,13z"/>
	<linearGradient id="SVGID_1_" gradientUnits="userSpaceOnUse" x1="12.0748" y1="13.7672" x2="18.9262" y2="20.6186">
		<stop offset="0" style="stop-color:#000000;stop-opacity:0.1"/>
		<stop offset="1" style="stop-color:#000000;stop-opacity:0"/>
	</linearGradient>
	<path style="fill:url(#SVGID_1_);" d="M19.859,11.155C19.946,11.244,20,11.365,20,11.5c0,5.505-3.364,9.5-8,9.5   c-2.001,0-3.763-0.747-5.121-2.036l-0.002,0.001l3.973,3.973C11.228,22.978,11.611,23,12,23c5.35,0,9.815-3.841,10.795-8.91   L19.859,11.155z"/>
	<linearGradient id="SVGID_2_" gradientUnits="userSpaceOnUse" x1="1.1248" y1="6.9288" x2="22.8752" y2="17.0712">
		<stop offset="0" style="stop-color:#FFFFFF;stop-opacity:0.2"/>
		<stop offset="1" style="stop-color:#FFFFFF;stop-opacity:0"/>
	</linearGradient>
	<path style="fill:url(#SVGID_2_);" d="M12,0C5.383,0,0,5.383,0,12s5.383,12,12,12s12-5.383,12-12S18.617,0,12,0z"/>
</g>
<g>
</g>
<g>
</g>
<g>
</g>
<g>
</g>
<g>
</g>
<g>
</g>
<g>
</g>
<g>
</g>
<g>
</g>
<g>
</g>
<g>
</g>
<g>
</g>
<g>
</g>
<g>
</g>
<g>
</g>

	<metadata>
		<rdf:RDF xmlns:rdf="http://www.w3.org/1999/02/22-rdf-syntax-ns#" xmlns:rdfs="http://www.w3.org/2000/01/rdf-schema#" xmlns:dc="http://purl.org/dc/elements/1.1/">
			<rdf:Description about="https://iconscout.com/legal#licenses" dc:title="social; media; social media; logo; yahoo; messenger" dc:description="social; media; social media; logo; yahoo; messenger" dc:publisher="Iconscout" dc:date="2017-03-22" dc:format="image/svg+xml" dc:language="en">
				<dc:creator>
					<rdf:Bag>
						<rdf:li>Alpár - Etele Méder</rdf:li>
					</rdf:Bag>
				</dc:creator>
			</rdf:Description>
		</rdf:RDF>
    </metadata></svg>
