<?xml version="1.0" encoding="UTF-8"?>
<svg xmlns="http://www.w3.org/2000/svg" xmlns:xlink="http://www.w3.org/1999/xlink" version="1.1" id="Layer_1" x="0px" y="0px" viewBox="0 0 24 24" style="enable-background:new 0 0 24 24;" xml:space="preserve">
<g>
	<path style="fill:#303C42;" d="M9.197,15.46c0.487-0.209,1.303-0.559,1.303-1.46s-0.816-1.251-1.303-1.46   c-0.183-0.078-0.43-0.178-0.721-0.295c-0.759-0.307-1.798-0.727-2.757-1.194c-0.963-0.47-1.601-0.298-1.967-0.07   C3.281,11.274,3,11.843,3,12.5v3c0,0.657,0.281,1.226,0.752,1.52c0.195,0.122,0.469,0.229,0.829,0.229   c0.313,0,0.69-0.08,1.138-0.299c0.959-0.468,1.998-0.888,2.757-1.194C8.768,15.638,9.015,15.538,9.197,15.46z"/>
	<path style="fill:#D32F2F;" d="M5.281,16.051c-0.431,0.21-0.786,0.252-0.999,0.121C4.106,16.062,4,15.811,4,15.5v-3   c0-0.311,0.105-0.562,0.282-0.672c0.081-0.05,0.183-0.075,0.301-0.075c0.193,0,0.43,0.066,0.697,0.196   c0.99,0.483,2.048,0.911,2.822,1.223c0.283,0.114,0.523,0.212,0.701,0.288C9.5,13.758,9.5,13.881,9.5,14   c0,0.119,0,0.242-0.697,0.54c-0.178,0.076-0.418,0.174-0.701,0.288C7.329,15.14,6.271,15.568,5.281,16.051z"/>
	<path style="fill:#303C42;" d="M12.682,18.769c-0.022-0.315-0.041-0.583-0.059-0.781c-0.048-0.528-0.128-1.412-0.985-1.692   c0,0,0,0-0.001,0c-0.856-0.278-1.441,0.39-1.79,0.789c-0.131,0.149-0.303,0.354-0.504,0.594c-0.525,0.627-1.246,1.486-1.987,2.253   c-0.746,0.772-0.779,1.431-0.675,1.849c0.136,0.547,0.578,0.979,1.213,1.186l2.853,0.927C10.966,23.965,11.186,24,11.397,24   c0.391,0,0.752-0.12,1.028-0.353c0.33-0.276,0.691-0.829,0.541-1.893C12.817,20.701,12.74,19.584,12.682,18.769z"/>
	<path style="fill:#D32F2F;" d="M11.782,22.882c-0.16,0.135-0.43,0.156-0.727,0.061l-2.853-0.927   c-0.295-0.096-0.502-0.274-0.552-0.477c-0.061-0.242,0.09-0.566,0.423-0.911c0.766-0.793,1.5-1.667,2.035-2.306   c0.196-0.233,0.363-0.433,0.49-0.578c0.376-0.43,0.536-0.514,0.64-0.514c0.034,0,0.062,0.009,0.09,0.018   c0.113,0.037,0.23,0.076,0.298,0.831c0.018,0.193,0.036,0.453,0.057,0.76c0.058,0.83,0.137,1.967,0.291,3.057   C12.043,22.37,11.974,22.721,11.782,22.882z"/>
	<path style="fill:#303C42;" d="M19.262,16.012c-1.051-0.185-2.138-0.456-2.932-0.654c-0.304-0.076-0.563-0.141-0.757-0.185   c-0.517-0.118-1.382-0.314-1.912,0.414h0c-0.529,0.73-0.075,1.492,0.197,1.947c0.102,0.171,0.243,0.397,0.409,0.663   c0.434,0.693,1.028,1.644,1.529,2.586c0.503,0.948,1.12,1.183,1.549,1.213c0.033,0.002,0.065,0.004,0.098,0.004   c0.522,0,1.041-0.291,1.404-0.791l1.764-2.427c0.387-0.532,0.493-1.157,0.285-1.672C20.734,16.712,20.32,16.198,19.262,16.012z"/>
	<path style="fill:#D32F2F;" d="M19.802,18.195l-1.764,2.427C17.857,20.873,17.624,21,17.415,21   c-0.25-0.018-0.512-0.261-0.737-0.685c-0.517-0.974-1.122-1.942-1.564-2.648c-0.162-0.259-0.299-0.479-0.398-0.645   c-0.388-0.652-0.316-0.752-0.246-0.848c0.07-0.096,0.144-0.193,0.881-0.027c0.188,0.043,0.44,0.106,0.736,0.18   c0.809,0.202,1.916,0.479,3.002,0.669c0.473,0.083,0.785,0.257,0.878,0.489C20.046,17.679,19.984,17.944,19.802,18.195z"/>
	<path style="fill:#303C42;" d="M13.661,13.413c0.302,0.415,0.713,0.53,1.107,0.53c0.296,0,0.583-0.065,0.805-0.116   c0.194-0.044,0.453-0.108,0.757-0.185c0.794-0.198,1.881-0.47,2.932-0.654c1.057-0.186,1.471-0.7,1.633-1.099   c0.208-0.515,0.102-1.14-0.285-1.672l-1.764-2.427c-0.386-0.531-0.947-0.817-1.502-0.787c-0.429,0.03-1.046,0.265-1.549,1.213   c-0.501,0.942-1.095,1.893-1.529,2.586c-0.167,0.267-0.308,0.492-0.41,0.663C13.586,11.921,13.132,12.684,13.661,13.413   L13.661,13.413z"/>
	<path style="fill:#D32F2F;" d="M14.716,11.978c0.099-0.166,0.237-0.386,0.398-0.645c0.442-0.706,1.047-1.674,1.564-2.648   c0.225-0.424,0.487-0.667,0.737-0.685c0.206-0.001,0.44,0.127,0.623,0.378l1.764,2.427c0.182,0.251,0.244,0.516,0.166,0.709   c-0.094,0.232-0.406,0.406-0.878,0.489c-1.086,0.19-2.193,0.467-3.002,0.669c-0.296,0.073-0.548,0.137-0.736,0.18   c-0.737,0.166-0.811,0.069-0.881-0.027C14.4,12.73,14.328,12.63,14.716,11.978z"/>
	<path style="fill:#303C42;" d="M9.729,11.296C10.005,11.736,10.481,12,11.001,12c0.157,0,0.31-0.024,0.453-0.07   c0.653-0.207,1.083-0.829,1.045-1.513l-0.5-9.002c-0.025-0.441-0.241-0.847-0.592-1.111c-0.346-0.262-0.797-0.363-1.231-0.27   l-4.502,1C5.199,1.142,4.804,1.472,4.616,1.919C4.429,2.368,4.47,2.882,4.728,3.294L9.729,11.296z"/>
	<path style="fill:#D32F2F;" d="M5.539,2.306c0.063-0.149,0.195-0.26,0.353-0.295l4.498-1c0.037-0.008,0.074-0.012,0.11-0.012   c0.108,0,0.215,0.036,0.303,0.102C10.92,1.19,10.992,1.324,11,1.471l0.5,9.001c0.013,0.229-0.13,0.436-0.351,0.506   c-0.2,0.063-0.453-0.021-0.573-0.212l-5-8.001C5.49,2.627,5.476,2.455,5.539,2.306z"/>
	<path style="opacity:0.1;" d="M9.259,13.686c0.007,0.028,0.009,0.055,0.009,0.081c0,0.119,0,0.242-0.697,0.54   c-0.178,0.076-0.419,0.174-0.701,0.288c-0.773,0.312-1.831,0.739-2.822,1.223c-0.392,0.191-0.716,0.236-0.932,0.145   c0.046,0.084,0.096,0.165,0.166,0.209c0.212,0.131,0.567,0.089,0.999-0.121c0.99-0.483,2.048-0.911,2.821-1.223   c0.283-0.114,0.523-0.212,0.701-0.288C9.5,14.242,9.5,14.119,9.5,14C9.5,13.917,9.495,13.831,9.259,13.686z"/>
	<path style="opacity:0.1;" d="M11.976,21.895c-0.154-1.09-0.233-2.227-0.291-3.057c-0.021-0.307-0.04-0.566-0.057-0.76   c-0.068-0.755-0.185-0.794-0.298-0.831c-0.011-0.004-0.025-0.004-0.037-0.007c0.04,0.119,0.075,0.303,0.102,0.605   c0.018,0.193,0.036,0.453,0.057,0.76c0.058,0.83,0.137,1.967,0.291,3.057c0.067,0.475-0.001,0.825-0.193,0.986   c-0.16,0.135-0.43,0.156-0.727,0.061L7.97,21.782c-0.103-0.033-0.189-0.079-0.268-0.13c0.087,0.154,0.262,0.286,0.501,0.363   l2.853,0.927c0.296,0.096,0.567,0.074,0.727-0.061C11.974,22.721,12.043,22.37,11.976,21.895z"/>
	<path style="opacity:0.1;" d="M19.968,17.486c-0.042-0.105-0.135-0.196-0.261-0.274c0.008,0.014,0.022,0.026,0.028,0.041   c0.078,0.193,0.016,0.458-0.166,0.709l-1.764,2.427c-0.182,0.251-0.414,0.378-0.623,0.378c-0.099-0.007-0.199-0.059-0.298-0.133   c0.172,0.223,0.354,0.353,0.531,0.366c0.209,0,0.441-0.127,0.623-0.378l1.764-2.427C19.984,17.944,20.046,17.679,19.968,17.486z"/>
	<path style="opacity:0.1;" d="M19.802,10.806l-1.764-2.427c-0.06-0.083-0.131-0.131-0.199-0.187l1.73,2.38   c0.182,0.251,0.244,0.516,0.166,0.709c-0.094,0.232-0.406,0.406-0.878,0.489c-1.086,0.19-2.193,0.467-3.002,0.669   c-0.296,0.073-0.548,0.137-0.736,0.18c-0.374,0.084-0.576,0.101-0.695,0.084c0.007,0.051,0.024,0.091,0.047,0.122   c0.07,0.097,0.144,0.193,0.881,0.027c0.189-0.043,0.44-0.106,0.736-0.18c0.809-0.202,1.916-0.479,3.002-0.669   c0.473-0.083,0.785-0.257,0.878-0.489C20.046,11.321,19.984,11.057,19.802,10.806z"/>
	<path style="opacity:0.1;" d="M11,1.471c-0.008-0.146-0.08-0.281-0.197-0.37c-0.024-0.018-0.056-0.014-0.082-0.028   c0.022,0.052,0.043,0.106,0.046,0.165l0.5,9.001c0.013,0.229-0.13,0.436-0.351,0.506c-0.133,0.042-0.276-0.001-0.401-0.077   l0.062,0.098c0.12,0.19,0.373,0.275,0.573,0.212c0.221-0.07,0.364-0.277,0.351-0.506L11,1.471z"/>
	<linearGradient id="SVGID_1_" gradientUnits="userSpaceOnUse" x1="1.7962" y1="7.9643" x2="21.431" y2="17.1201">
		<stop offset="0" style="stop-color:#FFFFFF;stop-opacity:0.2"/>
		<stop offset="1" style="stop-color:#FFFFFF;stop-opacity:0"/>
	</linearGradient>
	<path style="fill:url(#SVGID_1_);" d="M9.197,15.46c0.487-0.209,1.303-0.559,1.303-1.46s-0.816-1.251-1.303-1.46   c-0.183-0.078-0.43-0.178-0.721-0.295c-0.759-0.307-1.798-0.727-2.757-1.194c-0.963-0.47-1.601-0.298-1.967-0.07   C3.281,11.274,3,11.843,3,12.5v3c0,0.657,0.281,1.226,0.753,1.52c0.195,0.122,0.469,0.229,0.829,0.229   c0.313,0,0.69-0.08,1.138-0.299c0.959-0.468,1.998-0.888,2.757-1.194C8.768,15.638,9.015,15.538,9.197,15.46z M12.682,18.769   c-0.022-0.315-0.041-0.583-0.059-0.781c-0.048-0.528-0.128-1.412-0.985-1.692c0,0,0,0-0.001,0c-0.856-0.278-1.441,0.39-1.79,0.789   c-0.131,0.149-0.303,0.354-0.504,0.594c-0.525,0.627-1.246,1.486-1.987,2.253c-0.746,0.772-0.779,1.431-0.675,1.849   c0.136,0.547,0.578,0.979,1.213,1.186l2.853,0.927C10.966,23.965,11.186,24,11.397,24c0.391,0,0.752-0.12,1.028-0.353   c0.33-0.276,0.691-0.829,0.541-1.893C12.817,20.701,12.74,19.584,12.682,18.769z M19.262,16.012   c-1.051-0.185-2.138-0.456-2.932-0.654c-0.304-0.076-0.563-0.141-0.757-0.185c-0.517-0.118-1.382-0.313-1.912,0.414h0   c-0.529,0.73-0.075,1.492,0.197,1.947c0.102,0.171,0.243,0.397,0.409,0.663c0.434,0.693,1.028,1.644,1.529,2.586   c0.503,0.948,1.12,1.183,1.549,1.213c0.033,0.002,0.065,0.004,0.098,0.004c0.522,0,1.041-0.291,1.404-0.791l1.764-2.427   c0.387-0.532,0.493-1.157,0.285-1.672C20.734,16.712,20.32,16.198,19.262,16.012z M13.661,13.413   c0.302,0.415,0.713,0.53,1.107,0.53c0.296,0,0.583-0.065,0.805-0.116c0.194-0.044,0.453-0.108,0.757-0.185   c0.794-0.198,1.881-0.47,2.932-0.654c1.057-0.186,1.471-0.7,1.633-1.099c0.208-0.515,0.102-1.14-0.285-1.672l-1.764-2.427   c-0.386-0.531-0.947-0.817-1.502-0.787c-0.429,0.03-1.046,0.265-1.549,1.213c-0.501,0.943-1.095,1.893-1.529,2.586   c-0.167,0.267-0.308,0.492-0.41,0.663C13.586,11.921,13.132,12.684,13.661,13.413L13.661,13.413z M9.729,11.296   C10.005,11.736,10.481,12,11.001,12c0.157,0,0.31-0.024,0.453-0.07c0.653-0.207,1.083-0.829,1.045-1.513l-0.5-9.002   c-0.025-0.441-0.241-0.847-0.592-1.111c-0.346-0.262-0.797-0.363-1.231-0.27l-4.502,1C5.199,1.142,4.804,1.472,4.616,1.919   C4.429,2.368,4.47,2.882,4.728,3.294L9.729,11.296z"/>
</g>
<g>
</g>
<g>
</g>
<g>
</g>
<g>
</g>
<g>
</g>
<g>
</g>
<g>
</g>
<g>
</g>
<g>
</g>
<g>
</g>
<g>
</g>
<g>
</g>
<g>
</g>
<g>
</g>
<g>
</g>

	<metadata>
		<rdf:RDF xmlns:rdf="http://www.w3.org/1999/02/22-rdf-syntax-ns#" xmlns:rdfs="http://www.w3.org/2000/01/rdf-schema#" xmlns:dc="http://purl.org/dc/elements/1.1/">
			<rdf:Description about="https://iconscout.com/legal#licenses" dc:title="social; media; social media; logo; yelp" dc:description="social; media; social media; logo; yelp" dc:publisher="Iconscout" dc:date="2017-03-22" dc:format="image/svg+xml" dc:language="en">
				<dc:creator>
					<rdf:Bag>
						<rdf:li>Alpár - Etele Méder</rdf:li>
					</rdf:Bag>
				</dc:creator>
			</rdf:Description>
		</rdf:RDF>
    </metadata></svg>
