<?xml version="1.0" encoding="UTF-8"?>
<svg xmlns="http://www.w3.org/2000/svg" xmlns:xlink="http://www.w3.org/1999/xlink" version="1.1" id="Layer_1" x="0px" y="0px" viewBox="0 0 24 24" style="enable-background:new 0 0 24 24;" xml:space="preserve">
<g>
	<path style="fill:#303C42;" d="M20.934,3.674l-1.899-0.237c-4.651-0.581-9.419-0.581-14.07,0L3.066,3.674   C1.318,3.893,0,5.386,0,7.147v9.703c0,1.761,1.318,3.254,3.066,3.473l1.899,0.237c2.326,0.291,4.693,0.438,7.035,0.438   s4.709-0.147,7.035-0.438l1.899-0.237C22.682,20.105,24,18.612,24,16.85V7.147C24,5.386,22.682,3.893,20.934,3.674z"/>
	<path style="fill:#E53935;" d="M23,16.85c0,1.258-0.941,2.325-2.19,2.481l-1.899,0.237c-4.569,0.571-9.253,0.571-13.822,0   L3.19,19.331C1.941,19.175,1,18.108,1,16.85V7.147C1,5.89,1.941,4.823,3.19,4.666l1.899-0.237c4.569-0.571,9.253-0.571,13.822,0   l1.899,0.237C22.059,4.823,23,5.89,23,7.147V16.85z"/>
	<path style="opacity:0.1;" d="M20.81,4.666l-1.899-0.237C16.626,4.143,14.313,4.001,12,4.001c2.112,0,4.223,0.143,6.309,0.428   l1.734,0.237c1.14,0.156,1.999,1.223,1.999,2.481v9.703c0,1.258-0.859,2.325-1.999,2.481l-1.734,0.237   c-2.086,0.286-4.197,0.428-6.309,0.428c2.313,0,4.626-0.143,6.911-0.428l1.899-0.237C22.059,19.175,23,18.108,23,16.85V7.147   C23,5.89,22.059,4.823,20.81,4.666z"/>
	<path style="opacity:0.2;fill:#FFFFFF;" d="M3.957,19.331c-1.14-0.156-1.999-1.223-1.999-2.481V7.147   c0-1.258,0.859-2.325,1.999-2.481l1.734-0.237C7.777,4.143,9.888,4.001,12,4.001c-2.313,0-4.626,0.143-6.911,0.428L3.19,4.666   C1.941,4.823,1,5.89,1,7.147v9.703c0,1.258,0.941,2.325,2.19,2.481l1.899,0.237c2.285,0.286,4.598,0.428,6.911,0.428   c-2.112,0-4.223-0.143-6.309-0.428L3.957,19.331z"/>
	<path style="fill:#303C42;" d="M9.771,7.078c-0.154-0.1-0.35-0.105-0.51-0.019C9.1,7.148,9,7.316,9,7.499v9   c0,0.183,0.1,0.351,0.26,0.439c0.075,0.041,0.157,0.061,0.24,0.061c0.094,0,0.188-0.026,0.271-0.08l7-4.5   c0.143-0.092,0.229-0.25,0.229-0.42s-0.086-0.329-0.229-0.42L9.771,7.078z"/>
	<polygon style="fill:#FFFFFF;" points="10,15.583 10,8.415 15.575,11.999  "/>
	<polygon style="opacity:0.1;" points="15.575,11.999 10,8.415 15.065,12.327  "/>
	<linearGradient id="SVGID_1_" gradientUnits="userSpaceOnUse" x1="-0.0114" y1="6.3979" x2="24.0114" y2="17.5999">
		<stop offset="0" style="stop-color:#FFFFFF;stop-opacity:0.2"/>
		<stop offset="1" style="stop-color:#FFFFFF;stop-opacity:0"/>
	</linearGradient>
	<path style="fill:url(#SVGID_1_);" d="M20.934,3.674l-1.899-0.237c-4.651-0.581-9.419-0.581-14.07,0L3.066,3.674   C1.318,3.893,0,5.386,0,7.147v9.703c0,1.761,1.318,3.254,3.066,3.473l1.899,0.237c2.326,0.291,4.693,0.438,7.035,0.438   s4.709-0.147,7.035-0.438l1.899-0.237C22.682,20.105,24,18.612,24,16.85V7.147C24,5.386,22.682,3.893,20.934,3.674z"/>
</g>
<g>
</g>
<g>
</g>
<g>
</g>
<g>
</g>
<g>
</g>
<g>
</g>
<g>
</g>
<g>
</g>
<g>
</g>
<g>
</g>
<g>
</g>
<g>
</g>
<g>
</g>
<g>
</g>
<g>
</g>

	<metadata>
		<rdf:RDF xmlns:rdf="http://www.w3.org/1999/02/22-rdf-syntax-ns#" xmlns:rdfs="http://www.w3.org/2000/01/rdf-schema#" xmlns:dc="http://purl.org/dc/elements/1.1/">
			<rdf:Description about="https://iconscout.com/legal#licenses" dc:title="social; media; social media; logo; youtube" dc:description="social; media; social media; logo; youtube" dc:publisher="Iconscout" dc:date="2017-03-22" dc:format="image/svg+xml" dc:language="en">
				<dc:creator>
					<rdf:Bag>
						<rdf:li>Alpár - Etele Méder</rdf:li>
					</rdf:Bag>
				</dc:creator>
			</rdf:Description>
		</rdf:RDF>
    </metadata></svg>
