<?xml version="1.0" encoding="UTF-8"?>
<svg xmlns="http://www.w3.org/2000/svg" xmlns:xlink="http://www.w3.org/1999/xlink" version="1.1" id="Layer_1" x="0px" y="0px" viewBox="0 0 24 24" style="enable-background:new 0 0 24 24;" xml:space="preserve">
<g>
	<path style="fill:#303C42;" d="M15,24c-1.867,0-3.498-0.808-4.474-2.215c-0.767-1.106-2.334-3.956-3.07-5.314   C6.949,17.133,6.079,18,5,18c-2,0-2-2.276-2-3.5C3,11.809,5.068,10,7,10c1.16,0,1.978,0.241,2.405,0.409   c0.813-0.744,3.475-3.177,4.892-4.479c-1.083-0.128-1.916-0.406-2.569-0.625C11.218,5.135,10.815,5,10.5,5   c-0.323,0-0.534,0.139-0.878,0.384C9.237,5.658,8.759,5.999,8,5.999c-0.447,0-0.857-0.187-1.186-0.538   C6.181,4.78,5.957,3.592,6.001,2.965C6.133,1.081,7.226,0,9,0c4.168,0,7.048,1.188,8.204,1.769C17.47,1.056,18.027,0,19,0   c0.923,0,2,0.786,2,3c0,1.606-1.237,2.468-2.232,3.159c-0.304,0.211-0.592,0.412-0.828,0.617c-0.516,1.369-4.268,4.699-6.781,6.823   C12.16,15.098,14.512,18,16.5,18c0.968,0,1.418-0.249,1.895-0.513C18.826,17.248,19.273,17,20,17c1,0,1,1.445,1,2.5   C21,22.469,16.794,24,15,24z"/>
	<path style="fill:#7CB342;" d="M7.5,15L7.5,15c0.185,0,0.354,0.102,0.44,0.264c0.024,0.046,2.439,4.554,3.408,5.951   C12.465,22.826,14.274,23,15,23c1.285,0,5-1.203,5-3.5c0-0.936-0.06-1.334-0.122-1.496c-0.396,0.023-0.654,0.167-0.999,0.358   C18.365,18.646,17.726,19,16.5,19c-3.165,0-6.294-5.024-6.426-5.238c-0.13-0.211-0.086-0.485,0.104-0.645   c3.159-2.651,6.666-5.946,6.822-6.646c0-0.138,0.055-0.24,0.155-0.335c0.305-0.287,0.679-0.547,1.041-0.799   C19.124,4.693,20,4.084,20,3c0-1.382-0.502-2-1-2c-0.408,0-0.858,0.955-1.014,1.614C17.95,2.771,17.839,2.9,17.69,2.962   c-0.15,0.062-0.319,0.047-0.455-0.038C17.204,2.904,14.088,1,9,1C7.767,1,7.093,1.685,6.999,3.035   C6.972,3.421,7.132,4.334,7.546,4.778C7.73,4.977,7.894,4.999,8,4.999c0.438,0,0.705-0.189,1.042-0.43C9.416,4.303,9.841,4,10.5,4   c0.478,0,0.972,0.165,1.544,0.356C12.901,4.644,13.969,5,15.5,5c0.205,0,0.39,0.125,0.465,0.315s0.027,0.408-0.122,0.549   c-0.565,0.531-6.006,5.505-6.006,5.505c-0.159,0.146-0.396,0.175-0.585,0.064C9.247,11.432,8.452,11,7,11c-1.419,0-3,1.438-3,3.5   C4,16.393,4.243,17,5,17c0.926,0,1.801-1.253,2.06-1.736C7.146,15.102,7.315,15,7.5,15z"/>
	<path style="opacity:0.1;" d="M15,22.5c-0.726,0-2.535-0.174-3.651-1.785c-0.969-1.397-3.384-5.905-3.408-5.951   C7.854,14.602,7.685,14.5,7.5,14.5s-0.354,0.102-0.44,0.264C6.801,15.247,5.926,16.5,5,16.5c-0.696,0-0.955-0.527-0.992-2.081   C4.007,14.447,4,14.472,4,14.5C4,16.393,4.243,17,5,17c0.926,0,1.801-1.253,2.06-1.736C7.146,15.102,7.315,15,7.5,15   s0.354,0.102,0.44,0.264c0.024,0.046,2.439,4.554,3.408,5.951C12.465,22.826,14.274,23,15,23c1.285,0,5-1.203,5-3.5   c0-0.165-0.004-0.295-0.007-0.428C19.914,21.321,16.271,22.5,15,22.5z"/>
	<path style="opacity:0.2;fill:#FFFFFF;" d="M17,19.5c1.226,0,1.865-0.354,2.379-0.638c0.209-0.116,0.396-0.202,0.592-0.267   c-0.023-0.309-0.057-0.498-0.093-0.591c-0.396,0.023-0.654,0.167-0.999,0.358C18.365,18.646,17.726,19,16.5,19   c-1.33,0-2.651-0.89-3.749-1.935C13.932,18.311,15.461,19.5,17,19.5z"/>
	<path style="opacity:0.2;fill:#FFFFFF;" d="M7.849,4.976C7.587,4.5,7.477,3.849,7.499,3.535C7.593,2.185,8.267,1.5,9.5,1.5   c5.088,0,8.204,1.904,8.235,1.924c0.136,0.085,0.305,0.1,0.455,0.038c0.148-0.062,0.26-0.19,0.296-0.348   C18.642,2.455,19.092,1.5,19.5,1.5c0.072,0,0.144,0.017,0.215,0.044C19.525,1.178,19.263,1,19,1c-0.408,0-0.858,0.955-1.014,1.614   C17.95,2.771,17.839,2.9,17.69,2.962c-0.15,0.062-0.319,0.047-0.455-0.038C17.204,2.904,14.088,1,9,1   C7.767,1,7.093,1.685,6.999,3.035C6.972,3.421,7.132,4.334,7.546,4.778C7.658,4.899,7.761,4.951,7.849,4.976z"/>
	<linearGradient id="SVGID_1_" gradientUnits="userSpaceOnUse" x1="4.1585" y1="6.2374" x2="23.3322" y2="15.1782">
		<stop offset="0" style="stop-color:#FFFFFF;stop-opacity:0.2"/>
		<stop offset="1" style="stop-color:#FFFFFF;stop-opacity:0"/>
	</linearGradient>
	<path style="fill:url(#SVGID_1_);" d="M15,24c-1.867,0-3.498-0.808-4.474-2.215c-0.767-1.106-2.334-3.956-3.07-5.314   C6.949,17.133,6.079,18,5,18c-2,0-2-2.276-2-3.5C3,11.809,5.068,10,7,10c1.16,0,1.978,0.241,2.405,0.409   c0.813-0.744,3.475-3.177,4.892-4.479c-1.083-0.128-1.916-0.406-2.569-0.625C11.218,5.135,10.815,5,10.5,5   c-0.323,0-0.534,0.139-0.878,0.384C9.237,5.658,8.759,5.999,8,5.999c-0.447,0-0.857-0.187-1.186-0.538   C6.181,4.78,5.957,3.592,6.001,2.965C6.133,1.081,7.226,0,9,0c4.168,0,7.048,1.188,8.204,1.769C17.47,1.056,18.027,0,19,0   c0.923,0,2,0.786,2,3c0,1.606-1.237,2.468-2.232,3.159c-0.304,0.211-0.592,0.412-0.828,0.617c-0.516,1.369-4.268,4.699-6.781,6.823   C12.16,15.098,14.512,18,16.5,18c0.968,0,1.418-0.249,1.895-0.513C18.826,17.248,19.273,17,20,17c1,0,1,1.445,1,2.5   C21,22.469,16.794,24,15,24z"/>
</g>
<g>
</g>
<g>
</g>
<g>
</g>
<g>
</g>
<g>
</g>
<g>
</g>
<g>
</g>
<g>
</g>
<g>
</g>
<g>
</g>
<g>
</g>
<g>
</g>
<g>
</g>
<g>
</g>
<g>
</g>

	<metadata>
		<rdf:RDF xmlns:rdf="http://www.w3.org/1999/02/22-rdf-syntax-ns#" xmlns:rdfs="http://www.w3.org/2000/01/rdf-schema#" xmlns:dc="http://purl.org/dc/elements/1.1/">
			<rdf:Description about="https://iconscout.com/legal#licenses" dc:title="social; media; social media; logo; zootool" dc:description="social; media; social media; logo; zootool" dc:publisher="Iconscout" dc:date="2017-03-22" dc:format="image/svg+xml" dc:language="en">
				<dc:creator>
					<rdf:Bag>
						<rdf:li>Alpár - Etele Méder</rdf:li>
					</rdf:Bag>
				</dc:creator>
			</rdf:Description>
		</rdf:RDF>
    </metadata></svg>
