<svg xmlns="http://www.w3.org/2000/svg" viewBox="0 0 48 48"><g data-name="14-Android"><g data-name="&lt;Group&gt;"><circle cx="28" cy="9" r="2" fill="#f1f2f2"/><circle cx="20" cy="9" r="2" fill="#f1f2f2"/><path fill="#35dc86" d="M38 34v3a2.006 2.006 0 0 1-2 2H33v6a2.006 2.006 0 0 1-2 2H29a2.006 2.006 0 0 1-2-2V39H21v6a2.006 2.006 0 0 1-2 2H17a2.006 2.006 0 0 1-2-2V39H12a2.006 2.006 0 0 1-2-2V34H7a.979.979 0 0 1-1-1V23a1.959 1.959 0 0 1 2-2H40a1.959 1.959 0 0 1 2 2V33a.979.979 0 0 1-1 1zM38 15v2H10V15a14 14 0 0 1 28 0zM30 9a2 2 0 1 0-2 2A2.006 2.006 0 0 0 30 9zM22 9a2 2 0 1 0-2 2A2.006 2.006 0 0 0 22 9z"/><path fill="#474c54" d="M10 18H38a1 1 0 0 0 1-1V15a14.921 14.921 0 0 0-3.725-9.861l3.432-3.432A1 1 0 0 0 37.293.293L33.861 3.725a14.914 14.914 0 0 0-19.722 0L10.707.293A1 1 0 0 0 9.293 1.707l3.432 3.432A14.921 14.921 0 0 0 9 15v2A1 1 0 0 0 10 18zm1-3a13 13 0 0 1 26 0v1H11zM40 20H8a2.916 2.916 0 0 0-3 3V33a1.959 1.959 0 0 0 2 2H9v2a3 3 0 0 0 3 3h2v5a3 3 0 0 0 3 3h2a3 3 0 0 0 3-3V43a1 1 0 0 0-2 0v2a1 1 0 0 1-1 1H17a1 1 0 0 1-1-1V39a1 1 0 0 0-1-1H12a1 1 0 0 1-1-1V28a1 1 0 0 0-2 0v5H7V23a.915.915 0 0 1 1-1H39.988A.919.919 0 0 1 41 23V33H39V28a1 1 0 0 0-2 0v9a1 1 0 0 1-1 1H33a1 1 0 0 0-1 1v6a1 1 0 0 1-1 1H29a1 1 0 0 1-1-1V39a1 1 0 0 0-1-1H19a1 1 0 0 0 0 2h7v5a3 3 0 0 0 3 3h2a3 3 0 0 0 3-3V40h2a3 3 0 0 0 3-3V35h2a1.959 1.959 0 0 0 2-2V23A2.916 2.916 0 0 0 40 20z"/><path fill="#474c54" d="M20 6a3 3 0 1 0 3 3A3 3 0 0 0 20 6zm0 4a1 1 0 1 1 1-1A1 1 0 0 1 20 10zM28 6a3 3 0 1 0 3 3A3 3 0 0 0 28 6zm0 4a1 1 0 1 1 1-1A1 1 0 0 1 28 10z"/></g></g></svg>