<svg xmlns="http://www.w3.org/2000/svg" viewBox="0 0 48 48"><g data-name="18-Blogger"><g data-name="&lt;Group&gt;"><path fill="#d0d7df" d="M47,7V41a6,6,0,0,1-6,6H7a6,6,0,0,1-6-6V7A6,6,0,0,1,7,1H41A6,6,0,0,1,47,7ZM39,34V22s0-4-4-4H32V14a6,6,0,0,0-6-6H15a6,6,0,0,0-6,6V34a6,6,0,0,0,6,6H33A6,6,0,0,0,39,34Z"/><rect width="18" height="6" x="15" y="26" fill="#f1f2f2" rx="2" ry="2"/><rect width="11" height="5" x="15" y="13" fill="#f1f2f2" rx="2" ry="2"/><path fill="#fc934e" d="M39,22V34a6,6,0,0,1-6,6H15a6,6,0,0,1-6-6V14a6,6,0,0,1,6-6H26a6,6,0,0,1,6,6v4h3C39,18,39,22,39,22Zm-6,8V28a2.006,2.006,0,0,0-2-2H17a2.006,2.006,0,0,0-2,2v2a2.006,2.006,0,0,0,2,2H31A2.006,2.006,0,0,0,33,30ZM26,16V15a2.006,2.006,0,0,0-2-2H17a2.006,2.006,0,0,0-2,2v1a2.006,2.006,0,0,0,2,2h7A2.006,2.006,0,0,0,26,16Z"/><path fill="#474c54" d="M41,0H7A7.008,7.008,0,0,0,0,7V41a7.008,7.008,0,0,0,7,7H41a7.008,7.008,0,0,0,7-7V7A7.008,7.008,0,0,0,41,0Zm5,41a5.006,5.006,0,0,1-5,5H7a5.006,5.006,0,0,1-5-5V7A5.006,5.006,0,0,1,7,2H41a5.006,5.006,0,0,1,5,5Z"/><path fill="#474c54" d="M35,17H33V14a7.008,7.008,0,0,0-7-7H15a7.008,7.008,0,0,0-7,7V34a7.008,7.008,0,0,0,7,7H33a7.008,7.008,0,0,0,7-7V22A4.821,4.821,0,0,0,35,17ZM33,39H15a5.006,5.006,0,0,1-5-5V14a5.006,5.006,0,0,1,5-5H26a5.006,5.006,0,0,1,5,5v4a1,1,0,0,0,1,1h3a2.853,2.853,0,0,1,3,3V34A5.006,5.006,0,0,1,33,39Z"/><path fill="#474c54" d="M17 19h7a3 3 0 0 0 3-3V15a3 3 0 0 0-3-3H17a3 3 0 0 0-3 3v1A3 3 0 0 0 17 19zm-1-4a1 1 0 0 1 1-1h7a1 1 0 0 1 1 1v1a1 1 0 0 1-1 1H17a1 1 0 0 1-1-1zM31 25H17a3 3 0 0 0-3 3v2a3 3 0 0 0 3 3H31a3 3 0 0 0 3-3V28A3 3 0 0 0 31 25zm1 5a1 1 0 0 1-1 1H17a1 1 0 0 1-1-1V28a1 1 0 0 1 1-1H31a1 1 0 0 1 1 1z"/></g></g></svg>