<svg xmlns="http://www.w3.org/2000/svg" viewBox="0 0 48 48"><g data-name="26-Codewall"><g data-name="&lt;Group&gt;"><circle cx="40" cy="40" r="6" fill="#49aaee"/><circle cx="24" cy="24" r="6" fill="#49aaee"/><circle cx="40" cy="24" r="6" fill="#49aaee"/><circle cx="40" cy="8" r="6" fill="#49aaee"/><circle cx="24" cy="8" r="6" fill="#49aaee"/><circle cx="8" cy="8" r="6" fill="#49aaee"/><path fill="#474c54" d="M40 15a7 7 0 1 1 7-7A7.008 7.008 0 0 1 40 15zM40 3a5 5 0 1 0 5 5A5.006 5.006 0 0 0 40 3zM24 15a7 7 0 1 1 7-7A7.008 7.008 0 0 1 24 15zM24 3a5 5 0 1 0 5 5A5.006 5.006 0 0 0 24 3zM8 15a7 7 0 1 1 7-7A7.008 7.008 0 0 1 8 15zM8 3a5 5 0 1 0 5 5A5.006 5.006 0 0 0 8 3zM40 31a7 7 0 1 1 7-7A7.008 7.008 0 0 1 40 31zm0-12a5 5 0 1 0 5 5A5.006 5.006 0 0 0 40 19zM40 47a7 7 0 1 1 7-7A7.008 7.008 0 0 1 40 47zm0-12a5 5 0 1 0 5 5A5.006 5.006 0 0 0 40 35zM24 31a7 7 0 1 1 7-7A7.008 7.008 0 0 1 24 31zm0-12a5 5 0 1 0 5 5A5.006 5.006 0 0 0 24 19z"/></g></g></svg>