<svg xmlns="http://www.w3.org/2000/svg" viewBox="0 0 48 48"><g data-name="19-Digg"><g data-name="&lt;Group&gt;"><circle cx="24" cy="24" r="23" fill="#fc934e"/><path fill="#474c54" d="M24,0A24,24,0,1,0,48,24,24.027,24.027,0,0,0,24,0Zm0,46A22,22,0,1,1,46,24,22.025,22.025,0,0,1,24,46Z"/><path fill="#474c54" d="M16 13a1 1 0 0 0-1 1V26a1 1 0 0 1-1 1H10a1 1 0 0 1-1-1V22a1 1 0 0 1 1-1h2a1 1 0 0 0 0-2H10a3 3 0 0 0-3 3v4a3 3 0 0 0 3 3h4a3 3 0 0 0 3-3V14A1 1 0 0 0 16 13zM20 19a1 1 0 0 0-1 1v8a1 1 0 0 0 2 0V20A1 1 0 0 0 20 19zM20 14a1 1 0 0 0-1 1v1a1 1 0 0 0 2 0V15A1 1 0 0 0 20 14zM28 19H26a3 3 0 0 0-3 3v4a3 3 0 0 0 3 3 1 1 0 0 0 0-2 1 1 0 0 1-1-1V22a1 1 0 0 1 1-1h2a1 1 0 0 1 1 1v9.988A.918.918 0 0 1 28 33H26a1 1 0 0 0 0 2h2a2.916 2.916 0 0 0 3-3V22A3 3 0 0 0 28 19zM38 19H36a3 3 0 0 0-3 3v4a3 3 0 0 0 3 3 1 1 0 0 0 0-2 1 1 0 0 1-1-1V22a1 1 0 0 1 1-1h2a1 1 0 0 1 1 1v9.988A.918.918 0 0 1 38 33H36a1 1 0 0 0 0 2h2a2.916 2.916 0 0 0 3-3V22A3 3 0 0 0 38 19z"/></g></g></svg>