<svg xmlns="http://www.w3.org/2000/svg" viewBox="0 0 48 48"><g data-name="6-Dribbble"><circle cx="24" cy="24" r="23" fill="#fa5c75"/><path fill="#474c54" d="M45.7,13.757A23.994,23.994,0,1,0,46.586,32.1,24.021,24.021,0,0,0,45.7,13.757ZM14.611,4.11a21.861,21.861,0,0,1,9.354-2.1,22.1,22.1,0,0,1,7.515,1.321,21.746,21.746,0,0,1-8.617,10.989A32.058,32.058,0,0,0,11.858,5.687,22.234,22.234,0,0,1,14.611,4.11ZM4.11,33.389A21.945,21.945,0,0,1,10,7.062a28.841,28.841,0,0,1,11.132,8.281c-.324.173-.636.361-.971.519A21.905,21.905,0,0,1,7.405,17.71,1,1,0,1,0,7.1,19.687a23.99,23.99,0,0,0,3.687.286,23.91,23.91,0,0,0,10.226-2.3c.474-.224.922-.485,1.377-.736a34.63,34.63,0,0,1,5.774,12.9c-.393.161-.787.315-1.174.5A23.778,23.778,0,0,0,14.672,43.907,21.894,21.894,0,0,1,4.11,33.389ZM16.519,44.671A21.8,21.8,0,0,1,27.842,32.139c.24-.113.485-.2.728-.308A52.381,52.381,0,0,1,29.093,45.4,21.975,21.975,0,0,1,16.519,44.671ZM44.7,31.425A21.854,21.854,0,0,1,33.389,43.89a22.112,22.112,0,0,1-2.249.911,53.543,53.543,0,0,0-.668-13.688A21.731,21.731,0,0,1,42,30.555a1,1,0,1,0,.436-1.952,23.722,23.722,0,0,0-12.38.542A36.462,36.462,0,0,0,24.091,15.9,23.718,23.718,0,0,0,33.323,4.1,21.953,21.953,0,0,1,44.7,31.425Z"/></g></svg>