<svg xmlns="http://www.w3.org/2000/svg" viewBox="0 0 48 48"><g data-name="12-Flickr"><g data-name="&lt;Group&gt;"><circle cx="16" cy="24" r="5" fill="#fa5c75"/><circle cx="32" cy="24" r="5" fill="#49aaee"/><path fill="#f1f2f2" d="M24,1A23,23,0,1,1,1,24,23,23,0,0,1,24,1ZM37,24a5,5,0,1,0-5,5A5,5,0,0,0,37,24ZM21,24a5,5,0,1,0-5,5A5,5,0,0,0,21,24Z"/><path fill="#474c54" d="M24,48A24,24,0,1,1,48,24,24.027,24.027,0,0,1,24,48ZM24,2A22,22,0,1,0,46,24,22.025,22.025,0,0,0,24,2Z"/><path fill="#474c54" d="M16 30a6 6 0 1 1 6-6A6.007 6.007 0 0 1 16 30zm0-10a4 4 0 1 0 4 4A4 4 0 0 0 16 20zM32 30a6 6 0 1 1 6-6A6.007 6.007 0 0 1 32 30zm0-10a4 4 0 1 0 4 4A4 4 0 0 0 32 20z"/></g></g></svg>