<svg xmlns="http://www.w3.org/2000/svg" viewBox="0 0 48 48"><g data-name="27-Folder-Security"><g data-name="&lt;Group&gt;"><path fill="#fa5c75" d="M44,24v5a4,4,0,0,1-4,4H20L6,47V5a4,4,0,0,1,4-4H40a4,4,0,0,1,4,4v5a2.938,2.938,0,0,1-3,3H25a1.959,1.959,0,0,0-2,2v4a1.959,1.959,0,0,0,2,2H40C44,21,44,24,44,24Z"/><path fill="#474c54" d="M6,48a1,1,0,0,1-1-1V5a5.006,5.006,0,0,1,5-5H40a5.006,5.006,0,0,1,5,5v5a3.888,3.888,0,0,1-4,4H25a.918.918,0,0,0-1,1.012V19a.918.918,0,0,0,1.012,1H40c3.955,0,5,2.617,5,4v5a5.006,5.006,0,0,1-5,5H20.414L6.707,47.707A1,1,0,0,1,6,48ZM10,2A3,3,0,0,0,7,5V44.586L19.293,32.293A1,1,0,0,1,20,32H40a3,3,0,0,0,3-3V24c-.01-.322-.2-2-3-2H25a2.916,2.916,0,0,1-3-3V15a2.916,2.916,0,0,1,3-3H41a1.883,1.883,0,0,0,2-2V5a3,3,0,0,0-3-3Z"/></g></g></svg>