<svg xmlns="http://www.w3.org/2000/svg" viewBox="0 0 48 48"><g data-name="17-Google chrome"><g data-name="&lt;Group&gt;"><path fill="#f1f2f2" d="M32,24a8,8,0,0,1-15.94.99A8.1,8.1,0,0,1,16,24a8,8,0,0,1,16,0Z"/><path fill="#fed049" d="M45.49,15.81A22.734,22.734,0,0,1,47,24,23,23,0,0,1,24,47l7-19-.06-.03A7.992,7.992,0,0,0,24,16H45Z"/><path fill="#fa5c66" d="M16,24a8.1,8.1,0,0,0,.06.99L16,25,11.01,5.03A22.982,22.982,0,0,1,45.49,15.81L45,16H24A8,8,0,0,0,16,24Z"/><path fill="#35dc86" d="M24,32a7.974,7.974,0,0,0,6.94-4.03L31,28,24,47A22.993,22.993,0,0,1,11.01,5.03L16,25l.06-.01A8,8,0,0,0,24,32Z"/><circle cx="24" cy="24" r="3" fill="#d0d7df"/><path fill="#474c54" d="M46.424,15.452A24.109,24.109,0,0,0,24,0,24,24,0,1,0,48,24,23.667,23.667,0,0,0,46.424,15.452ZM24,46A22,22,0,1,1,44.556,16.165l0,0A21.681,21.681,0,0,1,46,24,22.025,22.025,0,0,1,24,46Z"/><path fill="#474c54" d="M41,15H24a9,9,0,0,0-8.162,5.231L12.97,8.757a1,1,0,1,0-1.939.485l4,16a.975.975,0,0,0,.1.222,8.986,8.986,0,0,0,13.422,6.3L24.512,42.724a1,1,0,1,0,1.877.691l5.55-15.07a.958.958,0,0,0,.033-.211A8.925,8.925,0,0,0,29.644,17H41a1,1,0,0,0,0-2ZM31,24a6.92,6.92,0,0,1-.929,3.476A6.994,6.994,0,1,1,31,24Z"/><path fill="#474c54" d="M24,28a1,1,0,0,0,0-2,2,2,0,1,1,2-2,1,1,0,0,0,2,0,4,4,0,1,0-4,4Z"/></g></g></svg>