<svg xmlns="http://www.w3.org/2000/svg" viewBox="0 0 48 48"><g data-name="2-Ig"><rect width="46" height="46" x="1" y="1" fill="#a263e5" rx="8" ry="8"/><path fill="#f1f2f2" d="M47,9a8,8,0,0,0-8-8H9A8,8,0,0,0,1,9v6H47Z"/><g data-name="&lt;Group&gt;"><circle cx="35" cy="8" r="2" fill="#a4b0c0"/><path fill="#a4b0c0" d="M24,15A11,11,0,1,1,13,26,10.994,10.994,0,0,1,24,15Zm7,11a7,7,0,1,0-7,7A6.995,6.995,0,0,0,31,26Z"/><circle cx="24" cy="26" r="7" fill="#f1f2f2"/><path fill="#474c54" d="M39 0H9A9.01 9.01 0 0 0 0 9v6a1 1 0 0 0 1 1H11a1 1 0 0 0 0-2H2V9A7.008 7.008 0 0 1 9 2H39a7.008 7.008 0 0 1 7 7v5H37a1 1 0 0 0 0 2H47a1 1 0 0 0 1-1V9A9.01 9.01 0 0 0 39 0zM47 18a1 1 0 0 0-1 1V39a7.008 7.008 0 0 1-7 7H9a7.008 7.008 0 0 1-7-7V19a1 1 0 0 0-2 0V39a9.01 9.01 0 0 0 9 9H39a9.01 9.01 0 0 0 9-9V19A1 1 0 0 0 47 18z"/><path fill="#474c54" d="M12,26A12,12,0,1,0,24,14,12.014,12.014,0,0,0,12,26Zm22,0A10,10,0,1,1,24,16,10.011,10.011,0,0,1,34,26Z"/><path fill="#474c54" d="M16 26a8 8 0 1 0 8-8A8.009 8.009 0 0 0 16 26zm14 0a6 6 0 1 1-6-6A6.007 6.007 0 0 1 30 26zM35 11a3 3 0 1 0-3-3A3 3 0 0 0 35 11zm0-4a1 1 0 1 1-1 1A1 1 0 0 1 35 7z"/></g></g></svg>