<svg xmlns="http://www.w3.org/2000/svg" viewBox="0 0 48 48"><g data-name="20-Ig"><rect width="46" height="46" x="1" y="1" fill="#a263e5" rx="8" ry="8"/><g data-name="&lt;Group&gt;"><circle cx="35" cy="8" r="2" fill="#a4b0c0"/><circle cx="24" cy="26" r="7" fill="#f1f2f2"/><path fill="#d0d7df" d="M24,15A11,11,0,1,1,13,26,10.994,10.994,0,0,1,24,15Zm7,11a7,7,0,1,0-7,7A6.995,6.995,0,0,0,31,26Z"/><path fill="#474c54" d="M39,0H9A9.01,9.01,0,0,0,0,9V39a9.01,9.01,0,0,0,9,9H39a9.01,9.01,0,0,0,9-9V9A9.01,9.01,0,0,0,39,0Zm7,39a7.008,7.008,0,0,1-7,7H9a7.008,7.008,0,0,1-7-7V9A7.008,7.008,0,0,1,9,2H39a7.008,7.008,0,0,1,7,7Z"/><path fill="#474c54" d="M24,14A12,12,0,1,0,36,26,12.013,12.013,0,0,0,24,14Zm0,22A10,10,0,1,1,34,26,10.011,10.011,0,0,1,24,36Z"/><path fill="#474c54" d="M24 18a8 8 0 1 0 8 8A8.009 8.009 0 0 0 24 18zm0 14a6 6 0 1 1 6-6A6.007 6.007 0 0 1 24 32zM35 5a3 3 0 1 0 3 3A3 3 0 0 0 35 5zm0 4a1 1 0 1 1 1-1A1 1 0 0 1 35 9z"/></g></g></svg>