<svg xmlns="http://www.w3.org/2000/svg" viewBox="0 0 48 48"><g data-name="23-Paypal"><g data-name="&lt;Group&gt;"><path fill="#4c7ee7" d="M35,11v6A10,10,0,0,1,25,27H15.93L19,6H33.66A9.966,9.966,0,0,1,35,11Z"/><path fill="#49aaee" d="M47,16v6A10,10,0,0,1,37,32H23L21,47H13l2.2-15.03L15.93,27H25A10,10,0,0,0,35,17V11a9.966,9.966,0,0,0-1.34-5H37A9.99,9.99,0,0,1,47,16Z"/><path fill="#49aaee" d="M33.66,6H19L15.93,27H12L9,47H1L7,1H25A9.993,9.993,0,0,1,33.66,6Z"/><path fill="#474c54" d="M9,48H1a1,1,0,0,1-.992-1.129l6-46A1,1,0,0,1,7,0H25A11,11,0,0,1,36,11v6A11.012,11.012,0,0,1,25,28H12.861L9.989,47.148A1,1,0,0,1,9,48ZM2.139,46h6l2.873-19.148A1,1,0,0,1,12,26H25a9.01,9.01,0,0,0,9-9V11a9,9,0,0,0-9-9H7.878Z"/><path fill="#474c54" d="M21 48H13a1 1 0 0 1-.989-1.145l2.2-15.03a1 1 0 1 1 1.979.289L14.157 46h5.967l1.884-14.132A1 1 0 0 1 23 31H37a9.01 9.01 0 0 0 9-9V16a9.015 9.015 0 0 0-5.383-8.245 1 1 0 0 1 .806-1.83A11.015 11.015 0 0 1 48 16v6A11.012 11.012 0 0 1 37 33H23.875L21.991 47.132A1 1 0 0 1 21 48zM16.654 23.054a.984.984 0 0 1-.146-.011 1 1 0 0 1-.845-1.134L18.011 5.855A1 1 0 0 1 19 5h9a1 1 0 0 1 0 2H19.864L17.642 22.2A1 1 0 0 1 16.654 23.054z"/></g></g></svg>