<svg xmlns="http://www.w3.org/2000/svg" viewBox="0 0 48 48"><g data-name="16-Reddit"><circle cx="42" cy="5" r="4" fill="#f1f2f2"/><path fill="#f1f2f2" d="M45.16,24.72A11.96,11.96,0,0,1,47,31c0,8.84-10.3,16-23,16S1,39.84,1,31a11.96,11.96,0,0,1,1.84-6.28,6.994,6.994,0,1,1,11.25-8.16A31.43,31.43,0,0,1,24,15a33.657,33.657,0,0,1,4.06.25,29.9,29.9,0,0,1,5.85,1.31,6.995,6.995,0,1,1,11.25,8.16ZM36,26a4,4,0,1,0-4,4A4,4,0,0,0,36,26ZM20,26a4,4,0,1,0-4,4A4,4,0,0,0,20,26Z"/><circle cx="32" cy="26" r="4" fill="#fc934e"/><circle cx="16" cy="26" r="4" fill="#fc934e"/><path fill="#474c54" d="M21 26a5 5 0 1 0-5 5A5.006 5.006 0 0 0 21 26zm-8 0a3 3 0 1 1 3 3A3 3 0 0 1 13 26zM37 26a5 5 0 1 0-5 5A5.006 5.006 0 0 0 37 26zm-5 3a3 3 0 1 1 3-3A3 3 0 0 1 32 29zM24 41c7.73 0 8.969-5.746 8.98-5.8a1 1 0 0 0-.777-1.171 1.008 1.008 0 0 0-1.183.771c-.037.171-.98 4.2-7.021 4.2s-6.98-4.019-7.021-4.2a1 1 0 0 0-1.96.4C15.031 35.254 16.27 41 24 41zM4 20a1 1 0 0 0 2 0 2 2 0 0 1 2-2 1 1 0 0 0 0-2A4 4 0 0 0 4 20zM42 20a1 1 0 0 0 2 0 4 4 0 0 0-4-4 1 1 0 0 0 0 2A2 2 0 0 1 42 20z"/><path fill="#474c54" d="M48,20a7.995,7.995,0,0,0-14.519-4.626,31.127,31.127,0,0,0-5.3-1.116,1,1,0,1,0-.24,1.985,28.959,28.959,0,0,1,5.654,1.266,1,1,0,0,0,1.187-.456,5.995,5.995,0,1,1,9.641,6.994,1,1,0,0,0-.114,1.2A10.932,10.932,0,0,1,46,31c0,8.271-9.869,15-22,15S2,39.271,2,31a10.932,10.932,0,0,1,1.693-5.758,1,1,0,0,0-.114-1.2,5.994,5.994,0,1,1,9.641-6.994,1,1,0,0,0,1.187.456A30.284,30.284,0,0,1,24,16v0h0A1,1,0,0,0,25,15.1c.038-.362,1.062-8.655,12.111-9.082a5,5,0,1,0-.007-2c-10.665.384-13.323,7.5-13.927,10.007a32.3,32.3,0,0,0-8.654,1.344A7.994,7.994,0,1,0,1.625,24.822,12.76,12.76,0,0,0,0,31c0,9.374,10.767,17,24,17s24-7.626,24-17a12.76,12.76,0,0,0-1.625-6.178A7.977,7.977,0,0,0,48,20ZM42,2a3,3,0,1,1-3,3A3,3,0,0,1,42,2Z"/></g></svg>