<svg xmlns="http://www.w3.org/2000/svg" viewBox="0 0 48 48"><g data-name="10-Safari"><circle cx="24" cy="24" r="23" fill="#d0d7df"/><circle cx="24" cy="24" r="18" fill="#49aaee"/><g data-name="&lt;Group&gt;"><polygon fill="#fa5c66" points="30.36 17.64 26.12 26.12 21.88 21.88 30.36 17.64"/><polygon fill="#d0d7df" points="26.12 26.12 17.64 30.36 21.88 21.88 26.12 26.12"/><path fill="#474c54" d="M24,0A24,24,0,1,0,48,24,24.027,24.027,0,0,0,24,0Zm0,46A22,22,0,1,1,46,24,22.025,22.025,0,0,1,24,46Z"/><path fill="#474c54" d="M17.64,31.36a1,1,0,0,0,.447-.105l8.48-4.24a1,1,0,0,0,.447-.447l4.24-8.48a1,1,0,0,0-1.342-1.342l-8.48,4.24a1,1,0,0,0-.447.447l-4.24,8.48a1,1,0,0,0,.895,1.447Zm8.207-6.928-2.278-2.278,4.556-2.278Zm-3.692-.864,2.278,2.278-4.556,2.278Z"/><path fill="#474c54" d="M24,5a1,1,0,0,0,0,2A17,17,0,1,1,7,24a1,1,0,0,0-2,0A19,19,0,1,0,24,5Z"/></g></g></svg>