<svg xmlns="http://www.w3.org/2000/svg" viewBox="0 0 48 48"><g data-name="29-Slack"><circle cx="24" cy="24" r="23" fill="#f1f2f2"/><g data-name="&lt;Group&gt;"><rect width="6.001" height="6.001" x="27.744" y="24.934" fill="#fa5c66" transform="rotate(-19.975 30.744 27.934)"/><rect width="6.001" height="6.001" x="23.654" y="13.654" fill="#49aaee" transform="rotate(-19.975 26.656 16.655)"/><rect width="6.001" height="6.001" x="17.404" y="28.684" fill="#fa5c66" transform="rotate(-19.975 20.406 31.684)"/><rect width="6.001" height="6.001" x="13.314" y="17.404" fill="#49aaee" transform="rotate(-19.975 16.315 20.405)"/><polygon fill="#fed049" points="30.5 18.45 32.54 24.09 26.9 26.14 24.86 20.5 30.5 18.45"/><polygon fill="#35dc86" points="20.16 22.2 22.2 27.84 16.56 29.89 14.52 24.25 20.16 22.2"/><path fill="#35dc86" d="M25.27 36.3a3 3 0 1 1-5.64 2.05l-1.02-2.82 5.64-2.05zM17.09 13.74l1.02 2.82-5.64 2.05-1.02-2.82a3 3 0 0 1 5.64-2.05z"/><path fill="#fa5c66" d="M40.15,24.52a3.012,3.012,0,0,1-1.8,3.85l-3.76,1.36-2.05-5.64,3.76-1.36A3.007,3.007,0,0,1,40.15,24.52Z"/><polygon fill="#fa5c66" points="26.9 26.14 28.95 31.78 24.25 33.48 22.2 27.84 26.9 26.14"/><path fill="#fa5c66" d="M16.56,29.89l2.05,5.64-2.82,1.02a3,3,0,0,1-2.05-5.64Z"/><polygon fill="#49aaee" points="22.81 14.86 24.86 20.5 20.16 22.2 18.11 16.56 22.81 14.86"/><path fill="#49aaee" d="M36.05 13.24a3.007 3.007 0 0 1-1.79 3.85L30.5 18.45l-2.05-5.64 3.76-1.36A2.992 2.992 0 0 1 36.05 13.24zM12.47 18.61l2.05 5.64L11.7 25.27a3 3 0 1 1-2.05-5.64z"/><path fill="#fed049" d="M35.61 32.55a3 3 0 0 1-5.64 2.05l-1.02-2.82 5.64-2.05zM27.43 9.99l1.02 2.82-5.64 2.05-1.02-2.82a3 3 0 1 1 5.64-2.05z"/><path fill="#474c54" d="M24,0A24,24,0,1,0,48,24,24.027,24.027,0,0,0,24,0Zm0,46A22,22,0,1,1,46,24,22.025,22.025,0,0,1,24,46Z"/><path fill="#474c54" d="M41.089,24.175A4.011,4.011,0,0,0,35.96,21.79l-2.817,1.021L31.78,19.053,34.6,18.028A4.009,4.009,0,0,0,36.99,12.9a3.991,3.991,0,0,0-5.12-2.391l-2.818,1.022-.683-1.884a4,4,0,1,0-7.52,2.732l.681,1.879-2.819,1.022L18.028,13.4A4.008,4.008,0,0,0,12.9,11.01a3.992,3.992,0,0,0-2.391,5.12l.681,1.878-1.883.683a4,4,0,0,0,1.369,7.762,3.969,3.969,0,0,0,1.363-.242l1.878-.681,1.363,3.759-1.886.684A4.01,4.01,0,0,0,11.01,35.1a3.982,3.982,0,0,0,5.12,2.391l1.878-.681.683,1.883a4,4,0,1,0,7.52-2.732l-.681-1.878,2.819-1.022.682,1.882a4.011,4.011,0,0,0,3.764,2.631,4,4,0,0,0,3.757-5.364l-.68-1.876,2.822-1.023A4.025,4.025,0,0,0,41.089,24.175Zm-9.827-.682L27.5,24.857,26.138,21.1l3.76-1.363Zm.682,1.88,1.363,3.759L29.546,30.5l-1.363-3.759Zm-6.323.165L22.8,26.561,21.439,22.8l2.819-1.022Zm2.232-11.445,1.363,3.758-3.76,1.364-1.363-3.759Zm4.7-1.7a2,2,0,0,1,1.366,3.76L31.1,17.171l-1.363-3.759ZM22.729,11.7a2,2,0,1,1,3.76-1.366l.682,1.883-3.76,1.363Zm-.517,4.442L23.576,19.9,20.757,20.92l-1.363-3.76Zm-4.7,1.7,1.364,3.76-3.76,1.364-1.363-3.76Zm-5.123-2.4a2,2,0,0,1,1.876-2.679,2.01,2.01,0,0,1,1.884,1.313l.681,1.882-3.76,1.363ZM11.357,24.33A2,2,0,1,1,9.99,20.57l1.882-.682,1.364,3.761Zm4.441.517,3.76-1.363,1.363,3.759-3.76,1.363Zm5.8,4.276,1.364,3.76-3.761,1.364-1.363-3.76ZM15.446,35.61a1.99,1.99,0,0,1-2.557-1.194,2.007,2.007,0,0,1,1.191-2.565l1.881-.682,1.363,3.76Zm8.884,1.032a2,2,0,1,1-3.76,1.367l-.682-1.882,3.761-1.364Zm.517-4.442-1.363-3.76L26.3,27.419l1.363,3.76Zm9.824.692a1.992,1.992,0,0,1-1.193,2.558,2,2,0,0,1-2.567-1.19l-.682-1.881,3.762-1.364ZM38.01,27.43l-2.822,1.021-1.363-3.759,2.818-1.022a1.983,1.983,0,0,1,.683-.121,2,2,0,0,1,.685,3.881Z"/></g></g></svg>