<svg xmlns="http://www.w3.org/2000/svg" viewBox="0 0 48 48"><g data-name="15-Soundcloud"><g data-name="&lt;Group&gt;"><path fill="#fc934e" d="M38.9,27.06A7,7,0,0,1,38,41H22V8A12.994,12.994,0,0,1,34.97,20.34,6,6,0,0,1,39,26,6.144,6.144,0,0,1,38.9,27.06Z"/><path fill="#474c54" d="M39.995 26.255c0-.086.005-.171.005-.255a7 7 0 0 0-4.079-6.355A13.985 13.985 0 0 0 22 7a1 1 0 0 0 0 2A11.988 11.988 0 0 1 33.972 20.391a1 1 0 0 0 .671.894A4.993 4.993 0 0 1 38 26a5.112 5.112 0 0 1-.085.886 1 1 0 0 0 .855 1.166A6 6 0 0 1 38 40H23V12a1 1 0 0 0-2 0V41a1 1 0 0 0 1 1H38a8 8 0 0 0 1.995-15.745zM17 11a1 1 0 0 0-1 1V39a1 1 0 0 0 2 0V12A1 1 0 0 0 17 11zM12 6a1 1 0 0 0-1 1V41a1 1 0 0 0 2 0V7A1 1 0 0 0 12 6zM8 15a1 1 0 0 0-1 1V38a1 1 0 0 0 2 0V16A1 1 0 0 0 8 15zM3 12a1 1 0 0 0-1 1V41a1 1 0 0 0 2 0V13A1 1 0 0 0 3 12z"/></g></g></svg>