<svg xmlns="http://www.w3.org/2000/svg" viewBox="0 0 48 48"><g data-name="25-Spotify"><g data-name="&lt;Group&gt;"><circle cx="24" cy="24" r="23" fill="#35dc86"/><path fill="#474c54" d="M24,48A24,24,0,1,1,48,24,24.027,24.027,0,0,1,24,48ZM24,2A22,22,0,1,0,46,24,22.025,22.025,0,0,0,24,2Z"/><path fill="#474c54" d="M37.57,26.14a1,1,0,0,1-.93-.631,14,14,0,0,0-24.835-2.325,1,1,0,1,1-1.69-1.068A16,16,0,0,1,38.5,24.771a1,1,0,0,1-.929,1.369Z"/><path fill="#474c54" d="M14.781,30.04a.963.963,0,0,1-.182-.017,1,1,0,0,1-.8-1.164A10,10,0,0,1,32.92,26.992a1,1,0,0,1-1.859.736,8,8,0,0,0-15.3,1.492A1,1,0,0,1,14.781,30.04Z"/><path fill="#474c54" d="M27.591,32.2a.962.962,0,0,1-.139-.01,1,1,0,0,1-.853-1.128,2.976,2.976,0,0,0-.18-1.5,3,3,0,0,0-5.79,1.113,1,1,0,0,1-2,0,5,5,0,1,1,9.951.658A1,1,0,0,1,27.591,32.2Z"/></g></g></svg>