<svg xmlns="http://www.w3.org/2000/svg" viewBox="0 0 48 48"><g data-name="30-Twitter"><g data-name="&lt;Group&gt;"><path fill="#49aaee" d="M21,11H34a3,3,0,0,1,3,3v2a3,3,0,0,1-3,3H21V34s0,5,5,5h8a3,3,0,0,1,3,3v2a3,3,0,0,1-3,3H23C13,47,13,37,13,37V4a3,3,0,0,1,3-3h2a3,3,0,0,1,3,3v7Z"/><path fill="#474c54" d="M34,20a4,4,0,0,0,4-4V14a4,4,0,0,0-4-4H18a1,1,0,0,0,0,2H34a2,2,0,0,1,2,2v2a2,2,0,0,1-2,2H21a1,1,0,0,0-1,1V34a5.785,5.785,0,0,0,6,6h8a2,2,0,0,1,2,2v2a2,2,0,0,1-2,2H23c-8.859,0-9-8.635-9-9V4a2,2,0,0,1,2-2h2a2,2,0,0,1,2,2V7a1,1,0,0,0,2,0V4a4,4,0,0,0-4-4H16a4,4,0,0,0-4,4V37c0,.11.126,11,11,11H34a4,4,0,0,0,4-4V42a4,4,0,0,0-4-4H26a3.85,3.85,0,0,1-4-4V20Z"/></g></g></svg>