<svg xmlns="http://www.w3.org/2000/svg" viewBox="0 0 48 48"><g data-name="28-Twitch"><g data-name="&lt;Group&gt;"><rect width="6" height="11" x="27" y="15" fill="#d0d7df" rx="1" ry="1"/><rect width="6" height="11" x="15" y="15" fill="#d0d7df" rx="1" ry="1"/><path fill="#f1f2f2" d="M41,9V27l-5,5H27l-5,5V32H7V12l3-3ZM33,25V16a1,1,0,0,0-1-1H28a1,1,0,0,0-1,1v9a1,1,0,0,0,1,1h4A1,1,0,0,0,33,25ZM21,25V16a1,1,0,0,0-1-1H16a1,1,0,0,0-1,1v9a1,1,0,0,0,1,1h4A1,1,0,0,0,21,25Z"/><path fill="#a263e5" d="M47,3V28L36,39H28l-5,6H17V39H1V8L6,3ZM41,27V9H10L7,12V32H22v5l5-5h9Z"/><path fill="#474c54" d="M47,2H6a1,1,0,0,0-.707.293l-5,5A1,1,0,0,0,0,8V39a1,1,0,0,0,1,1H16v5a1,1,0,0,0,1,1h6a1,1,0,0,0,.769-.359L28.469,40H36a1,1,0,0,0,.707-.293l11-11A1,1,0,0,0,48,28V3A1,1,0,0,0,47,2ZM46,27.586,35.586,38H28a1,1,0,0,0-.769.359L22.531,44H18V39a1,1,0,0,0-1-1H2V8.414L6.414,4H46Z"/><path fill="#474c54" d="M6,12V32a1,1,0,0,0,1,1H21v4a1,1,0,0,0,1.707.707L27.414,33H36a1,1,0,0,0,.707-.293l5-5A1,1,0,0,0,42,27V9a1,1,0,0,0-1-1H10a1,1,0,0,0-.707.293l-3,3A1,1,0,0,0,6,12Zm2,.414L10.414,10H40V26.586L35.586,31H27a1,1,0,0,0-.707.293L23,34.586V32a1,1,0,0,0-1-1H8Z"/><path fill="#474c54" d="M22 16a2 2 0 0 0-2-2H16a2 2 0 0 0-2 2v9a2 2 0 0 0 2 2h4a2 2 0 0 0 2-2zm-2 9l-4 0V16h4zM28 27h4a2 2 0 0 0 2-2V16a2 2 0 0 0-2-2H28a2 2 0 0 0-2 2v9A2 2 0 0 0 28 27zm0-11h4v9l-4 0z"/></g></g></svg>