<svg xmlns="http://www.w3.org/2000/svg" viewBox="0 0 48 48"><g data-name="22-Yahoo"><g data-name="&lt;Group&gt;"><circle cx="32" cy="15" r="3" fill="#f1f2f2"/><circle cx="16" cy="15" r="3" fill="#f1f2f2"/><path fill="#f1f2f2" d="M35,26v3c0,.34-.02.67-.05,1H13.05c-.03-.33-.05-.66-.05-1V26Z"/><path fill="#fa5c66" d="M34.95,30a11,11,0,0,1-21.9,0Z"/><path fill="#fed049" d="M34.95,30c.03-.33.05-.66.05-1V26H13v3c0,.34.02.67.05,1a11,11,0,0,0,21.9,0ZM24,1A23,23,0,1,1,1,24,23,23,0,0,1,24,1ZM35,15a3,3,0,1,0-3,3A3,3,0,0,0,35,15ZM19,15a3,3,0,1,0-3,3A3,3,0,0,0,19,15Z"/><path fill="#474c54" d="M24,48A24,24,0,1,1,48,24,24.027,24.027,0,0,1,24,48ZM24,2A22,22,0,1,0,46,24,22.025,22.025,0,0,0,24,2Z"/><path fill="#474c54" d="M24 41A11.922 11.922 0 0 1 12.054 30.089C12.021 29.73 12 29.37 12 29V26a1 1 0 0 1 1-1H35a1 1 0 0 1 1 1v3c0 .37-.021.73-.054 1.09A11.922 11.922 0 0 1 24 41zM14 27v2c0 .31.019.609.046.91a10 10 0 0 0 19.908 0c.027-.3.046-.6.046-.911V27zM16 19a4 4 0 1 1 4-4A4 4 0 0 1 16 19zm0-6a2 2 0 1 0 2 2A2 2 0 0 0 16 13zM32 19a4 4 0 1 1 4-4A4 4 0 0 1 32 19zm0-6a2 2 0 1 0 2 2A2 2 0 0 0 32 13z"/><path fill="#474c54" d="M31,31H17a1,1,0,0,1,0-2H31a1,1,0,0,1,0,2Z"/></g></g></svg>