<svg xmlns="http://www.w3.org/2000/svg" viewBox="0 0 48 48"><g data-name="5-Youtube"><g data-name="&lt;Group&gt;"><polygon fill="#f1f2f2" points="28 22 20 26 20 18 28 22"/><path fill="#fa5c66" d="M47,7V41a6,6,0,0,1-6,6H7a6,6,0,0,1-6-6V7A6,6,0,0,1,7,1H41A6,6,0,0,1,47,7ZM20,26l8-4-8-4Z"/><path fill="#474c54" d="M41,0H7A7.008,7.008,0,0,0,0,7V41a7.008,7.008,0,0,0,7,7H41a7.008,7.008,0,0,0,7-7V7A7.008,7.008,0,0,0,41,0Zm5,41a5.006,5.006,0,0,1-5,5H7a5.006,5.006,0,0,1-5-5V7A5.006,5.006,0,0,1,7,2H41a5.006,5.006,0,0,1,5,5Z"/><path fill="#474c54" d="M30 38H14V37a1 1 0 0 0-2 0v1H6a1 1 0 0 0 0 2h6v1a1 1 0 0 0 2 0V40H30a1 1 0 0 0 0-2zM36 38H34a1 1 0 0 0 0 2h2a1 1 0 0 0 0-2zM42 38H40a1 1 0 0 0 0 2h2a1 1 0 0 0 0-2zM19.474 26.851a1 1 0 0 0 .973.044l8-4a1 1 0 0 0 0-1.789l-8-4A1 1 0 0 0 19 18v8A1 1 0 0 0 19.474 26.851zM21 19.618L25.764 22 21 24.382z"/></g></g></svg>